<svg width="685" height="434" viewBox="0 0 685 434" fill="none" xmlns="http://www.w3.org/2000/svg">
<g filter="url(#filter0_d_214_10267)">
<path d="M9.2373 352.375V391.988H68.6438H134.161V352.375H9.2373Z" fill="#F5F5F5"/>
<path d="M4 341.299V352.375H138.525V341.299H68.6439H4Z" fill="#E0E0E0" fill-opacity="0.8"/>
<path d="M71.2622 391.988H134.16V352.375H138.525V341.299H68.6436V351.35L71.2622 391.988Z" fill="#E0E0E0" fill-opacity="0.8"/>
<path d="M52.0496 358.76H26.7158V364.719H52.0496V358.76Z" fill="#E0E0E0" fill-opacity="0.8"/>
<path d="M55.9774 372.176H23.4521V384.771H55.9774V372.176Z" fill="white"/>
<path d="M28.46 301.734V341.347H87.8565H153.373V301.734H28.46Z" fill="#F5F5F5"/>
<path d="M23.2227 290.658V301.734H157.748V290.658H87.8566H23.2227Z" fill="#E0E0E0" fill-opacity="0.8"/>
<path d="M90.486 341.347H153.374V301.734H157.749V290.658H87.8574V300.709L90.486 341.347Z" fill="#E0E0E0" fill-opacity="0.8"/>
<path d="M71.2635 308.129H45.9297V314.088H71.2635V308.129Z" fill="#E0E0E0" fill-opacity="0.8"/>
<path d="M75.1913 321.547H42.666V334.142H75.1913V321.547Z" fill="white"/>
<path d="M105.275 0H12.7881V130.737H105.275V0Z" fill="#E0E0E0" fill-opacity="0.8"/>
<path d="M100.644 0H8.15723V130.737H100.644V0Z" fill="#F5F5F5"/>
<path d="M89.1469 14.1621H19.6426V116.575H89.1469V14.1621Z" fill="white"/>
<path d="M89.1476 116.574C89.1476 116.574 89.1476 116.4 89.1476 116.071C89.1476 115.742 89.1476 115.249 89.1476 114.62C89.1476 113.333 89.1476 111.447 89.1476 109C89.1476 104.095 89.1476 96.9464 89.088 87.9114C89.088 69.8511 89.0186 44.2744 88.9789 14.1609L89.2071 14.3834H19.7127L19.8912 14.1609C19.8912 52.7967 19.8912 88.4144 19.8912 116.574L19.6928 116.38L70.2811 116.477L84.2574 116.535H87.9275H89.1972C89.1972 116.535 88.7905 116.535 87.9672 116.535H84.3367L70.4497 116.584L19.7325 116.68H19.5341V116.487C19.5341 88.3274 19.5341 52.7097 19.4746 14.0739V13.832H19.7424H89.2368H89.465V14.1609C89.4154 44.3325 89.3757 69.9575 89.3559 88.0565C89.3559 97.0722 89.3559 104.202 89.2864 109.096C89.2864 111.524 89.2864 113.401 89.2864 114.678C89.2864 115.297 89.2864 115.771 89.2864 116.1C89.2864 116.429 89.1476 116.574 89.1476 116.574Z" fill="#E0E0E0" fill-opacity="0.8"/>
<path d="M100.892 0C100.423 0.830936 99.8716 1.61501 99.2456 2.34098C98.1744 3.74363 96.6468 5.6493 94.9109 7.70975C93.175 9.7702 91.5384 11.5791 90.3381 12.8851C89.7186 13.6154 89.0385 14.2949 88.3047 14.9165C88.8208 14.1138 89.4119 13.3593 90.0703 12.6626L94.5241 7.39052L98.9679 2.11849C99.5493 1.36257 100.193 0.654071 100.892 0Z" fill="#E0E0E0" fill-opacity="0.8"/>
<path d="M89.4932 116.246C92.9506 121.605 97.0204 126.563 101.624 131.027L89.4932 116.246Z" fill="white"/>
<path d="M101.624 131.027C100.852 130.482 100.144 129.855 99.5116 129.16C96.2835 125.948 93.4018 122.421 90.9116 118.635C90.3595 117.876 89.8845 117.066 89.4932 116.217C90.124 116.911 90.6946 117.655 91.1993 118.442C92.1912 119.844 93.6592 121.75 95.3257 123.791C96.9921 125.832 98.5991 127.612 99.7695 128.889C100.439 129.558 101.059 130.272 101.624 131.027Z" fill="#E0E0E0" fill-opacity="0.8"/>
<path d="M8.13672 130.631L20.2878 116.053L8.13672 130.631Z" fill="white"/>
<path d="M20.2872 116.053C18.4724 118.637 16.5154 121.123 14.4249 123.501C12.4723 125.984 10.3863 128.363 8.17578 130.631C9.99614 128.053 11.9529 125.57 14.0381 123.192C15.9923 120.708 18.0782 118.325 20.2872 116.053Z" fill="#E0E0E0" fill-opacity="0.8"/>
<path d="M8.14551 0C10.2322 2.18049 12.1959 4.47004 14.0276 6.85849C15.9921 9.14254 17.8234 11.5324 19.513 14.0168C17.4267 11.836 15.4631 9.54647 13.6309 7.15836C11.6702 4.87135 9.83904 2.48168 8.14551 0Z" fill="#E0E0E0" fill-opacity="0.8"/>
<path d="M67.4933 34.9512H44.2227V99.3958H67.4933V34.9512Z" fill="#E0E0E0" fill-opacity="0.8"/>
<path d="M604.274 378.137C602.091 376.308 597.211 370.514 600.97 363.772C602.349 361.305 605.275 360.076 607.914 358.993C610.552 357.91 613.35 356.952 615.542 355.124C619.688 351.69 620.829 345.982 623.576 341.407C626.731 336.144 632.613 332.207 638.832 332.478C645.954 332.797 651.896 338.466 654.584 344.937C657.272 351.409 657.371 358.587 657.431 365.571C657.431 369.44 657.282 373.784 654.376 376.396C651.698 378.804 647.66 378.833 644.03 378.727L605.107 377.556" fill="#F5F5F5"/>
<path d="M678.719 273.77H576.362L594.802 380.981C595.183 383.216 596.206 385.299 597.753 386.989C599.3 388.68 601.307 389.907 603.541 390.528L603.898 390.625C604.206 390.702 604.493 390.799 604.811 390.847C605.497 390.987 606.194 391.068 606.894 391.089V391.186L607.4 391.109H653.028C653.868 391.107 654.705 391.026 655.528 390.867C658.192 390.466 660.647 389.224 662.517 387.331C664.388 385.439 665.57 383.001 665.884 380.39L674.811 306.514L675.218 303.612H675.168L678.69 274.35L678.719 273.77ZM659.406 342.161H648.902L649.963 311.041H662.134L659.406 342.161ZM663.156 311.041H673.204L669.465 342.161H660.428L663.156 311.041ZM633.14 376.647L632.505 349.619H647.632L646.71 376.647H633.14ZM616.793 349.619H631.494L632.128 376.647H618.946L616.793 349.619ZM617.924 376.647H605.604C604.434 369.353 602.906 359.863 601.26 349.619H615.772L617.924 376.647ZM616.198 342.161L613.718 311.041H630.581L631.315 342.161H616.198ZM632.327 342.161L631.593 311.041H648.942L647.89 342.161H632.327ZM631.414 303.583L630.74 274.766H650.162L649.17 303.583H631.414ZM630.422 303.583H613.123L610.822 274.766H629.669L630.422 303.583ZM612.121 303.583H593.82C593.176 299.598 592.56 295.844 592.005 292.439C590.101 280.831 589.376 276.41 589.029 274.766H609.86L612.121 303.583ZM612.716 311.041L615.196 342.161H600.059C599.554 338.998 599.068 335.805 598.522 332.613C597.332 325.261 596.151 317.919 595.03 311.041H612.716ZM599.048 342.161H589.128L583.772 311.041H593.969C595.606 320.657 597.292 331.356 599.028 342.161H599.048ZM600.248 349.619C601.756 358.973 603.224 368.192 604.593 376.647H595.11L590.458 349.619H600.248ZM647.751 376.647L648.664 349.619H658.772L656.401 376.647H647.751ZM650.241 303.583L651.233 274.766H665.338L662.819 303.583H650.241ZM588.017 274.766C588.424 276.846 590.289 288.183 592.789 303.583H582.522L577.563 274.766H588.017ZM665.318 376.647H657.383L659.754 349.619H668.542L665.318 376.647ZM674.107 303.583H663.811L666.33 274.766H677.569L674.107 303.583Z" fill="#E0E0E0" fill-opacity="0.8"/>
<path d="M681.001 7.01367V94.7907H551.713L547.051 7.6231L681.001 7.01367Z" fill="#E0E0E0" fill-opacity="0.8"/>
<path d="M547.051 7.62366V94.6074L676.339 94.6074V7.62366L547.051 7.62366Z" fill="white"/>
<path d="M676.943 95.2067H546.436V7.02344H676.943V95.2067ZM547.656 94.0072H675.713V8.22295H547.666L547.656 94.0072Z" fill="#E0E0E0" fill-opacity="0.8"/>
<path d="M662.332 18.4277H561.057V83.801H662.332V18.4277Z" fill="white"/>
<path d="M662.332 18.4272H661.836H660.397H654.833L634.002 18.5046L561.095 18.6497L561.383 18.3595C561.383 38.3352 561.383 60.4681 561.383 83.7231L561.066 83.4135L662.341 83.4716L662.064 83.8101C662.113 63.9215 662.163 47.6024 662.193 36.2457C662.193 30.5674 662.242 26.137 662.262 23.0995C662.262 21.5904 662.262 20.4393 662.262 19.6364C662.262 18.8335 662.262 18.4369 662.262 18.4369C662.262 18.4369 662.262 18.8238 662.262 19.588C662.262 20.3522 662.262 21.5227 662.262 22.9931C662.262 26.0209 662.262 30.4416 662.322 36.0909C662.322 47.4863 662.401 63.8538 662.46 83.8101V84.0616H662.203L560.927 84.1197H560.609V83.8101C560.609 60.5938 560.609 38.4222 560.609 18.4465V18.166H560.907L634.002 18.3014L654.833 18.3788H660.328H661.736L662.332 18.4272Z" fill="#E0E0E0" fill-opacity="0.8"/>
<path d="M547.051 7.39062C547.848 7.76689 548.594 8.23803 549.273 8.79328C550.592 9.76062 552.397 11.0472 554.341 12.5659C556.285 14.0847 558.001 15.468 559.202 16.5901C559.892 17.1329 560.515 17.753 561.057 18.4377C560.938 18.5731 557.823 16.0774 553.945 13.0496C550.066 10.0218 546.942 7.52605 547.051 7.39062Z" fill="#E0E0E0" fill-opacity="0.8"/>
<path d="M676.339 7.62287C676.448 7.7583 673.363 10.2831 669.534 13.2722C665.705 16.2613 662.442 18.5636 662.333 18.4281C662.224 18.2927 665.309 15.7679 669.137 12.7788C672.966 9.78972 676.23 7.48744 676.339 7.62287Z" fill="#E0E0E0" fill-opacity="0.8"/>
<path d="M676.229 94.6258L661.816 83.2305L676.229 94.6258Z" fill="white"/>
<path d="M661.815 83.23C661.924 83.0946 665.247 85.5323 669.225 88.6858C673.203 91.8394 676.347 94.4899 676.228 94.6253C676.109 94.7608 672.806 92.3134 668.828 89.1695C664.851 86.0256 661.706 83.3654 661.815 83.23Z" fill="#E0E0E0" fill-opacity="0.8"/>
<path d="M547.051 94.607C546.942 94.4716 549.957 91.9758 553.786 89.0158C557.615 86.0557 560.799 83.7824 560.908 83.9179C561.017 84.0533 558.012 86.5587 554.183 89.5091C550.354 92.4595 547.16 94.7425 547.051 94.607Z" fill="#E0E0E0" fill-opacity="0.8"/>
<path d="M581.619 38.7906V60.6816L645.35 60.6816V38.7906H581.619Z" fill="#E0E0E0" fill-opacity="0.8"/>
<path d="M94.6025 53.8145H599.265C601.038 53.8145 602.739 54.5014 603.992 55.7241C605.246 56.9468 605.951 58.6052 605.951 60.3344V374.451C605.951 378.189 604.428 381.774 601.718 384.417C599.007 387.06 595.331 388.545 591.498 388.545H101.367C97.5344 388.545 93.8584 387.06 91.148 384.417C88.4377 381.774 86.915 378.189 86.915 374.451V61.3211C86.915 59.3327 87.725 57.4259 89.1666 56.0199C90.6083 54.614 92.5636 53.8241 94.6025 53.8241V53.8145Z" fill="#455A64" fill-opacity="0.8"/>
<path d="M65.2119 363.791H627.545V379.801C627.545 383.321 626.111 386.696 623.559 389.185C621.007 391.674 617.545 393.073 613.936 393.073H78.8212C75.2118 393.073 71.7502 391.674 69.198 389.185C66.6457 386.696 65.2119 383.321 65.2119 379.801V363.791Z" fill="#455A64" fill-opacity="0.8"/>
<path d="M590.557 67.1152H100.843V349.784H590.557V67.1152Z" fill="#F5F5F5"/>
<path d="M295.26 363.791L302.243 374.616H400.434L406.911 363.791H295.26Z" fill="#263238" fill-opacity="0.8"/>
<path d="M606.031 363.686H86.9951V365.301H606.031V363.686Z" fill="#263238" fill-opacity="0.8"/>
<path d="M239.503 53.8241H185.582V35.2994C185.582 22.2306 196.434 11.1738 209.845 11.1738L239.503 11.6382V53.8241Z" fill="#E0E0E0" fill-opacity="0.8"/>
<path d="M208.685 11.1433C208.685 11.1433 239.375 8.43471 239.375 47.4575V351.069H480.215V36.4104C480.216 33.0216 479.533 29.6657 478.204 26.5345C476.875 23.4033 474.926 20.5581 472.47 18.1614C470.013 15.7647 467.096 13.8635 463.886 12.5663C460.676 11.2692 457.235 10.6016 453.76 10.6016L208.685 11.1433Z" fill="white"/>
<path d="M208.684 11.1437L386.864 10.5827L430.003 10.4666L452.956 10.4086C456.939 10.3004 460.897 11.0605 464.541 12.6335C468.24 14.2504 471.523 16.6493 474.153 19.6564C476.805 22.7422 478.689 26.3839 479.658 30.2972C479.907 31.2819 480.096 32.28 480.224 33.2863C480.363 34.2537 480.353 35.3081 480.422 36.3238C480.422 38.3455 480.422 40.377 480.422 42.4181V67.2498C480.422 84.0559 480.422 101.336 480.422 119.09C480.422 190.035 480.422 268.061 480.422 349.899V351.321H480.164H239.324H239.086V351.098C239.086 245.977 239.156 156.72 239.176 93.7841C239.176 78.0357 239.176 63.9415 239.176 51.6369C239.176 48.5704 239.176 45.6006 238.997 42.7663C238.819 40.0466 238.434 37.3436 237.846 34.6793C237.297 32.2274 236.524 29.8284 235.535 27.5112C234.594 25.4652 233.437 23.52 232.083 21.7072C229.769 18.6864 226.799 16.2023 223.384 14.4327C220.891 13.147 218.217 12.2277 215.449 11.7048C213.769 11.3768 212.063 11.1891 210.35 11.1437C209.2 11.1437 208.604 11.1437 208.604 11.1437C209.185 11.0934 209.768 11.0773 210.35 11.0954C212.069 11.1232 213.782 11.3013 215.469 11.6274C218.237 12.1369 220.911 13.0465 223.404 14.3263C226.837 16.0925 229.828 18.5765 232.163 21.6008C233.528 23.4134 234.698 25.3583 235.654 27.4048C236.662 29.7048 237.459 32.0874 238.035 34.5245C238.633 37.1977 239.028 39.9105 239.215 42.6405C239.434 45.4845 239.404 48.4446 239.404 51.5208C239.404 63.8254 239.404 77.9197 239.404 93.6681C239.404 156.652 239.463 245.909 239.503 350.982L239.265 350.75H480.105L479.847 351.001V349.831C479.847 267.965 479.847 189.967 479.847 119.022C479.847 101.281 479.847 84.001 479.847 67.1821V42.4181C479.787 38.3455 480.154 34.2633 479.103 30.3939C478.185 26.5701 476.38 23.0026 473.826 19.9659C471.238 17.0049 468.01 14.6396 464.373 13.0397C460.778 11.5006 456.88 10.7509 452.956 10.8439H429.963L386.735 10.9116L208.684 11.1437Z" fill="black"/>
<path d="M342.455 103.283C342.455 103.418 327.815 103.534 309.722 103.534C291.629 103.534 276.988 103.418 276.988 103.283C276.988 103.147 291.639 103.031 309.722 103.031C327.805 103.031 342.455 103.157 342.455 103.283Z" fill="#263238" fill-opacity="0.8"/>
<path d="M357.126 110.896C357.126 111.041 339.192 111.148 317.082 111.148C294.972 111.148 277.038 111.041 277.038 110.896C277.038 110.751 294.962 110.645 317.082 110.645C339.202 110.645 357.126 110.77 357.126 110.896Z" fill="#263238" fill-opacity="0.8"/>
<path d="M362.383 140.943C362.383 141.078 343.864 141.194 321.04 141.194C298.216 141.194 279.687 141.078 279.687 140.943C279.687 140.807 298.196 140.691 321.04 140.691C343.884 140.691 362.383 140.807 362.383 140.943Z" fill="#263238" fill-opacity="0.8"/>
<path d="M416.393 170.214C416.393 170.35 385.445 170.466 347.276 170.466C309.106 170.466 278.148 170.35 278.148 170.214C278.148 170.079 309.097 169.963 347.276 169.963C385.455 169.963 416.393 170.069 416.393 170.214Z" fill="#263238" fill-opacity="0.8"/>
<path d="M416.393 178.949C416.393 179.084 385.445 179.2 347.276 179.2C309.106 179.2 278.148 179.084 278.148 178.949C278.148 178.813 309.097 178.697 347.276 178.697C385.455 178.697 416.393 178.804 416.393 178.949Z" fill="#263238" fill-opacity="0.8"/>
<path d="M416.393 187.675C416.393 187.82 385.445 187.927 347.276 187.927C309.106 187.927 278.148 187.82 278.148 187.675C278.148 187.53 309.097 187.424 347.276 187.424C385.455 187.424 416.393 187.54 416.393 187.675Z" fill="#263238" fill-opacity="0.8"/>
<path d="M416.393 196.41C416.393 196.555 385.445 196.661 347.275 196.661C309.106 196.661 278.188 196.555 278.188 196.41C278.188 196.265 309.136 196.158 347.315 196.158C385.494 196.158 416.393 196.274 416.393 196.41Z" fill="#263238" fill-opacity="0.8"/>
<path d="M416.393 205.144C416.393 205.28 385.445 205.396 347.276 205.396C309.106 205.396 278.148 205.28 278.148 205.144C278.148 205.009 309.097 204.893 347.276 204.893C385.455 204.893 416.393 205.009 416.393 205.144Z" fill="#263238" fill-opacity="0.8"/>
<path d="M330.571 213.88C330.571 214.016 318.837 214.132 304.364 214.132C289.892 214.132 278.188 214.016 278.188 213.88C278.188 213.745 289.922 213.629 304.404 213.629C318.886 213.629 330.571 213.735 330.571 213.88Z" fill="#263238" fill-opacity="0.8"/>
<path d="M441.113 168.986L416.523 224.715C416.405 224.975 416.37 225.263 416.424 225.542C416.478 225.821 416.617 226.078 416.823 226.278C417.03 226.478 417.293 226.612 417.58 226.663C417.866 226.714 418.162 226.679 418.427 226.563L437.383 218.408C437.568 218.323 437.77 218.277 437.975 218.274C438.18 218.271 438.383 218.311 438.57 218.39C438.758 218.47 438.926 218.588 439.064 218.736C439.201 218.884 439.304 219.059 439.367 219.25L445.765 237.968C445.857 238.245 446.036 238.487 446.277 238.661C446.517 238.834 446.807 238.93 447.106 238.936C447.405 238.941 447.698 238.855 447.945 238.69C448.192 238.526 448.38 238.29 448.483 238.016L471.614 177.905L441.113 168.986Z" fill="#FF725E"/>
<path d="M473.162 178.263L484.936 237.832C484.991 238.11 485.131 238.366 485.337 238.566C485.543 238.766 485.806 238.9 486.092 238.953C486.377 239.005 486.673 238.972 486.939 238.858C487.205 238.745 487.43 238.556 487.585 238.316L498.555 221.174C498.662 221.007 498.803 220.864 498.97 220.754C499.136 220.644 499.325 220.569 499.523 220.534C499.721 220.5 499.925 220.506 500.12 220.553C500.316 220.6 500.499 220.686 500.658 220.807L516.737 232.782C516.975 232.957 517.262 233.056 517.56 233.066C517.857 233.076 518.151 232.996 518.4 232.837C518.65 232.679 518.843 232.449 518.953 232.18C519.064 231.91 519.087 231.614 519.019 231.331L503.485 168.938L473.162 178.263Z" fill="#FF725E"/>
<g opacity="0.3">
<path d="M441.113 168.986L416.523 224.715C416.405 224.975 416.37 225.263 416.424 225.542C416.478 225.821 416.617 226.078 416.823 226.278C417.03 226.478 417.293 226.612 417.58 226.663C417.866 226.714 418.162 226.679 418.427 226.563L437.383 218.408C437.568 218.323 437.77 218.277 437.975 218.274C438.18 218.271 438.383 218.311 438.57 218.39C438.758 218.47 438.926 218.588 439.064 218.736C439.201 218.884 439.304 219.059 439.367 219.25L445.765 237.968C445.857 238.245 446.036 238.487 446.277 238.661C446.517 238.834 446.807 238.93 447.106 238.936C447.405 238.941 447.698 238.855 447.945 238.69C448.192 238.526 448.38 238.29 448.483 238.016L471.614 177.905L441.113 168.986Z" fill="#002AFF"/>
</g>
<g opacity="0.3">
<path d="M473.163 178.263L484.937 237.832C484.992 238.11 485.132 238.366 485.338 238.566C485.544 238.766 485.807 238.9 486.093 238.953C486.378 239.005 486.674 238.972 486.94 238.858C487.206 238.745 487.431 238.556 487.586 238.316L498.556 221.174C498.663 221.007 498.804 220.864 498.971 220.754C499.137 220.644 499.326 220.569 499.524 220.534C499.722 220.5 499.926 220.506 500.121 220.553C500.317 220.6 500.5 220.686 500.659 220.807L516.738 232.782C516.976 232.957 517.263 233.056 517.561 233.066C517.858 233.076 518.152 232.996 518.401 232.837C518.651 232.679 518.844 232.449 518.954 232.18C519.065 231.91 519.088 231.614 519.02 231.331L503.486 168.938L473.163 178.263Z" fill="#002AFF"/>
</g>
<path d="M474.362 71.3023L482.427 65.5176L488.775 73.0822L498.069 69.4353L502.285 78.2962L512.224 77.0193L514.049 86.6251L523.988 87.7956L523.304 97.5464L532.648 101.097L529.493 110.364L537.637 116.071L532.221 124.294L538.649 131.781L531.309 138.436L535.624 147.249L526.815 151.911L528.75 161.498L519.029 163.877L518.453 173.638L508.435 173.58L505.39 182.886L495.698 180.409L490.372 188.69L481.623 183.93L474.362 190.653L467.091 183.93L458.343 188.69L453.016 180.409L443.325 182.886L440.28 173.58L430.261 173.638L429.686 163.877L419.975 161.498L421.899 151.911L413.091 147.249L417.406 138.436L410.065 131.781L416.503 124.294L411.087 116.071L419.221 110.364L416.077 101.097L425.411 97.5464L424.726 87.7956L434.675 86.6251L436.49 77.0193L446.429 78.2962L450.645 69.4353L459.94 73.0822L466.288 65.5176L474.362 71.3023Z" fill="#5C69AB"/>
<path d="M506.441 159.384C524.163 142.101 524.163 114.079 506.441 96.7961C488.718 79.513 459.985 79.513 442.263 96.7961C424.541 114.079 424.541 142.101 442.263 159.384C459.985 176.667 488.718 176.667 506.441 159.384Z" fill="white"/>
<path d="M484.251 117.61L496.412 119.341C496.863 119.405 497.287 119.591 497.636 119.878C497.984 120.164 498.243 120.54 498.384 120.963C498.524 121.386 498.54 121.839 498.43 122.271C498.32 122.702 498.089 123.095 497.761 123.404L488.933 131.772C488.651 132.043 488.44 132.376 488.317 132.742C488.195 133.109 488.165 133.5 488.229 133.881L490.322 145.721C490.398 146.158 490.348 146.608 490.176 147.019C490.004 147.43 489.718 147.786 489.349 148.046C488.981 148.307 488.545 148.462 488.091 148.494C487.637 148.526 487.184 148.433 486.781 148.226L475.87 142.625C475.52 142.444 475.13 142.349 474.734 142.349C474.338 142.349 473.948 142.444 473.598 142.625L462.687 148.197C462.284 148.402 461.83 148.493 461.376 148.459C460.923 148.426 460.488 148.27 460.121 148.008C459.754 147.747 459.469 147.39 459.298 146.979C459.128 146.568 459.078 146.119 459.156 145.682L461.249 133.861C461.316 133.48 461.286 133.089 461.164 132.722C461.041 132.355 460.828 132.022 460.544 131.752L451.776 123.356C451.451 123.045 451.222 122.653 451.114 122.222C451.007 121.791 451.024 121.34 451.166 120.918C451.307 120.497 451.566 120.122 451.914 119.837C452.262 119.551 452.685 119.366 453.135 119.303L465.315 117.591C465.707 117.534 466.078 117.385 466.398 117.158C466.717 116.93 466.975 116.631 467.151 116.285L472.606 105.528C472.808 105.13 473.12 104.795 473.506 104.561C473.893 104.327 474.338 104.203 474.793 104.203C475.248 104.203 475.694 104.327 476.081 104.561C476.467 104.795 476.779 105.13 476.98 105.528L482.416 116.294C482.59 116.642 482.848 116.944 483.167 117.173C483.487 117.402 483.859 117.552 484.251 117.61Z" fill="#FF725E"/>
<path d="M299.952 58.1655C299.946 57.4171 300.099 56.6756 300.401 55.9874C300.702 55.2992 301.146 54.6792 301.705 54.1661C302.264 53.653 302.925 53.258 303.648 53.0057C304.37 52.7534 305.138 52.6493 305.904 52.7C306.776 52.6549 307.648 52.8059 308.451 53.1413C309.254 53.4768 309.968 53.9877 310.536 54.6346L308.602 56.3469C308.304 55.9653 307.92 55.6559 307.48 55.4428C307.039 55.2297 306.554 55.1187 306.063 55.1183C305.247 55.1183 304.465 55.4343 303.888 55.9966C303.312 56.559 302.988 57.3218 302.988 58.1171C302.988 58.9124 303.312 59.6752 303.888 60.2376C304.465 60.7999 305.247 61.1159 306.063 61.1159C306.554 61.1155 307.039 61.0045 307.48 60.7914C307.92 60.5783 308.304 60.2689 308.602 59.8873L310.536 61.5899C309.968 62.2368 309.254 62.7477 308.451 63.0832C307.648 63.4186 306.776 63.5696 305.904 63.5246C302.462 63.6213 299.952 61.3577 299.952 58.1655Z" fill="#263238" fill-opacity="0.8"/>
<path d="M320.503 61.1172V63.4098H311.854V52.9141H320.305V55.2067H314.889V56.9769H319.67V59.2018H314.889V61.1365L320.503 61.1172Z" fill="#263238" fill-opacity="0.8"/>
<path d="M326.902 60.5948H325.236V63.3807H322.19V52.9141H327.15C330.126 52.9141 331.931 54.4038 331.931 56.7834C331.957 57.4862 331.765 58.1802 331.379 58.7741C330.993 59.3681 330.432 59.8342 329.769 60.1111L332.09 63.4098H328.836L326.902 60.5948ZM326.902 55.226H325.206V58.3022H326.902C328.162 58.3022 328.797 57.7315 328.797 56.7738C328.797 55.8161 328.192 55.255 326.932 55.255L326.902 55.226Z" fill="#263238" fill-opacity="0.8"/>
<path d="M335.72 55.2744H332.417V52.9141H342.059V55.2744H338.765V63.4098H335.72V55.2744Z" fill="#263238" fill-opacity="0.8"/>
<path d="M343.189 52.9141H346.235V63.4098H343.189V52.9141Z" fill="#263238" fill-opacity="0.8"/>
<path d="M351.442 55.2067V57.5186H356.203V59.8112H351.442V63.4098H348.396V52.9141H356.848V55.2067H351.442Z" fill="#263238" fill-opacity="0.8"/>
<path d="M358.276 52.9141H361.322V63.4098H358.276V52.9141Z" fill="#263238" fill-opacity="0.8"/>
<path d="M362.939 58.1655C362.933 57.4171 363.085 56.6756 363.387 55.9874C363.689 55.2992 364.133 54.6792 364.691 54.1661C365.25 53.653 365.911 53.258 366.634 53.0057C367.356 52.7534 368.125 52.6493 368.89 52.7C369.761 52.6542 370.632 52.8049 371.433 53.1405C372.235 53.476 372.946 53.9873 373.513 54.6346L371.578 56.3469C371.281 55.9647 370.897 55.655 370.457 55.4418C370.016 55.2287 369.531 55.1179 369.039 55.1183C368.223 55.1183 367.441 55.4343 366.865 55.9966C366.288 56.559 365.964 57.3218 365.964 58.1171C365.964 58.9124 366.288 59.6752 366.865 60.2376C367.441 60.7999 368.223 61.1159 369.039 61.1159C369.531 61.1163 370.016 61.0055 370.457 60.7924C370.897 60.5792 371.281 60.2695 371.578 59.8873L373.513 61.5899C372.946 62.2372 372.235 62.7485 371.433 63.0841C370.632 63.4196 369.761 63.5703 368.89 63.5246C365.478 63.6213 362.939 61.3577 362.939 58.1655Z" fill="#263238" fill-opacity="0.8"/>
<path d="M381.864 61.3783H377.311L376.468 63.4098H373.413L378.164 52.9141H381.14L385.911 63.4098H382.747L381.864 61.3783ZM380.972 59.1825L379.593 55.8258L378.204 59.1825H380.972Z" fill="#263238" fill-opacity="0.8"/>
<path d="M388.501 55.2744H385.188V52.9141H394.829V55.2744H391.546V63.4098H388.501V55.2744Z" fill="#263238" fill-opacity="0.8"/>
<path d="M395.97 52.9141H399.015V63.4098H395.97V52.9141Z" fill="#263238" fill-opacity="0.8"/>
<path d="M400.633 58.1667C400.633 55.0131 403.172 52.7012 406.584 52.7012C409.997 52.7012 412.536 55.0131 412.536 58.1667C412.536 61.3202 409.997 63.6225 406.584 63.6225C403.172 63.6225 400.633 61.3106 400.633 58.1667ZM409.56 58.1667C409.527 57.6142 409.329 57.0833 408.991 56.6393C408.652 56.1953 408.187 55.8578 407.654 55.6682C407.121 55.4787 406.543 55.4455 405.99 55.5727C405.438 55.7 404.936 55.9821 404.547 56.3842C404.157 56.7864 403.896 57.291 403.797 57.8359C403.698 58.3807 403.764 58.942 403.989 59.4504C404.213 59.9588 404.584 60.3921 405.058 60.6969C405.532 61.0016 406.086 61.1645 406.654 61.1655C407.048 61.1636 407.437 61.0833 407.798 60.9293C408.158 60.7753 408.483 60.5509 408.751 60.27C409.02 59.9891 409.227 59.6576 409.359 59.2959C409.491 58.9342 409.546 58.5499 409.52 58.1667H409.56Z" fill="#263238" fill-opacity="0.8"/>
<path d="M424.439 52.9141V63.4098H421.929L417.178 57.8185V63.4098H414.202V52.9141H416.702L421.453 58.5053V52.9141H424.439Z" fill="#263238" fill-opacity="0.8"/>
<path d="M436.649 250.746C436.649 250.881 422.921 250.997 405.988 250.997C389.056 250.997 375.338 250.881 375.338 250.746C375.338 250.61 389.056 250.494 405.988 250.494C422.921 250.494 436.649 250.61 436.649 250.746Z" fill="#263238" fill-opacity="0.8"/>
<path d="M436.649 259.181C436.649 259.326 422.921 259.433 405.988 259.433C389.056 259.433 375.338 259.326 375.338 259.181C375.338 259.036 389.056 258.93 405.988 258.93C422.921 258.93 436.649 259.046 436.649 259.181Z" fill="#263238" fill-opacity="0.8"/>
<path d="M432.572 295.833C432.542 295.696 432.525 295.557 432.523 295.417C432.523 295.117 432.523 294.701 432.434 294.179C432.434 293.908 432.414 293.608 432.374 293.279C432.374 292.95 432.265 292.592 432.205 292.196C432.082 291.294 431.894 290.402 431.64 289.526C431.006 287.107 430.003 284.795 428.664 282.667C425.517 277.533 420.632 273.629 414.851 271.628C409.07 269.628 402.754 269.656 396.992 271.707C395.815 272.121 394.668 272.612 393.56 273.178C392.437 273.781 391.357 274.456 390.326 275.199C389.282 275.964 388.289 276.791 387.351 277.676C386.425 278.613 385.564 279.608 384.772 280.655C383.136 282.8 381.867 285.187 381.012 287.727C379.2 292.983 379.2 298.673 381.012 303.93C381.865 306.47 383.134 308.858 384.772 311.001C385.561 312.05 386.423 313.045 387.351 313.98C388.286 314.868 389.28 315.695 390.326 316.457C391.351 317.207 392.428 317.885 393.55 318.488C394.663 319.052 395.813 319.543 396.992 319.959C402.756 321.997 409.066 322.018 414.844 320.019C420.622 318.019 425.507 314.124 428.664 308.999C430.007 306.873 431.011 304.56 431.64 302.14C431.893 301.264 432.082 300.372 432.205 299.47C432.265 299.074 432.334 298.716 432.374 298.387C432.414 298.058 432.374 297.748 432.434 297.477C432.434 296.955 432.503 296.51 432.523 296.249C432.525 296.109 432.542 295.97 432.572 295.833C432.586 295.971 432.586 296.111 432.572 296.249V297.487C432.572 297.758 432.572 298.067 432.572 298.396C432.572 298.725 432.473 299.093 432.424 299.49C432.324 300.401 432.151 301.303 431.908 302.188C431.311 304.637 430.335 306.983 429.011 309.144C425.85 314.376 420.911 318.365 415.05 320.42C409.19 322.474 402.777 322.465 396.923 320.394C395.699 319.966 394.506 319.458 393.352 318.875C392.207 318.263 391.106 317.574 390.058 316.815C388.987 316.044 387.969 315.203 387.013 314.3C386.069 313.349 385.191 312.337 384.385 311.272C382.712 309.084 381.412 306.647 380.536 304.055C379.655 301.384 379.191 298.6 379.157 295.794C379.19 292.991 379.658 290.209 380.546 287.543C381.419 284.954 382.715 282.521 384.385 280.336C385.191 279.271 386.069 278.26 387.013 277.308C387.973 276.402 388.994 275.558 390.068 274.784C391.114 274.028 392.211 273.343 393.352 272.733C394.482 272.158 395.652 271.661 396.853 271.243C401.363 269.655 406.227 269.274 410.939 270.14C414.673 270.834 418.213 272.297 421.322 274.433C424.43 276.568 427.035 279.326 428.962 282.522C430.287 284.683 431.263 287.028 431.858 289.477C432.102 290.363 432.274 291.265 432.374 292.176C432.424 292.573 432.493 292.931 432.523 293.269C432.553 293.608 432.523 293.898 432.523 294.179V295.407C432.553 295.547 432.569 295.69 432.572 295.833Z" fill="#FF725E"/>
<path d="M422.594 299.664C424.777 290.714 419.106 281.733 409.929 279.604C400.751 277.475 391.542 283.005 389.359 291.955C387.176 300.905 392.846 309.886 402.024 312.015C411.201 314.144 420.411 308.614 422.594 299.664Z" fill="#FF725E"/>
<path d="M443.98 281.488C443.98 281.488 443.741 281.633 443.265 281.875L441.133 282.978L432.929 287.157L419.965 293.725C418.647 294.395 417.221 294.839 415.749 295.041C414.948 295.139 414.134 295.071 413.361 294.841C412.589 294.611 411.874 294.224 411.266 293.706C410.617 293.162 410.156 292.435 409.946 291.626C409.823 291.205 409.809 290.76 409.908 290.332C410.007 289.904 410.215 289.508 410.512 289.179C411.13 288.517 411.987 288.114 412.902 288.057C413.381 287.992 413.867 288.082 414.288 288.313C414.709 288.543 415.041 288.902 415.233 289.333C415.259 292.128 414.236 294.836 412.357 296.946C411.38 298.091 410.17 299.025 408.804 299.691C407.439 300.357 405.946 300.74 404.421 300.816C402.813 300.901 401.204 300.67 399.689 300.136C398.174 299.603 396.785 298.778 395.603 297.711C394.325 296.619 393.436 295.159 393.064 293.541C392.894 292.69 393.009 291.809 393.391 291.026C393.797 290.231 394.484 289.606 395.325 289.266C395.762 289.102 396.234 289.05 396.697 289.112C397.16 289.175 397.599 289.351 397.974 289.624C398.682 290.185 399.203 290.94 399.472 291.791C399.754 292.617 399.892 293.483 399.878 294.354C399.918 294.785 399.918 295.219 399.878 295.65C399.854 296.086 399.794 296.52 399.7 296.946C399.009 300.465 397.049 303.626 394.175 305.856C392.728 307.032 391.046 307.902 389.236 308.41C387.426 308.918 385.527 309.053 383.66 308.806C379.824 308.17 376.382 306.128 374.039 303.099C372.677 301.395 371.734 299.409 371.281 297.295C370.794 295.195 370.963 293.002 371.767 290.997C372.198 289.989 372.94 289.137 373.89 288.56C374.847 287.975 375.993 287.761 377.104 287.96C377.646 288.084 378.153 288.321 378.592 288.655C379.03 288.989 379.389 289.412 379.643 289.895C380.128 290.809 380.479 291.786 380.685 292.797C381.626 296.706 381.37 300.799 379.951 304.569C378.618 308.199 376.048 311.273 372.67 313.275C369.445 315.18 365.662 315.983 361.917 315.558C360.135 315.345 358.411 314.8 356.839 313.952C355.315 313.114 353.969 312.001 352.871 310.673C350.758 308.172 349.601 305.033 349.598 301.793C349.626 300.267 349.963 298.761 350.59 297.362C350.858 296.67 351.27 296.039 351.799 295.508C352.328 294.978 352.963 294.558 353.665 294.277C354.376 294.059 355.135 294.039 355.857 294.219C356.542 294.435 357.166 294.802 357.682 295.292C358.633 296.237 359.349 297.382 359.775 298.639C360.206 299.806 360.431 301.036 360.439 302.277C360.439 302.867 360.439 303.457 360.439 304.027C360.439 304.598 360.39 305.169 360.33 305.72C359.949 309.518 358.813 313.208 356.988 316.584C355.832 318.71 354.402 320.683 352.732 322.455C352.177 323.065 351.74 323.49 351.383 323.781C351.026 324.071 350.897 324.206 350.897 324.206C350.897 324.206 351.046 324.042 351.343 323.742C351.641 323.442 352.107 323.007 352.663 322.388C354.283 320.594 355.675 318.616 356.809 316.497C358.593 313.136 359.691 309.47 360.043 305.701C360.102 305.15 360.132 304.589 360.142 304.018C360.152 303.447 360.142 302.867 360.142 302.286C360.124 301.078 359.9 299.882 359.477 298.746C359.076 297.545 358.397 296.449 357.493 295.544C357.018 295.1 356.445 294.769 355.817 294.576C355.163 294.417 354.476 294.437 353.833 294.635C353.18 294.902 352.59 295.298 352.101 295.797C351.611 296.296 351.232 296.888 350.986 297.537C350.403 298.891 350.097 300.343 350.084 301.812C350.104 304.961 351.239 308.006 353.298 310.431C354.359 311.71 355.658 312.783 357.126 313.595C358.663 314.413 360.347 314.935 362.086 315.133C365.682 315.54 369.315 314.778 372.422 312.966C375.708 311 378.204 307.996 379.494 304.453C380.87 300.771 381.114 296.777 380.199 292.961C380 291.996 379.666 291.061 379.207 290.185C378.989 289.759 378.678 289.385 378.296 289.089C377.914 288.793 377.469 288.583 376.995 288.473C376.013 288.299 375 288.492 374.158 289.014C373.299 289.543 372.627 290.316 372.233 291.229C371.475 293.14 371.319 295.229 371.787 297.227C372.222 299.269 373.135 301.186 374.455 302.828C376.712 305.752 380.03 307.725 383.73 308.342C385.527 308.581 387.356 308.453 389.1 307.965C390.843 307.477 392.464 306.64 393.857 305.507C396.64 303.353 398.54 300.299 399.214 296.898C399.305 296.487 399.362 296.07 399.382 295.65C399.417 295.235 399.417 294.818 399.382 294.402C399.399 293.581 399.271 292.763 399.006 291.984C398.777 291.221 398.313 290.546 397.676 290.049C397.37 289.82 397.008 289.672 396.626 289.62C396.243 289.567 395.854 289.612 395.494 289.749C394.765 290.042 394.172 290.586 393.828 291.278C393.482 291.968 393.378 292.749 393.53 293.503C393.886 295.021 394.722 296.392 395.921 297.42C397.057 298.445 398.391 299.239 399.846 299.754C401.3 300.269 402.846 300.495 404.392 300.419C405.854 300.345 407.284 299.976 408.594 299.337C409.903 298.698 411.063 297.802 412 296.705C413.813 294.672 414.808 292.066 414.797 289.372V289.43C414.632 289.066 414.348 288.767 413.988 288.579C413.629 288.391 413.215 288.327 412.813 288.395C412.003 288.436 411.242 288.783 410.69 289.362C410.433 289.647 410.253 289.99 410.166 290.36C410.079 290.73 410.089 291.116 410.194 291.481C410.379 292.232 410.798 292.908 411.395 293.416C411.965 293.904 412.634 294.269 413.359 294.487C414.084 294.706 414.847 294.772 415.6 294.683C417.036 294.491 418.428 294.062 419.717 293.416L432.711 286.973L440.964 282.891L443.126 281.837C443.722 281.595 443.98 281.488 443.98 281.488Z" fill="#263238" fill-opacity="0.8"/>
<path d="M355.123 42.8628C355.123 42.9983 334.143 43.1143 308.264 43.1143C282.385 43.1143 261.396 42.9983 261.396 42.8628C261.396 42.7274 282.375 42.6113 308.264 42.6113C334.153 42.6113 355.123 42.7177 355.123 42.8628Z" fill="#E0E0E0" fill-opacity="0.8"/>
<path d="M370.746 42.8628C368.591 43.1982 366.395 43.1982 364.239 42.8628C366.395 42.5275 368.591 42.5275 370.746 42.8628Z" fill="#E0E0E0" fill-opacity="0.8"/>
<path d="M464.036 42.8628C464.036 42.9983 444.902 43.1143 421.304 43.1143C397.706 43.1143 378.552 42.9983 378.552 42.8628C378.552 42.7274 397.686 42.6113 421.304 42.6113C444.922 42.6113 464.036 42.7177 464.036 42.8628Z" fill="#E0E0E0" fill-opacity="0.8"/>
<path d="M355.123 68.3335C355.123 68.469 334.143 68.5851 308.264 68.5851C282.385 68.5851 261.396 68.469 261.396 68.3335C261.396 68.1981 282.375 68.082 308.264 68.082C334.153 68.082 355.123 68.1497 355.123 68.3335Z" fill="#E0E0E0" fill-opacity="0.8"/>
<path d="M370.746 68.3335C368.591 68.6689 366.395 68.6689 364.239 68.3335C366.395 67.9982 368.591 67.9982 370.746 68.3335Z" fill="#E0E0E0" fill-opacity="0.8"/>
<path d="M464.036 68.3335C464.036 68.469 444.902 68.5851 421.304 68.5851C397.706 68.5851 378.552 68.469 378.552 68.3335C378.552 68.1981 397.686 68.082 421.304 68.082C444.922 68.082 464.036 68.1497 464.036 68.3335Z" fill="#E0E0E0" fill-opacity="0.8"/>
<path d="M650.657 163.239C650.657 163.239 638.834 210.474 585.895 199.659C585.895 199.659 601.24 151.824 650.657 163.239Z" fill="#263238" fill-opacity="0.8"/>
<path d="M625.076 234.774C625.076 234.774 600.784 270.112 560.601 245.676C560.63 245.676 588.008 210.881 625.076 234.774Z" fill="#263238" fill-opacity="0.8"/>
<path d="M586.36 288.684C586.36 288.684 550.908 318.091 516.925 281.642C516.955 281.642 555.402 253.666 586.36 288.684Z" fill="#263238" fill-opacity="0.8"/>
<path d="M548.816 174.393C548.816 174.393 588.136 192.821 569.051 235.055C569.051 235.055 529.841 213.589 548.816 174.393Z" fill="#263238" fill-opacity="0.8"/>
<path d="M540.275 225.314C540.275 225.314 559.895 251.162 530.663 273.314C530.663 273.314 512.283 245.474 540.275 225.314Z" fill="#263238" fill-opacity="0.8"/>
<path d="M631.234 107.994C631.234 107.994 635.737 146.282 593.333 152.415C593.333 152.424 591.269 112.744 631.234 107.994Z" fill="#263238" fill-opacity="0.8"/>
<path d="M570.409 69.3008C570.409 69.3008 604.71 83.2693 589.811 122.505C589.811 122.437 555.441 105.712 570.409 69.3008Z" fill="#263238" fill-opacity="0.8"/>
<path d="M549.709 125.203C549.709 125.203 595.129 130.253 591.132 178.456C591.132 178.456 544.749 170.349 549.709 125.203Z" fill="#263238" fill-opacity="0.8"/>
<path d="M485.085 293.454C485.085 293.454 485.283 293.386 485.66 293.289L487.366 292.844C488.864 292.457 491.076 291.954 493.873 291.055C501.777 288.667 509.419 285.524 516.688 281.671C527.482 275.924 537.446 268.804 546.317 260.496C551.564 255.613 556.453 250.376 560.948 244.825L564.35 240.366L566.076 238.102C566.631 237.328 567.137 236.525 567.673 235.732L570.887 230.895L573.862 225.846L575.34 223.311C575.787 222.441 576.223 221.57 576.66 220.709C577.533 218.978 578.415 217.275 579.249 215.563L581.52 210.349C581.887 209.488 582.274 208.637 582.621 207.776L583.613 205.164L585.508 200.018C586.023 198.286 586.549 196.564 587.065 194.871C587.323 194.02 587.571 193.178 587.829 192.337C588.087 191.495 588.255 190.644 588.473 189.802L589.674 184.811C592.265 173.088 593.401 161.103 593.056 149.116C592.779 141.039 591.857 132.995 590.299 125.058C589.674 122.262 589.128 120.095 588.801 118.625C588.632 117.909 588.503 117.348 588.414 116.952C588.325 116.555 588.295 116.381 588.295 116.381C588.295 116.381 588.364 116.565 588.464 116.942L588.9 118.606C589.257 120.066 589.842 122.224 590.487 125.019C594.636 144.789 594.517 165.185 590.14 184.908C589.743 186.552 589.343 188.222 588.94 189.919C588.721 190.76 588.563 191.621 588.305 192.463C588.047 193.304 587.789 194.155 587.541 195.007L585.974 200.163C585.359 201.875 584.724 203.597 584.089 205.338L583.097 207.95C582.75 208.82 582.363 209.672 581.986 210.542L579.725 215.766C578.882 217.488 577.989 219.2 577.116 220.941C576.679 221.802 576.243 222.673 575.797 223.543C575.35 224.414 574.805 225.236 574.319 226.088L571.343 231.157C570.252 232.772 569.181 234.387 568.109 235.993C567.574 236.786 567.058 237.589 566.502 238.363L564.856 240.656L561.434 245.135C556.902 250.7 551.974 255.947 546.684 260.835C537.775 269.148 527.767 276.262 516.926 281.991C509.608 285.825 501.911 288.927 493.953 291.248C491.146 292.109 488.914 292.593 487.406 292.941L485.7 293.338C485.293 293.425 485.085 293.454 485.085 293.454Z" fill="#263238" fill-opacity="0.8"/>
<path d="M536.03 246.131C536.076 246.491 536.076 246.855 536.03 247.214C535.971 247.901 535.862 248.907 535.713 250.116C535.405 252.583 534.88 255.988 534.136 259.703C533.392 263.417 532.559 266.774 531.894 269.173C531.557 270.373 531.269 271.33 531.061 271.998C530.97 272.349 530.84 272.689 530.674 273.013C530.685 272.652 530.749 272.294 530.862 271.949C531.051 271.166 531.269 270.208 531.537 269.047C532.112 266.629 532.886 263.243 533.63 259.567C534.374 255.891 534.949 252.477 535.346 250.029C535.534 248.888 535.693 247.92 535.832 247.127C535.858 246.789 535.925 246.454 536.03 246.131Z" fill="#455A64" fill-opacity="0.8"/>
<path d="M545.692 284.478C545.316 284.494 544.939 284.461 544.571 284.381L541.595 283.946C539.046 283.578 535.535 283.094 531.676 282.649C527.817 282.205 524.246 281.885 521.687 281.682L518.652 281.421C518.277 281.414 517.903 281.362 517.541 281.266C517.913 281.219 518.29 281.219 518.662 281.266C519.386 281.266 520.428 281.266 521.707 281.363C524.276 281.489 527.827 281.75 531.735 282.195C535.644 282.64 539.155 283.162 541.655 283.646C542.915 283.878 543.936 284.081 544.631 284.236C544.992 284.278 545.348 284.359 545.692 284.478Z" fill="#455A64" fill-opacity="0.8"/>
<path d="M593.482 237.619C593.058 237.767 592.619 237.871 592.173 237.929L588.582 238.616C585.547 239.206 581.371 240.057 576.788 241.14C572.205 242.224 568.089 243.326 565.113 244.168L561.592 245.135C561.167 245.28 560.728 245.384 560.282 245.445C560.681 245.24 561.1 245.075 561.532 244.952C562.345 244.661 563.516 244.265 565.004 243.8C567.98 242.882 572.066 241.711 576.659 240.628C581.252 239.544 585.457 238.741 588.562 238.248C590.09 237.996 591.33 237.822 592.192 237.716C592.618 237.641 593.05 237.609 593.482 237.619Z" fill="#455A64" fill-opacity="0.8"/>
<path d="M558.774 201.4C559.078 201.766 559.347 202.158 559.578 202.571C560.084 203.345 560.738 204.506 561.562 205.937C565.541 213.504 567.974 221.754 568.723 230.227C568.862 231.843 568.922 233.129 568.912 234.097C568.954 234.567 568.954 235.039 568.912 235.509C568.812 235.048 568.759 234.578 568.753 234.106C568.694 233.207 568.585 231.901 568.396 230.295C567.459 221.896 565.05 213.716 561.274 206.111C560.55 204.651 559.935 203.49 559.499 202.687C559.214 202.282 558.972 201.851 558.774 201.4Z" fill="#455A64" fill-opacity="0.8"/>
<path d="M611.476 179.375C611.152 179.648 610.799 179.888 610.425 180.091L607.508 181.938C605.068 183.525 601.755 185.808 598.283 188.536C594.812 191.264 591.836 193.972 589.743 195.984L587.283 198.374C587 198.686 586.688 198.971 586.351 199.225C586.57 198.872 586.833 198.547 587.134 198.258C587.67 197.648 588.473 196.787 589.485 195.752C594.821 190.357 600.818 185.624 607.34 181.658C608.59 180.903 609.621 180.323 610.316 179.946C610.68 179.714 611.069 179.523 611.476 179.375Z" fill="#455A64" fill-opacity="0.8"/>
<path d="M561.879 144.404C562.013 144.483 562.136 144.577 562.246 144.685L563.238 145.555C564.101 146.32 565.321 147.49 566.809 148.873C569.785 151.717 573.752 155.78 577.869 160.482C581.985 165.183 585.477 169.671 587.877 172.98C589.087 174.634 590.04 175.988 590.675 176.946C590.962 177.381 591.2 177.739 591.389 178.039C591.483 178.164 591.56 178.3 591.617 178.445C591.617 178.445 591.498 178.339 591.309 178.097L590.506 177.052L587.59 173.183C585.11 169.933 581.638 165.502 577.482 160.801C573.326 156.1 569.447 152.008 566.571 149.106L563.089 145.72L562.157 144.753C561.948 144.54 561.879 144.424 561.879 144.404Z" fill="#455A64" fill-opacity="0.8"/>
<path d="M616.555 120.443C616.264 120.873 615.932 121.275 615.563 121.643L612.815 124.816C610.504 127.505 607.4 131.297 604.206 135.64C601.012 139.984 598.343 144.095 596.478 147.094L594.296 150.654C594.05 151.106 593.768 151.54 593.453 151.95C593.633 151.471 593.856 151.008 594.118 150.567C594.574 149.686 595.278 148.438 596.171 146.91C597.956 143.853 600.585 139.723 603.789 135.35C606.993 130.978 610.157 127.224 612.538 124.584C613.728 123.268 614.72 122.214 615.414 121.507C615.764 121.122 616.145 120.767 616.555 120.443Z" fill="#455A64" fill-opacity="0.8"/>
<path d="M575.489 84.1016C575.774 84.545 576.013 85.0148 576.203 85.5042C576.64 86.4135 577.195 87.7485 577.959 89.3736C579.398 92.6916 581.302 97.3058 583.256 102.462C585.21 107.618 586.847 112.329 587.968 115.763C588.533 117.475 588.96 118.868 589.257 119.835C589.431 120.33 589.56 120.838 589.644 121.354C589.41 120.886 589.215 120.401 589.059 119.903L587.67 115.908C586.46 112.513 584.774 107.821 582.82 102.675C580.866 97.5283 579.021 92.8947 577.672 89.5477C577.017 87.9323 576.481 86.5973 576.075 85.5816C575.84 85.1038 575.645 84.609 575.489 84.1016Z" fill="#455A64" fill-opacity="0.8"/>
<path d="M56.7012 152.724C56.7012 152.724 67.8802 197.367 117.903 187.133C117.903 187.133 103.401 141.938 56.7012 152.724Z" fill="#263238" fill-opacity="0.8"/>
<path d="M80.874 220.323C80.874 220.323 103.837 253.715 141.768 230.625C141.768 230.625 115.909 197.745 80.874 220.323Z" fill="#263238" fill-opacity="0.8"/>
<path d="M117.497 271.262C117.497 271.262 151.004 299.054 183.093 264.617C183.054 264.617 146.719 238.179 117.497 271.262Z" fill="#263238" fill-opacity="0.8"/>
<path d="M152.938 163.268C152.938 163.268 115.78 180.68 133.813 220.593C133.813 220.593 170.872 200.298 152.938 163.268Z" fill="#263238" fill-opacity="0.8"/>
<path d="M161.003 211.385C161.003 211.385 142.473 235.781 170.069 256.744C170.069 256.744 187.437 230.432 161.003 211.385Z" fill="#263238" fill-opacity="0.8"/>
<path d="M75.0515 100.525C75.0515 100.525 70.7961 136.704 110.87 142.499C110.87 142.499 112.814 105.004 75.0515 100.525Z" fill="#263238" fill-opacity="0.8"/>
<path d="M132.524 63.9219C132.524 63.9219 100.118 77.1165 114.193 114.166C114.193 114.166 146.669 98.3207 132.524 63.9219Z" fill="#263238" fill-opacity="0.8"/>
<path d="M152.096 116.777C152.096 116.777 109.175 121.556 112.954 167.079C112.954 167.099 156.778 159.447 152.096 116.777Z" fill="#263238" fill-opacity="0.8"/>
<path d="M222.561 278.877C222.561 278.877 222.363 278.877 221.986 278.761L220.29 278.393C218.802 278.054 216.6 277.6 213.813 276.797C200.45 273.141 187.699 267.625 175.951 260.42C170.438 257.057 165.178 253.317 160.209 249.228C154.698 244.729 149.554 239.819 144.824 234.543L141.213 230.306C140.043 228.846 138.922 227.317 137.771 225.818L136.036 223.544L134.439 221.174C133.377 219.569 132.266 217.982 131.245 216.338C129.261 212.971 127.277 209.702 125.64 206.277C123.845 202.94 122.446 199.506 120.978 196.14C113.864 178.536 110.389 159.735 110.751 140.817C110.977 132.824 111.893 124.863 113.489 117.02C114.094 114.254 114.699 112.135 115.046 110.684C115.235 109.978 115.374 109.427 115.473 109.04C115.572 108.653 115.642 108.488 115.642 108.488C115.642 108.488 115.642 108.682 115.522 109.059C115.403 109.436 115.314 110.026 115.146 110.713C114.828 112.164 114.253 114.292 113.687 117.059C112.169 124.897 111.31 132.843 111.118 140.817C110.819 159.68 114.331 178.416 121.454 195.956C122.912 199.293 124.311 202.727 126.106 206.055C127.723 209.46 129.737 212.73 131.681 216.077C132.673 217.721 133.814 219.307 134.865 220.913L136.462 223.293L138.178 225.557C139.339 227.056 140.45 228.575 141.61 230.026C142.771 231.477 144.021 232.86 145.201 234.263C149.911 239.523 155.031 244.419 160.516 248.908C165.459 252.995 170.693 256.735 176.179 260.1C180.943 263.054 185.885 265.725 190.978 268.1C198.348 271.573 206.007 274.431 213.872 276.642C216.64 277.474 218.832 277.948 220.31 278.325L221.996 278.741C222.373 278.809 222.561 278.877 222.561 278.877Z" fill="#263238" fill-opacity="0.8"/>
<path d="M165.021 231.051C165.129 231.365 165.206 231.689 165.249 232.018C165.378 232.773 165.527 233.682 165.705 234.756C166.082 237.068 166.638 240.26 167.332 243.771C168.026 247.283 168.76 250.436 169.316 252.719C169.564 253.783 169.772 254.654 169.951 255.428C170.049 255.742 170.105 256.067 170.119 256.395C169.959 256.088 169.836 255.763 169.752 255.428C169.544 254.809 169.276 253.89 168.959 252.758C168.324 250.494 167.54 247.341 166.836 243.82C166.132 240.299 165.646 237.048 165.348 234.756C165.209 233.595 165.11 232.647 165.06 231.989C165.004 231.68 164.99 231.364 165.021 231.051Z" fill="#455A64" fill-opacity="0.8"/>
<path d="M155.895 267.297C156.211 267.159 156.544 267.061 156.886 267.007C157.551 266.862 158.523 266.669 159.713 266.456C162.104 266.011 165.427 265.489 169.117 265.073C172.807 264.657 176.16 264.405 178.59 264.299C179.81 264.241 180.792 264.212 181.466 264.202C181.819 264.157 182.175 264.157 182.528 264.202C182.185 264.292 181.832 264.341 181.476 264.347L178.62 264.599C176.199 264.811 172.856 265.111 169.176 265.566C165.496 266.021 162.173 266.446 159.773 266.794L156.926 267.191C156.588 267.266 156.242 267.302 155.895 267.297Z" fill="#455A64" fill-opacity="0.8"/>
<path d="M110.731 223.001C111.158 222.987 111.584 223.022 112.001 223.108C112.815 223.204 113.985 223.369 115.423 223.601C118.31 224.075 122.287 224.82 126.622 225.845C130.957 226.871 134.855 227.983 137.642 228.854C139.031 229.289 140.152 229.666 140.926 229.937C141.33 230.06 141.721 230.219 142.096 230.411C141.673 230.364 141.257 230.27 140.856 230.131L137.533 229.163C134.726 228.38 130.838 227.335 126.503 226.261C122.168 225.187 118.23 224.433 115.364 223.881L111.961 223.224C111.545 223.192 111.132 223.117 110.731 223.001Z" fill="#455A64" fill-opacity="0.8"/>
<path d="M143.525 188.787C143.371 189.205 143.175 189.607 142.939 189.987C142.513 190.741 141.948 191.844 141.263 193.227C137.705 200.409 135.427 208.129 134.528 216.057C134.349 217.575 134.24 218.814 134.181 219.665C134.181 220.111 134.131 220.555 134.032 220.99C133.985 220.546 133.985 220.099 134.032 219.655C134.032 218.804 134.032 217.556 134.211 216.028C134.567 212.033 135.318 208.08 136.452 204.226C137.586 200.37 139.104 196.631 140.985 193.063C141.709 191.699 142.334 190.615 142.811 189.89C143.013 189.502 143.252 189.132 143.525 188.787Z" fill="#455A64" fill-opacity="0.8"/>
<path d="M93.75 167.969C94.132 168.1 94.4979 168.272 94.8411 168.481C95.5256 168.839 96.4976 169.391 97.688 170.107C100.763 171.976 103.718 174.027 106.536 176.249C109.348 178.485 112.014 180.889 114.521 183.446C115.513 184.414 116.237 185.246 116.743 185.826C117.029 186.117 117.275 186.442 117.477 186.793C117.156 186.555 116.86 186.286 116.594 185.99L114.263 183.736C112.279 181.85 109.482 179.306 106.199 176.714C102.915 174.121 99.7809 171.964 97.4797 170.474L94.732 168.723C94.3796 168.504 94.0507 168.252 93.75 167.969Z" fill="#455A64" fill-opacity="0.8"/>
<path d="M140.618 134.926C140.26 135.364 139.869 135.775 139.447 136.154L136.194 139.395C133.456 142.142 129.756 146.002 125.868 150.442C121.979 154.882 118.666 159.071 116.315 162.147L113.528 165.794C113.209 166.258 112.854 166.698 112.467 167.109C112.72 166.607 113.019 166.128 113.36 165.678C113.955 164.778 114.857 163.501 115.988 161.934C118.27 158.81 121.553 154.582 125.451 150.123C129.349 145.663 133.099 141.823 135.906 139.143C137.305 137.799 138.465 136.725 139.279 136.009C139.698 135.618 140.146 135.256 140.618 134.926Z" fill="#455A64" fill-opacity="0.8"/>
<path d="M88.9287 112.289C89.3139 112.577 89.6694 112.901 89.9901 113.256C90.6646 113.924 91.597 114.911 92.7179 116.158C95.6501 119.425 98.4111 122.835 100.991 126.374C103.966 130.504 106.506 134.412 108.192 137.295C109.035 138.746 109.69 139.926 110.126 140.748C110.372 141.169 110.581 141.609 110.751 142.064C110.447 141.681 110.179 141.273 109.948 140.845C109.412 139.975 108.708 138.843 107.875 137.479C106.109 134.644 103.589 130.785 100.574 126.664C97.5585 122.543 94.6224 118.973 92.4401 116.429L89.8413 113.431C89.5006 113.079 89.195 112.697 88.9287 112.289Z" fill="#455A64" fill-opacity="0.8"/>
<path d="M127.733 77.9395C127.606 78.4161 127.441 78.882 127.237 79.3324C126.84 80.2998 126.334 81.567 125.729 83.0857C124.459 86.249 122.753 90.631 120.859 95.4968C118.964 100.363 117.417 104.793 116.276 108.005L114.907 111.806C114.767 112.28 114.581 112.74 114.352 113.18C114.433 112.694 114.556 112.215 114.719 111.748C114.986 110.829 115.403 109.514 115.929 107.879C116.98 104.638 118.528 100.14 120.382 95.3033C122.237 90.4666 124.033 86.0652 125.392 82.931C126.076 81.3639 126.642 80.1063 127.048 79.2357C127.23 78.7818 127.459 78.3474 127.733 77.9395Z" fill="#455A64" fill-opacity="0.8"/>
<path d="M222.522 123.472C229.753 124.391 230.824 131.626 233.503 137.682C236.181 143.738 241.309 149.145 245.247 154.572C247.33 157.474 250.207 160.018 250.931 163.423C251.714 166.993 250.048 170.668 249.264 174.306C248.481 177.943 249.026 182.364 252.597 183.979C252.196 184.436 251.692 184.795 251.123 185.029C250.555 185.262 249.939 185.363 249.324 185.324C249.324 186.997 247.677 188.448 245.872 188.922C244.053 189.274 242.179 189.257 240.367 188.874C240.853 189.977 239.811 191.321 238.542 191.776C237.243 192.122 235.873 192.122 234.574 191.776C233.286 191.414 231.934 191.319 230.606 191.495C227.63 192.114 225.895 195.365 222.919 195.761C218.832 196.342 215.886 191.244 211.859 192.134C209.964 192.55 208.695 194.165 207.147 195.268C205.6 196.371 202.961 196.09 202.188 194.514C200.025 197.164 196.672 199.747 193.161 200.453C193.41 199.871 193.478 199.231 193.356 198.611C193.235 197.992 192.929 197.421 192.477 196.971C190.545 198.513 188.221 199.516 185.751 199.873C186.494 199.21 187.08 198.398 187.469 197.493C187.857 196.587 188.04 195.61 188.003 194.63C187.173 195.265 186.206 195.707 185.175 195.924C184.144 196.14 183.075 196.124 182.051 195.877C185.682 193.856 186.019 189.154 184.749 185.624C183.48 182.093 181 178.93 180.514 175.205C179.998 171.162 184.878 166.035 183.926 162.049C182.458 155.916 182.567 152.182 182.825 146.465C182.994 142.712 184.68 139.384 186.376 135.892C188.351 131.567 191.732 127.997 195.998 125.735C199.837 123.626 205.362 121.692 209.766 121.595C217.592 121.43 220.786 121.189 226.986 125.232" fill="#263238" fill-opacity="0.8"/>
<path d="M198.367 173.416C195.801 168.541 193.671 163.46 191.999 158.228C190.325 152.97 190.018 147.389 191.107 141.987C191.295 141.184 193.09 135.679 193.934 135.65C194.548 135.65 193.666 140.661 194.043 141.126C197.604 145.595 199.201 151.331 199.508 156.98C199.755 162.486 199.372 168.002 198.367 173.425" fill="#263238" fill-opacity="0.8"/>
<path d="M232.629 219.752C223.979 220.719 203.149 211.849 201.979 203.423L194.966 152.782C192.644 139.24 198.785 126.616 212.731 124.729L214.03 124.633C220.341 124.135 226.611 125.975 231.593 129.784C236.575 133.594 239.902 139.094 240.912 145.189C242.895 156.942 244.879 169.943 245.306 176.299C246.218 189.445 232.917 192.55 232.917 192.55C232.917 192.55 233.254 195.578 233.74 199.418C234.841 208.047 233.433 217.508 232.629 219.732V219.752Z" fill="#FFBE9D"/>
<path d="M232.917 192.539C226.691 193.007 220.458 191.728 214.953 188.854C214.953 188.854 219.992 198.401 233.334 196.167L232.917 192.539Z" fill="#EB996E"/>
<path d="M235.892 156.612C235.937 157.099 235.784 157.584 235.467 157.964C235.151 158.343 234.694 158.587 234.196 158.643C233.953 158.683 233.704 158.675 233.465 158.619C233.226 158.563 233 158.461 232.802 158.318C232.604 158.175 232.437 157.995 232.312 157.789C232.187 157.582 232.106 157.353 232.073 157.115C232.026 156.626 232.177 156.138 232.494 155.757C232.811 155.375 233.269 155.13 233.769 155.074C234.013 155.035 234.261 155.045 234.501 155.102C234.74 155.159 234.966 155.262 235.164 155.406C235.361 155.549 235.528 155.73 235.653 155.937C235.778 156.144 235.859 156.374 235.892 156.612Z" fill="#263238" fill-opacity="0.8"/>
<path d="M238.511 151.196C238.293 151.457 236.755 150.519 234.682 150.683C232.609 150.848 231.181 151.979 230.933 151.757C230.685 151.534 231.022 151.196 231.637 150.673C232.482 149.996 233.521 149.59 234.613 149.513C235.688 149.427 236.764 149.674 237.688 150.219C238.382 150.654 238.63 151.08 238.511 151.196Z" fill="#263238" fill-opacity="0.8"/>
<path d="M216.43 158.094C216.477 158.587 216.322 159.079 215.999 159.461C215.675 159.844 215.21 160.086 214.704 160.135C214.461 160.173 214.212 160.163 213.972 160.106C213.733 160.049 213.508 159.946 213.31 159.803C213.112 159.659 212.946 159.479 212.82 159.272C212.695 159.064 212.614 158.835 212.581 158.597C212.549 158.111 212.705 157.631 213.02 157.252C213.334 156.874 213.783 156.625 214.278 156.556C214.523 156.514 214.774 156.522 215.017 156.577C215.259 156.633 215.488 156.736 215.689 156.879C215.889 157.023 216.059 157.204 216.186 157.413C216.313 157.621 216.396 157.853 216.43 158.094Z" fill="#263238" fill-opacity="0.8"/>
<path d="M218.266 153.247C218.048 153.518 216.5 152.579 214.437 152.744C212.374 152.908 210.926 154.04 210.688 153.808C210.449 153.576 210.767 153.247 211.392 152.724C212.24 152.054 213.279 151.652 214.368 151.573C215.444 151.482 216.521 151.729 217.443 152.279C218.117 152.705 218.375 153.131 218.266 153.247Z" fill="#263238" fill-opacity="0.8"/>
<path d="M226.965 168.182C228.033 167.767 229.149 167.481 230.288 167.331C230.804 167.234 231.28 167.089 231.359 166.731C231.364 166.195 231.197 165.671 230.883 165.231C230.278 164.022 229.653 162.755 228.998 161.43C226.36 156.013 224.416 151.534 224.634 151.437C224.852 151.34 227.183 155.645 229.812 161.111C230.447 162.455 231.052 163.722 231.637 164.98C232.02 165.577 232.174 166.286 232.073 166.982C232.012 167.17 231.908 167.341 231.769 167.484C231.63 167.626 231.459 167.736 231.27 167.805C230.981 167.902 230.681 167.967 230.377 167.998C229.253 168.205 228.106 168.267 226.965 168.182Z" fill="#263238" fill-opacity="0.8"/>
<path d="M217.462 145.721C217.224 146.253 215.171 145.875 212.72 146.011C210.27 146.146 208.257 146.678 207.969 146.165C207.84 145.924 208.217 145.43 209.04 144.947C210.132 144.346 211.358 144.014 212.611 143.979C213.866 143.904 215.121 144.123 216.272 144.618C217.144 145.005 217.561 145.459 217.462 145.721Z" fill="#263238" fill-opacity="0.8"/>
<path d="M237.648 146.514C237.261 147.007 235.525 146.688 233.502 146.853C231.478 147.017 229.792 147.51 229.356 147.065C229.157 146.853 229.356 146.369 230.09 145.866C231.075 145.248 232.205 144.883 233.374 144.805C234.543 144.727 235.713 144.939 236.775 145.421C237.519 145.817 237.817 146.272 237.648 146.514Z" fill="#263238" fill-opacity="0.8"/>
<path d="M196.85 162.418C196.612 162.34 187.367 160.483 188.409 169.431C189.45 178.379 198.447 175.535 198.437 175.235C198.427 174.935 196.85 162.418 196.85 162.418Z" fill="#FFBE9D"/>
<path d="M195.253 172.186C195.253 172.186 195.114 172.312 194.856 172.467C194.492 172.668 194.061 172.724 193.656 172.622C192.664 172.38 191.672 170.967 191.424 169.362C191.311 168.593 191.379 167.809 191.622 167.069C191.676 166.781 191.801 166.51 191.986 166.279C192.17 166.048 192.41 165.864 192.684 165.744C192.861 165.677 193.057 165.672 193.238 165.73C193.419 165.789 193.574 165.906 193.676 166.063C193.824 166.305 193.795 166.489 193.844 166.498C193.894 166.508 194.023 166.324 193.904 165.966C193.83 165.748 193.678 165.563 193.477 165.444C193.342 165.364 193.191 165.312 193.034 165.291C192.877 165.269 192.718 165.278 192.565 165.318C192.196 165.43 191.863 165.633 191.599 165.908C191.334 166.182 191.148 166.519 191.057 166.885C190.754 167.705 190.662 168.586 190.789 169.449C191.057 171.238 192.198 172.825 193.567 173.057C193.821 173.101 194.083 173.088 194.332 173.019C194.581 172.951 194.811 172.828 195.005 172.66C195.263 172.409 195.292 172.206 195.253 172.186Z" fill="#EB996E"/>
<path d="M233.124 131.046C234.513 130.079 229.474 125.909 225.615 124.72C219.803 122.93 211.183 122.427 206.273 124.439C200.321 126.857 195.649 130.427 193.249 136.231C190.974 142.117 190.348 148.488 191.434 154.688C191.595 156.599 192.28 158.434 193.417 159.999C194.945 161.827 197.554 162.785 197.792 165.522C197.817 166.021 197.944 166.51 198.165 166.96C198.386 167.41 198.698 167.813 199.081 168.144C200.976 169.691 202.831 167.805 203.575 166.054C205.152 162.311 204.854 158.093 204.567 154.059C204.492 151.176 203.936 148.323 202.92 145.614C202.285 144.183 201.393 142.857 200.837 141.387C200.516 140.667 200.359 139.888 200.376 139.103C200.393 138.318 200.584 137.546 200.936 136.84C201.125 136.545 201.344 136.27 201.591 136.018C202.733 134.774 204.194 133.85 205.824 133.34C207.454 132.829 209.195 132.752 210.865 133.116C216.252 134.287 225.407 135.902 227.5 133.919C230.476 131.075 231.111 129.372 231.111 129.372L233.124 131.046Z" fill="#263238" fill-opacity="0.8"/>
<path d="M221.44 169.904C221.321 169.904 221.301 170.436 221.579 171.191C221.958 172.186 222.653 173.037 223.563 173.619C224.436 174.185 225.407 174.591 226.43 174.818C227.193 174.983 227.689 175.012 227.729 174.886C227.769 174.76 227.342 174.509 226.658 174.18C225.779 173.796 224.93 173.35 224.118 172.845C222.273 171.694 221.728 169.836 221.44 169.904Z" fill="#263238" fill-opacity="0.8"/>
<path d="M197.167 163.588L197.395 164.091C197.395 164.091 197.306 163.917 197.167 163.588Z" fill="#FF725E"/>
<path d="M194.023 162.213C194.023 162.213 195.561 160.229 197.168 163.586C195.253 159.194 182.527 127.436 217.423 123.248C217.423 123.248 204.816 121.081 197.208 127.195C197.208 127.195 181.763 136.201 194.023 162.213Z" fill="#455A64" fill-opacity="0.8"/>
<path d="M260.75 322.541L179.64 323.615C179.64 323.615 156.955 314.357 150.725 314.106C144.496 313.854 132.117 314.638 126.393 323.615C120.442 332.901 119.658 349.279 137.88 361.187C155.635 372.795 236.805 383.484 247.924 382.468L268.437 355.634C268.437 355.634 268.655 333.627 268.437 332.582C268.219 331.538 264.787 322.096 264.787 322.096L260.75 322.541Z" fill="#263238" fill-opacity="0.8"/>
<path d="M212.195 359.688L170.167 374.914L189.321 425.999C194.211 423.919 194.35 393.903 194.35 393.903L221.688 385.196L212.195 359.688Z" fill="#FF725E"/>
<g opacity="0.6">
<path d="M190.7 377.293C190.362 376.859 189.872 376.561 189.323 376.456C188.775 376.351 188.205 376.446 187.724 376.723C187.26 377.038 186.939 377.515 186.826 378.056C186.714 378.596 186.818 379.158 187.119 379.625C187.479 380.086 188.002 380.402 188.586 380.509C189.171 380.616 189.776 380.508 190.283 380.205C190.727 379.83 191.004 379.303 191.058 378.733C191.111 378.163 190.937 377.595 190.571 377.148" fill="white"/>
</g>
<path d="M170.167 374.913L174.412 373.375L191.226 423.029C191.226 423.029 191.057 425.67 189.321 425.999L170.167 374.913Z" fill="#263238" fill-opacity="0.8"/>
<path d="M194.925 394.639C194.667 394.716 194.081 393.517 192.802 392.578C191.522 391.64 190.203 391.379 190.213 391.108C190.223 390.837 191.85 390.692 193.377 391.843C194.905 392.994 195.182 394.61 194.925 394.639Z" fill="#263238" fill-opacity="0.8"/>
<path d="M194.668 400.799C194.439 400.944 193.596 400.025 192.198 399.561C190.799 399.096 189.559 399.261 189.48 399.009C189.4 398.758 190.789 398.042 192.515 398.69C194.241 399.338 194.866 400.712 194.668 400.799Z" fill="#263238" fill-opacity="0.8"/>
<path d="M189.232 406.187C189.093 405.984 190.224 405.22 191.881 405.327C193.537 405.433 194.519 406.429 194.341 406.613C194.162 406.797 193.15 406.342 191.801 406.246C190.452 406.149 189.351 406.429 189.232 406.187Z" fill="#263238" fill-opacity="0.8"/>
<path d="M200.937 391.988C200.659 391.988 200.589 390.692 199.945 389.318C199.3 387.945 198.457 387.006 198.625 386.793C198.794 386.581 200.103 387.325 200.818 388.951C201.532 390.576 201.185 392.036 200.937 391.988Z" fill="#263238" fill-opacity="0.8"/>
<path d="M206.689 388.525C206.149 387.766 205.824 386.882 205.747 385.961C205.567 384.979 205.514 383.978 205.588 382.982C205.63 382.39 205.713 381.802 205.836 381.221C205.895 380.885 206.005 380.559 206.163 380.254C206.282 380.024 206.476 379.839 206.716 379.73C206.955 379.621 207.226 379.594 207.483 379.654C207.707 379.717 207.913 379.828 208.085 379.981C208.257 380.134 208.39 380.323 208.475 380.535C208.6 380.861 208.677 381.203 208.703 381.55C208.762 382.146 208.762 382.745 208.703 383.34C208.626 384.337 208.388 385.317 207.999 386.242C207.324 387.828 206.521 388.573 206.441 388.506C206.362 388.438 206.897 387.538 207.374 386.029C207.649 385.134 207.803 384.207 207.83 383.272C207.852 382.726 207.826 382.179 207.751 381.637C207.691 381.047 207.522 380.583 207.225 380.535C207.106 380.535 207.066 380.535 206.947 380.689C206.837 380.924 206.757 381.171 206.709 381.425C206.585 381.964 206.492 382.51 206.431 383.059C206.327 383.994 206.31 384.937 206.382 385.874C206.548 386.75 206.651 387.635 206.689 388.525Z" fill="#263238" fill-opacity="0.8"/>
<path d="M206.205 388.359C206.135 388.282 206.859 387.46 208.486 386.773C209.433 386.391 210.439 386.166 211.462 386.105C212.075 386.07 212.69 386.096 213.297 386.183C213.695 386.197 214.082 386.311 214.421 386.514C214.76 386.718 215.039 387.004 215.231 387.344C215.31 387.574 215.322 387.821 215.264 388.057C215.206 388.293 215.081 388.508 214.904 388.679C214.647 388.917 214.356 389.119 214.041 389.278C213.489 389.577 212.893 389.792 212.275 389.917C211.239 390.12 210.167 390.077 209.151 389.791C207.425 389.269 206.73 388.34 206.8 388.292C207.621 388.62 208.459 388.907 209.309 389.153C210.226 389.322 211.17 389.299 212.077 389.085C212.604 388.955 213.111 388.756 213.585 388.495C214.11 388.214 214.477 387.856 214.348 387.673C214.22 387.489 213.674 387.131 213.148 387.082C212.601 386.989 212.047 386.947 211.492 386.957C210.539 386.965 209.593 387.112 208.685 387.392C207.157 387.866 206.294 388.524 206.205 388.359Z" fill="#263238" fill-opacity="0.8"/>
<path d="M246.863 353.371L287.532 371.751L264.301 421.23C259.59 418.783 261.871 388.853 261.871 388.853L235.337 378.106L246.863 353.371Z" fill="#FF725E"/>
<g opacity="0.6">
<path d="M266.87 372.573C267.244 372.165 267.759 371.905 268.317 371.843C268.874 371.78 269.436 371.92 269.895 372.234C270.325 372.581 270.603 373.075 270.671 373.614C270.739 374.154 270.593 374.699 270.262 375.136C269.868 375.569 269.324 375.845 268.734 375.909C268.144 375.973 267.551 375.822 267.068 375.485C266.655 375.077 266.42 374.529 266.41 373.956C266.401 373.383 266.619 372.829 267.019 372.409" fill="white"/>
</g>
<path d="M287.533 371.769L283.426 369.912L262.665 418.134C262.665 418.134 262.616 420.775 264.322 421.23L287.533 371.769Z" fill="#263238" fill-opacity="0.8"/>
<path d="M261.256 389.539C261.513 389.636 262.188 388.485 263.547 387.653C264.906 386.821 266.235 386.686 266.245 386.386C266.255 386.086 264.648 385.834 263.031 386.869C261.414 387.904 261.008 389.491 261.256 389.539Z" fill="#263238" fill-opacity="0.8"/>
<path d="M261.028 395.711C261.236 395.866 262.149 395.015 263.587 394.657C265.025 394.299 266.235 394.56 266.335 394.318C266.434 394.076 265.115 393.293 263.359 393.767C261.603 394.241 260.79 395.595 261.028 395.711Z" fill="#263238" fill-opacity="0.8"/>
<path d="M266.007 401.496C266.166 401.302 265.085 400.412 263.438 400.422C261.791 400.432 260.72 401.331 260.879 401.525C261.038 401.718 262.089 401.341 263.438 401.351C264.787 401.36 265.868 401.728 266.007 401.496Z" fill="#263238" fill-opacity="0.8"/>
<path d="M255.483 386.435C255.761 386.435 255.939 385.177 256.673 383.852C257.408 382.526 258.35 381.656 258.201 381.443C258.052 381.23 256.683 381.849 255.83 383.378C254.977 384.906 255.235 386.464 255.483 386.435Z" fill="#263238" fill-opacity="0.8"/>
<path d="M250.017 382.566C250.116 382.614 250.722 381.734 251.168 380.089C251.428 379.123 251.561 378.128 251.565 377.129C251.575 376.538 251.541 375.946 251.465 375.359C251.431 375.027 251.347 374.701 251.217 374.392C251.116 374.153 250.937 373.954 250.707 373.826C250.477 373.698 250.21 373.649 249.948 373.686C249.718 373.731 249.502 373.828 249.318 373.969C249.134 374.11 248.986 374.291 248.886 374.498C248.74 374.806 248.636 375.131 248.579 375.466C248.467 376.053 248.408 376.648 248.4 377.245C248.398 378.253 248.555 379.255 248.867 380.215C249.422 381.85 250.156 382.653 250.245 382.595C250.335 382.537 249.868 381.628 249.511 380.041C249.189 378.591 249.189 377.09 249.511 375.64C249.62 375.059 249.819 374.605 250.126 374.585C250.235 374.585 250.275 374.585 250.384 374.759C250.479 374.998 250.539 375.249 250.563 375.504C250.65 376.052 250.7 376.604 250.712 377.158C250.745 378.1 250.685 379.043 250.533 379.973C250.306 380.826 250.133 381.692 250.017 382.566Z" fill="#263238" fill-opacity="0.8"/>
<path d="M250.523 382.41C250.602 382.342 249.938 381.443 248.38 380.669C247.449 380.201 246.443 379.894 245.405 379.76C244.796 379.681 244.182 379.662 243.57 379.702C243.182 379.689 242.798 379.77 242.452 379.939C242.105 380.108 241.807 380.359 241.586 380.669C241.488 380.892 241.456 381.137 241.495 381.377C241.533 381.616 241.64 381.841 241.804 382.023C242.039 382.284 242.313 382.509 242.617 382.691C243.145 383.032 243.724 383.29 244.333 383.455C245.346 383.745 246.416 383.785 247.448 383.571C249.214 383.194 249.987 382.313 249.908 382.255C249.067 382.53 248.209 382.753 247.339 382.923C246.413 383.027 245.475 382.932 244.591 382.642C244.076 382.481 243.588 382.247 243.143 381.946C242.637 381.627 242.3 381.24 242.439 381.066C242.597 380.901 242.789 380.771 243.003 380.686C243.217 380.601 243.448 380.562 243.679 380.572C244.233 380.519 244.791 380.519 245.345 380.572C246.292 380.656 247.221 380.875 248.103 381.22C249.62 381.859 250.414 382.526 250.523 382.41Z" fill="#263238" fill-opacity="0.8"/>
<path d="M264.787 322.117C264.787 322.117 299.812 309.367 312.707 311.012C319.918 311.979 331.186 317.299 332.049 326.315C332.912 335.331 330.651 347.374 318.162 353.246C305.674 359.118 255.949 380.883 244.135 384.201C232.321 387.519 202.841 395.403 202.841 395.403L191.672 364.341C191.672 364.341 252.755 343.718 255.978 341.415C259.202 339.113 267.366 335.96 267.366 335.96L264.787 322.117Z" fill="#263238" fill-opacity="0.8"/>
<path d="M143.019 326.353L143.267 326.285L143.971 326.082C144.586 325.898 145.498 325.637 146.689 325.366C148.133 325.013 149.601 324.764 151.083 324.621C153.043 324.442 155.015 324.442 156.975 324.621C159.353 324.819 161.703 325.257 163.988 325.927C165.258 326.298 166.495 326.767 167.688 327.33L171.497 329.149C176.734 331.596 182.587 334.092 188.826 336.491C201.304 341.328 213.287 343.688 221.827 345.574C226.112 346.542 229.574 347.267 231.965 347.818L234.712 348.457L235.436 348.612C235.519 348.62 235.602 348.62 235.684 348.612L235.446 348.534L234.732 348.341C234.107 348.176 233.195 347.925 232.004 347.635C229.624 347.045 226.162 346.242 221.887 345.284C213.356 343.349 201.403 340.979 188.965 336.114C182.735 333.715 176.893 331.228 171.646 328.8L167.827 327.001C166.628 326.456 165.388 326.003 164.117 325.647C161.808 324.981 159.435 324.553 157.034 324.37C155.053 324.208 153.061 324.225 151.083 324.418C149.597 324.587 148.125 324.859 146.679 325.231C145.488 325.531 144.576 325.811 143.961 326.024L143.276 326.266L143.019 326.353Z" fill="#455A64" fill-opacity="0.8"/>
<path d="M144.863 321.845C144.863 321.904 145.935 321.72 147.641 321.546C149.874 321.312 152.122 321.247 154.366 321.352C156.611 321.468 158.843 321.756 161.042 322.213C162.728 322.561 163.75 322.851 163.769 322.793C163.549 322.677 163.316 322.586 163.075 322.523C162.424 322.302 161.762 322.115 161.091 321.962C156.682 320.887 152.1 320.657 147.601 321.284C146.738 321.41 146.054 321.536 145.617 321.642C145.359 321.682 145.106 321.75 144.863 321.845Z" fill="#455A64" fill-opacity="0.8"/>
<path d="M279.517 331.15C279.566 331.208 280.509 330.473 282.215 329.457C284.404 328.139 286.732 327.053 289.158 326.217C291.583 325.39 294.089 324.813 296.637 324.495C298.621 324.263 299.821 324.234 299.821 324.176C299.537 324.121 299.247 324.104 298.958 324.127C298.173 324.123 297.389 324.159 296.608 324.234C294.023 324.478 291.478 325.027 289.029 325.868C286.586 326.718 284.255 327.848 282.086 329.235C281.262 329.776 280.608 330.202 280.181 330.589C279.943 330.757 279.721 330.944 279.517 331.15Z" fill="#455A64" fill-opacity="0.8"/>
<path d="M261.94 377.565L261.672 377.662L260.878 377.991C260.164 378.261 259.152 378.735 257.784 379.248C255.056 380.303 251.019 381.754 245.881 383.408C235.535 386.706 220.656 390.905 202.801 395.296L203 395.403L192.178 366.092L192.068 366.324L205.479 360.956L279.685 331.171C282.711 328.056 285.488 325.309 288.097 323.084C290.302 321.182 292.657 319.451 295.14 317.909C296.702 316.951 298.314 316.072 299.97 315.277L301.27 314.687L301.706 314.475L301.26 314.658L299.941 315.219C298.267 315.989 296.637 316.848 295.06 317.793C292.56 319.327 290.186 321.047 287.958 322.939C285.339 325.154 282.542 327.892 279.507 330.997L205.261 360.675L191.85 366.044L191.682 366.112L191.741 366.276C195.61 376.694 199.28 386.59 202.652 395.577V395.722H202.801C220.606 391.321 235.465 387.074 245.801 383.717C250.969 382.034 254.996 380.554 257.704 379.461C259.063 378.939 260.075 378.445 260.779 378.155L261.563 377.807L261.94 377.565Z" fill="#455A64" fill-opacity="0.8"/>
<path d="M175.364 213.25C175.364 213.25 165.276 218.919 163.233 225.574C161.993 229.617 152.59 281.332 151.102 291.528C149.614 301.724 152.748 309.269 157.212 312.655C161.676 316.04 175.186 320.548 175.186 320.548L194.201 326.555L199.647 313.012L181.544 287.658L183.3 270.575L175.364 213.25Z" fill="#5C69AB"/>
<path d="M195.194 204.322L201.483 199.795C201.483 199.795 209.676 207.979 219.089 207.012C228.503 206.044 234.077 199.012 234.077 199.012L262.149 204.593C264.024 204.961 267.466 206.122 270.749 210.697C274.409 215.805 291.778 238.441 291.778 238.441H303.978C305.614 238.449 307.217 238.891 308.614 239.719C310.012 240.547 311.153 241.73 311.914 243.142C313.997 247.011 316.487 252.158 316.249 254.296C315.832 257.904 316.546 267.838 311.577 270.915C310.009 271.882 304.365 274.842 299.991 274.649C293.543 274.349 286.044 271.069 281.73 268.129C278.069 265.633 269.569 257.014 266.295 253.618V253.676L264.202 325.483L190.601 323.441L175.365 213.251C175.365 213.251 194.45 204.322 195.194 204.322Z" fill="#5C69AB"/>
<path d="M266.573 223.562C266.474 223.562 266.276 232.462 266.147 243.441C266.018 254.421 265.988 263.32 266.097 263.33C266.206 263.34 266.395 254.431 266.524 243.441C266.653 232.452 266.682 223.562 266.573 223.562Z" fill="#263238" fill-opacity="0.8"/>
<path d="M166.458 281.613C166.458 281.613 167.083 281.71 168.194 281.923C169.761 282.226 171.288 282.699 172.747 283.335C174.908 284.287 176.946 285.485 178.817 286.905C181.108 288.664 183.244 290.605 185.205 292.709C187.318 294.924 189.233 297.12 191.048 299.064C192.626 300.81 194.298 302.473 196.057 304.046C197.245 305.095 198.505 306.064 199.826 306.948C200.283 307.277 200.679 307.49 200.927 307.645C201.054 307.729 201.186 307.803 201.324 307.867C201.324 307.867 201.215 307.761 200.967 307.587C200.719 307.412 200.362 307.18 199.916 306.832C198.628 305.899 197.399 304.891 196.236 303.814C194.748 302.469 193.091 300.757 191.276 298.803C189.461 296.849 187.576 294.643 185.453 292.419C183.473 290.309 181.313 288.368 178.996 286.614C177.097 285.191 175.025 284.002 172.826 283.074C171.34 282.453 169.781 282.011 168.184 281.758C167.628 281.652 167.192 281.652 166.885 281.613H166.458Z" fill="#263238" fill-opacity="0.8"/>
<path d="M164.79 276.747C164.79 276.815 165.901 276.97 167.657 277.444C169.938 278.065 172.125 278.976 174.164 280.152C176.194 281.345 178.058 282.789 179.709 284.447C180.978 285.724 181.643 286.614 181.692 286.575C181.581 286.338 181.438 286.117 181.266 285.918C180.847 285.338 180.39 284.785 179.897 284.263C176.65 280.776 172.408 278.314 167.716 277.192C167.012 277.016 166.296 276.887 165.574 276.805C165.315 276.761 165.053 276.741 164.79 276.747Z" fill="#263238" fill-opacity="0.8"/>
<g opacity="0.3">
<path d="M301.767 264.143C297.878 265.178 293.197 259.712 289.655 256.298C287.82 254.518 285.906 252.612 285.221 250.174C284.744 248.122 284.96 245.974 285.836 244.051C286.489 242.318 287.359 240.671 288.425 239.146C288.098 242.097 287.354 246.614 288.376 250.319C289.219 253.415 291.233 255.872 293.335 258.203C295.587 260.68 298.295 263.272 301.737 264.143" fill="black"/>
</g>
<path d="M285.13 261.019C285.21 261.019 284.754 259.771 284.387 257.71C284.182 256.504 284.063 255.286 284.029 254.063C284.015 252.565 284.118 251.068 284.337 249.585C284.594 248.111 284.969 246.658 285.458 245.241C285.873 244.088 286.373 242.966 286.956 241.884C287.948 240.027 288.771 238.982 288.711 238.982C288.478 239.19 288.274 239.428 288.106 239.689C287.878 239.97 287.666 240.264 287.471 240.569C287.243 240.927 286.966 241.314 286.718 241.788C286.095 242.866 285.565 243.992 285.13 245.154C284.613 246.589 284.225 248.065 283.97 249.565C283.737 251.066 283.641 252.584 283.682 254.102C283.725 255.337 283.874 256.567 284.129 257.778C284.218 258.3 284.357 258.745 284.466 259.171C284.554 259.518 284.66 259.86 284.783 260.196C284.87 260.481 284.986 260.757 285.13 261.019Z" fill="#263238" fill-opacity="0.8"/>
<path d="M231.013 201.826C230.963 201.923 231.826 202.416 232.729 203.2C233.631 203.983 234.237 204.767 234.326 204.709C234.009 204.028 233.551 203.419 232.981 202.919C232.411 202.42 231.741 202.041 231.013 201.807V201.826Z" fill="#263238" fill-opacity="0.8"/>
<path d="M223.355 206.131C223.275 206.208 224.009 206.982 224.604 208.124C225.2 209.265 225.428 210.31 225.537 210.29C225.525 209.48 225.321 208.684 224.943 207.963C224.565 207.241 224.021 206.615 223.355 206.131Z" fill="#263238" fill-opacity="0.8"/>
<path d="M210.24 210.629C210.589 209.943 210.871 209.228 211.083 208.491C211.405 207.792 211.655 207.062 211.827 206.314C210.899 207.582 210.35 209.075 210.24 210.629Z" fill="#263238" fill-opacity="0.8"/>
<path d="M201.809 206.741C201.918 206.741 202.205 205.513 203.039 204.197C203.872 202.882 204.864 202.03 204.784 201.943C203.935 202.466 203.223 203.176 202.706 204.016C202.189 204.856 201.882 205.803 201.809 206.78V206.741Z" fill="#263238" fill-opacity="0.8"/>
<path d="M177.567 229.996C177.458 229.996 178.708 239.824 180.345 251.906C181.981 263.989 183.4 273.778 183.509 273.769C183.618 273.759 182.368 263.95 180.722 251.858C179.075 239.766 177.666 229.986 177.567 229.996Z" fill="#263238" fill-opacity="0.8"/>
<path d="M287.86 245.879C287.827 246.201 287.827 246.525 287.86 246.846C287.883 247.242 287.933 247.637 288.009 248.026C288.009 248.259 288.098 248.5 288.138 248.762C288.178 249.023 288.277 249.284 288.346 249.574C288.709 250.905 289.197 252.2 289.804 253.444C290.559 254.954 291.463 256.389 292.502 257.729C293.562 259.058 294.769 260.268 296.103 261.337C297.199 262.202 298.411 262.917 299.704 263.465C299.981 263.572 300.249 263.688 300.497 263.775L301.241 263.978L301.886 264.152C302.084 264.152 302.273 264.2 302.432 264.23C302.776 264.279 303.124 264.305 303.473 264.307C302.217 264.071 300.991 263.708 299.813 263.223C298.56 262.656 297.386 261.934 296.321 261.076C295.023 260.009 293.843 258.813 292.8 257.506C291.781 256.182 290.881 254.774 290.112 253.298C289.504 252.08 289 250.815 288.604 249.516C287.969 247.291 287.949 245.869 287.86 245.879Z" fill="#263238" fill-opacity="0.8"/>
<g opacity="0.3">
<path d="M179.988 327.969C176.863 326.499 176.159 322.552 175.831 319.186L173.034 289.595C172.598 284.951 172.389 279.66 175.742 276.342C178.807 273.314 183.678 273.13 188.032 273.15C214.963 273.217 238.749 273.991 265.68 274.069L264.301 320.008L179.988 327.969Z" fill="black"/>
</g>
<path d="M277.196 281.149L274.329 334.441C274.275 335.431 273.834 336.364 273.096 337.046C272.357 337.729 271.378 338.108 270.361 338.107L183.32 338.252C182.301 338.253 181.32 337.872 180.582 337.188C179.843 336.504 179.403 335.568 179.352 334.576L176.019 282.223C175.91 280.047 177.497 277.154 179.759 277.106H273.168C273.71 277.098 274.247 277.197 274.748 277.399C275.248 277.601 275.701 277.9 276.078 278.279C276.455 278.658 276.749 279.108 276.941 279.601C277.133 280.095 277.22 280.622 277.196 281.149Z" fill="#E0E0E0" fill-opacity="0.8"/>
<path d="M277.197 281.149C277.201 281.084 277.201 281.02 277.197 280.955C277.214 280.756 277.214 280.555 277.197 280.356C277.093 279.68 276.809 279.043 276.371 278.51C275.934 277.976 275.36 277.565 274.707 277.318C274.034 277.079 273.318 276.98 272.604 277.028H267.317L233.591 276.96H183.569H180.017C179.386 276.932 178.76 277.091 178.222 277.415C177.693 277.742 177.24 278.174 176.893 278.682C176.184 279.694 175.804 280.891 175.802 282.116C175.871 283.306 175.941 284.505 176.02 285.705C176.318 290.503 176.625 295.395 176.942 300.38C177.577 310.353 178.232 320.694 178.926 331.248L179.055 333.231C179.074 333.897 179.13 334.563 179.224 335.223C179.362 335.9 179.675 336.53 180.134 337.055C180.592 337.58 181.18 337.982 181.843 338.222C182.497 338.449 183.193 338.541 183.886 338.493H189.838H205.47L235.01 338.425L261.742 338.367H267.912H269.42C269.923 338.38 270.426 338.364 270.928 338.319C271.945 338.183 272.875 337.683 273.536 336.916C274.188 336.166 274.541 335.211 274.528 334.227L274.677 331.48C274.766 329.661 274.865 327.891 274.955 326.159C275.679 312.297 276.264 301.076 276.661 293.318C276.859 289.449 277.008 286.43 277.107 284.38C277.107 283.364 277.187 282.59 277.216 282.058C277.246 281.526 277.216 281.265 277.216 281.265C277.216 281.265 277.216 281.536 277.157 282.058C277.097 282.58 277.077 283.364 277.008 284.38C276.889 286.43 276.72 289.439 276.492 293.308C276.066 301.047 275.441 312.288 274.667 326.14C274.578 327.881 274.479 329.652 274.379 331.47C274.33 332.37 274.28 333.289 274.221 334.217C274.246 335.142 273.92 336.043 273.304 336.747C272.689 337.451 271.828 337.907 270.888 338.029C270.4 338.074 269.91 338.09 269.42 338.077H261.742H235.01H205.47H189.838H183.886C183.241 338.126 182.592 338.044 181.981 337.835C181.376 337.616 180.839 337.249 180.421 336.77C180.002 336.291 179.717 335.715 179.591 335.098C179.482 334.498 179.482 333.811 179.432 333.163L179.303 331.228C178.629 320.655 177.974 310.334 177.319 300.36C177.002 295.382 176.691 290.49 176.387 285.686C176.318 284.486 176.238 283.296 176.169 282.116C176.162 280.964 176.508 279.836 177.161 278.876C177.448 278.392 177.862 277.992 178.361 277.716C178.86 277.441 179.425 277.3 179.998 277.308H183.549H233.562L267.287 277.25H272.574C273.276 277.193 273.983 277.282 274.647 277.512C275.191 277.727 275.679 278.057 276.076 278.479C276.627 279.038 276.993 279.746 277.127 280.51C277.159 280.722 277.182 280.935 277.197 281.149Z" fill="#263238" fill-opacity="0.8"/>
<path d="M220.846 307.171C220.846 308.16 221.146 309.127 221.71 309.95C222.273 310.772 223.074 311.413 224.011 311.792C224.949 312.17 225.98 312.269 226.974 312.076C227.969 311.883 228.883 311.407 229.6 310.707C230.317 310.008 230.806 309.117 231.004 308.147C231.202 307.177 231.1 306.171 230.712 305.257C230.324 304.343 229.666 303.562 228.823 303.013C227.98 302.463 226.988 302.17 225.974 302.17C225.3 302.17 224.634 302.299 224.011 302.551C223.389 302.802 222.824 303.17 222.348 303.635C221.872 304.099 221.494 304.65 221.236 305.257C220.978 305.864 220.846 306.514 220.846 307.171Z" fill="white"/>
<path d="M220.844 307.17C220.844 307.17 220.844 306.725 221.082 305.97C221.33 305.071 221.834 304.26 222.537 303.629C223.239 302.999 224.11 302.576 225.05 302.411C225.764 302.284 226.498 302.313 227.2 302.494C227.902 302.675 228.555 303.004 229.113 303.458C229.67 303.912 230.118 304.479 230.426 305.121C230.733 305.762 230.893 306.462 230.893 307.17C230.893 307.878 230.733 308.577 230.426 309.219C230.118 309.86 229.67 310.428 229.113 310.882C228.555 311.336 227.902 311.665 227.2 311.846C226.498 312.027 225.764 312.055 225.05 311.929C224.111 311.762 223.24 311.339 222.538 310.709C221.836 310.079 221.331 309.268 221.082 308.369C220.864 307.615 220.884 307.17 220.844 307.17C220.829 307.276 220.829 307.383 220.844 307.489C220.841 307.799 220.878 308.107 220.953 308.408C221.214 309.537 221.87 310.543 222.808 311.252C223.363 311.67 223.998 311.976 224.676 312.152C225.355 312.328 226.062 312.369 226.757 312.275C227.452 312.18 228.12 311.951 228.723 311.601C229.326 311.251 229.851 310.787 230.267 310.236C230.944 309.35 231.309 308.275 231.309 307.17C231.309 306.065 230.944 304.99 230.267 304.103C229.676 303.321 228.868 302.718 227.94 302.366C227.011 302.013 225.998 301.925 225.02 302.111C224.214 302.256 223.455 302.587 222.808 303.078C221.868 303.782 221.212 304.785 220.953 305.912C220.878 306.213 220.841 306.522 220.844 306.831C220.827 306.944 220.827 307.058 220.844 307.17Z" fill="#263238" fill-opacity="0.8"/>
<path d="M274.309 287.078C274.2 287.078 273.773 296.026 273.317 307.073C272.861 318.12 272.633 327.088 272.732 327.088C272.831 327.088 273.268 318.14 273.724 307.093C274.18 296.045 274.408 287.078 274.309 287.078Z" fill="#263238" fill-opacity="0.8"/>
<path d="M300.466 217.556C300.972 217.13 298.75 208.763 298.75 208.763C298.75 208.763 304.652 199.37 304.801 196.342C304.95 193.314 302.47 187.094 302.47 187.094L285.538 182.848C285.538 182.848 280.092 192.705 279.011 196.187C277.93 199.67 280.876 211.5 280.876 211.5L283.742 217.566C283.742 217.566 292.402 224.221 300.466 217.556Z" fill="#FFBE9D"/>
<path d="M304.772 198.15C305.437 196.961 306.033 195.737 306.558 194.484C307.629 191.998 308.949 189.57 306.558 188.186C306.187 187.945 305.768 187.785 305.328 187.717C304.888 187.648 304.438 187.673 304.009 187.79C304.009 187.79 304.376 185.7 303.096 184.888C302.726 184.66 302.304 184.521 301.868 184.484C301.431 184.447 300.992 184.513 300.587 184.675C300.587 184.675 300.983 181.773 299.148 180.486C298.456 180.042 297.651 179.794 296.822 179.77C295.994 179.746 295.175 179.947 294.456 180.351C294.456 180.351 295.915 167.466 296.034 166.808C296.5 164.303 295.548 162.087 292.998 162.707C292.056 162.929 291.54 163.896 290.439 168.095C289.338 172.293 287.572 179.451 287.572 179.451C287.572 179.451 284.597 184.491 283.198 187.19C281.799 189.889 279.012 196.148 278.784 197.831C278.179 202.097 280.768 207.746 280.768 207.746L298.781 208.714C298.781 208.714 304.088 199.369 304.772 198.15Z" fill="#FFBE9D"/>
<path d="M303.652 188.352C303.133 188.959 302.665 189.606 302.253 190.286L300.835 192.395C300.537 192.81 300.278 193.251 300.061 193.711C299.807 194.235 299.733 194.826 299.853 195.394C299.906 195.688 300.039 195.964 300.238 196.192C300.436 196.419 300.694 196.591 300.983 196.69C301.528 196.822 302.104 196.753 302.6 196.497C303.021 196.29 303.423 196.047 303.801 195.771L304.792 195.065C305.378 194.62 305.784 194.233 306.132 193.962C306.479 193.691 306.598 193.527 306.578 193.508C306.558 193.488 305.824 194.02 304.594 194.852C303.912 195.355 303.189 195.801 302.432 196.187C302.017 196.4 301.536 196.456 301.083 196.342C300.854 196.263 300.651 196.125 300.495 195.943C300.34 195.761 300.238 195.541 300.2 195.307C300.099 194.817 300.162 194.308 300.378 193.856C300.59 193.413 300.835 192.986 301.112 192.579C301.598 191.786 302.055 191.07 302.461 190.422C302.911 189.762 303.309 189.07 303.652 188.352Z" fill="#EB996E"/>
<path d="M288.881 189.879C289.078 188.018 288.616 186.148 287.571 184.578C287.472 184.626 287.968 185.749 288.325 187.2C288.682 188.651 288.772 189.879 288.881 189.879Z" fill="#EB996E"/>
<path d="M281.75 193.644C283.409 192.073 285.501 191.007 287.771 190.577C290.029 190.155 292.341 190.07 294.625 190.326C296.46 190.49 298.593 190.945 299.386 192.551C300.18 194.156 299.208 196.313 297.591 197.261C295.882 198.088 293.95 198.373 292.066 198.074C290.198 197.773 288.299 197.699 286.412 197.852" fill="#FFBE9D"/>
<path d="M286.411 197.851C286.411 197.851 286.917 197.851 287.829 197.851C289.121 197.906 290.409 198.026 291.688 198.209C292.586 198.32 293.492 198.356 294.396 198.316C295.448 198.29 296.48 198.039 297.421 197.581C298.485 197.041 299.295 196.123 299.683 195.017C299.89 194.433 299.935 193.805 299.812 193.198C299.66 192.57 299.314 192.003 298.82 191.573C297.825 190.798 296.617 190.327 295.348 190.219C294.215 190.091 293.076 190.024 291.936 190.016C289.993 189.985 288.058 190.273 286.213 190.867C284.966 191.271 283.802 191.883 282.771 192.676C282.494 192.891 282.232 193.124 281.987 193.373C281.818 193.547 281.739 193.634 281.749 193.643C281.759 193.653 282.126 193.305 282.86 192.792C283.905 192.057 285.063 191.488 286.292 191.109C288.116 190.565 290.019 190.314 291.926 190.364C293.053 190.375 294.179 190.446 295.299 190.577C296.485 190.672 297.618 191.098 298.562 191.805C299 192.183 299.308 192.683 299.445 193.237C299.555 193.783 299.513 194.347 299.326 194.872C298.972 195.889 298.234 196.736 297.263 197.242C296.363 197.68 295.38 197.931 294.376 197.977C293.49 198.024 292.601 198.001 291.718 197.909C290.428 197.753 289.129 197.672 287.829 197.668C287.474 197.68 287.12 197.713 286.768 197.764C286.53 197.803 286.411 197.832 286.411 197.851Z" fill="#EB996E"/>
<path d="M303.522 188.545C301.627 191.351 299.951 194.437 298.354 197.416C297.971 198.323 297.348 199.114 296.549 199.709C295.864 200.115 294.168 199.37 293.414 199.119L298.612 187.578" fill="#FFBE9D"/>
<path d="M298.613 187.578C298.43 187.849 298.277 188.137 298.157 188.439C297.849 189.058 297.472 189.871 296.996 190.857C296.004 192.908 294.715 195.791 293.237 199.051L293.157 199.225L293.356 199.293C293.949 199.525 294.555 199.725 295.171 199.892C295.43 199.962 295.696 200 295.964 200.009C296.106 200.027 296.249 200.027 296.391 200.009C296.53 199.966 296.661 199.9 296.778 199.815C297.197 199.52 297.554 199.149 297.829 198.722C298.365 197.909 298.742 197.087 299.158 196.323C299.982 194.785 300.726 193.421 301.38 192.27C302.035 191.119 302.571 190.209 302.957 189.581C303.17 189.272 303.358 188.948 303.523 188.613C303.262 188.897 303.03 189.205 302.829 189.532C302.412 190.142 301.837 191.041 301.142 192.173C300.448 193.305 299.694 194.669 298.851 196.188C298.424 196.942 298.028 197.784 297.522 198.548C297.256 198.928 296.92 199.256 296.53 199.515C296.329 199.617 296.108 199.675 295.882 199.685C295.656 199.695 295.43 199.657 295.22 199.573C294.615 199.407 294.019 199.21 293.435 198.983L293.544 199.235C295.012 195.965 296.292 193.073 297.194 190.993L298.236 188.526C298.39 188.222 298.517 187.905 298.613 187.578Z" fill="#EB996E"/>
<path d="M300.01 184.143L295.051 196.418C294.741 197.304 294.285 198.134 293.702 198.876C293.4 199.24 293.013 199.529 292.572 199.716C292.132 199.903 291.651 199.983 291.172 199.949C290.531 199.786 289.964 199.418 289.562 198.904C289.159 198.391 288.944 197.761 288.95 197.115C288.99 195.827 289.308 194.561 289.883 193.4C291.387 189.67 292.591 185.831 293.483 181.918" fill="#FFBE9D"/>
<path d="M293.435 181.918C293.377 182.035 293.334 182.159 293.306 182.286L293.008 183.369C292.75 184.336 292.373 185.671 291.848 187.335C291.322 188.999 290.628 190.963 289.765 193.139C289.232 194.25 288.877 195.435 288.713 196.651C288.661 197.318 288.795 197.986 289.1 198.585C289.395 199.236 289.935 199.752 290.608 200.027C290.949 200.15 291.315 200.199 291.678 200.17C292.041 200.142 292.393 200.037 292.711 199.862C293.316 199.541 293.826 199.07 294.189 198.498C294.792 197.434 295.3 196.32 295.706 195.171C296.569 193.033 297.343 191.108 297.998 189.463L299.505 185.594C299.664 185.159 299.793 184.81 299.902 184.53C300.011 184.249 300.031 184.162 300.011 184.153C299.94 184.266 299.881 184.386 299.833 184.51C299.714 184.781 299.555 185.12 299.376 185.536C298.97 186.503 298.384 187.78 297.75 189.347C297.115 190.914 296.272 192.897 295.389 195.026C294.975 196.149 294.471 197.239 293.881 198.285C293.549 198.803 293.084 199.226 292.532 199.514C292.262 199.665 291.962 199.757 291.652 199.783C291.342 199.81 291.03 199.771 290.737 199.669C290.16 199.419 289.697 198.972 289.437 198.411C289.156 197.864 289.036 197.251 289.09 196.641C289.239 195.463 289.573 194.314 290.082 193.236C290.935 191.079 291.59 189.096 292.066 187.432C292.542 185.768 292.909 184.385 293.127 183.427C293.226 182.953 293.306 182.576 293.355 182.324C293.394 182.191 293.421 182.055 293.435 181.918Z" fill="#EB996E"/>
<path d="M311.547 247.543C311.101 245.928 299.644 212.912 299.644 212.912L280.718 210.697L288.455 239.147C288.455 239.147 287.245 246.363 288.455 250.639C289.665 254.915 299.366 266.562 304.326 263.756C309.285 260.951 312.003 249.169 311.547 247.543Z" fill="#FFBE9D"/>
<path d="M288.426 207.775C288.792 207.818 289.164 207.772 289.507 207.639C290.359 207.381 291.142 206.942 291.798 206.353C292.454 205.769 292.966 205.048 293.296 204.244C293.463 203.924 293.545 203.568 293.534 203.209C293.061 204.287 292.389 205.271 291.55 206.111C290.624 206.85 289.564 207.414 288.426 207.775Z" fill="#EB996E"/>
</g>
<defs>
<filter id="filter0_d_214_10267" x="0" y="0" width="685.001" height="434" filterUnits="userSpaceOnUse" color-interpolation-filters="sRGB">
<feFlood flood-opacity="0" result="BackgroundImageFix"/>
<feColorMatrix in="SourceAlpha" type="matrix" values="0 0 0 0 0 0 0 0 0 0 0 0 0 0 0 0 0 0 127 0" result="hardAlpha"/>
<feOffset dy="4"/>
<feGaussianBlur stdDeviation="2"/>
<feComposite in2="hardAlpha" operator="out"/>
<feColorMatrix type="matrix" values="0 0 0 0 0 0 0 0 0 0 0 0 0 0 0 0 0 0 0.25 0"/>
<feBlend mode="normal" in2="BackgroundImageFix" result="effect1_dropShadow_214_10267"/>
<feBlend mode="normal" in="SourceGraphic" in2="effect1_dropShadow_214_10267" result="shape"/>
</filter>
</defs>
</svg>
