<svg width="491" height="382" viewBox="0 0 491 382" fill="none" xmlns="http://www.w3.org/2000/svg">
<g filter="url(#filter0_d_1202_15604)">
<path d="M294.807 58.9988L306.906 17.5181C306.906 15.6856 308.5 13.108 310.497 12.3801C311.491 12.0004 312.618 11.9125 313.684 12.1318L342.483 18.0405C343.365 18.2056 344.168 18.5761 344.791 19.1059C345.414 19.6357 345.83 20.3015 345.988 21.0205L347.539 27.2889L385.208 35.0472C390.328 35.7323 392.453 39.5516 391.157 42.4117L379.674 77.3757C377.846 81.4176 372.365 83.6184 367.988 82.7192L301.404 69.0693C296.857 68.1445 293.978 64.1026 294.807 58.9988Z" fill="#E0E0E0"/>
<path d="M293.978 58.1768L304.601 23.4954C305.844 20.8408 308.734 19.2737 311.379 19.8217L386.886 35.3042C390.073 35.9636 391.635 39.3889 390.211 42.6344L380.651 74.764C378.122 82.7535 372.152 84.0552 367.585 83.1303L301.425 69.5575C294.616 68.1617 291.471 64.9847 293.978 58.1768Z" fill="#EBEBEB"/>
<path d="M344.203 61.782C341.605 61.7817 339.074 61.1206 336.969 59.8928C334.864 58.665 333.293 56.9331 332.481 54.9439C331.668 52.9546 331.655 50.8094 332.443 48.8137C333.231 46.8179 334.78 45.0735 336.869 43.8288C338.959 42.5841 341.482 41.9026 344.08 41.8814C346.678 41.8601 349.218 42.5002 351.338 43.7105C353.459 44.9208 355.051 46.6395 355.889 48.6219C356.727 50.6043 356.768 52.7493 356.006 54.7515V54.7515C355.227 56.7856 353.662 58.5656 351.538 59.8307C349.414 61.0958 346.844 61.7796 344.203 61.782ZM344.203 42.7372C342.114 42.7349 340.065 43.2004 338.285 44.0817C336.504 44.9631 335.062 46.2257 334.12 47.7288C333.177 49.232 332.771 50.9166 332.946 52.5949C333.122 54.2732 333.872 55.8793 335.113 57.2341C336.354 58.5889 338.038 59.6393 339.976 60.2681C341.915 60.8969 344.031 61.0794 346.091 60.7954C348.15 60.5113 350.071 59.7718 351.64 58.6593C353.209 57.5468 354.363 56.105 354.975 54.4946V54.4946C355.491 53.1358 355.605 51.6984 355.308 50.2977C355.011 48.8969 354.31 47.5718 353.263 46.4287C352.216 45.2856 350.851 44.3562 349.277 43.7151C347.704 43.0741 345.966 42.7391 344.203 42.7372V42.7372Z" fill="#E0E0E0"/>
<path d="M341.431 51.137L342.993 47.0352L346.615 50.1779L350.238 53.3206L345.054 54.2797L339.87 55.2388L341.431 51.137Z" fill="#E0E0E0"/>
<path d="M118.19 275.385L61.4 300.108C59.5165 300.929 57.3057 301.113 55.2538 300.62C53.2018 300.127 51.4768 298.997 50.4583 297.479L7.96662 234.11C6.94854 232.59 6.72129 230.805 7.33485 229.15C7.94841 227.494 9.35254 226.103 11.2385 225.281L47.2183 209.619L90.6236 220.632L121.43 266.557C122.451 268.074 122.683 269.856 122.075 271.511C121.468 273.166 120.071 274.56 118.19 275.385Z" fill="#EBEBEB"/>
<path d="M83.4849 251.142C83.4849 251.142 83.9523 250.92 84.7171 250.397C85.8944 249.566 86.7161 248.456 87.0651 247.226C87.4142 245.996 87.2728 244.708 86.6611 243.547C86.3956 243.093 86.0769 242.63 85.7476 242.142C84.4197 240.198 82.9219 237.998 81.2753 235.566L78.6833 231.738C78.2372 231.07 77.7698 230.393 77.3023 229.7C76.8767 228.992 76.3528 228.326 75.7408 227.713C74.3947 226.472 72.5243 225.678 70.493 225.487C69.4265 225.374 68.3428 225.435 67.3062 225.666C66.2504 225.927 65.2402 226.296 64.2999 226.763L38.2843 238.16C37.2479 238.725 36.3907 239.478 35.7818 240.358C35.1728 241.239 34.8292 242.222 34.7787 243.23C34.727 244.217 34.9673 245.201 35.4799 246.098C36.0004 246.955 36.6484 247.871 37.222 248.753L44.0313 258.901C44.5837 259.688 45.0936 260.545 45.6566 261.256C46.5315 262.284 47.7825 263.067 49.2353 263.495C50.6881 263.923 52.2705 263.976 53.7619 263.645C54.6904 263.406 55.5815 263.081 56.4177 262.677L58.9565 261.581L63.7262 259.517L78.1415 253.343L82.072 251.682L83.1343 251.262C83.2496 251.213 83.3706 251.173 83.4955 251.142C83.4955 251.142 83.3999 251.202 83.1662 251.314L82.1676 251.785L78.3009 253.497L63.9812 259.86L59.2221 261.949L56.7045 263.062C55.8331 263.489 54.9025 263.831 53.9319 264.081C52.3225 264.436 50.6162 264.379 49.0484 263.919C47.4807 263.459 46.1286 262.618 45.1786 261.512C44.5306 260.716 44.1163 259.92 43.5002 259.115L36.6909 248.984C36.1066 248.085 35.4799 247.272 34.9168 246.295C34.3582 245.32 34.0995 244.251 34.1626 243.178C34.2143 242.086 34.5846 241.019 35.2435 240.064C35.9024 239.109 36.8314 238.292 37.955 237.681C47.2182 233.562 56.014 229.794 64.0556 226.292C65.054 225.807 66.1249 225.427 67.2424 225.161C68.3392 224.923 69.4837 224.862 70.6099 224.981C72.7842 225.196 74.7808 226.057 76.2082 227.396C76.8461 228.035 77.3914 228.73 77.8335 229.469C78.2903 230.162 78.7471 230.839 79.1826 231.507L81.7427 235.352L86.1194 241.971C86.4381 242.459 86.7567 242.921 87.0223 243.41C87.2608 243.877 87.4285 244.366 87.5216 244.865C87.673 245.725 87.597 246.6 87.2985 247.434C86.8787 248.605 86.0264 249.644 84.8552 250.414C84.4461 250.711 83.9842 250.956 83.4849 251.142V251.142Z" fill="#FAFAFA"/>
<path d="M87.851 245.363C87.6297 245.334 87.4149 245.28 87.2136 245.2L85.429 244.635L78.9171 242.443L74.4342 240.901L71.9378 240.045L70.6525 239.6C70.2503 239.473 69.8111 239.443 69.3883 239.514C68.9531 239.587 68.5542 239.762 68.2407 240.016C67.9273 240.27 67.7132 240.593 67.6249 240.944C67.455 241.8 67.2744 242.588 67.1044 243.436C66.7432 245.149 66.3821 246.861 66.0421 248.711L65.5429 251.075L65.4791 251.374L65.1179 251.289L59.2328 249.953L57.8306 249.627C57.4165 249.502 56.9768 249.441 56.5346 249.448C56.1234 249.464 55.7241 249.564 55.3732 249.737C55.0223 249.911 54.7313 250.153 54.5269 250.441C54.3433 250.746 54.2077 251.068 54.1232 251.4C53.9957 251.731 53.8789 252.065 53.7727 252.402C53.539 253.061 53.3159 253.695 53.0928 254.312L51.8818 257.737L50.0971 262.652C49.8846 263.175 49.7147 263.611 49.5766 263.971C49.5314 264.131 49.4562 264.284 49.3535 264.425C49.3627 264.263 49.3948 264.102 49.4491 263.945C49.566 263.577 49.6935 263.132 49.8528 262.592C50.2458 261.351 50.7876 259.681 51.4356 257.634C51.7862 256.581 52.1686 255.433 52.5723 254.209C52.7706 253.581 52.983 252.939 53.2096 252.282C53.3159 251.957 53.4327 251.614 53.5496 251.28C53.642 250.91 53.7919 250.55 53.9957 250.21C54.2479 249.847 54.6083 249.542 55.0443 249.32C55.4803 249.099 55.978 248.969 56.4921 248.942C57.0059 248.93 57.5178 248.997 58.0006 249.139L59.4134 249.456L65.2985 250.775L64.8736 250.989C65.0329 250.235 65.2029 249.439 65.3729 248.625L66.4883 243.359C66.6654 242.503 66.8459 241.663 67.0301 240.841C67.1475 240.393 67.4255 239.982 67.8295 239.659C68.2335 239.337 68.7459 239.116 69.3034 239.026C69.8412 238.94 70.3983 238.982 70.9074 239.146L72.2247 239.608L74.7104 240.465L79.1508 242.066L85.5777 244.421L87.3092 245.08C87.5027 245.157 87.6846 245.252 87.851 245.363V245.363Z" fill="#FAFAFA"/>
<path d="M57.4165 242.657C57.4165 242.657 57.7139 242.46 58.1601 242.091C58.7954 241.567 59.205 240.891 59.3286 240.165C59.411 239.642 59.333 239.111 59.1015 238.618C58.87 238.126 58.492 237.686 58.0008 237.339C57.401 236.934 56.664 236.683 55.8854 236.62C55.1069 236.557 54.3228 236.685 53.6353 236.986C52.9478 237.287 52.3886 237.748 52.0304 238.309C51.6722 238.87 51.5316 239.504 51.627 240.13C51.7179 240.653 51.967 241.15 52.3523 241.577C52.7376 242.005 53.2474 242.349 53.8366 242.58C54.657 242.893 55.5803 242.986 56.471 242.845C56.798 242.763 57.1317 242.7 57.4696 242.657C57.2074 242.855 56.8849 242.994 56.5348 243.059C55.5838 243.298 54.558 243.252 53.6453 242.931C52.9558 242.694 52.3523 242.32 51.8914 241.844C51.4305 241.367 51.1276 240.804 51.0109 240.207C50.8692 239.47 51.0138 238.715 51.425 238.046C51.8361 237.377 52.4937 236.826 53.3077 236.47C54.1217 236.114 55.0523 235.969 55.9723 236.056C56.8922 236.142 57.7565 236.456 58.4469 236.953C59.0036 237.359 59.4233 237.872 59.6667 238.444C59.9101 239.016 59.9693 239.629 59.8385 240.225C59.6595 241.016 59.1405 241.732 58.3726 242.246C58.1033 242.447 57.7739 242.588 57.4165 242.657Z" fill="#FAFAFA"/>
<path d="M39.0518 280.539L110.076 249.595L122.072 267.487C122.924 268.757 123.115 270.249 122.603 271.633C122.091 273.017 120.917 274.181 119.341 274.868L60.2036 300.633C58.6273 301.319 56.777 301.473 55.06 301.06C53.3429 300.648 51.8996 299.702 51.0476 298.431L39.0518 280.539Z" fill="#E0E0E0"/>
<path d="M47.2183 209.619L59.1797 227.448C59.6474 228.148 60.2819 228.767 61.0469 229.269C61.8119 229.772 62.6923 230.147 63.6376 230.375C64.583 230.602 65.5748 230.677 66.5561 230.595C67.5374 230.513 68.489 230.276 69.3564 229.897L90.6023 220.632L47.2183 209.619Z" fill="#EBEBEB"/>
<path d="M60.5503 228.886C60.5503 228.886 63.1636 233.339 70.2278 232.097C70.4934 232.046 70.7589 231.986 71.0139 231.917C74.0627 231.061 94.0975 225.76 93.8745 225.426L90.6876 220.631L69.4417 229.896C69.4417 229.896 63.9815 232.071 60.5503 228.886Z" fill="#E0E0E0"/>
<path d="M75.2843 278.356L77.6107 277.337L80.0327 280.951C79.2335 282.264 77.9395 283.34 76.3359 284.025C72.8622 285.541 69.0167 284.736 67.2214 282.047C65.4262 279.358 66.6903 276.335 70.2065 274.803C71.0477 274.394 71.9897 274.14 72.9662 274.057C73.9426 273.974 74.9297 274.065 75.8579 274.323L75.0399 276.258C74.4652 276.092 73.8527 276.027 73.2441 276.068C72.6355 276.11 72.0451 276.256 71.5131 276.498C71.0479 276.698 70.6361 276.97 70.3013 277.299C69.9665 277.627 69.7152 278.006 69.5618 278.412C69.4085 278.819 69.356 279.246 69.4073 279.669C69.4587 280.092 69.6129 280.503 69.8613 280.878C70.1096 281.253 70.4471 281.585 70.8545 281.855C71.262 282.125 71.7314 282.328 72.236 282.451C72.7405 282.575 73.2703 282.617 73.7952 282.576C74.32 282.534 74.8296 282.41 75.2949 282.21C75.9984 281.923 76.5957 281.492 77.0264 280.96L75.2843 278.356Z" fill="#FAFAFA"/>
<path d="M77.0796 272.004L79.6397 270.891L85.6098 279.788L83.0497 280.901L77.0796 272.004Z" fill="#FAFAFA"/>
<path d="M85.9176 270.29L87.5004 272.637L92.61 270.41L93.6723 272.063L88.5627 274.289L90.7404 277.535L88.1803 278.648L82.2739 269.751L90.6235 266.111L91.6858 267.764L85.9176 270.29Z" fill="#FAFAFA"/>
<path d="M391.221 319.897L351.098 304.269C349.77 303.75 348.751 302.827 348.265 301.704C347.779 300.58 347.866 299.347 348.506 298.275L375.34 253.506C375.657 252.975 376.102 252.499 376.648 252.107C377.194 251.715 377.83 251.413 378.52 251.219C379.211 251.025 379.942 250.942 380.672 250.976C381.403 251.01 382.117 251.16 382.776 251.416L408.271 261.324L418.161 285.361L398.699 317.816C398.381 318.351 397.934 318.829 397.384 319.223C396.835 319.618 396.194 319.92 395.499 320.114C394.803 320.307 394.067 320.388 393.333 320.351C392.598 320.313 391.881 320.159 391.221 319.897V319.897Z" fill="#EBEBEB"/>
<path d="M394.047 294.448C394.047 294.448 394.386 294.568 395.109 294.705C396.1 294.881 397.133 294.822 398.083 294.534C398.762 294.328 399.378 294.007 399.889 293.592C400.18 293.357 400.437 293.095 400.654 292.813C400.856 292.513 401.047 292.17 401.249 291.828L404.011 287.152C404.531 286.296 405.073 285.38 405.626 284.438C405.912 283.967 406.189 283.487 406.486 282.999C406.806 282.519 407.056 282.01 407.23 281.483C407.549 280.376 407.344 279.213 406.656 278.221C406.31 277.701 405.837 277.244 405.264 276.876C404.66 276.507 404 276.202 403.299 275.969L384.868 268.827C384.057 268.588 383.187 268.506 382.329 268.588C381.471 268.67 380.649 268.913 379.929 269.298C379.219 269.67 378.632 270.175 378.218 270.771C377.815 271.362 377.454 272.012 377.082 272.629C375.584 275.112 374.15 277.51 372.769 279.788C372.45 280.353 372.046 280.927 371.791 281.501C371.55 282.049 371.456 282.633 371.515 283.213C371.575 283.773 371.772 284.318 372.097 284.815C372.422 285.312 372.867 285.751 373.406 286.108C373.949 286.43 374.538 286.701 375.159 286.913L376.944 287.615L380.3 288.933L390.414 292.941L393.154 294.046L393.866 294.346L394.1 294.457C394.1 294.457 394.004 294.457 393.845 294.38L393.112 294.114L390.339 293.07L380.152 289.165L376.784 287.872L374.989 287.178C374.34 286.953 373.726 286.665 373.162 286.322C372.262 285.742 371.609 284.95 371.293 284.057C370.977 283.164 371.014 282.213 371.398 281.338C371.685 280.73 372.046 280.207 372.386 279.625C373.746 277.339 375.18 274.941 376.636 272.458C377.018 271.833 377.358 271.216 377.783 270.574C378.234 269.928 378.872 269.378 379.642 268.972C380.416 268.559 381.3 268.297 382.222 268.208C383.144 268.119 384.08 268.205 384.953 268.459C391.55 271.028 397.701 273.434 403.405 275.643C404.139 275.892 404.831 276.215 405.466 276.602C406.071 277.004 406.576 277.496 406.953 278.049C407.677 279.119 407.885 280.366 407.538 281.552C407.345 282.095 407.082 282.62 406.752 283.119L405.881 284.558L404.266 287.264C403.204 288.976 402.269 290.543 401.44 291.914C401.228 292.256 401.036 292.59 400.803 292.898C400.577 293.196 400.306 293.469 399.995 293.712C399.454 294.137 398.805 294.464 398.094 294.671C397.109 294.95 396.043 294.983 395.034 294.765C394.688 294.699 394.355 294.593 394.047 294.448V294.448Z" fill="#FAFAFA"/>
<path d="M399.815 294.114C399.751 293.998 399.701 293.877 399.666 293.754L399.347 292.718C399.071 291.759 398.689 290.466 398.232 288.898C398.009 288.042 397.754 287.186 397.488 286.252C397.361 285.773 397.223 285.285 397.085 284.78C397.01 284.531 396.936 284.274 396.872 284.017C396.792 283.785 396.634 283.574 396.415 283.409C396.189 283.243 395.908 283.135 395.605 283.097C395.303 283.059 394.994 283.093 394.716 283.195L392.772 283.966L388.661 285.55L386.823 286.278L386.589 286.372L386.494 286.175C386.005 285.079 385.516 284.009 385.049 282.981C384.932 282.716 384.815 282.467 384.709 282.211C384.62 281.974 384.484 281.752 384.305 281.551C384.128 281.373 383.897 281.234 383.636 281.148C383.374 281.061 383.089 281.029 382.807 281.055C382.522 281.092 382.244 281.158 381.979 281.251L381.14 281.5L379.536 281.971L376.678 282.827L372.535 284.009L371.409 284.309C371.28 284.352 371.144 284.381 371.005 284.394C371.118 284.327 371.244 284.275 371.377 284.24L372.44 283.88L376.519 282.587L379.366 281.731L380.959 281.243L381.798 280.986C382.093 280.879 382.404 280.801 382.722 280.755C383.075 280.723 383.431 280.763 383.76 280.87C384.088 280.978 384.378 281.15 384.603 281.371C384.82 281.599 384.982 281.858 385.081 282.133L385.431 282.896C385.899 283.923 386.387 284.985 386.897 286.09L386.568 285.978L388.416 285.251L392.517 283.624L394.482 282.853C394.843 282.724 395.243 282.683 395.632 282.737C396.022 282.79 396.383 282.935 396.67 283.153C396.948 283.359 397.144 283.627 397.233 283.923C397.308 284.18 397.372 284.446 397.446 284.702C397.573 285.208 397.711 285.696 397.828 286.175C398.073 287.126 398.306 288.017 398.519 288.83C398.912 290.414 399.241 291.716 399.485 292.684L399.719 293.728C399.779 293.851 399.811 293.982 399.815 294.114V294.114Z" fill="#FAFAFA"/>
<path d="M389.404 279.247C389.404 279.247 389.648 279.307 390.095 279.358C390.714 279.438 391.349 279.351 391.9 279.11C392.293 278.939 392.627 278.694 392.875 278.395C393.123 278.097 393.277 277.754 393.324 277.397C393.375 276.959 393.259 276.518 392.991 276.134C392.724 275.75 392.317 275.441 391.826 275.248C391.331 275.057 390.775 274.992 390.233 275.061C389.691 275.13 389.187 275.329 388.788 275.633C388.463 275.886 388.219 276.199 388.078 276.546C387.938 276.892 387.904 277.261 387.981 277.62C388.094 278.116 388.403 278.57 388.862 278.913C389.192 279.161 389.415 279.255 389.404 279.281C389.393 279.307 389.128 279.281 388.745 279.024C388.201 278.691 387.823 278.211 387.683 277.671C387.567 277.265 387.583 276.841 387.728 276.441C387.873 276.041 388.143 275.677 388.512 275.385C388.964 275.006 389.552 274.753 390.193 274.659C390.834 274.566 391.495 274.637 392.083 274.864C392.671 275.09 393.155 275.46 393.468 275.921C393.78 276.382 393.904 276.91 393.823 277.431C393.767 277.847 393.58 278.244 393.281 278.586C392.982 278.927 392.58 279.202 392.113 279.384C391.494 279.624 390.79 279.678 390.126 279.538C389.595 279.401 389.393 279.264 389.404 279.247Z" fill="#FAFAFA"/>
<path d="M355.648 286.283L405.815 305.824L399.137 316.966C398.751 317.61 398.211 318.186 397.549 318.662C396.887 319.138 396.115 319.504 395.277 319.739C394.439 319.975 393.552 320.075 392.666 320.034C391.78 319.993 390.913 319.811 390.114 319.5L352.113 304.698C351.314 304.387 350.599 303.952 350.009 303.418C349.419 302.884 348.965 302.262 348.673 301.586C348.381 300.911 348.257 300.196 348.308 299.482C348.359 298.768 348.583 298.069 348.97 297.425L355.648 286.283Z" fill="#E0E0E0"/>
<path d="M408.239 261.316L400.686 273.922C400.389 274.416 400.216 274.952 400.177 275.5C400.137 276.049 400.232 276.598 400.456 277.116C400.68 277.635 401.029 278.112 401.482 278.522C401.935 278.932 402.484 279.266 403.097 279.505L418.129 285.354L408.239 261.316Z" fill="#EBEBEB"/>
<path d="M400.229 275.104C399.663 276.061 399.521 277.145 399.827 278.177C400.132 279.208 400.866 280.124 401.907 280.772L402.354 281.055C404.138 282.1 415.951 288.985 416.089 288.762L418.129 285.337L403.087 279.505C403.087 279.505 399.4 277.938 400.229 275.104Z" fill="#E0E0E0"/>
<path d="M371.823 301.744L373.47 302.386L371.94 304.955C370.703 305.117 369.435 304.967 368.307 304.527C367.74 304.338 367.227 304.058 366.8 303.703C366.372 303.348 366.039 302.927 365.822 302.464C365.604 302.002 365.506 301.508 365.534 301.014C365.562 300.52 365.715 300.036 365.984 299.592C366.253 299.147 366.631 298.752 367.097 298.43C367.563 298.108 368.105 297.866 368.691 297.719C369.277 297.573 369.894 297.525 370.504 297.577C371.114 297.63 371.704 297.783 372.238 298.027C372.861 298.243 373.418 298.567 373.87 298.975C374.321 299.384 374.656 299.867 374.851 300.391L373.183 300.802C373.067 300.474 372.864 300.171 372.589 299.913C372.314 299.654 371.973 299.446 371.59 299.303C371.262 299.168 370.904 299.088 370.537 299.065C370.17 299.043 369.801 299.08 369.451 299.174C369.102 299.269 368.78 299.418 368.503 299.613C368.226 299.809 368 300.047 367.839 300.314C367.677 300.58 367.583 300.87 367.562 301.167C367.541 301.463 367.594 301.76 367.716 302.039C367.839 302.319 368.03 302.576 368.277 302.796C368.524 303.016 368.824 303.194 369.157 303.319C369.638 303.521 370.177 303.619 370.719 303.602L371.823 301.744Z" fill="#FAFAFA"/>
<path d="M376.964 299.988L378.77 300.69L374.999 306.959L373.193 306.257L376.964 299.988Z" fill="#FAFAFA"/>
<path d="M381.724 303.286L380.725 304.947L384.337 306.351L383.646 307.516L380.024 306.103L378.654 308.406L376.848 307.704L380.619 301.41L386.515 303.705L385.813 304.878L381.724 303.286Z" fill="#FAFAFA"/>
<path d="M111.453 51.5772L22.395 68.0723L38.754 125.467L127.812 108.972L111.453 51.5772Z" fill="#FAFAFA"/>
<path d="M111.434 51.5831L111.009 51.6773L109.766 51.917L104.933 52.8333L86.7145 56.2587L22.4352 68.2473L22.6157 68.0161C27.4917 85.1427 33.0793 104.684 38.9963 125.39L38.6776 125.228L127.751 108.769L127.581 108.983L115.832 67.3396C114.43 62.3215 113.325 58.3824 112.571 55.6935C112.199 54.3491 111.912 53.3214 111.721 52.6192C111.53 51.9171 111.434 51.5488 111.434 51.5488C111.434 51.5488 111.551 51.8914 111.753 52.5679C111.955 53.2444 112.263 54.2805 112.645 55.6078L116.002 67.1855C118.891 77.2302 123.024 91.5823 128.016 108.906V109.077H127.804L38.752 125.604L38.497 125.647L38.4333 125.442C32.5376 104.719 26.9712 85.1342 22.1059 68.0675L22.0527 67.8791H22.2864L86.8101 56.0531L105.007 52.7391L109.798 51.8828L111.03 51.6602L111.434 51.5831Z" fill="#E0E0E0"/>
<path d="M109.297 55.7803L26.4922 71.1172L40.7911 121.284L123.596 105.947L109.297 55.7803Z" fill="#EBEBEB"/>
<path d="M40.7808 121.288L60.8156 84.748L84.2923 100.941L93.4705 88.259L123.587 105.951L40.7808 121.288Z" fill="#E0E0E0"/>
<path d="M85.2379 76.2028C85.5321 77.2411 85.4378 78.3263 84.967 79.3214C84.4961 80.3165 83.6699 81.1768 82.5927 81.7935C81.5156 82.4102 80.2357 82.7556 78.9151 82.7861C77.5944 82.8166 76.2922 82.5307 75.173 81.9648C74.0538 81.3988 73.1679 80.578 72.6272 79.6063C72.0865 78.6345 71.9153 77.5554 72.1352 76.5052C72.3552 75.455 72.9565 74.481 73.863 73.7062C74.7695 72.9314 75.9406 72.3907 77.2282 72.1523C78.0841 71.9938 78.9704 71.973 79.8363 72.0908C80.7022 72.2087 81.5307 72.4629 82.2746 72.8391C83.0185 73.2153 83.6631 73.706 84.1716 74.2832C84.6801 74.8603 85.0424 75.5126 85.2379 76.2028V76.2028Z" fill="#E0E0E0"/>
<path d="M205.831 1.01453L67.8735 5.63672L72.4578 94.5499L210.416 89.9277L205.831 1.01453Z" fill="#FAFAFA"/>
<path d="M205.851 0.999539C205.851 0.999539 205.617 0.999555 205.181 1.04237L203.248 1.11944L195.759 1.41059L167.513 2.42962L67.912 5.9149L68.2519 5.61518C69.6328 32.0758 71.2051 62.4156 72.8835 94.511L72.4586 94.2027L210.429 89.6299L210.11 89.9039C208.793 63.135 207.71 40.9389 206.924 25.4136C206.552 17.6552 206.276 11.5667 206.074 7.38779C205.989 5.32403 205.914 3.73124 205.872 2.63514C205.829 1.53903 205.819 0.982422 205.819 0.982422C205.819 0.982422 205.872 1.51334 205.936 2.57519C205.999 3.63704 206.095 5.22983 206.222 7.27647C206.456 11.4297 206.796 17.5011 207.285 25.2594C208.124 40.819 209.335 63.0665 210.79 89.9125V90.1779H210.45L72.501 94.8621H72.0974V94.5452C70.4615 62.4414 68.9105 32.1015 67.5508 5.64087V5.34972H67.912L167.768 2.14702L195.94 1.24788L203.376 1.0338H205.277L205.851 0.999539Z" fill="#E0E0E0"/>
<path d="M201.195 6.77474L72.9277 11.0723L76.9346 88.7858L205.202 84.4883L201.195 6.77474Z" fill="#EBEBEB"/>
<path d="M76.9521 88.7816L119.253 38.9688L148.561 68.2639L166.557 51.4712L205.213 84.4742L76.9521 88.7816Z" fill="#E0E0E0"/>
<path d="M158.483 31.724C158.568 33.3354 158.057 34.9308 157.017 36.3084C155.976 37.6859 154.452 38.7837 152.637 39.4628C150.822 40.1418 148.798 40.3717 146.822 40.1233C144.845 39.8749 143.004 39.1593 141.531 38.0672C140.059 36.9751 139.022 35.5554 138.55 33.9879C138.079 32.4204 138.196 30.7755 138.885 29.2612C139.573 27.747 140.804 26.4315 142.421 25.4812C144.037 24.531 145.967 23.9886 147.966 23.9228C150.644 23.8347 153.255 24.6067 155.227 26.0694C157.199 27.5321 158.37 29.5658 158.483 31.724V31.724Z" fill="#E0E0E0"/>
<path d="M173.079 148.537L151.429 99.2377C149.963 97.3195 149.453 93.8256 150.909 92.0017C151.623 91.0875 152.702 90.3961 153.968 90.0407L188.609 80.7324C189.66 80.4359 190.795 80.3922 191.876 80.6066C192.956 80.8209 193.936 81.2842 194.696 81.9398L201.453 87.6002L246.791 75.4488C252.644 73.4193 257.988 76.2281 259.008 79.876L275.941 122.17C277.385 127.308 273.529 132.532 268.271 133.945L188.195 155.473C182.692 156.954 176.425 154.3 173.079 148.537Z" fill="#FF725E"/>
<g opacity="0.3">
<path d="M173.079 148.537L151.429 99.2377C149.963 97.3195 149.453 93.8256 150.909 92.0017C151.623 91.0875 152.702 90.3961 153.968 90.0407L188.609 80.7324C189.66 80.4359 190.795 80.3922 191.876 80.6066C192.956 80.8209 193.936 81.2842 194.696 81.9398L201.453 87.6002L246.791 75.4488C252.644 73.4193 257.988 76.2281 259.008 79.876L275.941 122.17C277.385 127.308 273.529 132.532 268.271 133.945L188.195 155.473C182.692 156.954 176.425 154.3 173.079 148.537Z" fill="black"/>
</g>
<path d="M171.878 148.083L154.255 106.576C153.352 103.151 155.041 99.9996 158.228 99.1433L249.054 74.7207C252.899 73.6931 257.329 76.4334 258.519 80.5181L275.133 118.839C279.106 128.447 273.954 133.02 268.526 134.484L188.939 155.892C180.759 158.076 174.884 156.458 171.878 148.083Z" fill="#FF725E"/>
<path d="M237.762 124.131C237.762 124.131 238.187 124.003 238.92 123.66C239.976 123.134 240.821 122.373 241.352 121.468C241.728 120.816 241.928 120.107 241.937 119.387C241.945 118.981 241.892 118.576 241.777 118.18C241.639 117.777 241.448 117.324 241.267 116.904L238.739 110.91L237.273 107.433L236.498 105.575C236.265 104.938 235.948 104.324 235.552 103.742C234.872 102.841 233.893 102.111 232.726 101.634C231.558 101.157 230.249 100.953 228.945 101.045C228.019 101.138 227.112 101.328 226.247 101.61L202.515 108.032C201.55 108.381 200.701 108.908 200.035 109.57C199.369 110.232 198.905 111.01 198.68 111.843C198.457 112.657 198.479 113.503 198.744 114.309C199.02 115.106 199.392 115.928 199.71 116.724C201.028 119.935 202.302 123.027 203.524 125.973C203.832 126.7 204.098 127.471 204.448 128.13C204.818 128.786 205.358 129.37 206.031 129.843C206.677 130.293 207.428 130.634 208.24 130.846C209.052 131.058 209.908 131.136 210.758 131.076C211.576 130.99 212.378 130.826 213.149 130.588L215.454 129.972L219.798 128.824L232.928 125.399L236.498 124.482L237.433 124.251L237.762 124.191L237.454 124.303L236.54 124.568L232.992 125.57L219.937 129.158L215.602 130.34L213.297 130.965C212.493 131.191 211.659 131.341 210.811 131.41C209.409 131.517 207.999 131.271 206.777 130.707C205.554 130.143 204.577 129.288 203.981 128.259C203.588 127.522 203.354 126.812 203.025 126.067L199.179 116.853C198.85 115.996 198.489 115.268 198.191 114.403C197.901 113.531 197.876 112.614 198.117 111.732C198.359 110.827 198.863 109.981 199.586 109.263C200.31 108.544 201.233 107.973 202.281 107.596C210.78 105.258 218.757 103.151 226.077 101.182C226.975 100.892 227.913 100.691 228.87 100.582C230.269 100.486 231.673 100.709 232.922 101.226C234.171 101.742 235.215 102.531 235.935 103.502C236.348 104.111 236.675 104.754 236.912 105.421C237.167 106.054 237.422 106.671 237.677 107.279C238.166 108.495 238.644 109.668 239.1 110.781L241.554 116.775C241.724 117.212 241.915 117.632 242.043 118.077C242.154 118.493 242.204 118.919 242.192 119.344C242.168 120.228 241.863 121.092 241.305 121.852C240.746 122.613 239.954 123.244 239.005 123.686C238.617 123.879 238.199 124.029 237.762 124.131V124.131Z" fill="#FAFAFA"/>
<path d="M242.436 119.84C242.26 119.785 242.092 119.713 241.937 119.626L240.556 118.941L235.531 116.372L232.057 114.54L230.135 113.529L229.136 113.007C228.817 112.85 228.447 112.776 228.074 112.793C227.698 112.8 227.334 112.897 227.026 113.07C226.718 113.244 226.48 113.487 226.342 113.769L225.461 115.79C224.859 117.166 224.232 118.593 223.58 120.071L222.741 121.981L222.635 122.229L222.348 122.11L217.748 120.277L216.686 119.849C216.36 119.692 215.999 119.587 215.624 119.541C215.281 119.511 214.935 119.55 214.614 119.653C214.294 119.756 214.01 119.92 213.786 120.131C213.573 120.363 213.398 120.617 213.265 120.885L212.787 121.673C212.479 122.195 212.182 122.7 211.885 123.188L210.259 125.894C209.271 127.496 208.475 128.806 207.88 129.774C207.603 130.193 207.391 130.536 207.21 130.818C207.134 130.941 207.045 131.059 206.945 131.169C206.967 131.031 207.021 130.898 207.104 130.776C207.264 130.484 207.455 130.133 207.678 129.705L209.898 125.757L211.47 123.034C211.757 122.538 212.044 122.032 212.352 121.51C212.501 121.245 212.66 120.979 212.809 120.705C212.957 120.402 213.149 120.115 213.382 119.849C213.656 119.575 214.01 119.362 214.413 119.229C214.816 119.095 215.255 119.047 215.688 119.087C216.118 119.138 216.532 119.254 216.909 119.429L218.025 119.849L222.688 121.647L222.295 121.776L223.134 119.866C223.786 118.41 224.412 116.983 225.014 115.584L225.928 113.555C226.106 113.193 226.413 112.883 226.81 112.662C227.207 112.441 227.676 112.319 228.159 112.313C228.62 112.304 229.075 112.405 229.465 112.604L230.528 113.135L232.44 114.171L235.85 116.021L240.779 118.736L242.096 119.498C242.298 119.72 242.447 119.823 242.436 119.84Z" fill="#FAFAFA"/>
<path d="M217.589 113.993C217.589 113.993 217.865 113.873 218.311 113.616C218.932 113.253 219.394 112.74 219.628 112.151C219.794 111.725 219.826 111.272 219.723 110.832C219.619 110.393 219.382 109.982 219.033 109.634C218.734 109.34 218.36 109.102 217.937 108.934C217.514 108.767 217.051 108.675 216.58 108.663C216.108 108.652 215.64 108.722 215.205 108.869C214.77 109.016 214.379 109.236 214.059 109.515C213.738 109.793 213.495 110.124 213.347 110.485C213.198 110.845 213.147 111.228 213.196 111.606C213.246 111.983 213.395 112.348 213.634 112.676C213.873 113.003 214.197 113.286 214.582 113.504C215.2 113.863 215.945 114.053 216.707 114.044C216.996 114.014 217.287 113.997 217.578 113.993C217.578 113.993 217.302 114.155 216.728 114.224C215.891 114.306 215.045 114.148 214.338 113.778C213.81 113.5 213.378 113.118 213.081 112.669C212.784 112.22 212.631 111.718 212.638 111.209C212.653 110.576 212.91 109.962 213.375 109.451C213.84 108.94 214.49 108.558 215.235 108.357C215.98 108.157 216.784 108.147 217.537 108.329C218.289 108.512 218.953 108.878 219.437 109.377C219.829 109.779 220.087 110.255 220.186 110.761C220.284 111.266 220.22 111.783 220 112.263C219.719 112.902 219.16 113.437 218.428 113.77C217.918 113.993 217.589 114.018 217.589 113.993Z" fill="#FAFAFA"/>
<path d="M92.3446 326.595L52.6148 191.218C50.9576 185.549 53.199 179.443 58.6911 175.924C61.3938 174.148 64.7654 173.167 68.2517 173.141L178.22 170.332C181.112 170.291 183.957 170.928 186.408 172.165C188.86 173.403 190.813 175.187 192.03 177.302L203.067 195.637L342.727 195.748C352.989 195.748 363.75 207.223 362.539 216.848L374.405 329.661C372.684 343.26 357.79 353.493 343.311 353.493H122.726C107.567 353.493 94.7666 342.849 92.3446 326.595Z" fill="#FF725E"/>
<g opacity="0.3">
<path d="M92.3446 326.595L52.6148 191.218C50.9576 185.549 53.199 179.443 58.6911 175.924C61.3938 174.148 64.7654 173.167 68.2517 173.141L178.22 170.332C181.112 170.291 183.957 170.928 186.408 172.165C188.86 173.403 190.813 175.187 192.03 177.302L203.067 195.637L342.727 195.748C352.989 195.748 363.75 207.223 362.539 216.848L374.405 329.661C372.684 343.26 357.79 353.493 343.311 353.493H122.726C107.567 353.493 94.7666 342.849 92.3446 326.595Z" fill="black"/>
</g>
<path d="M94.2462 330.534L83.7295 180.556L344.204 177.379L353.329 327.691L94.2462 330.534Z" fill="#E0E0E0"/>
<path d="M93.0565 186.705C93.0296 186.977 92.9051 187.237 92.6981 187.453C92.4911 187.669 92.2106 187.831 91.8909 187.921C91.5711 188.01 91.226 188.022 90.8976 187.956C90.5693 187.89 90.2719 187.748 90.0419 187.548C89.8118 187.348 89.6591 187.098 89.6023 186.829C89.5456 186.561 89.5872 186.284 89.7221 186.034C89.8571 185.784 90.0796 185.571 90.3623 185.421C90.6451 185.271 90.9759 185.19 91.3143 185.189C91.7943 185.205 92.2471 185.373 92.5736 185.657C92.9001 185.941 93.0737 186.318 93.0565 186.705Z" fill="#EBEBEB"/>
<path d="M99.8124 186.705C99.7855 186.977 99.661 187.237 99.454 187.453C99.247 187.669 98.9665 187.831 98.6467 187.921C98.327 188.01 97.9819 188.022 97.6535 187.956C97.3251 187.89 97.0278 187.748 96.7978 187.548C96.5677 187.348 96.415 187.098 96.3582 186.829C96.3014 186.561 96.343 186.284 96.478 186.034C96.613 185.784 96.8354 185.571 97.1182 185.421C97.4009 185.271 97.7317 185.19 98.0702 185.189C98.3083 185.196 98.5425 185.241 98.7591 185.32C98.9758 185.4 99.1708 185.514 99.3327 185.655C99.4946 185.796 99.6204 185.961 99.7027 186.141C99.785 186.322 99.8223 186.513 99.8124 186.705V186.705Z" fill="#EBEBEB"/>
<path d="M106.569 186.705C106.542 186.977 106.417 187.237 106.21 187.453C106.003 187.669 105.723 187.831 105.403 187.921C105.083 188.01 104.738 188.022 104.41 187.956C104.081 187.89 103.784 187.748 103.554 187.548C103.324 187.348 103.171 187.098 103.115 186.829C103.058 186.561 103.099 186.284 103.234 186.034C103.369 185.784 103.592 185.571 103.875 185.421C104.157 185.271 104.488 185.19 104.827 185.189C105.065 185.196 105.299 185.241 105.515 185.32C105.732 185.4 105.927 185.514 106.089 185.655C106.251 185.796 106.377 185.961 106.459 186.141C106.541 186.322 106.579 186.513 106.569 186.705V186.705Z" fill="#EBEBEB"/>
<path d="M186.421 186.705L202.133 261.977L78.5136 276.945L62.8022 201.674L186.421 186.705Z" fill="#EBEBEB"/>
<path d="M186.379 186.705L185.784 186.791L184.052 187.013L177.338 187.87L152.045 190.995L62.8126 201.922L63.1525 201.631C67.8372 224.033 73.2125 249.714 78.8957 276.894L78.4814 276.663L202.079 261.745L201.835 262.011C197.171 239.335 193.337 220.547 190.596 207.403C189.257 200.826 188.206 195.671 187.483 192.134C187.133 190.422 186.867 189.034 186.676 188.101C186.485 187.168 186.421 186.705 186.421 186.705C186.421 186.705 186.538 187.15 186.729 188.05C186.92 188.949 187.218 190.293 187.6 192.023C188.354 195.542 189.449 200.68 190.851 207.223C193.634 220.393 197.618 239.224 202.43 261.942V262.165H202.132L78.5664 277.219L78.2052 277.262L78.1521 276.988C72.4901 249.808 67.1467 224.127 62.4833 201.717L62.4302 201.477H62.7489L152.247 190.773L177.498 187.775L184.148 187.005L185.858 186.808C186.23 186.714 186.379 186.705 186.379 186.705Z" fill="#263238"/>
<path d="M81.7853 271.688L196.725 257.772L182.99 191.98L68.0498 205.896L81.7853 271.688Z" fill="#455A64"/>
<g opacity="0.3">
<path d="M81.7852 271.687L113.388 225.934L143.6 248.506L157.612 232.784L196.725 257.772L81.7852 271.687Z" fill="black"/>
</g>
<g opacity="0.3">
<path d="M147.764 216.633C147.928 217.562 147.861 218.508 147.565 219.415C147.27 220.322 146.753 221.173 146.045 221.917C145.336 222.661 144.451 223.284 143.44 223.748C142.429 224.213 141.314 224.51 140.158 224.623C137.818 224.948 135.413 224.524 133.455 223.441C131.497 222.359 130.14 220.702 129.674 218.826C129.508 217.897 129.575 216.951 129.869 216.043C130.164 215.135 130.681 214.284 131.39 213.54C132.098 212.795 132.984 212.173 133.996 211.708C135.007 211.244 136.124 210.947 137.28 210.836C139.62 210.506 142.028 210.928 143.988 212.012C145.947 213.095 147.303 214.754 147.764 216.633V216.633Z" fill="black"/>
</g>
<path d="M101.756 337.65L98.2402 191.714L364.642 191.26L363.548 335.475L101.756 337.65Z" fill="#EBEBEB"/>
<path d="M113.676 197.436C113.649 197.708 113.524 197.967 113.317 198.183C113.11 198.399 112.83 198.562 112.51 198.651C112.19 198.741 111.845 198.753 111.517 198.687C111.188 198.621 110.891 198.479 110.661 198.279C110.431 198.079 110.278 197.829 110.221 197.56C110.165 197.291 110.206 197.014 110.341 196.764C110.476 196.514 110.699 196.301 110.981 196.151C111.264 196.001 111.595 195.921 111.933 195.92C112.172 195.927 112.406 195.971 112.622 196.051C112.839 196.131 113.034 196.245 113.196 196.385C113.358 196.526 113.484 196.692 113.566 196.872C113.648 197.052 113.686 197.244 113.676 197.436Z" fill="#E0E0E0"/>
<path d="M119.922 197.436C119.895 197.708 119.77 197.967 119.563 198.183C119.356 198.399 119.076 198.562 118.756 198.651C118.436 198.741 118.091 198.753 117.763 198.687C117.434 198.621 117.137 198.479 116.907 198.279C116.677 198.079 116.524 197.829 116.468 197.56C116.411 197.291 116.452 197.014 116.587 196.764C116.722 196.514 116.945 196.301 117.228 196.151C117.51 196.001 117.841 195.921 118.18 195.92C118.418 195.927 118.652 195.971 118.869 196.051C119.085 196.131 119.28 196.245 119.442 196.385C119.604 196.526 119.73 196.692 119.812 196.872C119.894 197.052 119.932 197.244 119.922 197.436V197.436Z" fill="#E0E0E0"/>
<path d="M107.047 197.436C107.02 197.708 106.895 197.967 106.688 198.183C106.481 198.399 106.201 198.562 105.881 198.651C105.561 198.741 105.216 198.753 104.888 198.687C104.56 198.621 104.262 198.479 104.032 198.279C103.802 198.079 103.649 197.829 103.593 197.56C103.536 197.291 103.577 197.014 103.712 196.764C103.847 196.514 104.07 196.301 104.353 196.151C104.635 196.001 104.966 195.921 105.305 195.92C105.543 195.927 105.777 195.971 105.994 196.051C106.21 196.131 106.405 196.245 106.567 196.385C106.729 196.526 106.855 196.692 106.937 196.872C107.019 197.052 107.057 197.244 107.047 197.436Z" fill="#E0E0E0"/>
<path d="M107.95 341.205V202.453L373.257 202.008L359.012 344.193L107.95 341.205Z" fill="#FAFAFA"/>
<path d="M95.0214 325.851L110.956 221.593C112.199 213.432 119.401 207.395 127.889 207.395H370.155C380.406 207.395 388.363 216.103 387.152 225.994L374.405 329.002C370.697 350.411 360.488 353.493 345.999 353.493H119.592C104.433 353.493 89.7737 350.428 95.0214 325.851Z" fill="#5C69AB"/>
<g opacity="0.7">
<path d="M256.607 262.474L263.586 273.872C263.865 274.326 264.276 274.72 264.785 275.018C265.294 275.316 265.885 275.511 266.507 275.584L282.102 277.408C282.817 277.496 283.487 277.744 284.037 278.122C284.587 278.5 284.996 278.995 285.216 279.55C285.437 280.105 285.461 280.699 285.286 281.264C285.112 281.83 284.744 282.345 284.226 282.752L272.945 291.615C272.502 291.974 272.175 292.413 271.99 292.897C271.805 293.38 271.768 293.892 271.883 294.389L274.538 306.909C274.664 307.485 274.587 308.078 274.315 308.62C274.044 309.163 273.589 309.633 273.002 309.977C272.416 310.322 271.721 310.527 270.997 310.568C270.274 310.61 269.55 310.488 268.908 310.214L254.96 304.306C254.401 304.069 253.78 303.946 253.149 303.946C252.518 303.946 251.896 304.069 251.338 304.306L237.369 310.214C236.726 310.486 236.002 310.608 235.279 310.566C234.555 310.524 233.86 310.319 233.273 309.975C232.687 309.631 232.231 309.162 231.958 308.62C231.684 308.078 231.605 307.485 231.728 306.909L234.394 294.389C234.502 293.889 234.457 293.374 234.263 292.891C234.068 292.407 233.731 291.969 233.279 291.615L221.997 282.752C221.479 282.345 221.112 281.83 220.937 281.264C220.762 280.699 220.787 280.105 221.007 279.55C221.228 278.995 221.636 278.5 222.187 278.122C222.737 277.744 223.407 277.496 224.122 277.408L239.727 275.584C240.349 275.511 240.94 275.316 241.449 275.018C241.958 274.72 242.37 274.326 242.648 273.872L249.617 262.474C249.936 261.946 250.433 261.501 251.051 261.189C251.669 260.878 252.383 260.713 253.112 260.713C253.841 260.713 254.555 260.878 255.173 261.189C255.791 261.501 256.287 261.946 256.607 262.474V262.474Z" fill="white"/>
</g>
<path d="M32.208 353.492C32.208 353.372 131.809 353.27 254.652 353.27C377.496 353.27 477.118 353.372 477.118 353.492C477.118 353.612 377.538 353.715 254.652 353.715C131.766 353.715 32.208 353.621 32.208 353.492Z" fill="#263238"/>
<path d="M422.718 323.273C422.845 324.13 425.342 346.925 425.342 346.925H438.323L440.596 323.368L422.718 323.273Z" fill="#EB996E"/>
<path d="M423.876 345.35V346.206C423.876 346.206 406.401 351.404 406.125 354.041L440.426 354.692L440.235 345.478C437.658 346.407 434.862 346.877 432.038 346.855C429.215 346.833 426.431 346.319 423.876 345.35V345.35Z" fill="#FF725E"/>
<g opacity="0.6">
<path d="M436.645 348.32C436.971 348.41 437.246 348.592 437.418 348.833C437.59 349.074 437.647 349.357 437.58 349.63C437.483 349.897 437.262 350.124 436.964 350.265C436.666 350.405 436.312 350.447 435.976 350.384C435.629 350.291 435.337 350.098 435.156 349.842C434.975 349.585 434.919 349.284 434.998 348.996C435.133 348.725 435.394 348.507 435.726 348.389C436.057 348.271 436.433 348.261 436.772 348.363" fill="white"/>
</g>
<g opacity="0.6">
<path d="M440.394 354.657V352.439L407.538 352.628C407.538 352.628 405.987 353.133 406.136 354.007L440.394 354.657Z" fill="white"/>
</g>
<path d="M423.727 346.248C423.727 346.385 424.566 346.462 425.374 346.907C426.181 347.353 426.606 347.935 426.765 347.884C426.925 347.832 426.691 347.027 425.703 346.522C424.715 346.017 423.695 346.128 423.727 346.248Z" fill="#263238"/>
<path d="M420.083 347.378C420.083 347.506 420.753 347.755 421.305 348.337C421.858 348.919 422.006 349.527 422.176 349.519C422.346 349.51 422.474 348.757 421.762 348.046C421.05 347.335 420.083 347.249 420.083 347.378Z" fill="#263238"/>
<path d="M417.959 350.812C418.108 350.812 418.363 350.17 417.959 349.425C417.555 348.68 416.78 348.372 416.705 348.483C416.631 348.594 417.109 348.997 417.428 349.613C417.747 350.23 417.778 350.795 417.959 350.812Z" fill="#263238"/>
<path d="M434.127 327.631C434.265 328.487 436.761 351.283 436.761 351.283H449.732L452.005 327.734L434.127 327.631Z" fill="#FFBE9D"/>
<path d="M449.764 347.883C449.764 347.883 440.66 353.098 436.252 348.585L435.094 350.769L429.91 366.345C429.734 366.835 429.786 367.359 430.056 367.819C430.326 368.28 430.795 368.645 431.376 368.846C431.818 368.991 432.303 369.03 432.772 368.958C433.241 368.887 433.674 368.708 434.021 368.443C437.771 365.566 451.496 354.939 451.358 353.5L451.304 349.673C451.3 349.284 451.151 348.906 450.876 348.586C450.602 348.267 450.214 348.022 449.764 347.883V347.883Z" fill="#FF725E"/>
<g opacity="0.6">
<path d="M431.822 368.959L451.368 352.166V353.022C451.391 353.365 451.32 353.708 451.161 354.026C451.001 354.344 450.756 354.63 450.444 354.863C448.861 356.576 444.484 360.43 434.106 368.462C433.807 368.69 433.444 368.856 433.048 368.946C432.652 369.036 432.235 369.046 431.832 368.976L431.822 368.959Z" fill="white"/>
</g>
<g opacity="0.6">
<path d="M448.5 349.682C448.197 349.858 447.986 350.118 447.908 350.413C447.829 350.707 447.889 351.014 448.075 351.275C448.285 351.524 448.606 351.7 448.971 351.765C449.337 351.83 449.719 351.781 450.04 351.626C450.366 351.436 450.591 351.155 450.672 350.838C450.752 350.521 450.682 350.191 450.476 349.913C450.222 349.664 449.858 349.505 449.461 349.47C449.064 349.435 448.666 349.526 448.351 349.725" fill="white"/>
</g>
<path d="M437.452 360.36C436.874 359.741 436.152 359.217 435.327 358.819C434.433 358.526 433.477 358.375 432.512 358.374C432.512 358.322 432.799 358.168 433.373 358.108C434.125 358.039 434.886 358.149 435.561 358.425C436.241 358.697 436.811 359.119 437.208 359.641C437.473 360.052 437.516 360.343 437.452 360.36Z" fill="#263238"/>
<path d="M435.699 362.989C435.011 362.673 434.302 362.387 433.575 362.133C432.785 362.009 431.987 361.926 431.185 361.884C431.562 361.694 431.991 361.58 432.435 361.552C432.878 361.524 433.324 361.582 433.734 361.722C435.126 362.064 435.827 362.938 435.699 362.989Z" fill="#263238"/>
<path d="M440.713 356.986C439.702 356.415 438.637 355.911 437.526 355.478C436.341 355.178 435.13 354.946 433.904 354.785C435.181 354.517 436.535 354.62 437.728 355.076C438.972 355.408 440.029 356.085 440.713 356.986V356.986Z" fill="#263238"/>
<path d="M441.149 352.242C441.085 352.362 439.736 351.899 437.962 351.839C436.188 351.779 434.775 352.122 434.775 352.002C435.765 351.575 436.881 351.371 438.003 351.414C439.125 351.456 440.212 351.742 441.149 352.242V352.242Z" fill="#263238"/>
<path d="M436.974 351.797C436.952 351.546 437 351.295 437.112 351.06C437.346 350.401 437.744 349.786 438.281 349.253C438.636 348.847 439.148 348.546 439.736 348.397C439.935 348.366 440.141 348.382 440.329 348.443C440.517 348.504 440.68 348.607 440.798 348.74C440.995 349.023 441.055 349.356 440.968 349.673C440.762 350.316 440.285 350.882 439.618 351.273C438.951 351.663 438.137 351.855 437.314 351.814C436.503 351.757 435.732 351.507 435.097 351.098C434.462 350.688 433.991 350.135 433.745 349.51C433.685 349.352 433.667 349.186 433.693 349.022C433.719 348.858 433.787 348.701 433.893 348.56C434.023 348.441 434.19 348.353 434.378 348.306C434.565 348.259 434.765 348.255 434.956 348.294C435.523 348.492 436.016 348.805 436.39 349.202C436.947 349.72 437.382 350.314 437.675 350.957C437.814 351.181 437.887 351.427 437.888 351.677C437.433 350.854 436.831 350.09 436.103 349.407C435.767 349.072 435.333 348.81 434.839 348.645C434.731 348.613 434.614 348.608 434.503 348.633C434.392 348.657 434.294 348.71 434.223 348.782C434.171 348.881 434.144 348.988 434.144 349.095C434.144 349.202 434.171 349.309 434.223 349.407C434.454 349.943 434.871 350.413 435.425 350.762C435.979 351.111 436.646 351.325 437.346 351.377C438.049 351.422 438.749 351.27 439.33 350.947C439.91 350.624 440.335 350.15 440.533 349.604C440.596 349.382 440.563 349.149 440.437 348.945C440.379 348.866 440.291 348.804 440.185 348.769C440.08 348.733 439.963 348.726 439.853 348.748C439.351 348.888 438.914 349.148 438.599 349.493C437.893 350.177 437.342 350.957 436.974 351.797Z" fill="#263238"/>
<path d="M468.067 200.568L404.329 211.007L404.149 220.949C404.118 222.578 404.232 224.206 404.489 225.822L412.105 274.418L423.27 341.974L433.989 341.495L434.106 344.149L452.037 343.293C452.037 343.293 463.159 301.795 462.278 292.564C460.461 273.648 464.307 264.151 467.217 254.466C470.33 244.036 481.877 219.228 468.067 200.568Z" fill="#263238"/>
<path d="M427.318 222.098C427.311 222.183 427.311 222.269 427.318 222.355C427.318 222.543 427.318 222.791 427.318 223.108C427.318 223.802 427.382 224.778 427.445 226.028C427.573 228.597 427.764 232.228 427.998 236.741C428.508 245.809 429.219 258.295 430.005 272.09C430.792 285.886 431.599 298.38 432.13 307.448C432.427 311.953 432.661 315.609 432.831 318.161C432.927 319.411 433.001 320.387 433.044 321.072C433.044 321.389 433.044 321.638 433.118 321.826C433.111 321.912 433.111 321.997 433.118 322.083C433.13 321.998 433.13 321.911 433.118 321.826C433.118 321.638 433.118 321.389 433.118 321.072C433.118 320.379 433.044 319.36 432.99 318.152C432.863 315.583 432.672 311.944 432.438 307.44C431.918 298.371 431.206 285.886 430.43 272.082C429.655 258.278 428.826 245.801 428.306 236.741C428.008 232.228 427.764 228.571 427.605 226.02L427.382 223.108C427.382 222.791 427.382 222.543 427.318 222.355C427.329 222.269 427.329 222.183 427.318 222.098V222.098Z" fill="#455A64"/>
<path d="M433.181 321.389C433.122 321.671 433.097 321.958 433.107 322.245C433.107 322.896 433.107 323.718 433.107 324.686C433.107 326.741 433.107 329.592 433.256 332.735C433.405 335.878 433.532 338.729 433.691 340.785C433.776 341.812 433.861 342.643 433.936 343.217C433.947 343.505 433.997 343.793 434.084 344.073C434.121 343.788 434.121 343.501 434.084 343.217C434.084 342.566 434.031 341.744 433.999 340.776C433.914 338.635 433.808 335.835 433.691 332.735C433.574 329.635 433.479 326.826 433.404 324.686C433.355 323.721 433.312 322.907 433.277 322.245C433.284 321.958 433.251 321.671 433.181 321.389V321.389Z" fill="#455A64"/>
<path d="M370.804 130.153C370.804 130.153 400.814 127.996 403.544 127.584C406.274 127.173 414.666 127.413 414.666 127.413L404.861 149.524L364.292 145.739C357.27 143.889 351.545 133.33 351.545 133.33L338.287 112.898L352.426 111.896L370.804 130.153Z" fill="#FFBE9D"/>
<path d="M446.184 128.303C446.705 128.448 462.288 132.987 466.824 135.384C470.011 137.097 470.33 141.379 468.768 144.222L461.003 158.283L456.669 175.675L470.712 202.88L472.136 207.368L404.308 211.23L401.334 205.561L404.871 179.871V147.51L414.676 127.369L431.482 127.54L446.184 128.303Z" fill="#FFB878"/>
<g opacity="0.3">
<path d="M409.269 191.757C410.023 191.184 410.962 190.795 411.978 190.635C424.221 187.767 436.698 185.592 449.318 184.127C452.25 183.793 455.309 183.51 458.103 184.273C460.897 185.035 464.105 187.201 463.85 189.573L464.253 190.37C459.053 192.82 453.067 193.97 447.055 193.675C443.464 193.547 439.555 192.973 436.549 194.531C434.509 195.593 433.362 197.451 431.609 198.813C430.457 199.697 429.077 200.365 427.568 200.77C426.058 201.174 424.456 201.304 422.877 201.151C421.302 200.98 419.79 200.539 418.445 199.856C417.099 199.174 415.952 198.266 415.08 197.195C414.124 196.004 413.285 194.489 411.564 194.223C410.831 194.112 410.023 194.223 409.439 193.923C409.249 193.792 409.093 193.63 408.981 193.449C408.869 193.268 408.803 193.071 408.787 192.869C408.772 192.667 408.806 192.465 408.889 192.274C408.972 192.083 409.101 191.907 409.269 191.757Z" fill="black"/>
</g>
<path d="M466.208 135.051C468.341 135.958 470.126 137.317 471.371 138.981C473.91 142.03 482.355 162.102 482.355 162.102L460.812 169.304L455.5 160.081L466.208 135.051Z" fill="#FFB878"/>
<path d="M460.95 149.789C460.95 149.789 460.833 150.02 460.706 150.457C460.578 150.894 460.43 151.527 460.26 152.315C459.909 153.882 459.527 156.066 459.197 158.489C458.868 160.913 458.804 163.122 458.783 164.723C458.783 165.52 458.783 166.162 458.783 166.607C458.77 166.841 458.798 167.074 458.868 167.301C459.01 166.449 459.088 165.591 459.102 164.732C459.208 163.139 459.367 160.947 459.654 158.532C459.941 156.117 460.26 153.934 460.525 152.349C460.728 151.503 460.87 150.648 460.95 149.789Z" fill="#263238"/>
<path d="M425.937 161.279C425.886 161.515 425.886 161.755 425.937 161.99C426.01 162.636 426.156 163.275 426.373 163.9C427.073 165.98 428.405 167.886 430.249 169.447C432.092 171.008 434.389 172.174 436.932 172.84C437.697 173.041 438.483 173.19 439.279 173.285C439.57 173.332 439.866 173.346 440.161 173.328C440.161 173.251 438.918 173.14 437.049 172.583C434.599 171.868 432.389 170.705 430.592 169.185C428.795 167.665 427.459 165.829 426.691 163.823C426.107 162.281 426.022 161.271 425.937 161.279Z" fill="#263238"/>
<path d="M406.89 127.31C403.087 127.31 387.949 128.843 387.949 128.843L386.324 148.624L404.861 150.44L417.608 127.319C417.608 127.319 410.703 127.285 406.89 127.31Z" fill="#FF725E"/>
<path d="M397.924 97.8604C397.964 97.6607 398.095 97.4802 398.292 97.3548C398.488 97.2295 398.737 97.1685 398.987 97.1839C398.828 97.055 398.729 96.8858 398.708 96.7051C398.686 96.5243 398.742 96.3432 398.867 96.1921C398.992 96.041 399.178 95.9294 399.393 95.876C399.609 95.8227 399.84 95.8309 400.049 95.8994C399.873 95.6811 399.769 95.43 399.747 95.1701C399.726 94.9103 399.787 94.6503 399.926 94.415C400.064 94.1797 400.275 93.9769 400.538 93.826C400.802 93.6751 401.109 93.5811 401.43 93.553C401.224 93.3018 401.112 93.0085 401.107 92.7075C401.101 92.4066 401.203 92.1107 401.4 91.8549C401.596 91.5991 401.88 91.394 402.216 91.264C402.553 91.1339 402.929 91.0843 403.3 91.121C403.061 90.947 402.909 90.7097 402.87 90.4525C402.831 90.1953 402.908 89.9355 403.088 89.7204C403.267 89.5053 403.536 89.3494 403.846 89.2811C404.156 89.2128 404.486 89.2367 404.776 89.3484C404.691 89.1157 404.688 88.8685 404.768 88.6346C404.848 88.4007 405.007 88.1895 405.228 88.0247C405.449 87.86 405.723 87.7483 406.018 87.7023C406.314 87.6562 406.62 87.6777 406.901 87.7642C406.849 87.5285 406.872 87.286 406.969 87.0597C407.066 86.8334 407.233 86.6308 407.455 86.4712C407.676 86.3116 407.944 86.2003 408.234 86.1478C408.524 86.0954 408.825 86.1035 409.11 86.1714C409 85.9373 409.006 85.6777 409.128 85.4473C409.25 85.2169 409.478 85.0336 409.764 84.936C410.051 84.8384 410.373 84.8341 410.663 84.9239C410.953 85.0138 411.188 85.1908 411.32 85.4178C411.201 85.1381 411.21 84.8332 411.346 84.5586C411.483 84.284 411.737 84.0581 412.063 83.9221C412.389 83.7861 412.765 83.749 413.122 83.8177C413.478 83.8863 413.793 84.0561 414.007 84.2961C413.923 84.0358 413.955 83.7597 414.099 83.5168C414.242 83.2739 414.488 83.0798 414.792 82.969C415.096 82.8582 415.439 82.8378 415.761 82.9114C416.082 82.985 416.36 83.148 416.546 83.3713C416.527 83.0127 416.648 82.6583 416.892 82.3582C417.136 82.0581 417.491 81.8274 417.907 81.6987C418.323 81.57 418.778 81.5498 419.208 81.6409C419.639 81.7321 420.023 81.9299 420.307 82.2066C420.331 81.8856 420.508 81.5845 420.801 81.3661C421.094 81.1476 421.48 81.0284 421.879 81.0334C422.683 81.0675 423.46 81.2745 424.131 81.6329C424.288 81.383 424.542 81.182 424.856 81.0611C425.169 80.9403 425.523 80.9065 425.863 80.965C426.536 81.0957 427.164 81.3475 427.7 81.7014C427.786 81.3651 427.985 81.0542 428.274 80.8023L429.517 81.2304C429.103 81.0152 428.798 80.6873 428.657 80.3064C428.517 79.9254 428.551 79.5165 428.753 79.154C428.955 78.7914 429.311 78.4992 429.757 78.3303C430.203 78.1613 430.71 78.1269 431.185 78.2333C430.452 77.454 431.302 76.375 432.13 75.6643C432.364 75.4502 432.608 75.2446 432.853 75.0305C433.052 74.8242 433.302 74.6524 433.586 74.5253C433.888 74.4184 434.23 74.4056 434.543 74.4894C434.857 74.5732 435.121 74.7477 435.285 74.9792C435.217 74.7126 435.273 74.4352 435.442 74.1999C435.612 73.9646 435.884 73.7881 436.205 73.7042C436.526 73.6204 436.874 73.6351 437.183 73.7456C437.492 73.856 437.739 74.0544 437.877 74.3027C438.081 74.0625 438.354 73.866 438.674 73.7302C438.993 73.5944 439.349 73.5234 439.71 73.5234C440.071 73.5234 440.426 73.5944 440.745 73.7302C441.065 73.866 441.338 74.0625 441.542 74.3027C441.542 73.7632 442.541 73.6348 443.125 73.8917C443.709 74.1486 444.187 74.611 444.878 74.6281C445.28 74.5972 445.678 74.537 446.067 74.4482C446.563 74.3969 447.063 74.5047 447.461 74.7482C447.858 74.9917 448.121 75.3515 448.192 75.7499C448.827 75.5671 449.521 75.567 450.156 75.7496C450.791 75.9322 451.328 76.2863 451.676 76.7518C453.335 76.8108 454.928 77.287 456.234 78.1134C456.892 78.4473 457.625 79.1581 457.062 79.6034C457.388 79.5684 457.719 79.5911 458.033 79.6697C458.346 79.7483 458.635 79.8811 458.879 80.0587C459.122 80.2364 459.315 80.4547 459.443 80.6984C459.572 80.9421 459.633 81.2055 459.622 81.4702C459.957 81.4233 460.301 81.4488 460.62 81.5441C460.938 81.6393 461.22 81.8009 461.436 82.0123C461.652 82.2238 461.794 82.4776 461.849 82.7479C461.903 83.0182 461.868 83.2953 461.747 83.551C461.983 83.5196 462.225 83.5413 462.446 83.6138C462.668 83.6863 462.86 83.8068 463.002 83.9619C463.143 84.117 463.229 84.3007 463.25 84.4926C463.27 84.6846 463.224 84.8774 463.117 85.0496C463.369 85.0165 463.627 85.0364 463.866 85.1075C464.106 85.1787 464.318 85.2985 464.483 85.4555C464.647 85.6124 464.759 85.8011 464.806 86.0031C464.854 86.2051 464.835 86.4136 464.753 86.6082C465.518 86.4283 466.134 87.3104 465.815 87.9012C465.388 88.4573 464.717 88.8638 463.935 89.0402C464.518 88.948 465.123 89.0399 465.624 89.2971C466.081 89.5968 466.134 90.2904 465.624 90.4874C465.952 90.4889 466.276 90.5477 466.573 90.6596C466.87 90.7715 467.134 90.9339 467.346 91.1356C467.557 91.3374 467.713 91.5737 467.801 91.8284C467.889 92.083 467.907 92.3501 467.855 92.6111C468.109 92.5965 468.362 92.6428 468.583 92.7443C468.804 92.8458 468.982 92.9978 469.096 93.1812C469.21 93.3645 469.254 93.571 469.222 93.7743C469.19 93.9777 469.084 94.1689 468.917 94.3237C469.19 94.445 469.419 94.621 469.582 94.8347C469.745 95.0483 469.837 95.2924 469.849 95.5431C469.861 95.7938 469.792 96.0427 469.649 96.2657C469.506 96.4886 469.295 96.6781 469.034 96.8156C469.4 97.0258 469.709 97.2934 469.944 97.6023C470.178 97.9113 470.333 98.2552 470.398 98.6135C470.464 98.9717 470.439 99.337 470.325 99.6873C470.211 100.038 470.01 100.366 469.735 100.652C469.943 100.763 470.109 100.918 470.214 101.1C470.319 101.282 470.359 101.484 470.331 101.684C470.302 101.883 470.206 102.072 470.052 102.23C469.898 102.388 469.693 102.509 469.459 102.579C469.652 102.867 469.757 103.189 469.765 103.517C469.773 103.845 469.684 104.17 469.506 104.464C469.327 104.759 469.064 105.015 468.738 105.211C468.412 105.408 468.033 105.538 467.632 105.593C467.981 105.561 468.332 105.63 468.624 105.787C468.916 105.943 469.129 106.178 469.227 106.45C469.325 106.721 469.301 107.012 469.159 107.271C469.016 107.529 468.765 107.739 468.45 107.862C468.455 107.905 468.455 107.948 468.45 107.991C468.45 108.248 468.206 108.47 468.131 108.727C468.136 108.747 468.136 108.767 468.131 108.787C468.222 108.987 468.265 109.199 468.259 109.412C468.264 109.458 468.264 109.504 468.259 109.549C468.371 109.802 468.453 110.063 468.503 110.329C468.631 111.545 466.963 112.444 465.89 113.42C465.289 113.951 464.833 114.579 464.551 115.261C464.233 116.049 463.744 117.128 462.618 117.017C463.415 117.684 462.618 118.943 461.418 119.029C462.012 119.149 461.927 119.817 461.418 120.116C460.882 120.358 460.32 120.558 459.739 120.716C459.191 121.013 458.663 121.334 458.156 121.675C457.889 121.843 457.567 121.945 457.229 121.968C456.892 121.991 456.553 121.933 456.255 121.803C456.232 121.858 456.199 121.91 456.159 121.958V121.958C456.499 122.146 456.382 122.608 456.053 122.814C455.693 122.981 455.277 123.053 454.863 123.019H453.482C451.672 123.587 449.717 123.787 447.788 123.602C447.398 123.907 446.897 124.103 446.358 124.163C445.82 124.223 445.271 124.144 444.793 123.936C444.225 124.215 443.585 124.387 442.922 124.438C442.26 124.488 441.591 124.416 440.968 124.227C440.397 124.049 439.897 123.748 439.522 123.357C439.148 122.966 438.913 122.5 438.844 122.009L437.197 121.786L431.206 123.379C430.004 123.821 428.652 123.92 427.371 123.662C426.928 123.954 426.382 124.127 425.81 124.156C425.238 124.185 424.67 124.069 424.184 123.824C423.571 124.177 422.847 124.382 422.095 124.417C421.343 124.452 420.594 124.315 419.935 124.021C419.669 124.346 419.298 124.606 418.861 124.772C418.425 124.938 417.94 125.004 417.46 124.963C417.029 124.89 416.592 124.839 416.153 124.809C415.282 124.809 414.305 125.306 413.646 124.929C413.253 124.698 413.211 124.278 412.892 123.996C412.573 123.713 411.83 123.627 411.245 123.49C410.661 123.353 409.599 121.093 409.822 120.682C408.43 120.742 407.421 118.815 406.805 117.171C406.296 116.887 405.929 116.467 405.769 115.985C405.609 115.504 405.668 114.992 405.934 114.542C405.157 114.255 404.491 113.805 404.007 113.238C403.523 112.671 403.238 112.009 403.183 111.322C402.609 111.365 402.184 110.894 402.035 110.466C401.968 110.003 401.822 109.551 401.6 109.121C401.334 108.753 400.835 108.496 400.665 108.085C400.579 107.804 400.579 107.51 400.665 107.229C400.909 106.167 401.164 105.096 401.419 104.035C401.203 103.99 401.004 103.903 400.841 103.781C400.677 103.659 400.554 103.506 400.482 103.336C400.41 103.166 400.392 102.984 400.43 102.807C400.467 102.63 400.559 102.463 400.697 102.322L399.284 101.603C399.33 101.455 399.416 101.317 399.535 101.198C399.654 101.08 399.804 100.984 399.975 100.917L398.721 100.352C398.912 100.211 399.053 100.03 399.127 99.8299C399.202 99.6295 399.209 99.4165 399.146 99.2134L401.547 98.6996L399.008 99.2305C398.695 99.0973 398.431 98.9011 398.241 98.6609C398.051 98.4207 397.942 98.1448 397.924 97.8604V97.8604Z" fill="#263238"/>
<path d="M446.736 92.2419L430.165 89.3561C424.035 88.7053 417.247 93.5264 416.705 98.4846C416.1 103.999 415.643 110.739 416.312 114.875C417.683 123.19 425.522 124.406 425.522 124.406L425.395 127.788C425.313 130.144 426.38 132.432 428.365 134.163C430.351 135.893 433.098 136.928 436.018 137.045C438.975 137.157 441.867 136.318 444.058 134.712C446.249 133.107 447.56 130.866 447.703 128.482L449.828 95.4446C449.857 94.7039 449.563 93.9784 448.999 93.3936C448.434 92.8087 447.634 92.4014 446.736 92.2419V92.2419Z" fill="#FFBE9D"/>
<path d="M418.15 104.197C418.141 104.474 418.266 104.742 418.498 104.947C418.729 105.151 419.05 105.275 419.393 105.293C419.56 105.307 419.73 105.294 419.89 105.254C420.051 105.215 420.2 105.149 420.329 105.062C420.458 104.975 420.564 104.868 420.64 104.747C420.717 104.627 420.762 104.495 420.774 104.359C420.786 104.083 420.664 103.815 420.434 103.61C420.204 103.405 419.884 103.281 419.542 103.263C419.374 103.249 419.205 103.262 419.043 103.302C418.882 103.341 418.732 103.407 418.602 103.494C418.472 103.581 418.366 103.688 418.288 103.808C418.21 103.929 418.164 104.061 418.15 104.197V104.197Z" fill="#263238"/>
<path d="M417.959 102.296C418.086 102.476 419.223 101.971 420.615 102.185C422.006 102.399 422.877 103.187 423.069 103.041C423.26 102.895 423.069 102.69 422.686 102.33C422.186 101.88 421.513 101.578 420.774 101.474C420.048 101.364 419.297 101.461 418.65 101.748C418.118 101.971 417.959 102.219 417.959 102.296Z" fill="#263238"/>
<path d="M432.024 104.908C432.012 105.185 432.136 105.455 432.368 105.66C432.6 105.865 432.923 105.988 433.267 106.004C433.434 106.018 433.603 106.005 433.764 105.965C433.924 105.925 434.074 105.86 434.203 105.773C434.331 105.686 434.437 105.579 434.514 105.458C434.59 105.337 434.636 105.206 434.648 105.07C434.659 104.794 434.537 104.526 434.307 104.321C434.077 104.116 433.757 103.992 433.415 103.974C433.248 103.96 433.078 103.973 432.917 104.013C432.755 104.052 432.605 104.117 432.475 104.204C432.346 104.291 432.239 104.398 432.161 104.519C432.084 104.64 432.037 104.772 432.024 104.908Z" fill="#263238"/>
<path d="M431.705 103.152C431.885 103.323 433.043 102.655 434.658 102.698C436.273 102.741 437.42 103.435 437.601 103.272C437.781 103.109 437.516 102.912 437.016 102.587C436.334 102.176 435.509 101.948 434.658 101.936C433.818 101.909 432.989 102.104 432.3 102.493C431.769 102.767 431.609 103.058 431.705 103.152Z" fill="#263238"/>
<path d="M426.925 110.902C426.182 110.701 425.411 110.574 424.63 110.525C424.269 110.482 423.929 110.422 423.876 110.217C423.852 109.916 423.945 109.617 424.141 109.36C424.503 108.658 424.885 107.93 425.289 107.16C426.34 105.298 427.204 103.37 427.87 101.396C426.621 103.185 425.556 105.052 424.683 106.98L423.621 109.189C423.383 109.539 423.304 109.945 423.398 110.337C423.448 110.439 423.526 110.531 423.625 110.606C423.724 110.682 423.842 110.739 423.971 110.773C424.172 110.821 424.379 110.847 424.588 110.85C425.36 110.95 426.146 110.968 426.925 110.902Z" fill="#263238"/>
<path d="M425.522 124.407C430.344 124.558 435.124 123.63 439.332 121.727C439.332 121.727 435.593 127.387 425.331 126.402L425.522 124.407Z" fill="#EB996E"/>
<path d="M431.121 100.584C431.301 100.884 432.693 100.584 434.361 100.653C436.029 100.721 437.42 100.944 437.611 100.653C437.686 100.516 437.42 100.242 436.847 99.9848C436.084 99.6692 435.239 99.5048 434.382 99.5053C433.525 99.4878 432.676 99.6376 431.907 99.942C431.323 100.148 431.046 100.413 431.121 100.584Z" fill="#263238"/>
<path d="M418.065 99.2986C418.288 99.5897 419.404 99.4527 420.689 99.5897C421.974 99.7267 423.015 100.035 423.323 99.7952C423.451 99.6839 423.323 99.4013 422.899 99.1016C422.306 98.7291 421.596 98.4977 420.848 98.4337C420.105 98.3502 419.347 98.4456 418.671 98.7077C418.161 98.9132 417.959 99.1615 418.065 99.2986Z" fill="#263238"/>
<path d="M448.372 106.904C448.521 106.852 454.513 105.448 454.3 110.329C454.088 115.21 448.011 114.071 448.011 113.925C448.011 113.78 448.372 106.904 448.372 106.904Z" fill="#FFBE9D"/>
<path d="M449.945 112.152C449.945 112.152 450.051 112.221 450.232 112.289C450.487 112.373 450.773 112.373 451.028 112.289C451.43 112.098 451.761 111.825 451.989 111.497C452.217 111.169 452.332 110.798 452.324 110.423C452.357 109.999 452.273 109.575 452.08 109.181C452.026 109.027 451.928 108.885 451.793 108.767C451.659 108.65 451.491 108.56 451.304 108.504C451.184 108.476 451.055 108.482 450.939 108.521C450.823 108.56 450.727 108.63 450.667 108.718C450.582 108.855 450.667 108.958 450.582 108.967C450.497 108.975 450.455 108.881 450.508 108.676C450.548 108.555 450.638 108.45 450.763 108.376C450.848 108.327 450.944 108.292 451.046 108.272C451.148 108.253 451.254 108.251 451.358 108.265C451.604 108.313 451.831 108.412 452.017 108.551C452.203 108.691 452.342 108.866 452.42 109.061C452.666 109.492 452.775 109.966 452.739 110.44C452.763 110.886 452.62 111.329 452.328 111.709C452.037 112.089 451.609 112.39 451.103 112.572C450.938 112.607 450.765 112.611 450.597 112.585C450.43 112.558 450.272 112.501 450.136 112.418C449.955 112.272 449.923 112.161 449.945 112.152Z" fill="#EB996E"/>
<path d="M457.476 118.223C454.502 119.011 455.532 107.442 452.993 105.952C450.454 104.462 449.668 110.234 446.269 108.118C444.049 106.774 445.589 105.943 444.336 103.948C442.668 101.319 437.76 100.934 436.082 98.3134C435.104 96.7806 435.487 94.8881 434.414 93.3638C433.341 91.8396 431.365 91.3086 429.41 90.949C427.456 90.5893 425.406 90.4009 423.685 89.5703C421.964 88.7396 420.71 87.0013 421.56 85.4941C429.981 85.4952 438.373 86.3059 446.556 87.909C448.457 88.2772 450.454 88.7653 451.719 89.9471C452.983 91.1288 453.269 92.9956 453.418 94.6483L455.617 118.917" fill="#263238"/>
<path d="M434.318 73.6775C434.318 73.6775 434.254 73.6261 434.116 73.5405C433.914 73.4167 433.669 73.3478 433.415 73.3435C433.218 73.3378 433.022 73.3652 432.839 73.4242C432.656 73.4832 432.49 73.5724 432.353 73.6861C432.001 73.998 431.804 74.4035 431.8 74.825V74.9449L431.662 74.8935C431.296 74.7701 430.896 74.7288 430.503 74.7741C430.11 74.8193 429.74 74.9493 429.431 75.1504C429.077 75.3898 428.83 75.7159 428.726 76.079C428.623 76.4422 428.669 76.8227 428.858 77.1628L429.177 77.7279L428.656 77.2741C428.448 77.1185 428.186 77.0178 427.905 76.9857C427.624 76.9535 427.337 76.9914 427.084 77.0943C426.765 77.2102 426.507 77.4123 426.353 77.6657C426.2 77.9191 426.162 78.2077 426.245 78.4815C426.299 78.7507 426.438 79.0042 426.648 79.218C426.727 79.3235 426.832 79.4151 426.956 79.4872C427.08 79.5593 427.221 79.6104 427.371 79.6375C427.429 79.6367 427.486 79.6216 427.533 79.594C427.581 79.5665 427.617 79.5279 427.636 79.4834C427.641 79.4641 427.64 79.4442 427.634 79.4251C427.629 79.406 427.618 79.3881 427.603 79.3727C427.588 79.3573 427.568 79.3446 427.547 79.3357C427.525 79.3267 427.501 79.3216 427.477 79.3207C427.346 79.3172 427.218 79.3478 427.111 79.408C427.003 79.4682 426.923 79.5547 426.882 79.6547C426.726 80.0621 426.764 80.5018 426.988 80.8878C427.249 81.4894 427.658 82.0426 428.189 82.5149C428.56 82.8488 428.815 82.9944 428.794 83.0115C428.773 83.0286 428.73 83.0115 428.603 82.9087C428.429 82.8047 428.266 82.6903 428.114 82.5662C427.551 82.0997 427.11 81.5463 426.818 80.9392C426.576 80.5152 426.53 80.0349 426.691 79.5862C426.753 79.4535 426.868 79.3412 427.018 79.2669C427.168 79.1925 427.344 79.1603 427.519 79.1751C427.626 79.1868 427.725 79.2295 427.796 79.295C427.831 79.3322 427.856 79.3755 427.867 79.4216C427.878 79.4677 427.875 79.5153 427.859 79.5605C427.828 79.6435 427.765 79.7163 427.679 79.7686C427.593 79.8209 427.489 79.85 427.381 79.8516C427.185 79.8437 426.999 79.7835 426.85 79.6804C426.704 79.5902 426.576 79.4834 426.468 79.3635C426.222 79.1165 426.065 78.8206 426.011 78.5072C425.945 78.1926 425.989 77.8693 426.138 77.5738C426.252 77.3775 426.421 77.2054 426.632 77.0713C426.843 76.9372 427.09 76.8449 427.354 76.8016C427.617 76.7583 427.889 76.7653 428.149 76.8221C428.408 76.8788 428.647 76.9838 428.847 77.1285L428.645 77.2398C428.446 76.8893 428.385 76.498 428.471 76.1187C428.556 75.7393 428.784 75.3903 429.123 75.1186C429.463 74.8469 429.897 74.6657 430.368 74.5994C430.839 74.5331 431.324 74.585 431.758 74.7479L431.62 74.8164C431.642 74.3595 431.868 73.9246 432.257 73.5918C432.411 73.4715 432.595 73.3788 432.796 73.3198C432.997 73.2608 433.212 73.2368 433.426 73.2493C433.695 73.2632 433.95 73.3508 434.148 73.4977C434.2 73.5325 434.247 73.5728 434.286 73.6176L434.318 73.6775Z" fill="#263238"/>
<path d="M412.648 83.7825C412.648 83.7825 412.648 83.7825 412.584 83.6797C412.551 83.5642 412.551 83.4442 412.584 83.3286C412.649 83.1417 412.782 82.9747 412.966 82.8491C413.092 82.7625 413.242 82.7023 413.403 82.6739C413.564 82.6455 413.732 82.6498 413.89 82.6864L413.795 82.7549C413.773 82.6093 413.794 82.4617 413.854 82.3236C413.915 82.1854 414.015 82.0605 414.145 81.9585C414.287 81.8313 414.467 81.736 414.668 81.6819C414.87 81.6279 415.085 81.6169 415.293 81.6502L415.176 81.7102C415.25 81.4016 415.406 81.1096 415.633 80.8539C415.768 80.715 415.954 80.6132 416.164 80.5627C416.278 80.5336 416.399 80.5247 416.518 80.5365C416.637 80.5484 416.752 80.5806 416.854 80.6312L416.674 80.6912C416.723 80.4277 416.879 80.1848 417.117 79.9996C417.354 79.8144 417.661 79.6972 417.989 79.6661C418.317 79.6349 418.649 79.6915 418.933 79.8272C419.218 79.9629 419.439 80.1702 419.563 80.4171L419.977 81.2306L419.34 80.5199C419.246 80.4127 419.185 80.2897 419.159 80.1602C419.116 79.9592 419.146 79.7524 419.243 79.5643C419.341 79.3762 419.504 79.2145 419.712 79.0983C419.91 78.9931 420.136 78.926 420.372 78.9022C420.608 78.8785 420.847 78.8987 421.072 78.9613C421.509 79.062 421.887 79.2871 422.134 79.595C422.361 79.8676 422.51 80.1778 422.569 80.5027H422.346C422.379 80.3241 422.481 80.1584 422.637 80.0292C422.794 79.9 422.997 79.814 423.217 79.7834C423.583 79.7344 423.958 79.7888 424.28 79.9376C424.813 80.1641 425.272 80.49 425.618 80.8881C425.848 81.1362 425.977 81.4351 425.99 81.7444C426.005 81.8239 426.005 81.9048 425.99 81.9842V82.0613C425.99 82.0613 425.99 81.9499 425.99 81.7444C425.948 81.4476 425.804 81.166 425.576 80.9309C425.223 80.5683 424.773 80.2754 424.258 80.0746C423.961 79.9423 423.616 79.897 423.281 79.9461C423.107 79.9727 422.947 80.042 422.823 80.1448C422.699 80.2475 422.618 80.3785 422.591 80.5199L422.527 81.3334L422.368 80.5284C422.315 80.2284 422.164 79.945 421.93 79.7073C421.697 79.4696 421.39 79.2861 421.04 79.1754C420.849 79.1268 420.648 79.1123 420.45 79.133C420.251 79.1537 420.061 79.2091 419.892 79.2953C419.724 79.3883 419.592 79.5186 419.513 79.6705C419.434 79.8224 419.411 79.9895 419.446 80.1517C419.468 80.2498 419.515 80.3432 419.584 80.4257L419.372 80.5199C419.266 80.3146 419.079 80.1426 418.841 80.0299C418.603 79.9172 418.326 79.8699 418.052 79.895C417.778 79.9201 417.521 80.0163 417.32 80.1691C417.12 80.322 416.986 80.5232 416.939 80.7425V80.8881L416.78 80.811C416.626 80.7499 416.45 80.7344 416.283 80.7673C416.116 80.8001 415.968 80.8793 415.866 80.9908C415.656 81.2202 415.507 81.4828 415.431 81.7616V81.8386H415.335C415.159 81.8113 414.976 81.8205 414.805 81.8654C414.635 81.9104 414.481 81.9895 414.358 82.0955C414.245 82.1819 414.157 82.2873 414.1 82.4042C414.043 82.5211 414.019 82.6467 414.029 82.772V82.8662H413.912C413.776 82.8338 413.632 82.8286 413.494 82.851C413.355 82.8733 413.225 82.9227 413.115 82.9947C412.956 83.093 412.835 83.2255 412.765 83.3771C412.696 83.5286 412.681 83.6929 412.722 83.851L412.648 83.7825Z" fill="#263238"/>
<path d="M454.204 97.2092C454.342 96.9585 454.411 96.6869 454.406 96.4129C454.391 96.0877 454.278 95.7704 454.077 95.488C453.806 95.108 453.365 94.8261 452.845 94.7002H452.77V94.6403C452.836 94.4711 452.84 94.2906 452.784 94.1195C452.727 93.9483 452.612 93.7934 452.452 93.6726C452.272 93.5362 452.039 93.4544 451.793 93.4414C451.498 93.45 451.208 93.3742 450.975 93.2273C450.789 93.0292 450.669 92.7965 450.625 92.5508C450.572 92.3229 450.439 92.1119 450.242 91.9428C450.035 91.7643 449.765 91.6415 449.469 91.5909C449.172 91.5404 448.864 91.5646 448.585 91.6602L448.149 91.8229L448.458 91.5232C448.653 91.3248 448.752 91.076 448.737 90.8231C448.721 90.5702 448.593 90.3304 448.375 90.1483C448.156 89.9661 447.864 89.854 447.551 89.8328C447.238 89.8117 446.926 89.8829 446.673 90.0332L446.386 90.213L446.492 89.9304C446.61 89.5807 446.587 89.2099 446.426 88.8714C446.266 88.5328 445.977 88.244 445.6 88.0465C445.191 87.8473 444.71 87.7652 444.236 87.8134C443.762 87.8615 443.322 88.0372 442.987 88.3119L442.742 88.5175V88.2349C442.793 87.7084 442.641 87.1821 442.307 86.7278C442.006 86.3023 441.565 85.9525 441.032 85.7173C440.511 85.4949 439.919 85.4025 439.332 85.4518C438.77 85.4972 438.232 85.6579 437.769 85.9188C437.306 86.1796 436.933 86.5319 436.687 86.9418L436.56 87.1816L436.464 86.9333C436.38 86.7288 436.241 86.5416 436.057 86.3848C435.874 86.2281 435.65 86.1055 435.402 86.0256C434.912 85.8572 434.365 85.827 433.851 85.9399C432.901 86.2046 432.101 86.7367 431.599 87.4385L431.535 87.5156L431.45 87.4556C430.989 87.139 430.448 86.9057 429.866 86.7713C429.283 86.6369 428.672 86.6046 428.072 86.6764C427.152 86.7771 426.301 87.1274 425.661 87.6697C425.243 88.0105 424.914 88.4152 424.694 88.86C424.545 89.1683 424.503 89.3396 424.492 89.3396C424.515 89.1695 424.565 89.0025 424.641 88.8429C424.902 88.2494 425.357 87.7233 425.957 87.3197C426.557 86.916 427.28 86.6495 428.051 86.5479C428.674 86.4723 429.309 86.5026 429.917 86.6368C430.524 86.771 431.09 87.0062 431.578 87.3272H431.429C431.959 86.5906 432.8 86.0315 433.798 85.7515C434.359 85.6229 434.958 85.6501 435.498 85.8286C435.785 85.9172 436.044 86.055 436.259 86.2324C436.473 86.4098 436.638 86.6226 436.74 86.8562H436.517C436.776 86.4125 437.174 86.0309 437.671 85.7486C438.168 85.4663 438.748 85.2933 439.354 85.2463C439.989 85.1884 440.631 85.2901 441.191 85.5374C441.765 85.7861 442.24 86.1601 442.562 86.6164C442.927 87.1053 443.091 87.6749 443.029 88.2435L442.817 88.1664C443.173 87.8601 443.648 87.6598 444.163 87.5977C444.679 87.5357 445.205 87.6156 445.657 87.8246C446.109 88.0335 446.461 88.3593 446.655 88.7492C446.849 89.1391 446.874 89.5704 446.726 89.9732L446.535 89.8705C446.827 89.6961 447.188 89.6122 447.551 89.634C447.914 89.6558 448.255 89.7818 448.512 89.9892C448.769 90.1966 448.926 90.4716 448.953 90.7641C448.98 91.0566 448.876 91.3473 448.659 91.5831L448.532 91.4461C448.853 91.3394 449.208 91.3142 449.547 91.3739C449.887 91.4335 450.196 91.5752 450.433 91.7801C450.933 92.174 450.795 92.782 451.156 93.0731C451.355 93.1985 451.604 93.2623 451.857 93.253C452.136 93.2741 452.398 93.3707 452.6 93.527C452.782 93.6656 452.911 93.8433 452.971 94.0391C453.032 94.235 453.021 94.4406 452.94 94.6317V94.5546C453.488 94.6978 453.948 95.004 454.226 95.411C454.426 95.7082 454.531 96.0406 454.534 96.3786C454.534 96.5872 454.483 96.7937 454.385 96.9866C454.342 97.0691 454.281 97.1446 454.204 97.2092V97.2092Z" fill="#455A64"/>
<path d="M405.424 98.1435C405.344 98.0512 405.273 97.9538 405.212 97.8523C405.022 97.5773 404.859 97.291 404.723 96.996C404.492 96.5127 404.447 95.9843 404.595 95.4802C404.692 95.156 404.898 94.8596 405.19 94.6239C405.348 94.4914 405.538 94.3865 405.748 94.3158C405.958 94.2451 406.184 94.2101 406.412 94.2129L406.306 94.3157C406.256 94.0374 406.292 93.7537 406.411 93.4893C406.529 93.225 406.727 92.9882 406.986 92.7999C407.258 92.5792 407.598 92.4203 407.971 92.3391C408.344 92.2579 408.737 92.2574 409.11 92.3375L408.951 92.4489C408.89 92.1481 408.908 91.8405 409.003 91.5456C409.098 91.2507 409.269 90.975 409.503 90.7362C409.759 90.4829 410.084 90.2802 410.452 90.1436C410.821 90.007 411.223 89.9403 411.628 89.9484C411.947 89.95 412.263 89.9963 412.563 90.0854C412.839 90.1539 413.136 90.2138 413.328 90.0854C413.519 89.9569 413.561 89.7257 413.731 89.5116C413.903 89.3049 414.123 89.1274 414.379 88.9893C414.848 88.7338 415.411 88.6149 415.975 88.6523C416.539 88.6896 417.07 88.881 417.481 89.1948H417.29C417.392 88.7521 417.56 88.3208 417.789 87.9103C418.002 87.5301 418.38 87.2256 418.852 87.054C419.288 86.9299 419.764 86.9299 420.201 87.054C420.566 87.1326 420.922 87.2386 421.263 87.3708C421.735 87.5596 422.172 87.8018 422.559 88.0901C422.663 88.1656 422.763 88.2456 422.856 88.3299C422.889 88.3587 422.917 88.3903 422.941 88.4241C422.422 88.0413 421.839 87.7185 421.21 87.465C420.867 87.3426 420.512 87.2452 420.147 87.1739C419.749 87.0589 419.314 87.0589 418.915 87.1739C418.476 87.3514 418.138 87.6579 417.97 88.0302C417.749 88.4294 417.592 88.8495 417.502 89.2804V89.4603L417.354 89.3232C416.976 89.0444 416.492 88.8766 415.981 88.8471C415.47 88.8175 414.962 88.928 414.539 89.1605C414.318 89.2858 414.127 89.4425 413.976 89.623C413.907 89.7224 413.847 89.8254 413.795 89.9312C413.741 90.0647 413.637 90.1815 413.498 90.2652C413.346 90.3424 413.165 90.3728 412.988 90.3508C412.828 90.3366 412.672 90.3079 412.52 90.2652C412.244 90.1846 411.953 90.1412 411.66 90.1367C411.298 90.1352 410.94 90.199 410.613 90.3234C410.286 90.4479 409.997 90.63 409.769 90.8561C409.559 91.0718 409.407 91.3199 409.321 91.585C409.235 91.8502 409.218 92.1267 409.27 92.3975V92.5516H409.078C408.749 92.4788 408.401 92.4776 408.071 92.5483C407.741 92.619 407.439 92.7591 407.198 92.9541C406.963 93.1203 406.781 93.3306 406.67 93.5665C406.559 93.8024 406.522 94.0567 406.561 94.3071V94.4098H406.433C406.236 94.4082 406.041 94.4384 405.858 94.4987C405.676 94.559 405.51 94.6482 405.371 94.761C405.105 94.9731 404.908 95.2349 404.797 95.5231C404.65 95.999 404.68 96.4993 404.882 96.9617C405.212 97.7239 405.456 98.1264 405.424 98.1435Z" fill="#455A64"/>
<path d="M464.179 89.4933C464.164 89.2257 464.092 88.9621 463.967 88.7141C463.808 88.4174 463.573 88.1516 463.276 87.9348C462.873 87.6403 462.362 87.4599 461.821 87.421H461.736V87.3525C461.836 87.1629 461.887 86.959 461.887 86.753C461.887 86.547 461.836 86.3432 461.736 86.1536C461.636 85.9282 461.472 85.7244 461.259 85.5581C461.045 85.3917 460.787 85.2674 460.504 85.1945H460.419V85.126C460.49 84.9414 460.512 84.7466 460.482 84.5547C460.453 84.3627 460.373 84.178 460.249 84.0128C460.125 83.8286 459.95 83.6696 459.738 83.5479C459.527 83.4263 459.283 83.3451 459.027 83.3106C458.717 83.3206 458.411 83.2484 458.156 83.1051C457.89 82.8739 457.997 82.5827 457.89 82.3943C457.772 82.1895 457.559 82.0304 457.296 81.9518C457.034 81.8733 456.743 81.8815 456.488 81.9747L456.361 82.0347V81.9234C456.261 81.6749 456.099 81.4454 455.886 81.2488C455.673 81.0522 455.412 80.8926 455.12 80.7797C454.828 80.6667 454.511 80.6028 454.187 80.5919C453.863 80.5809 453.54 80.6231 453.237 80.7159L453.121 80.7587V80.6645C452.985 80.4363 452.789 80.2351 452.545 80.0754C452.302 79.9157 452.018 79.8014 451.713 79.7408C451.408 79.6802 451.091 79.6748 450.783 79.725C450.475 79.7751 450.185 79.8796 449.934 80.0308L449.817 80.1165L449.742 79.9966C449.546 79.7739 449.286 79.5923 448.985 79.467C448.684 79.3417 448.35 79.2763 448.011 79.2763C447.672 79.2763 447.338 79.3417 447.037 79.467C446.736 79.5923 446.476 79.7739 446.279 79.9966L446.152 80.1764L446.056 79.988C445.898 79.712 445.617 79.4938 445.269 79.3765C444.921 79.2592 444.531 79.2513 444.176 79.3544C443.902 79.4467 443.667 79.6009 443.499 79.7984C443.332 79.9959 443.238 80.2283 443.231 80.4676V80.7416L443.008 80.5361C442.736 80.3187 442.404 80.1557 442.04 80.0605C441.676 79.9653 441.289 79.9405 440.911 79.988C440.532 80.0355 440.173 80.154 439.862 80.334C439.551 80.514 439.296 80.7504 439.12 81.0242L439.045 81.1783L438.918 81.0499C438.595 80.7472 438.17 80.5274 437.694 80.4178C437.218 80.3082 436.713 80.3136 436.241 80.4333C435.797 80.5585 435.405 80.7798 435.107 81.0729C434.809 81.3659 434.617 81.7194 434.552 82.0946V82.223L434.403 82.1631C433.897 81.9489 433.33 81.8461 432.759 81.8648C432.188 81.8836 431.634 82.0232 431.151 82.2698C430.669 82.5164 430.275 82.8613 430.011 83.2695C429.746 83.6777 429.619 84.1349 429.644 84.5951V84.6807H429.538C428.269 84.5889 427.006 84.8957 426.011 85.537C425.267 86.026 424.72 86.6816 424.439 87.421C424.262 87.8894 424.194 88.3799 424.237 88.8682C424.237 89.2022 424.311 89.382 424.301 89.382C424.24 89.2173 424.201 89.048 424.184 88.8768C424.122 88.3821 424.176 87.8825 424.343 87.4038C424.608 86.6344 425.161 85.9496 425.926 85.4429C426.952 84.7858 428.256 84.4784 429.559 84.5865L429.463 84.6636C429.441 84.177 429.578 83.6943 429.86 83.2636C430.142 82.833 430.559 82.4695 431.07 82.2095C431.581 81.9495 432.167 81.802 432.771 81.7819C433.374 81.7617 433.974 81.8695 434.509 82.0946L434.339 82.1631C434.4 81.739 434.615 81.3386 434.955 81.0116C435.296 80.6845 435.748 80.4451 436.255 80.323C436.763 80.2009 437.304 80.2014 437.811 80.3245C438.318 80.4476 438.769 80.6879 439.109 81.0156H438.907C439.084 80.7081 439.354 80.4412 439.691 80.2393C440.029 80.0373 440.424 79.9068 440.84 79.8596C441.265 79.791 441.705 79.8109 442.117 79.9173C442.53 80.0237 442.902 80.2131 443.199 80.4676L442.986 80.5361C442.99 80.2598 443.092 79.9901 443.28 79.7593C443.468 79.5285 443.735 79.3463 444.049 79.2345C444.464 79.112 444.922 79.1207 445.33 79.2589C445.737 79.3971 446.065 79.6545 446.248 79.9795H446.024C446.235 79.7161 446.525 79.4995 446.866 79.3496C447.208 79.1997 447.59 79.1211 447.979 79.1211C448.368 79.1211 448.751 79.1997 449.092 79.3496C449.434 79.4995 449.723 79.7161 449.934 79.9795H449.742C450.023 79.7943 450.356 79.6672 450.711 79.609C451.066 79.5508 451.434 79.5633 451.782 79.6455C452.119 79.7127 452.431 79.8432 452.693 80.0262C452.955 80.2093 453.16 80.4398 453.291 80.6988L453.131 80.6474C453.464 80.5441 453.82 80.497 454.177 80.5089C454.534 80.5209 454.884 80.5916 455.205 80.7167C455.527 80.8419 455.813 81.0189 456.047 81.2367C456.28 81.4546 456.456 81.7087 456.562 81.9833L456.403 81.9319C456.555 81.8683 456.722 81.8312 456.893 81.823C457.063 81.8147 457.235 81.8355 457.395 81.8839C457.555 81.9323 457.701 82.0074 457.823 82.1041C457.945 82.2009 458.04 82.3173 458.103 82.4457C458.22 82.7026 458.103 82.9595 458.315 83.0965C458.543 83.2137 458.81 83.2706 459.08 83.2592C459.35 83.3015 459.606 83.3888 459.832 83.5154C460.058 83.6421 460.248 83.8053 460.391 83.9948C460.534 84.1842 460.627 84.3956 460.662 84.6155C460.698 84.8354 460.677 85.0588 460.599 85.2716L460.546 85.186C460.849 85.2689 461.125 85.4059 461.353 85.5868C461.581 85.7677 461.755 85.9878 461.863 86.2307C461.971 86.4336 462.027 86.6521 462.027 86.8729C462.027 87.0938 461.971 87.3123 461.863 87.5152L461.81 87.4467C462.377 87.4951 462.907 87.6939 463.319 88.0119C463.624 88.253 463.86 88.5453 464.009 88.8682C464.099 89.0575 464.153 89.2567 464.168 89.4591C464.172 89.4705 464.176 89.4819 464.179 89.4933Z" fill="#455A64"/>
<path d="M454.81 112.076C454.81 112.076 454.884 112.076 455.012 112.136C455.196 112.203 455.371 112.287 455.532 112.384C456.136 112.738 456.597 113.226 456.86 113.789C457.241 114.638 457.241 115.568 456.86 116.418C456.619 116.917 456.22 117.357 455.702 117.694C455.16 118.066 454.509 118.322 453.811 118.439C453.093 118.526 452.359 118.455 451.687 118.233C451.057 118.054 450.502 117.736 450.083 117.317C449.733 116.967 449.475 116.564 449.327 116.13C449.179 115.697 449.144 115.244 449.222 114.799C449.303 114.199 449.607 113.632 450.093 113.172C450.224 113.047 450.383 112.943 450.561 112.864L450.752 112.796C450.534 112.917 450.338 113.061 450.168 113.224C449.73 113.685 449.464 114.238 449.403 114.816C449.339 115.24 449.382 115.669 449.53 116.078C449.678 116.487 449.927 116.868 450.263 117.197C450.66 117.588 451.181 117.884 451.772 118.053C452.392 118.251 453.065 118.319 453.726 118.25C454.38 118.137 454.989 117.896 455.501 117.548C455.977 117.232 456.343 116.822 456.563 116.358C456.913 115.545 456.913 114.661 456.563 113.849C456.319 113.301 455.892 112.818 455.331 112.453C455.065 112.187 454.799 112.093 454.81 112.076Z" fill="#E0E0E0"/>
<path d="M430.706 112.315C430.422 112.08 430.048 111.929 429.644 111.887C429.336 111.849 429.021 111.866 428.721 111.937C428.422 112.008 428.146 112.131 427.913 112.298C427.683 112.468 427.522 112.689 427.452 112.934C427.382 113.179 427.406 113.435 427.519 113.668V113.54C427.563 113.781 427.684 114.009 427.87 114.201C428.057 114.393 428.302 114.543 428.582 114.636C428.861 114.723 429.161 114.755 429.459 114.73C429.756 114.705 430.042 114.622 430.292 114.49C430.536 114.353 430.74 114.173 430.887 113.964C431.034 113.755 431.121 113.522 431.142 113.283C431.156 113.106 431.125 112.929 431.05 112.762C430.975 112.596 430.858 112.444 430.706 112.315V112.315Z" fill="#EB996E"/>
<path d="M450.04 105.995C450.002 106.341 449.835 106.67 449.56 106.938C449.285 107.205 448.915 107.399 448.5 107.493C448.893 107.493 448.978 108.007 448.702 108.23C448.554 108.324 448.383 108.393 448.2 108.431C448.017 108.47 447.826 108.477 447.639 108.453C446.691 108.377 445.777 108.124 444.971 107.714C444.165 107.304 443.489 106.747 442.997 106.089C442.751 106.006 442.531 105.879 442.353 105.718C442.176 105.556 442.046 105.365 441.973 105.158C441.899 104.951 441.884 104.733 441.929 104.521C441.974 104.308 442.078 104.107 442.232 103.931C441.856 103.82 441.545 103.599 441.362 103.312C441.179 103.025 441.137 102.692 441.244 102.381C441.053 102.407 440.856 102.396 440.67 102.351C440.484 102.306 440.313 102.227 440.17 102.12C440.028 102.014 439.918 101.882 439.848 101.736C439.778 101.59 439.751 101.433 439.768 101.276C437.801 100.514 436.042 99.4425 434.594 98.1252C434.348 97.8671 434.228 97.5454 434.255 97.2205C434.282 96.8957 434.456 96.5901 434.743 96.3612C434.549 96.2993 434.378 96.1988 434.246 96.0691C434.114 95.9395 434.024 95.785 433.986 95.6199C433.948 95.4548 433.962 95.2846 434.028 95.1252C434.093 94.9658 434.208 94.8225 434.361 94.7084C434.207 94.6768 434.063 94.6206 433.937 94.543C433.811 94.4655 433.706 94.3682 433.627 94.2571C433.549 94.146 433.499 94.0233 433.481 93.8963C433.463 93.7693 433.477 93.6407 433.522 93.5181C432.81 93.4668 429.272 93.227 429.272 92.6618C427.307 92.1737 426.393 91.3687 426.309 90.9491C426.224 90.5295 425.193 90.6152 425.129 90.187C425.044 89.6132 425.99 89.3307 426.712 89.3307C428.88 89.2613 431.037 89.623 432.99 90.384C435.181 91.3357 437.188 92.5385 438.95 93.9549L441.478 95.796C442.115 96.2584 442.817 96.8835 442.54 97.5086C443.157 97.2603 443.889 97.6885 444.187 98.1852C444.484 98.6818 444.527 99.2727 444.856 99.7523C445.202 100.16 445.597 100.538 446.035 100.883C446.253 101.056 446.416 101.268 446.512 101.501C446.608 101.735 446.634 101.984 446.588 102.227C447.115 102.184 447.646 102.286 448.093 102.516C448.54 102.746 448.878 103.091 449.052 103.494C449.594 103.203 450.369 103.657 450.465 104.179C450.494 104.708 450.303 105.229 449.923 105.661" fill="#263238"/>
<path d="M429.644 104.48C429.62 104.115 429.62 103.749 429.644 103.384C429.775 102.55 430.197 101.762 430.86 101.114C431.524 100.465 432.403 99.9812 433.394 99.7189C434.321 99.4773 435.312 99.4418 436.262 99.6161C437.307 99.804 438.26 100.236 439.003 100.858C439.807 101.526 440.324 102.384 440.479 103.307C440.63 104.23 440.415 105.169 439.863 105.987C439.604 106.375 439.271 106.728 438.875 107.032C438.504 107.329 438.077 107.577 437.611 107.768C436.752 108.135 435.788 108.309 434.817 108.274C433.777 108.229 432.773 107.947 431.921 107.463C431.07 106.978 430.406 106.309 430.005 105.533C429.843 105.19 429.708 104.838 429.602 104.48C429.602 104.48 429.602 104.583 429.602 104.771C429.623 104.884 429.655 104.996 429.697 105.105C429.739 105.26 429.795 105.412 429.867 105.559C430.322 106.517 431.174 107.319 432.278 107.828C433.035 108.187 433.888 108.393 434.764 108.428C435.772 108.474 436.777 108.303 437.675 107.931C438.666 107.51 439.482 106.864 440.023 106.073C440.606 105.223 440.834 104.244 440.671 103.281C440.512 102.314 439.972 101.413 439.13 100.712C438.745 100.367 438.288 100.077 437.781 99.8559C437.309 99.6371 436.796 99.4809 436.262 99.3935C435.273 99.2255 434.246 99.2729 433.288 99.5305C432.456 99.7515 431.701 100.13 431.089 100.635C430.192 101.361 429.633 102.314 429.506 103.333C429.491 103.492 429.491 103.653 429.506 103.812C429.494 103.926 429.494 104.041 429.506 104.155C429.644 104.386 429.644 104.489 429.644 104.48Z" fill="#455A64"/>
<path d="M413.922 103.863C413.898 103.498 413.898 103.132 413.922 102.767C414.087 101.791 414.652 100.887 415.526 100.198C416.121 99.7159 416.849 99.3549 417.651 99.1447C418.577 98.9003 419.568 98.8618 420.519 99.0334C421.031 99.1167 421.523 99.2671 421.974 99.4787C422.455 99.6881 422.892 99.9568 423.27 100.275C424.072 100.947 424.588 101.807 424.74 102.732C424.893 103.656 424.676 104.595 424.12 105.413C423.861 105.801 423.528 106.154 423.132 106.458C422.765 106.755 422.342 107.004 421.879 107.194C421.016 107.559 420.048 107.734 419.074 107.699C418.227 107.668 417.402 107.478 416.663 107.143C415.58 106.654 414.734 105.884 414.262 104.959C413.933 104.308 413.901 103.906 413.858 103.914C413.816 103.923 413.858 104.009 413.858 104.197C413.88 104.313 413.912 104.427 413.954 104.54C413.997 104.691 414.054 104.84 414.124 104.985C414.576 105.944 415.429 106.746 416.535 107.254C417.293 107.612 418.145 107.821 419.021 107.862C420.03 107.906 421.035 107.731 421.932 107.357C422.418 107.157 422.863 106.897 423.249 106.586C423.679 106.276 424.038 105.908 424.311 105.499C424.894 104.648 425.124 103.67 424.97 102.707C424.804 101.742 424.265 100.843 423.43 100.138C423.042 99.7941 422.586 99.5047 422.08 99.2817C421.603 99.0649 421.087 98.9089 420.551 98.8193C419.562 98.6513 418.535 98.6986 417.576 98.9563C416.558 99.2315 415.66 99.7372 414.99 100.413C414.319 101.089 413.904 101.906 413.795 102.767C413.779 102.924 413.779 103.081 413.795 103.238C413.795 103.375 413.795 103.495 413.795 103.589C413.795 103.683 413.922 103.863 413.922 103.863Z" fill="#455A64"/>
<path d="M414.4 100.447C414.937 99.8009 415.667 99.2742 416.523 98.9151C417.379 98.556 418.333 98.376 419.297 98.3916C421.546 98.5295 423.637 99.3754 425.119 100.746C426.767 100.387 428.519 100.496 430.08 101.055C430.723 100.386 431.55 99.847 432.495 99.48C433.441 99.1129 434.48 98.9279 435.529 98.9396C438.716 98.9396 440.989 101.457 440.989 101.457L443.454 101.748L443.21 103.53L440.426 103.256C440.426 103.256 439.279 100.001 435.858 99.8302C431.248 99.5904 430.473 102.331 430.473 102.331L429.41 102.228L429.761 101.706C429.761 101.706 427.19 100.952 425.374 101.569V102.202H424.598C424.223 101.313 423.505 100.544 422.55 100.006C421.595 99.4686 420.451 99.191 419.287 99.2137C418.014 99.1993 416.78 99.5634 415.82 100.236C414.86 100.909 414.241 101.844 414.081 102.862L412.244 102.699L412.318 100.986L414.4 100.447Z" fill="#455A64"/>
<path d="M435.444 107.777C435.776 107.839 436.122 107.839 436.453 107.777C437.265 107.648 438.023 107.353 438.652 106.92C439.282 106.482 439.758 105.918 440.033 105.285C440.163 105.032 440.228 104.761 440.225 104.488C440.225 104.488 440.118 104.788 439.874 105.233C439.563 105.824 439.091 106.351 438.493 106.775C437.878 107.19 437.15 107.483 436.369 107.631C435.827 107.734 435.444 107.742 435.444 107.777Z" fill="white"/>
<path d="M420.551 106.895C420.822 106.908 421.094 106.873 421.348 106.792C421.978 106.631 422.55 106.349 423.014 105.97C423.479 105.591 423.822 105.127 424.014 104.617C424.115 104.413 424.155 104.193 424.131 103.975C424.021 104.169 423.929 104.369 423.854 104.574C423.628 105.047 423.284 105.478 422.845 105.841C422.407 106.209 421.879 106.501 421.294 106.698C421.042 106.751 420.794 106.817 420.551 106.895V106.895Z" fill="white"/>
<path d="M434.138 181.936L464.201 174.126L462.257 168.645L479.859 162.977C482.355 168.628 484.193 172.311 484.883 176.575C484.883 176.832 484.947 177.089 484.968 177.346C485.118 180.191 483.945 182.979 481.68 185.164C479.415 187.35 476.22 188.776 472.72 189.163L436.464 191.116L434.138 181.936Z" fill="#FFBE9D"/>
<path d="M431.439 111.107C431.216 111.107 431.025 112.306 429.58 113.051C428.136 113.796 426.532 113.505 426.489 113.676C426.447 113.848 426.818 113.95 427.551 114.036C428.448 114.136 429.359 113.975 430.122 113.582C430.854 113.207 431.376 112.618 431.577 111.938C431.673 111.433 431.546 111.107 431.439 111.107Z" fill="#263238"/>
<path d="M303.339 104.764L278.83 188.605L408.924 213.319L433.433 129.477L303.339 104.764Z" fill="#FAFAFA"/>
<path d="M433.447 129.484C433.447 129.484 433.224 129.484 432.81 129.382L430.983 129.048L423.897 127.738L397.244 122.754L303.231 105.045L303.646 104.839L279.213 188.674L278.926 188.297L409.004 213.071L408.621 213.259C416.057 188.032 422.24 167.112 426.564 152.46C428.688 145.147 430.441 139.409 431.609 135.479C432.194 133.526 432.672 132.053 432.959 131C433.245 129.947 433.447 129.45 433.447 129.45C433.447 129.45 433.32 129.955 433.044 130.957C432.767 131.959 432.332 133.466 431.779 135.402C430.653 139.324 429.007 145.053 426.903 152.357L409.248 213.388L409.174 213.645L408.855 213.585L278.799 188.914L278.427 188.845L278.512 188.546C287.382 158.274 295.753 129.664 303.061 104.719L303.146 104.445L303.486 104.505L397.595 122.488L424.152 127.626L431.153 128.988L432.927 129.339L433.447 129.484Z" fill="#263238"/>
<path d="M304.544 112.913L283.06 185.951L403.599 208.991L425.083 135.953L304.544 112.913Z" fill="#455A64"/>
<path d="M284.864 184.187L340.433 146.654L358.269 180.128L380.471 168.268L405.828 207.163L284.864 184.187Z" fill="#455A64"/>
<path d="M379.344 148.162C378.902 149.682 377.91 151.063 376.493 152.129C375.077 153.195 373.301 153.899 371.388 154.15C369.476 154.402 367.514 154.191 365.751 153.544C363.987 152.897 362.502 151.842 361.482 150.514C360.462 149.186 359.953 147.644 360.021 146.083C360.088 144.522 360.728 143.013 361.86 141.745C362.993 140.477 364.566 139.509 366.381 138.962C368.196 138.416 370.171 138.315 372.057 138.674C373.309 138.91 374.49 139.344 375.534 139.949C376.578 140.554 377.463 141.319 378.14 142.2C378.817 143.081 379.272 144.062 379.478 145.084C379.685 146.107 379.639 147.153 379.344 148.162V148.162Z" fill="#455A64"/>
<g opacity="0.3">
<path d="M284.864 184.187L340.433 146.654L358.269 180.128L380.471 168.268L405.828 207.163L284.864 184.187Z" fill="black"/>
</g>
<g opacity="0.3">
<path d="M379.344 148.162C378.902 149.682 377.91 151.063 376.493 152.129C375.077 153.195 373.301 153.899 371.388 154.15C369.476 154.402 367.514 154.191 365.751 153.544C363.987 152.897 362.502 151.842 361.482 150.514C360.462 149.186 359.953 147.644 360.021 146.083C360.088 144.522 360.728 143.013 361.86 141.745C362.993 140.477 364.566 139.509 366.381 138.962C368.196 138.416 370.171 138.315 372.057 138.674C373.309 138.91 374.49 139.344 375.534 139.949C376.578 140.554 377.463 141.319 378.14 142.2C378.817 143.081 379.272 144.062 379.478 145.084C379.685 146.107 379.639 147.153 379.344 148.162V148.162Z" fill="black"/>
</g>
<path d="M357.748 115.637C358.196 115.011 358.462 114.311 358.524 113.59C358.547 113.232 358.434 112.876 358.201 112.57C357.967 112.264 357.624 112.023 357.217 111.878C356.817 111.81 356.405 111.807 356.004 111.868C355.603 111.93 355.221 112.055 354.88 112.237C354.193 112.6 353.395 112.801 352.575 112.82C351.985 112.702 351.404 112.559 350.833 112.391C350.238 112.289 349.473 112.451 349.324 112.922C349.29 113.085 349.314 113.253 349.395 113.405C349.477 113.557 349.61 113.687 349.781 113.779C350.125 113.953 350.507 114.072 350.907 114.13L358.046 115.526" fill="#FFBE9D"/>
<path d="M337.49 109.515C337.49 109.515 339.201 113.908 340.008 114.01C340.68 114.004 341.332 113.83 341.878 113.514C341.878 113.514 341.569 117.607 344.873 118.121C344.873 118.121 345.479 119.371 346.605 119.457C347.731 119.542 347.933 118.403 347.933 118.403C347.933 118.403 349.749 120.116 350.429 118.224C350.978 116.179 351.365 114.108 351.587 112.024C351.587 112.024 350.907 110.08 349.887 110.268C349.315 110.362 348.792 110.595 348.389 110.936C347.822 110.302 347.099 109.768 346.265 109.369C345.965 109.243 345.619 109.206 345.288 109.266C344.957 109.325 344.664 109.477 344.459 109.695C344.459 109.695 342.919 107.794 341.984 108.35C341.049 108.907 341.495 109.429 341.495 109.429C341.495 109.429 339.509 108.205 338.648 108.521C338.134 108.737 337.725 109.087 337.49 109.515V109.515Z" fill="#FFBE9D"/>
<path d="M347.932 118.404C348.389 115.907 348.542 113.38 348.389 110.859C347.932 113.356 347.779 115.883 347.932 118.404V118.404Z" fill="#EB996E"/>
<path d="M341.878 113.514C342.085 112.842 342.146 112.147 342.058 111.458C342.108 110.764 341.948 110.071 341.591 109.438C341.496 110.115 341.496 110.798 341.591 111.476C341.536 112.163 341.633 112.853 341.878 113.514V113.514Z" fill="#EB996E"/>
<path d="M344.916 118.156C345.07 116.746 345.07 115.327 344.916 113.917C344.921 112.502 344.776 111.09 344.48 109.695C344.323 111.12 344.323 112.553 344.48 113.977C344.471 115.378 344.617 116.776 344.916 118.156V118.156Z" fill="#EB996E"/>
<path d="M434.138 181.936L421.146 177.791L402.577 181.131C402.843 181.654 403.29 182.105 403.864 182.43C404.438 182.755 405.116 182.94 405.817 182.963C408.441 183.186 415.293 182.107 415.293 182.107L404.149 185.207C404.149 185.207 406.274 187.022 408.792 186.577C411.309 186.132 417.555 185.087 417.555 185.087L410.056 188.247C410.395 188.721 410.912 189.095 411.533 189.315C412.154 189.535 412.846 189.59 413.508 189.471C416.121 189.249 420.827 187.519 420.827 187.519C420.827 187.519 430.462 191.073 433.479 191.073C436.496 191.073 437.728 191.004 437.728 191.004L434.138 181.936Z" fill="#FFBE9D"/>
<path d="M420.158 177.971C420.232 177.971 406.582 177.414 406.582 177.414C406.471 177.678 406.478 177.965 406.6 178.225C406.722 178.486 406.952 178.705 407.251 178.844C408.313 179.521 412.562 179.932 412.562 179.932L420.158 177.971Z" fill="#FFBE9D"/>
<path d="M420.392 177.756C419.568 178.04 418.71 178.255 417.831 178.398C416.227 178.732 414.007 179.177 411.543 179.64C409.078 180.102 406.837 180.496 405.169 180.753C404.301 180.94 403.411 181.052 402.513 181.087C403.341 180.804 404.202 180.589 405.084 180.445C406.688 180.102 408.908 179.665 411.362 179.203C413.816 178.741 416.057 178.347 417.683 178.09C418.568 177.899 419.476 177.787 420.392 177.756Z" fill="#EB996E"/>
<path d="M420.423 181.746C420.423 181.875 419.117 181.746 417.576 181.909C416.036 182.072 414.825 182.431 414.761 182.311C415.577 181.853 416.519 181.562 417.505 181.463C418.492 181.365 419.494 181.462 420.423 181.746V181.746Z" fill="#EB996E"/>
<path d="M422.006 185.207C421.303 184.982 420.568 184.826 419.818 184.745C419.058 184.787 418.306 184.899 417.577 185.078C417.577 185.078 417.704 184.839 418.097 184.642C418.622 184.397 419.223 184.278 419.829 184.299C420.437 184.31 421.028 184.465 421.528 184.745C421.911 184.959 422.06 185.164 422.006 185.207Z" fill="#EB996E"/>
<path d="M51.0322 302.909C52.4953 303.387 53.8228 304.1 54.9347 305.004C56.0466 305.907 56.9198 306.983 57.5015 308.167C58.6554 310.545 59.117 313.106 58.8507 315.651C58.5214 320.558 55.4301 325.644 52.0095 329.712C46.698 326.364 45.0408 320.164 44.4566 316.978C43.543 311.943 45.6888 302.421 51.0322 302.909" fill="#FF725E"/>
<path d="M58.5105 337.486C58.063 336.108 58.0758 334.659 58.5479 333.285C59.0199 331.912 59.9343 330.664 61.1981 329.668C62.4724 328.695 63.9735 327.935 65.6146 327.432C67.2556 326.929 69.0041 326.694 70.7587 326.739C71.5738 326.694 72.3915 326.792 73.1547 327.027C73.9179 327.262 74.6083 327.629 75.1779 328.101C75.6089 328.607 75.8656 329.197 75.9216 329.809C75.9776 330.421 75.8309 331.035 75.4965 331.586C74.798 332.684 73.7539 333.614 72.469 334.284C68.2198 336.724 63.5351 338.454 58.4574 337.486" fill="#FF725E"/>
<path d="M53.0503 352.748C53.0614 352.409 53.1004 352.072 53.1672 351.737C53.2734 351.027 53.4115 350.102 53.5814 348.997C53.937 345.956 54.8983 342.98 56.4284 340.186C58.0324 337.389 60.5289 334.987 63.6626 333.224C64.6187 332.708 65.6452 332.283 66.722 331.956C67.0146 331.87 67.3124 331.796 67.6144 331.734C67.8197 331.682 67.9259 331.665 67.933 331.682C66.4976 332.139 65.1237 332.713 63.8326 333.395C60.816 335.188 58.4084 337.564 56.8321 340.305C55.3237 343.069 54.3355 345.999 53.9001 348.997C53.6664 350.153 53.4859 351.078 53.3371 351.72C53.2867 352.07 53.1905 352.415 53.0503 352.748V352.748Z" fill="#263238"/>
<path d="M50.1929 310.291C50.25 310.432 50.2822 310.579 50.2885 310.728C50.2885 311.053 50.3947 311.464 50.4691 311.978C50.6178 313.066 50.8196 314.65 51.0321 316.594C51.4676 320.498 51.9881 325.893 52.3812 331.862C52.7742 337.831 52.9867 343.243 53.0717 347.156C53.0717 349.117 53.1248 350.701 53.1248 351.797C53.1248 352.311 53.1248 352.731 53.1248 353.056C53.1389 353.202 53.1389 353.348 53.1248 353.493C53.0839 353.35 53.0661 353.203 53.0717 353.056C53.0717 352.731 53.0717 352.311 52.9973 351.797C52.9973 350.658 52.8911 349.083 52.8061 347.165C52.6468 343.251 52.3918 337.848 51.9881 331.879C51.5845 325.91 51.1383 320.524 50.7772 316.619C50.5966 314.701 50.4585 313.125 50.3522 311.995C50.3522 311.473 50.2779 311.062 50.2566 310.736C50.2189 310.59 50.1975 310.441 50.1929 310.291V310.291Z" fill="#263238"/>
<path d="M49.9166 340.862C49.0819 337.934 47.3939 335.208 44.9924 332.91C42.5909 330.612 39.5449 328.809 36.1068 327.649C34.354 327.066 32.1019 326.741 30.7953 327.829C29.4887 328.916 29.9136 330.74 30.7103 332.11C32.4187 334.988 35.1471 337.393 38.5506 339.02C41.954 340.648 45.8798 341.426 49.8316 341.256" fill="#FF725E"/>
<path d="M37.2967 332.23C37.6782 332.32 38.051 332.431 38.4121 332.564C38.8408 332.699 39.2593 332.853 39.6656 333.027C40.1437 333.241 40.7279 333.438 41.2803 333.746C41.8327 334.054 42.502 334.346 43.1393 334.74C43.8208 335.156 44.4733 335.602 45.094 336.075C48.0381 338.172 50.2996 340.818 51.6802 343.782C51.9726 344.43 52.2208 345.091 52.4238 345.761C52.6066 346.342 52.7485 346.931 52.8487 347.525C52.9474 348.012 53.0112 348.504 53.0399 348.997C53.0749 349.371 53.0749 349.746 53.0399 350.119C53.0588 350.437 53.0374 350.755 52.9762 351.07C52.8806 351.07 52.9762 349.708 52.4981 347.567C52.3798 346.99 52.2201 346.418 52.0201 345.855C51.8093 345.196 51.5539 344.547 51.2552 343.911C50.5545 342.464 49.6604 341.083 48.5889 339.792C47.4868 338.514 46.219 337.334 44.8072 336.272C44.1951 335.808 43.5495 335.374 42.8738 334.971C42.2934 334.607 41.6907 334.267 41.0679 333.952C38.8371 332.796 37.2542 332.308 37.2967 332.23Z" fill="#263238"/>
</g>
<defs>
<filter id="filter0_d_1202_15604" x="0.996582" y="0.982422" width="489.984" height="380.039" filterUnits="userSpaceOnUse" color-interpolation-filters="sRGB">
<feFlood flood-opacity="0" result="BackgroundImageFix"/>
<feColorMatrix in="SourceAlpha" type="matrix" values="0 0 0 0 0 0 0 0 0 0 0 0 0 0 0 0 0 0 127 0" result="hardAlpha"/>
<feOffset dy="6"/>
<feGaussianBlur stdDeviation="3"/>
<feComposite in2="hardAlpha" operator="out"/>
<feColorMatrix type="matrix" values="0 0 0 0 0 0 0 0 0 0 0 0 0 0 0 0 0 0 0.8 0"/>
<feBlend mode="normal" in2="BackgroundImageFix" result="effect1_dropShadow_1202_15604"/>
<feBlend mode="normal" in="SourceGraphic" in2="effect1_dropShadow_1202_15604" result="shape"/>
</filter>
</defs>
</svg>
