<svg width="488" height="335" viewBox="0 0 488 335" fill="none" xmlns="http://www.w3.org/2000/svg">
<g filter="url(#filter0_d_211_9124)">
<g filter="url(#filter1_d_211_9124)">
<path d="M104.787 318.229H49.6768C48.7103 318.229 47.9268 319.012 47.9268 319.979V320.949C47.9268 321.915 48.7103 322.699 49.6768 322.699H104.787C105.753 322.699 106.537 321.915 106.537 320.949V319.979C106.537 319.012 105.753 318.229 104.787 318.229Z" fill="#ADBEC4"/>
<path d="M474.74 318H455.26C454.012 318 453 318.876 453 319.957V321.043C453 322.124 454.012 323 455.26 323H474.74C475.988 323 477 322.124 477 321.043V319.957C477 318.876 475.988 318 474.74 318Z" fill="#ADBEC4"/>
<path d="M208.487 318.229H153.377C152.41 318.229 151.627 319.012 151.627 319.979V320.949C151.627 321.915 152.41 322.699 153.377 322.699H208.487C209.453 322.699 210.237 321.915 210.237 320.949V319.979C210.237 319.012 209.453 318.229 208.487 318.229Z" fill="#ADBEC4"/>
<path d="M289.397 318.229H234.287C233.321 318.229 232.537 319.012 232.537 319.979V320.949C232.537 321.915 233.321 322.699 234.287 322.699H289.397C290.364 322.699 291.147 321.915 291.147 320.949V319.979C291.147 319.012 290.364 318.229 289.397 318.229Z" fill="#ADBEC4"/>
<path d="M388.477 318.229H313.357C312.39 318.229 311.607 319.012 311.607 319.979V320.949C311.607 321.915 312.39 322.699 313.357 322.699H388.477C389.443 322.699 390.227 321.915 390.227 320.949V319.979C390.227 319.012 389.443 318.229 388.477 318.229Z" fill="#ADBEC4"/>
<path d="M123.257 72.4292C123.257 72.4292 117.437 68.4292 108.927 71.5192C100.417 74.6092 98.4971 85.9992 100.597 95.3392C102.697 104.679 90.9971 136.399 90.9971 136.399C90.9971 136.399 97.0871 144.969 118.377 141.689C118.377 141.689 134.247 112.839 133.067 92.1292C131.887 71.4192 123.257 72.4292 123.257 72.4292Z" fill="#0E3944"/>
<path d="M129.997 108.219C137.997 105.659 142.887 112.319 147.477 124.719C152.067 137.119 153.597 138.359 153.597 138.359L171.297 149.719L169.827 156.349C169.827 156.349 152.997 149.759 148.897 145.559C144.797 141.359 133.107 120.129 133.107 120.129L129.997 108.219Z" fill="#EF6E4B"/>
<path d="M90.9969 188.309C90.9969 188.309 87.5169 205.889 88.0969 232.309C88.0969 232.309 74.4169 252.479 85.7069 310.029H91.6269C91.6269 310.029 96.4569 261.029 100.167 247.799C103.877 234.569 117.527 230.459 118.267 190.119L90.9969 188.309Z" fill="#FF8B66"/>
<path d="M63.9171 239.998C60.4771 228.658 51.6371 209.668 28.9171 183.928C28.3941 183.727 27.8292 183.661 27.2738 183.734C26.7184 183.807 26.1902 184.018 25.7371 184.348C23.8071 185.528 23.8071 186.908 23.8071 186.908C23.8071 186.908 35.1871 211.698 42.4371 229.908C43.6372 232.894 45.7051 235.452 48.3737 237.25C51.0423 239.049 54.189 240.006 57.4071 239.998H63.9171Z" fill="#FF8B66"/>
<path d="M105.227 261.928C105.227 261.928 105.297 270.388 99.7467 270.528C91.9067 270.738 91.6167 262.198 82.7467 262.528C73.8767 262.858 55.5467 265.028 49.7467 251.148C46.7467 243.978 50.8567 234.768 41.1467 227.838C31.4367 220.908 36.1467 213.118 41.1467 208.958C46.1467 204.798 38.9867 200.258 44.1467 198.138C45.2981 197.677 46.5783 197.652 47.7467 198.068C48.4144 198.304 49.0494 198.623 49.6367 199.018C51.4965 200.377 53.0841 202.073 54.3167 204.018C69.0267 163.728 95.2167 158.408 95.2167 158.408L121.127 167.348C121.757 229.998 105.227 261.928 105.227 261.928Z" fill="#164353"/>
<path d="M129.997 108.219C125.228 109.521 120.232 109.77 115.357 108.949C106.757 107.639 103.967 102.249 97.9272 105.719C88.8572 110.929 93.0972 128.879 95.3772 138.219C96.2272 141.699 97.2972 150.839 95.2472 158.379C95.2472 158.379 107.327 167.779 121.157 167.319L128.697 150.909C128.697 150.909 145.077 131.289 129.997 108.219Z" fill="#CFD8DC"/>
<path d="M114.627 93.1589C115.128 98.6542 114.397 104.192 112.487 109.369C112.487 109.369 116.977 115.999 121.257 111.639C121.836 105.811 123.606 100.165 126.457 95.0489C129.677 89.1589 114.627 93.1589 114.627 93.1589Z" fill="#EF6E4B"/>
<path d="M107.757 93.4489C107.757 93.4489 103.967 91.0489 104.397 94.7489C104.897 99.0289 109.067 99.8589 109.507 98.3589C109.947 96.8589 107.757 93.4489 107.757 93.4489Z" fill="#FF8B66"/>
<path d="M129.457 88.8184C129.457 88.8184 131.857 85.0384 133.047 88.5584C134.427 92.6384 131.047 95.1784 129.967 94.0084C128.887 92.8384 129.457 88.8184 129.457 88.8184Z" fill="#FF8B66"/>
<path d="M121.647 106.229C114.787 107.769 109.907 104.159 106.897 90.709C105.347 83.779 107.897 78.709 115.607 77.019C123.317 75.329 127.477 78.819 129.037 85.759C132.267 100.199 128.737 104.649 121.647 106.229Z" fill="#FF8B66"/>
<path d="M127.837 91.0579C127.94 91.4318 127.893 91.831 127.706 92.1708C127.519 92.5107 127.207 92.7643 126.837 92.8779C126.668 92.9719 126.482 93.0317 126.291 93.0539C126.099 93.0761 125.904 93.0603 125.719 93.0074C125.533 92.9544 125.359 92.8654 125.208 92.7454C125.057 92.6254 124.931 92.4767 124.837 92.3079C124.765 91.9334 124.825 91.5455 125.005 91.2096C125.186 90.8738 125.477 90.6103 125.829 90.4636C126.181 90.3169 126.573 90.296 126.938 90.4042C127.304 90.5124 127.621 90.7433 127.837 91.0579Z" fill="#DB614D"/>
<path d="M113.807 94.5997C113.939 94.9177 113.969 95.2689 113.892 95.6046C113.816 95.9404 113.637 96.2441 113.381 96.4736C113.124 96.7032 112.802 96.8473 112.46 96.886C112.118 96.9246 111.772 96.856 111.471 96.6895C111.17 96.523 110.928 96.2669 110.778 95.9566C110.629 95.6464 110.58 95.2974 110.637 94.958C110.695 94.6186 110.857 94.3055 111.101 94.0621C111.344 93.8188 111.657 93.6572 111.997 93.5997C112.369 93.4998 112.766 93.5482 113.104 93.7346C113.441 93.9211 113.693 94.2312 113.807 94.5997Z" fill="#DB614D"/>
<path d="M123.057 84.7989C122.986 84.7991 122.916 84.7782 122.857 84.7389C121.984 84.2701 120.969 84.1418 120.007 84.3789C119.959 84.3993 119.907 84.4091 119.855 84.4076C119.803 84.406 119.752 84.3931 119.705 84.3698C119.658 84.3465 119.617 84.3133 119.585 84.2726C119.552 84.2318 119.529 84.1845 119.516 84.1338C119.504 84.0832 119.503 84.0304 119.512 83.9792C119.522 83.928 119.543 83.8795 119.574 83.8372C119.604 83.7949 119.644 83.7597 119.689 83.7341C119.735 83.7085 119.785 83.693 119.837 83.6889C120.991 83.4077 122.209 83.5719 123.247 84.1489C123.286 84.1741 123.32 84.207 123.346 84.2454C123.372 84.2839 123.391 84.3272 123.4 84.3729C123.409 84.4185 123.409 84.4655 123.4 84.5112C123.391 84.5569 123.373 84.6003 123.347 84.6389C123.315 84.6868 123.272 84.7264 123.222 84.7542C123.171 84.782 123.115 84.7974 123.057 84.7989Z" fill="#0E3944"/>
<path d="M110.137 87.6889C110.078 87.7023 110.016 87.7023 109.957 87.6889C109.877 87.6412 109.82 87.5638 109.798 87.4738C109.775 87.3837 109.789 87.2885 109.837 87.2089C110.53 86.2374 111.567 85.5655 112.737 85.3289C112.828 85.314 112.922 85.3348 112.998 85.3869C113.074 85.4391 113.128 85.5185 113.147 85.6089C113.156 85.6542 113.155 85.7008 113.146 85.746C113.136 85.7912 113.118 85.834 113.092 85.8722C113.066 85.9103 113.033 85.9428 112.994 85.968C112.956 85.9932 112.912 86.0105 112.867 86.0189C111.896 86.2253 111.033 86.7759 110.437 87.5689C110.401 87.6122 110.354 87.6459 110.302 87.6668C110.25 87.6878 110.193 87.6954 110.137 87.6889Z" fill="#0E3944"/>
<path d="M123.357 88.5581C123.547 89.4081 123.357 90.1881 122.847 90.2981C122.337 90.4081 121.847 89.7981 121.637 88.9481C121.427 88.0981 121.637 87.3181 122.157 87.2081C122.677 87.0981 123.167 87.7081 123.357 88.5581Z" fill="#1A4850"/>
<path d="M113.827 90.6089C114.017 91.4689 113.827 92.2389 113.307 92.3489C112.787 92.4589 112.307 91.8489 112.107 90.9989C111.907 90.1489 112.107 89.3689 112.617 89.2589C113.127 89.1489 113.637 89.7589 113.827 90.6089Z" fill="#1A4850"/>
<path d="M116.907 98.6797C116.907 98.6797 121.317 98.3197 123.257 96.6797C123.257 96.6797 122.717 100.12 120.327 100.36C119.655 100.439 118.976 100.322 118.369 100.024C117.762 99.7261 117.255 99.2593 116.907 98.6797Z" fill="#1A4850"/>
<path d="M120.997 88.6584C120.997 88.6584 121.147 86.4184 121.997 86.3784C122.847 86.3384 123.857 87.9984 123.857 87.9984L124.927 87.0784L123.747 87.5084C123.747 87.5084 122.687 85.7784 121.877 85.9584C120.717 86.2184 120.997 88.6584 120.997 88.6584Z" fill="#1A4850"/>
<path d="M114.347 90.3984C114.347 90.3984 113.257 88.3984 112.467 88.7784C111.677 89.1584 111.467 91.0484 111.467 91.0484L110.107 90.6784L111.367 90.5684C111.367 90.5684 111.577 88.5684 112.367 88.3584C113.527 88.0984 114.347 90.3984 114.347 90.3984Z" fill="#1A4850"/>
<path d="M119.127 94.7097L118.777 94.0397C118.974 93.9674 119.139 93.8268 119.242 93.6434C119.345 93.46 119.378 93.2458 119.337 93.0397C119.302 92.8708 119.223 92.7138 119.109 92.5842C118.995 92.4545 118.85 92.3565 118.687 92.2997C118.547 92.2997 118.427 92.4097 118.337 92.6497L117.627 92.3897C117.685 92.1414 117.827 91.9208 118.03 91.7657C118.232 91.6107 118.482 91.5308 118.737 91.5397C119.071 91.6017 119.379 91.7641 119.618 92.0053C119.857 92.2465 120.018 92.5551 120.077 92.8897C120.149 93.2559 120.095 93.6359 119.922 93.9668C119.749 94.2977 119.469 94.5598 119.127 94.7097Z" fill="#DB614D"/>
<path d="M108.297 95.8685C108.297 95.8685 106.177 88.0785 107.437 82.5785C107.437 82.5785 113.437 74.2585 124.927 78.3685C127.281 82.4874 128.991 86.9423 129.997 91.5785C129.997 91.5785 130.427 88.8085 129.277 82.6485C128.127 76.4885 122.667 72.6485 115.177 73.8885C107.687 75.1285 99.6971 82.5785 108.297 95.8685Z" fill="#0E3944"/>
<path d="M120.377 76.6496C120.377 76.6496 120.837 78.6496 118.857 83.9096C118.656 83.7037 118.415 83.5401 118.15 83.4283C117.885 83.3166 117.6 83.2591 117.312 83.2591C117.024 83.2591 116.739 83.3166 116.474 83.4283C116.208 83.5401 115.968 83.7037 115.767 83.9096C114.107 85.3996 110.767 84.9096 109.567 85.6996C109.203 86.036 108.913 86.4444 108.715 86.8989C108.517 87.3533 108.415 87.8439 108.417 88.3396C107.824 86.7257 107.824 84.9535 108.417 83.3396C107.038 85.1738 106.332 87.4265 106.417 89.7196C106.417 89.7196 103.417 89.2296 103.507 84.1996C103.597 79.1696 110.787 71.0396 118.807 71.5696C126.827 72.0996 128.727 84.7896 128.727 84.7896C128.456 84.6069 128.149 84.4839 127.826 84.4288C127.504 84.3736 127.173 84.3875 126.857 84.4696C126.588 82.3331 125.909 80.2687 124.857 78.3896C125.345 80.0478 125.345 81.8114 124.857 83.4696C123.628 82.824 122.239 82.5462 120.857 82.6696C120.857 82.6696 121.997 80.5196 120.377 76.6496Z" fill="#0E3944"/>
<path d="M95.8671 107.318C99.7671 104.248 102.807 108.158 103.557 113.568C104.307 118.978 97.2471 150.898 91.8071 149.718C89.7071 149.268 88.8071 140.908 88.8071 140.908C90.419 133.491 91.5878 125.985 92.3071 118.428C92.9971 112.218 93.8371 108.928 95.8671 107.318Z" fill="#FF8B66"/>
<path d="M84.517 145.209C79.267 140.209 69.847 123.599 67.457 115.139L71.457 113.539C71.457 113.539 83.457 130.709 88.927 135.039C94.397 139.369 96.317 144.189 93.927 148.319C91.537 152.449 85.627 146.269 84.517 145.209Z" fill="#FF8B66"/>
<path d="M69.0968 104.069C68.8168 109.499 73.2468 110.779 71.2768 114.949C71.1211 115.307 70.8934 115.63 70.6078 115.896C70.3223 116.163 69.9849 116.368 69.6168 116.499C69.0125 116.693 68.3656 116.711 67.7513 116.552C67.1369 116.393 66.5805 116.062 66.1468 115.599C63.9954 113.548 61.6166 111.75 59.0568 110.239C57.0568 109.099 58.2068 108.789 58.2068 108.789C58.0168 108.699 57.8268 108.629 57.6368 108.549C56.2368 107.959 55.1168 107.739 56.1368 107.119C57.1568 106.499 61.3368 107.889 61.3368 107.889C56.0568 104.369 54.6168 105.229 55.5868 104.479C56.8968 103.479 61.9268 105.809 62.0768 105.879C59.2868 103.239 57.2568 102.639 58.3668 102.239C59.4768 101.839 65.0168 105.839 67.0368 107.339L67.7668 107.899C67.6968 103.459 69.0968 104.069 69.0968 104.069Z" fill="#FF8B66"/>
<path d="M66.9969 107.338L67.7269 107.898C67.4521 108.478 67.3333 109.12 67.3824 109.76C67.4315 110.4 67.6468 111.016 68.0069 111.548C67.3577 111.087 66.8976 110.407 66.7119 109.632C66.5262 108.858 66.6274 108.043 66.9969 107.338Z" fill="#EF6E4B"/>
<path d="M62.3967 110.46C61.9367 110.2 59.2667 108.7 58.2067 108.79C58.0167 108.7 57.8267 108.63 57.6367 108.55C58.3567 107.61 61.8667 110.08 62.3967 110.46Z" fill="#EF6E4B"/>
<path d="M83.3667 190.998C83.3807 191.212 83.3301 191.425 83.2214 191.61C83.1127 191.795 82.9509 191.943 82.757 192.035C82.5632 192.127 82.3462 192.158 82.1342 192.125C81.9223 192.092 81.7251 191.996 81.5684 191.85C81.4117 191.703 81.3026 191.513 81.2553 191.304C81.208 191.095 81.2247 190.876 81.3033 190.676C81.3818 190.477 81.5185 190.305 81.6956 190.184C81.8728 190.064 82.0822 189.999 82.2967 189.998C82.5695 189.995 82.8329 190.097 83.0322 190.284C83.2315 190.47 83.3513 190.726 83.3667 190.998Z" fill="#6097B2"/>
<path d="M102.407 198.379C102.407 198.59 102.344 198.797 102.227 198.973C102.109 199.149 101.942 199.286 101.747 199.367C101.551 199.448 101.336 199.469 101.128 199.428C100.921 199.387 100.73 199.285 100.58 199.135C100.431 198.986 100.329 198.795 100.288 198.587C100.246 198.38 100.268 198.165 100.349 197.969C100.43 197.774 100.567 197.606 100.743 197.489C100.919 197.371 101.125 197.309 101.337 197.309C101.621 197.309 101.893 197.421 102.094 197.622C102.294 197.823 102.407 198.095 102.407 198.379Z" fill="#6097B2"/>
<path d="M118.627 202.318C118.627 202.53 118.564 202.737 118.446 202.913C118.329 203.088 118.162 203.226 117.966 203.307C117.771 203.388 117.556 203.409 117.348 203.367C117.141 203.326 116.95 203.224 116.8 203.075C116.651 202.925 116.549 202.734 116.507 202.527C116.466 202.319 116.487 202.104 116.568 201.909C116.649 201.713 116.786 201.546 116.962 201.428C117.138 201.311 117.345 201.248 117.557 201.248C117.841 201.248 118.113 201.361 118.313 201.561C118.514 201.762 118.627 202.034 118.627 202.318Z" fill="#6097B2"/>
<path d="M93.6967 177.098C93.6908 177.309 93.6228 177.513 93.5012 177.685C93.3797 177.857 93.21 177.99 93.0135 178.066C92.8169 178.142 92.6023 178.158 92.3965 178.113C92.1907 178.067 92.0029 177.962 91.8566 177.811C91.7104 177.659 91.6122 177.467 91.5745 177.26C91.5367 177.052 91.561 176.839 91.6443 176.645C91.7276 176.451 91.8662 176.287 92.0428 176.172C92.2193 176.057 92.426 175.996 92.6367 175.998C92.7789 175.999 92.9195 176.029 93.0501 176.085C93.1808 176.141 93.2989 176.223 93.3976 176.326C93.4963 176.428 93.5736 176.549 93.625 176.682C93.6763 176.814 93.7007 176.956 93.6967 177.098Z" fill="#6097B2"/>
<path d="M96.2267 188.308C96.8177 188.308 97.2967 187.829 97.2967 187.238C97.2967 186.647 96.8177 186.168 96.2267 186.168C95.6358 186.168 95.1567 186.647 95.1567 187.238C95.1567 187.829 95.6358 188.308 96.2267 188.308Z" fill="#6097B2"/>
<path d="M114.177 192.999C114.179 193.211 114.118 193.419 114.002 193.597C113.885 193.774 113.719 193.913 113.524 193.995C113.328 194.078 113.113 194.1 112.905 194.06C112.696 194.02 112.505 193.919 112.354 193.77C112.203 193.62 112.101 193.43 112.058 193.222C112.016 193.014 112.037 192.798 112.118 192.602C112.198 192.406 112.335 192.239 112.512 192.12C112.688 192.002 112.895 191.939 113.107 191.939C113.389 191.939 113.66 192.051 113.86 192.249C114.061 192.448 114.174 192.717 114.177 192.999Z" fill="#6097B2"/>
<path d="M116.497 175.529C116.497 175.741 116.434 175.947 116.317 176.123C116.199 176.299 116.032 176.437 115.836 176.518C115.641 176.599 115.426 176.62 115.218 176.578C115.011 176.537 114.82 176.435 114.67 176.286C114.521 176.136 114.419 175.945 114.377 175.738C114.336 175.53 114.357 175.315 114.438 175.12C114.519 174.924 114.657 174.757 114.832 174.639C115.008 174.522 115.215 174.459 115.427 174.459C115.711 174.459 115.983 174.572 116.184 174.772C116.384 174.973 116.497 175.245 116.497 175.529Z" fill="#6097B2"/>
<path d="M104.367 172.958C104.958 172.958 105.437 172.479 105.437 171.888C105.437 171.297 104.958 170.818 104.367 170.818C103.776 170.818 103.297 171.297 103.297 171.888C103.297 172.479 103.776 172.958 104.367 172.958Z" fill="#6097B2"/>
<path d="M73.9167 211.859C73.8911 212.124 73.7678 212.369 73.5709 212.548C73.374 212.727 73.1176 212.826 72.8517 212.826C72.5858 212.826 72.3295 212.727 72.1326 212.548C71.9357 212.369 71.8124 212.124 71.7867 211.859C71.7723 211.71 71.7891 211.56 71.8361 211.419C71.8831 211.277 71.9591 211.147 72.0594 211.036C72.1597 210.926 72.282 210.838 72.4185 210.777C72.5549 210.717 72.7025 210.686 72.8517 210.686C73.001 210.686 73.1485 210.717 73.285 210.777C73.4214 210.838 73.5437 210.926 73.644 211.036C73.7443 211.147 73.8204 211.277 73.8674 211.419C73.9143 211.56 73.9311 211.71 73.9167 211.859Z" fill="#6097B2"/>
<path d="M58.7069 207.318C58.7069 207.53 58.6441 207.737 58.5266 207.913C58.409 208.088 58.2419 208.226 58.0464 208.307C57.8509 208.388 57.6357 208.409 57.4281 208.367C57.2206 208.326 57.0299 208.224 56.8803 208.075C56.7306 207.925 56.6287 207.734 56.5875 207.527C56.5462 207.319 56.5674 207.104 56.6483 206.909C56.7293 206.713 56.8665 206.546 57.0424 206.428C57.2184 206.311 57.4253 206.248 57.6369 206.248C57.9207 206.248 58.1928 206.361 58.3935 206.561C58.5942 206.762 58.7069 207.034 58.7069 207.318Z" fill="#6097B2"/>
<path d="M49.6469 198.999C49.5481 199.147 49.4142 199.268 49.2572 199.352C49.1002 199.436 48.9249 199.479 48.7469 199.479C48.4649 199.479 48.1942 199.367 47.9938 199.169C47.7935 198.97 47.6796 198.701 47.6769 198.419C47.6715 198.291 47.6991 198.163 47.7569 198.049C48.4246 198.284 49.0596 198.604 49.6469 198.999Z" fill="#6097B2"/>
<path d="M78.3068 226.849C78.8978 226.849 79.3768 226.37 79.3768 225.779C79.3768 225.188 78.8978 224.709 78.3068 224.709C77.7159 224.709 77.2368 225.188 77.2368 225.779C77.2368 226.37 77.7159 226.849 78.3068 226.849Z" fill="#6097B2"/>
<path d="M52.0667 240.898C52.0687 241.11 52.0076 241.318 51.8913 241.495C51.7749 241.672 51.6085 241.811 51.4132 241.894C51.2178 241.976 51.0024 241.999 50.7942 241.959C50.5859 241.918 50.3944 241.817 50.2437 241.668C50.0931 241.519 49.9902 241.328 49.9481 241.12C49.906 240.913 49.9266 240.697 50.0072 240.501C50.0879 240.305 50.2251 240.137 50.4012 240.019C50.5774 239.901 50.7847 239.838 50.9967 239.838C51.1368 239.837 51.2757 239.863 51.4054 239.916C51.5352 239.968 51.6532 240.046 51.7527 240.145C51.8522 240.243 51.9312 240.361 51.9851 240.49C52.039 240.619 52.0667 240.758 52.0667 240.898Z" fill="#6097B2"/>
<path d="M62.1569 232.798C62.7479 232.798 63.2269 232.319 63.2269 231.728C63.2269 231.137 62.7479 230.658 62.1569 230.658C61.566 230.658 61.0869 231.137 61.0869 231.728C61.0869 232.319 61.566 232.798 62.1569 232.798Z" fill="#6097B2"/>
<path d="M45.5471 224.689C46.138 224.689 46.6171 224.21 46.6171 223.619C46.6171 223.028 46.138 222.549 45.5471 222.549C44.9561 222.549 44.4771 223.028 44.4771 223.619C44.4771 224.21 44.9561 224.689 45.5471 224.689Z" fill="#6097B2"/>
<path d="M59.9968 255.568C59.9711 255.833 59.8478 256.078 59.651 256.257C59.4541 256.436 59.1977 256.535 58.9318 256.535C58.6659 256.535 58.4096 256.436 58.2127 256.257C58.0158 256.078 57.8925 255.833 57.8668 255.568C57.8524 255.419 57.8692 255.269 57.9162 255.128C57.9632 254.986 58.0392 254.856 58.1395 254.745C58.2398 254.635 58.3621 254.547 58.4986 254.486C58.635 254.426 58.7826 254.395 58.9318 254.395C59.081 254.395 59.2286 254.426 59.3651 254.486C59.5015 254.547 59.6238 254.635 59.7241 254.745C59.8244 254.856 59.9005 254.986 59.9474 255.128C59.9944 255.269 60.0112 255.419 59.9968 255.568Z" fill="#6097B2"/>
<path d="M70.1869 199.449C70.1869 199.661 70.1241 199.867 70.0065 200.043C69.889 200.219 69.7219 200.356 69.5263 200.437C69.3308 200.518 69.1157 200.54 68.9081 200.498C68.7006 200.457 68.5099 200.355 68.3603 200.206C68.2106 200.056 68.1087 199.865 68.0674 199.658C68.0261 199.45 68.0473 199.235 68.1283 199.039C68.2093 198.844 68.3465 198.677 68.5224 198.559C68.6984 198.442 68.9052 198.379 69.1169 198.379C69.4007 198.379 69.6728 198.492 69.8735 198.692C70.0741 198.893 70.1869 199.165 70.1869 199.449Z" fill="#6097B2"/>
<path d="M80.4369 181.478C80.4369 181.69 80.3741 181.897 80.2566 182.073C80.139 182.249 79.9719 182.386 79.7764 182.467C79.5808 182.548 79.3657 182.569 79.1581 182.528C78.9506 182.486 78.7599 182.384 78.6103 182.235C78.4606 182.085 78.3587 181.895 78.3174 181.687C78.2761 181.479 78.2973 181.264 78.3783 181.069C78.4593 180.873 78.5965 180.706 78.7724 180.589C78.9484 180.471 79.1553 180.408 79.3669 180.408C79.6507 180.408 79.9228 180.521 80.1235 180.722C80.3241 180.922 80.4369 181.194 80.4369 181.478Z" fill="#6097B2"/>
<path d="M91.9968 166.519C91.9711 166.784 91.8478 167.029 91.651 167.208C91.4541 167.387 91.1977 167.486 90.9318 167.486C90.6659 167.486 90.4095 167.387 90.2127 167.208C90.0158 167.029 89.8925 166.784 89.8668 166.519C89.8524 166.37 89.8692 166.221 89.9162 166.079C89.9632 165.937 90.0392 165.807 90.1395 165.697C90.2398 165.586 90.3621 165.498 90.4986 165.437C90.635 165.377 90.7826 165.346 90.9318 165.346C91.081 165.346 91.2286 165.377 91.3651 165.437C91.5015 165.498 91.6238 165.586 91.7241 165.697C91.8244 165.807 91.9005 165.937 91.9474 166.079C91.9944 166.221 92.0112 166.37 91.9968 166.519Z" fill="#6097B2"/>
<path d="M68.5267 188.308C68.5267 188.52 68.464 188.727 68.3464 188.903C68.2288 189.079 68.0617 189.216 67.8662 189.297C67.6707 189.378 67.4555 189.399 67.248 189.358C67.0404 189.316 66.8498 189.215 66.7001 189.065C66.5505 188.915 66.4486 188.725 66.4073 188.517C66.366 188.309 66.3872 188.094 66.4682 187.899C66.5492 187.703 66.6863 187.536 66.8623 187.419C67.0382 187.301 67.2451 187.238 67.4567 187.238C67.7405 187.238 68.0127 187.351 68.2133 187.552C68.414 187.752 68.5267 188.024 68.5267 188.308Z" fill="#6097B2"/>
<path d="M81.5067 170.818C81.5067 171.03 81.4439 171.237 81.3264 171.413C81.2088 171.588 81.0417 171.726 80.8462 171.807C80.6507 171.888 80.4355 171.909 80.228 171.867C80.0204 171.826 79.8297 171.724 79.6801 171.575C79.5305 171.425 79.4285 171.234 79.3873 171.027C79.346 170.819 79.3672 170.604 79.4481 170.409C79.5291 170.213 79.6663 170.046 79.8422 169.928C80.0182 169.811 80.2251 169.748 80.4367 169.748C80.7205 169.748 80.9926 169.861 81.1933 170.061C81.394 170.262 81.5067 170.534 81.5067 170.818Z" fill="#6097B2"/>
<path d="M61.0868 218.879C61.0867 219.09 61.0245 219.296 60.9077 219.471C60.791 219.647 60.6251 219.784 60.4307 219.865C60.2364 219.947 60.0223 219.969 59.8153 219.929C59.6083 219.89 59.4176 219.79 59.2672 219.642C59.1168 219.495 59.0134 219.306 58.9698 219.1C58.9263 218.893 58.9447 218.679 59.0226 218.483C59.1005 218.287 59.2346 218.119 59.4079 217.999C59.5812 217.879 59.786 217.813 59.9968 217.809C60.139 217.806 60.2803 217.832 60.4124 217.884C60.5445 217.937 60.6649 218.015 60.7663 218.115C60.8678 218.215 60.9484 218.333 61.0035 218.465C61.0585 218.596 61.0868 218.737 61.0868 218.879Z" fill="#6097B2"/>
<path d="M47.6771 209.449C47.679 209.661 47.6177 209.869 47.5009 210.047C47.3841 210.224 47.2171 210.363 47.0212 210.445C46.8253 210.528 46.6093 210.55 46.4008 210.509C46.1923 210.468 46.0007 210.366 45.8505 210.215C45.7003 210.065 45.5982 209.873 45.5572 209.665C45.5162 209.456 45.5383 209.241 45.6205 209.045C45.7027 208.849 45.8414 208.682 46.0189 208.565C46.1964 208.448 46.4046 208.387 46.6171 208.389C46.8982 208.389 47.1678 208.5 47.3666 208.699C47.5654 208.898 47.6771 209.168 47.6771 209.449Z" fill="#6097B2"/>
<path d="M85.4968 207.32C86.0877 207.32 86.5668 206.841 86.5668 206.25C86.5668 205.659 86.0877 205.18 85.4968 205.18C84.9058 205.18 84.4268 205.659 84.4268 206.25C84.4268 206.841 84.9058 207.32 85.4968 207.32Z" fill="#6097B2"/>
<path d="M107.567 212.929C108.158 212.929 108.637 212.45 108.637 211.859C108.637 211.268 108.158 210.789 107.567 210.789C106.976 210.789 106.497 211.268 106.497 211.859C106.497 212.45 106.976 212.929 107.567 212.929Z" fill="#6097B2"/>
<path d="M107.567 181.478C107.567 181.69 107.504 181.897 107.386 182.073C107.269 182.249 107.102 182.386 106.906 182.467C106.711 182.548 106.496 182.569 106.288 182.528C106.08 182.486 105.89 182.384 105.74 182.235C105.591 182.085 105.489 181.895 105.447 181.687C105.406 181.479 105.427 181.264 105.508 181.069C105.589 180.873 105.726 180.706 105.902 180.589C106.078 180.471 106.285 180.408 106.497 180.408C106.781 180.408 107.053 180.521 107.253 180.722C107.454 180.922 107.567 181.194 107.567 181.478Z" fill="#6097B2"/>
<path d="M120.397 183.708C120.399 183.92 120.338 184.128 120.221 184.306C120.105 184.483 119.939 184.622 119.743 184.704C119.548 184.787 119.332 184.809 119.124 184.769C118.916 184.729 118.724 184.628 118.574 184.479C118.423 184.329 118.32 184.139 118.278 183.931C118.236 183.723 118.257 183.507 118.337 183.311C118.418 183.115 118.555 182.948 118.731 182.829C118.907 182.711 119.115 182.648 119.327 182.648C119.609 182.648 119.88 182.76 120.08 182.958C120.28 183.157 120.394 183.426 120.397 183.708Z" fill="#6097B2"/>
<path d="M94.767 220C94.767 220.211 94.7042 220.418 94.5866 220.594C94.4691 220.77 94.3019 220.907 94.1064 220.988C93.9109 221.069 93.6958 221.09 93.4882 221.049C93.2807 221.008 93.09 220.906 92.9404 220.756C92.7907 220.607 92.6888 220.416 92.6475 220.208C92.6062 220.001 92.6274 219.786 92.7084 219.59C92.7894 219.395 92.9265 219.228 93.1025 219.11C93.2785 218.992 93.4853 218.93 93.697 218.93C93.8378 218.928 93.9776 218.955 94.108 219.008C94.2384 219.062 94.3569 219.141 94.4565 219.24C94.5562 219.34 94.6349 219.458 94.6882 219.589C94.7415 219.719 94.7683 219.859 94.767 220Z" fill="#6097B2"/>
<path d="M84.4269 239.999C85.0179 239.999 85.4969 239.52 85.4969 238.929C85.4969 238.338 85.0179 237.859 84.4269 237.859C83.836 237.859 83.3569 238.338 83.3569 238.929C83.3569 239.52 83.836 239.999 84.4269 239.999Z" fill="#6097B2"/>
<path d="M68.0471 243.038C68.638 243.038 69.1171 242.559 69.1171 241.968C69.1171 241.378 68.638 240.898 68.0471 240.898C67.4561 240.898 66.9771 241.378 66.9771 241.968C66.9771 242.559 67.4561 243.038 68.0471 243.038Z" fill="#6097B2"/>
<path d="M113.107 226.849C113.698 226.849 114.177 226.37 114.177 225.779C114.177 225.188 113.698 224.709 113.107 224.709C112.516 224.709 112.037 225.188 112.037 225.779C112.037 226.37 112.516 226.849 113.107 226.849Z" fill="#6097B2"/>
<path d="M99.4271 233.869C99.4271 234.08 99.3644 234.287 99.2468 234.463C99.1292 234.639 98.9621 234.776 98.7666 234.857C98.5711 234.938 98.3559 234.96 98.1484 234.918C97.9408 234.877 97.7501 234.775 97.6005 234.625C97.4509 234.476 97.349 234.285 97.3077 234.078C97.2664 233.87 97.2876 233.655 97.3686 233.459C97.4495 233.264 97.5867 233.097 97.7626 232.979C97.9386 232.862 98.1455 232.799 98.3571 232.799C98.6409 232.799 98.9131 232.912 99.1137 233.112C99.3144 233.313 99.4271 233.585 99.4271 233.869Z" fill="#6097B2"/>
<path d="M77.2372 257.699C77.2372 257.911 77.1744 258.117 77.0568 258.293C76.9393 258.469 76.7722 258.606 76.5766 258.687C76.3811 258.768 76.166 258.79 75.9584 258.748C75.7509 258.707 75.5602 258.605 75.4106 258.456C75.2609 258.306 75.159 258.115 75.1177 257.908C75.0764 257.7 75.0976 257.485 75.1786 257.289C75.2596 257.094 75.3967 256.927 75.5727 256.809C75.7487 256.692 75.9555 256.629 76.1672 256.629C76.4509 256.629 76.7231 256.742 76.9238 256.942C77.1244 257.143 77.2372 257.415 77.2372 257.699Z" fill="#6097B2"/>
<path d="M92.6369 253.208C93.2278 253.208 93.7069 252.729 93.7069 252.138C93.7069 251.547 93.2278 251.068 92.6369 251.068C92.0459 251.068 91.5669 251.547 91.5669 252.138C91.5669 252.729 92.0459 253.208 92.6369 253.208Z" fill="#6097B2"/>
<path d="M108.497 246.929C109.088 246.929 109.567 246.45 109.567 245.859C109.567 245.268 109.088 244.789 108.497 244.789C107.906 244.789 107.427 245.268 107.427 245.859C107.427 246.45 107.906 246.929 108.497 246.929Z" fill="#6097B2"/>
<path d="M102.407 264.218C102.407 264.43 102.344 264.637 102.227 264.813C102.109 264.989 101.942 265.126 101.747 265.207C101.551 265.288 101.336 265.309 101.128 265.268C100.921 265.227 100.73 265.125 100.58 264.975C100.431 264.825 100.329 264.635 100.288 264.427C100.246 264.22 100.268 264.004 100.349 263.809C100.43 263.613 100.567 263.446 100.743 263.329C100.919 263.211 101.125 263.148 101.337 263.148C101.621 263.148 101.893 263.261 102.094 263.462C102.294 263.663 102.407 263.935 102.407 264.218Z" fill="#6097B2"/>
<path d="M101.237 320.42H83.7068C82.5668 317.16 84.7068 313.89 84.3168 311.01C83.7068 306.15 86.5368 308.83 86.5368 308.83C87.0368 303.6 94.3868 302.62 94.3068 304.95C94.1868 308.38 94.8568 310.5 95.8268 311.95C97.8268 314.8 101.047 314.78 101.607 316.82C101.607 317.02 101.707 317.22 101.737 317.4C102.277 319.93 101.237 320.42 101.237 320.42Z" fill="#164353"/>
<path d="M101.737 317.368C98.107 318.218 89.737 317.118 89.397 315.008C89.057 312.898 93.587 312.008 95.827 311.918C97.827 314.768 101.047 314.748 101.607 316.788C101.657 316.998 101.707 317.188 101.737 317.368Z" fill="#205260"/>
<path d="M29.1669 184.629C27.3069 182.929 24.2769 185.739 24.2769 185.739C24.2769 185.739 25.9069 188.159 24.8469 189.139C23.7869 190.119 22.5769 187.879 20.4969 188.859C20.3218 188.946 20.1516 189.043 19.9869 189.149C18.3669 190.149 16.6769 192.149 15.3169 193.689L14.5269 194.539C12.9369 196.209 8.83693 197.189 8.07693 192.749C7.31693 188.309 12.3069 183.099 17.7869 178.309C23.2669 173.519 26.7869 176.369 26.7869 176.369C27.4176 177.36 27.8395 178.469 28.0269 179.629C28.0269 180.879 29.1369 181.499 29.7569 182.689C29.9192 183.027 29.9486 183.414 29.8394 183.774C29.7302 184.133 29.4902 184.438 29.1669 184.629Z" fill="#164353"/>
<path d="M19.9967 189.15C18.3767 190.15 16.6867 192.15 15.3267 193.69C13.2667 194.18 11.4267 194.03 11.1367 192.1C10.4367 187.44 19.7467 181.51 18.9967 184.78C18.8674 185.538 18.8891 186.314 19.0607 187.064C19.2323 187.814 19.5504 188.523 19.9967 189.15Z" fill="#205260"/>
<path d="M344.617 312.838C343.596 312.167 342.776 311.23 342.247 310.128C341.884 307.591 341.884 305.015 342.247 302.478C342.857 298.548 341.147 295.348 335.597 294.148C330.207 292.978 326.997 295.578 328.247 306.428C327.427 310.938 327.247 316.088 329.127 320.428H345.747C345.747 320.428 348.367 314.808 344.617 312.838Z" fill="#CFD8DC"/>
<path d="M359.197 254.359C358.86 262.039 356.77 269.541 353.087 276.289C346.867 287.599 339.177 303.109 339.177 303.109C339.177 303.109 334.057 308.109 330.807 299.829C330.807 299.829 333.107 271.019 338.377 260.469C343.647 249.919 359.197 254.359 359.197 254.359Z" fill="#FF8B66"/>
<path d="M438.857 219.109C438.857 219.109 448.747 260.719 455.047 271.699C455.047 271.699 453.597 276.289 446.777 277.699C446.777 277.699 425.257 246.059 423.867 232.699C422.477 219.339 438.857 219.109 438.857 219.109Z" fill="#FF8B66"/>
<path d="M443.637 228.898C441.007 235.228 420.637 235.578 420.637 235.578L419.087 233.288L418.677 232.688L415.537 227.998C415.537 227.998 381.857 194.998 375.297 197.728C375.105 197.82 374.921 197.927 374.747 198.048C370.237 201.268 369.817 218.918 364.487 248.528C363.89 251.374 363.054 254.163 361.987 256.868L361.707 257.568C361.227 258.828 360.877 259.628 360.877 259.628C340.317 267.958 333.537 251.498 333.537 251.498C333.537 251.498 333.777 251.018 334.137 250.258C334.207 250.088 334.297 249.898 334.387 249.698C335.467 247.328 337.187 243.208 337.167 241.028C337.167 238.638 337.167 236.348 337.107 234.138C337.107 233.938 337.107 233.748 337.107 233.558C337.107 226.438 337.107 220.258 337.107 214.878V214.318C337.107 211.978 337.167 209.788 337.207 207.748V207.168C337.387 197.808 337.687 191.558 338.007 187.398C338.007 187.208 338.007 187.008 338.057 186.828C338.617 179.828 339.217 179.128 339.217 179.128L335.097 150.498H380.097C380.097 150.498 386.847 157.258 395.607 166.188C395.787 166.368 395.967 166.538 396.147 166.728C399.327 169.958 402.757 173.468 406.197 177.038C406.337 177.178 406.477 177.308 406.597 177.448L410.597 181.628C410.767 181.798 410.917 181.978 411.087 182.138C415.597 186.818 419.967 191.428 423.707 195.458C423.841 195.584 423.968 195.717 424.087 195.858C429.207 201.398 433.087 205.858 434.447 207.858C437.696 213.189 440.336 218.868 442.317 224.788C442.397 224.988 442.457 225.168 442.527 225.358C443.237 227.538 443.637 228.898 443.637 228.898Z" fill="#8B383E"/>
<path d="M345.937 183.428C343.89 185.716 341.054 187.145 337.997 187.428C337.997 187.238 337.997 187.038 338.047 186.858C340.924 186.581 343.59 185.232 345.517 183.078C347.404 180.626 348.319 177.564 348.087 174.478L348.647 174.408C348.903 177.648 347.936 180.866 345.937 183.428Z" fill="#662C33"/>
<path d="M396.087 166.739C395.907 166.739 395.747 166.739 395.567 166.739C390.567 166.739 385.347 161.269 385.087 160.999L385.487 160.609C385.547 160.679 390.747 166.119 395.547 166.169C395.727 166.379 395.907 166.549 396.087 166.739Z" fill="#662C33"/>
<path d="M361.997 256.878L361.717 257.578C358.788 258.697 355.682 259.283 352.547 259.308C343.667 259.308 337.547 254.158 334.147 250.308C334.217 250.138 334.307 249.948 334.397 249.748C338.687 254.778 347.917 262.248 361.997 256.878Z" fill="#662C33"/>
<path d="M373.997 187.429C374.792 190.809 375.208 194.267 375.237 197.739C375.045 197.83 374.861 197.937 374.687 198.059C374.687 181.299 364.957 168.219 364.847 168.059L365.297 167.719C369.286 173.517 372.186 179.992 373.857 186.829C374.987 186.099 375.785 184.953 376.077 183.639C377.477 177.759 371.077 168.139 371.077 168.039L371.527 167.729C371.797 168.139 378.077 177.649 376.637 183.729C376.476 184.494 376.158 185.218 375.704 185.855C375.249 186.492 374.668 187.027 373.997 187.429Z" fill="#662C33"/>
<path d="M424.077 195.869C422.427 197.659 420.867 199.199 420.727 199.329L420.427 199.629L420.277 199.229C418.107 193.529 404.117 181.229 403.967 181.069L403.807 180.909L406.137 177.049C406.277 177.189 406.417 177.319 406.537 177.459L404.537 180.699C406.441 181.46 408.492 181.781 410.537 181.639C410.707 181.809 410.857 181.989 411.027 182.149C410.545 182.234 410.057 182.277 409.567 182.279C408.108 182.239 406.663 181.986 405.277 181.529C408.447 184.399 418.277 193.529 420.587 198.639C421.467 197.769 422.587 196.639 423.647 195.469C423.799 195.593 423.942 195.727 424.077 195.869Z" fill="#662C33"/>
<path d="M347.317 234.049H347.087C345.238 234.432 343.355 234.627 341.467 234.629C339.99 234.653 338.517 234.478 337.087 234.109C337.087 233.909 337.087 233.719 337.087 233.529C340.747 234.579 345.647 233.769 346.757 233.529L345.827 210.429C345.179 212.124 343.939 213.528 342.337 214.379C341.38 214.852 340.324 215.089 339.257 215.069C338.533 215.066 337.812 214.982 337.107 214.819V214.259C338.766 214.731 340.538 214.596 342.107 213.879C342.982 213.381 343.749 212.714 344.362 211.915C344.975 211.116 345.422 210.203 345.677 209.229C343.827 209.509 340.087 208.559 337.227 207.689V207.109C340.307 208.039 344.467 209.109 345.967 208.599L346.327 208.469L347.317 234.049Z" fill="#662C33"/>
<path d="M442.517 225.408C439.876 227.999 436.751 230.045 433.319 231.428C429.887 232.811 426.217 233.504 422.517 233.468C421.395 233.465 420.273 233.405 419.157 233.288L418.747 232.688C431.127 234.108 438.887 228.308 442.337 224.838C442.387 224.998 442.447 225.218 442.517 225.408Z" fill="#662C33"/>
<path d="M388.337 28.7697C388.337 28.7697 387.107 25.9297 381.887 25.9297C377.887 25.9297 376.327 28.1497 376.327 28.1497C373.917 35.1497 371.327 62.1497 370.407 63.0597C369.937 63.5497 340.117 83.6397 340.117 83.6397C356.297 83.9397 366.397 103.89 366.397 103.89C366.917 97.3397 385.197 71.3597 385.397 69.0397C385.767 64.6697 393.497 45.1497 388.337 28.7697Z" fill="#CE364C"/>
<path d="M336.557 169.548C336.557 169.548 336.407 175.168 338.227 175.548C349.456 178.389 361.317 177.331 371.867 172.548C388.867 164.808 391.867 159.078 386.867 154.818C381.867 150.558 336.557 169.548 336.557 169.548Z" fill="#CE364C"/>
<path d="M329.737 87.518C329.737 87.518 314.247 85.688 305.367 89.518C305.367 89.518 302.887 100.518 315.087 125.108C327.287 149.698 324.467 165.208 338.227 171.038C350.427 176.208 386.397 160.818 387.527 155.718C390.367 142.868 368.377 120.328 366.987 107.258C365.597 94.1881 352.827 74.568 329.737 87.518Z" fill="#F24052"/>
<path d="M305.367 89.5284C294.537 93.3784 282.367 105.528 282.367 111.388C282.367 117.248 292.527 119.508 292.527 119.508L309.207 111.388C309.207 111.388 313.977 108.058 310.937 98.3884C307.897 88.7184 305.367 89.5284 305.367 89.5284Z" fill="#CE364C"/>
<path d="M349.847 100.369C346.382 100.31 343.005 99.2694 340.107 97.3688C339.522 97.0189 339.011 96.557 338.605 96.0097C338.198 95.4623 337.903 94.8402 337.737 94.1788C337.127 90.3288 340.867 88.3788 341.027 88.2988L341.537 89.2988C341.407 89.3588 338.347 90.9688 338.837 94.0188C339.128 95.0567 339.814 95.9395 340.747 96.4788C343.925 98.564 347.728 99.4829 351.507 99.0788C352.05 99.0475 352.58 98.8957 353.057 98.6346C353.534 98.3734 353.948 98.0094 354.267 97.5688C354.412 97.2571 354.493 96.9195 354.505 96.5759C354.517 96.2324 354.46 95.8899 354.337 95.5688L355.337 95.1288C355.521 95.6002 355.607 96.1045 355.588 96.6103C355.569 97.116 355.446 97.6125 355.227 98.0688C354.835 98.6637 354.312 99.1611 353.699 99.5233C353.085 99.8855 352.397 100.103 351.687 100.159C351.081 100.28 350.465 100.351 349.847 100.369Z" fill="#CFD8DC"/>
<path d="M336.117 112.078C333.717 112.078 329.747 111.078 329.187 107.148C328.982 105.439 329.002 103.711 329.247 102.008C329.487 99.8379 329.667 98.1279 328.407 96.0679C326.327 92.6879 323.487 92.4579 323.407 92.4479L323.467 91.3379C323.607 91.3379 326.987 91.5879 329.397 95.4879C330.857 97.8679 330.627 99.9379 330.397 102.128C330.164 103.738 330.143 105.372 330.337 106.988C330.937 111.238 336.337 110.988 336.577 110.988L336.637 112.098L336.117 112.078Z" fill="#CFD8DC"/>
<path d="M339.487 92.1493C339.487 92.1493 347.677 86.5793 345.727 80.5393C343.777 74.4993 317.417 74.9193 310.617 82.1393C303.817 89.3593 325.327 94.1393 325.327 94.1393C326.997 90.7893 337.637 90.4193 339.487 92.1493Z" fill="#CE364C"/>
<path d="M324.767 91.2086C320.877 89.8886 318.577 87.0886 319.407 83.8486C320.237 80.6086 336.947 80.5186 340.117 83.1086C343.287 85.6986 338.817 95.9986 324.767 91.2086Z" fill="#A02E44"/>
<path d="M322.917 82.1091C322.917 82.1091 326.357 87.9791 324.767 91.2091C324.767 91.2091 336.557 95.2791 336.557 88.6791C336.557 88.6791 334.337 83.7391 335.177 80.5391L322.917 82.1091Z" fill="#EF6E4B"/>
<path d="M318.997 76.9987C318.997 76.9987 313.197 67.7188 313.737 58.8587C314.007 54.4187 316.287 52.6887 316.287 52.6887C316.287 52.6887 314.447 50.1288 316.417 46.2188C316.417 46.2188 319.147 49.3787 328.727 48.3787C337.997 47.3987 338.867 53.9987 338.867 53.9987C345.467 54.9987 341.017 74.9487 336.407 76.9987H318.997Z" fill="#FFB878"/>
<path d="M316.527 68.4086C316.527 68.4086 313.197 65.0886 312.787 68.9686C312.307 73.4686 316.397 75.2886 317.197 73.8486C317.997 72.4086 316.527 68.4086 316.527 68.4086Z" fill="#FF8B66"/>
<path d="M339.847 68.6493C339.847 68.6493 343.177 65.3193 343.587 69.2093C344.057 73.7093 339.967 75.5193 339.177 74.0893C338.387 72.6593 339.847 68.6493 339.847 68.6493Z" fill="#FF8B66"/>
<path d="M327.837 84.7082C320.447 84.7082 316.277 79.8882 316.277 65.4082C316.277 57.9382 320.077 53.4082 328.347 53.4082C336.617 53.4082 340.117 57.9882 340.117 65.4082C340.117 80.9982 335.467 84.7082 327.837 84.7082Z" fill="#FF8B66"/>
<path d="M337.667 70.568C337.651 70.9677 337.499 71.35 337.236 71.6511C336.973 71.9523 336.614 72.1542 336.22 72.2232C335.826 72.2921 335.42 72.2241 335.07 72.0302C334.72 71.8364 334.447 71.5286 334.297 71.158C334.313 70.7583 334.465 70.376 334.728 70.0748C334.991 69.7737 335.35 69.5718 335.744 69.5028C336.138 69.4338 336.544 69.5019 336.893 69.6957C337.243 69.8895 337.516 70.1974 337.667 70.568Z" fill="#DB614D"/>
<path d="M322.467 70.9994C322.524 71.3578 322.469 71.7252 322.308 72.0506C322.147 72.376 321.889 72.6434 321.569 72.8157C321.25 72.988 320.885 73.0567 320.525 73.0122C320.164 72.9678 319.827 72.8125 319.559 72.5677C319.291 72.323 319.105 72.001 319.029 71.6462C318.952 71.2915 318.987 70.9216 319.129 70.5879C319.272 70.2541 319.515 69.9729 319.824 69.7832C320.134 69.5936 320.495 69.5049 320.857 69.5294C321.263 69.5182 321.658 69.6652 321.959 69.9394C322.259 70.2136 322.441 70.5936 322.467 70.9994Z" fill="#DB614D"/>
<path d="M334.407 62.8079C334.358 62.8156 334.308 62.8133 334.26 62.8013C334.211 62.7893 334.166 62.7677 334.127 62.7379C333.233 62.1793 332.164 61.9726 331.127 62.1579C331.03 62.1758 330.93 62.1556 330.848 62.1015C330.766 62.0475 330.708 61.9637 330.687 61.8679C330.672 61.7702 330.694 61.6704 330.75 61.5887C330.806 61.507 330.89 61.4495 330.987 61.4279C332.22 61.2187 333.486 61.4791 334.537 62.1579C334.612 62.2172 334.662 62.3035 334.675 62.3987C334.688 62.4939 334.664 62.5904 334.607 62.6679C334.559 62.737 334.488 62.7867 334.407 62.8079Z" fill="#FFB878"/>
<path d="M320.267 62.8591C320.173 62.849 320.087 62.8023 320.027 62.7291C319.967 62.6525 319.939 62.5559 319.949 62.4592C319.958 62.3624 320.004 62.273 320.077 62.2091C321.108 61.5005 322.368 61.2043 323.607 61.3791C323.658 61.3832 323.707 61.3976 323.752 61.4215C323.796 61.4454 323.836 61.4783 323.867 61.5181C323.899 61.5578 323.922 61.6036 323.935 61.6527C323.948 61.7017 323.951 61.7529 323.943 61.803C323.936 61.8532 323.918 61.9013 323.891 61.9443C323.864 61.9873 323.828 62.0243 323.787 62.053C323.745 62.0817 323.697 62.1015 323.648 62.1112C323.598 62.1208 323.547 62.1201 323.497 62.1091C322.465 61.9687 321.417 62.2067 320.547 62.7791C320.51 62.8136 320.465 62.8389 320.417 62.8528C320.368 62.8667 320.317 62.8689 320.267 62.8591Z" fill="#FFB878"/>
<path d="M333.647 66.9979C333.647 67.9179 333.237 68.6679 332.727 68.6679C332.217 68.6679 331.797 67.9179 331.797 66.9979C331.797 66.0779 332.217 65.3379 332.727 65.3379C333.237 65.3379 333.647 66.0679 333.647 66.9979Z" fill="#1A4850"/>
<path d="M323.777 66.9979C323.777 67.9179 323.367 68.6679 322.857 68.6679C322.347 68.6679 321.937 67.9179 321.937 66.9979C321.937 66.0779 322.347 65.3379 322.857 65.3379C323.367 65.3379 323.777 66.0679 323.777 66.9979Z" fill="#1A4850"/>
<path d="M318.537 54.9995C324.739 56.892 331.248 57.571 337.707 56.9995C337.707 56.9995 340.117 59.9995 339.817 70.5895C339.817 70.5895 346.427 51.5195 327.137 51.5195C307.847 51.5195 316.527 70.1995 316.527 70.1995C316.527 70.1995 314.997 58.5395 318.537 54.9995Z" fill="#FFB878"/>
<path d="M328.297 71.9186L327.747 71.3586L329.207 69.9086C327.797 67.9086 327.797 63.2686 327.797 63.0586H328.587C328.587 63.0586 328.587 68.0586 330.027 69.6586L330.287 69.9386L328.297 71.9186Z" fill="#DB614D"/>
<path d="M323.397 74.328C323.397 74.328 330.667 74.638 334.337 73.668C334.437 74.3732 334.381 75.0918 334.173 75.7731C333.965 76.4543 333.61 77.0817 333.133 77.6109C332.657 78.1401 332.07 78.5583 331.414 78.836C330.758 79.1136 330.049 79.244 329.337 79.218C323.397 79.498 323.397 74.328 323.397 74.328Z" fill="#1A4850"/>
<path d="M354.477 94.3298C355.867 94.0698 355.727 97.6998 354.477 96.6498C353.227 95.5998 353.087 94.5898 354.477 94.3298Z" fill="#CFD8DC"/>
<path d="M337.737 111.928C337.527 113.318 334.137 111.998 335.547 111.168C336.957 110.338 337.997 110.528 337.737 111.928Z" fill="#CFD8DC"/>
<path d="M322.837 119.51C322.837 119.51 320.637 125.16 320.767 128.35C320.897 131.54 321.937 131.13 321.937 131.13C321.426 131.351 320.978 131.694 320.629 132.128C320.281 132.562 320.043 133.074 319.937 133.62C319.617 135.46 324.267 136.82 324.587 136.82C324.907 136.82 328.187 135.57 328.187 135.57L328.867 125.12L325.997 123.3L322.837 119.51Z" fill="#EF6E4B"/>
<path d="M324.597 118.77C326.549 119.96 328.407 121.297 330.157 122.77C331.717 124.3 330.827 136.09 330.157 136.65C329.487 137.21 324.377 138.35 323.397 137.71C322.417 137.07 323.777 133.59 323.777 133.59C323.777 133.59 326.347 133.04 325.977 134.01C325.757 134.589 325.757 135.23 325.977 135.81L327.037 135.4C326.748 133.887 326.748 132.333 327.037 130.82C327.547 128.88 323.417 126.82 322.917 123.27C322.417 119.72 324.597 118.77 324.597 118.77Z" fill="#FF8B66"/>
<path d="M282.997 112.999C281.717 107.449 287.227 105.489 294.877 106.429C303.767 107.529 322.007 109.849 325.967 119.479C325.967 119.479 327.267 123.269 323.907 125.089C314.557 130.219 285.427 123.449 282.997 112.999Z" fill="#CE364C"/>
<path d="M310.797 109.348C310.797 109.348 300.207 104.948 294.937 104.508C289.667 104.068 302.227 108.668 310.797 109.348Z" fill="#A02E44"/>
<path d="M390.147 14.0488C389.278 15.4534 388.557 16.9448 387.997 18.4988C387.437 21.4988 387.117 23.1188 386.077 24.4988C385.037 25.8788 385.587 28.2688 385.587 28.2688C385.587 28.2688 381.587 30.3488 378.147 27.7788C378.147 27.7788 378.507 25.3988 378.147 24.7188C377.447 23.3588 375.207 22.6388 374.437 19.9088C373.722 17.8324 372.69 15.8792 371.377 14.1188C371.377 14.1188 372.027 12.6888 373.227 13.5588C374.427 14.4288 375.227 16.6188 375.857 16.8488L376.257 16.9388C376.489 16.9787 376.727 16.9681 376.955 16.9077C377.183 16.8473 377.395 16.7386 377.577 16.5888L377.657 16.5288C378.757 15.2488 379.007 11.5288 378.967 9.81881C378.897 7.48881 378.967 4.26881 380.407 4.81881C381.847 5.36881 380.527 6.66881 381.627 11.8188L382.157 11.8788C382.257 12.2488 383.237 8.75881 383.467 5.48881C383.637 3.22881 385.117 4.06881 385.467 4.77881C385.817 5.48881 385.297 7.77881 385.197 9.35881C385.127 10.4388 385.037 11.5588 384.977 12.2288L385.597 12.5688C387.847 8.65881 387.077 7.03881 388.387 6.95881C389.697 6.87881 389.217 10.1788 388.517 11.4388C388.132 12.3321 387.856 13.269 387.697 14.2288C389.997 11.5688 389.697 10.1788 390.797 10.3488C391.897 10.5188 390.997 13.1388 390.147 14.0488Z" fill="#FF8B66"/>
<path d="M380.217 20.1679C379.447 18.0179 376.667 17.0479 376.327 16.9379C376.559 16.9778 376.798 16.9672 377.025 16.9068C377.253 16.8464 377.465 16.7376 377.647 16.5879C378.387 16.8547 379.029 17.3397 379.488 17.9789C379.947 18.618 380.201 19.3813 380.217 20.1679Z" fill="#EF6E4B"/>
<path d="M331.997 304.14C331.997 304.14 330.457 301 331.827 299.66C333.197 298.32 334.827 300.81 337.147 300.25C339.467 299.69 340.027 298.04 340.637 300.3C341.247 302.56 340.507 309.69 331.997 304.14Z" fill="#CFD8DC"/>
<path d="M340.797 303.998C340.797 303.998 334.517 306.228 331.257 303.998L332.087 306.718C332.087 306.718 338.917 307.438 339.857 305.718L340.797 303.998Z" fill="#ADBEC4"/>
<path d="M340.717 307.379C340.717 307.379 334.957 306.579 332.187 308.009V309.359C332.187 309.359 339.687 307.609 342.107 309.359L340.717 307.379Z" fill="#ADBEC4"/>
<path d="M331.907 312.158C332.335 311.295 332.993 310.567 333.808 310.054C334.623 309.541 335.564 309.262 336.527 309.248C338.621 309.132 340.691 309.744 342.387 310.978C342.387 310.978 336.837 308.688 331.907 312.158Z" fill="#ADBEC4"/>
<path d="M479.997 274.379C473.608 283.097 464.389 289.325 453.917 291.999C449.557 288.509 449.447 284.379 449.447 284.379C449.447 284.379 445.237 280.629 444.687 278.829C444.137 277.029 448.287 271.609 450.787 272.169C451.465 272.352 452.098 272.674 452.646 273.115C453.193 273.556 453.643 274.105 453.967 274.729C451.897 270.079 453.557 268.459 456.487 268.859C459.417 269.259 456.647 269.989 458.837 272.449C458.993 272.618 459.168 272.769 459.357 272.899C459.784 273.189 460.268 273.383 460.777 273.469C461.295 273.558 461.822 273.584 462.347 273.549L463.237 273.459C463.834 273.35 464.422 273.196 464.997 272.999C465.974 272.697 466.916 272.291 467.807 271.789C471.627 269.709 473.237 268.999 476.147 269.789C479.057 270.579 478.997 272.719 478.997 272.719L479.997 274.379Z" fill="#CFD8DC"/>
<path d="M479.997 274.38C473.608 283.097 464.389 289.326 453.917 292C461.597 288.7 468.647 284.38 473.457 279.06C478.267 273.74 479.997 274.38 479.997 274.38Z" fill="#ADBEC4"/>
<path d="M459.357 272.859C459.784 273.149 460.268 273.343 460.777 273.429C459.98 273.554 459.244 273.933 458.68 274.509C458.116 275.086 457.754 275.83 457.647 276.629L456.407 276.229C456.677 273.089 459.147 272.869 459.357 272.859Z" fill="#ADBEC4"/>
<path d="M461.327 276.939H460.027C459.807 276.336 459.761 275.684 459.894 275.056C460.026 274.429 460.332 273.851 460.777 273.389C461.295 273.477 461.822 273.504 462.347 273.469C461.895 273.912 461.564 274.464 461.385 275.071C461.207 275.678 461.187 276.321 461.327 276.939Z" fill="#ADBEC4"/>
<path d="M464.537 276.228L463.247 276.388C463.028 275.918 462.915 275.406 462.915 274.888C462.915 274.37 463.028 273.858 463.247 273.388C463.839 273.301 464.424 273.171 464.997 272.998C464.686 273.469 464.483 274.003 464.404 274.561C464.324 275.12 464.37 275.689 464.537 276.228Z" fill="#ADBEC4"/>
<path d="M340.917 139.308C340.917 139.308 343.767 154.698 337.997 160.828C332.227 166.958 336.047 161.918 337.767 154.018C339.487 146.118 338.177 137.788 340.917 139.308Z" fill="#CE364C"/>
<path d="M367.517 132.448C367.517 132.448 376.607 135.448 381.367 143.828C381.367 143.828 374.997 130.158 367.517 132.448Z" fill="#CE364C"/>
<path d="M131.467 18.1385C133.089 18.4395 134.675 18.9122 136.197 19.5485C138.777 21.1385 140.197 21.9985 141.917 22.1485C143.637 22.2985 144.327 25.2285 144.327 25.2285C144.327 25.2285 151.047 26.6985 151.427 22.4585C151.427 22.4585 147.667 17.1385 147.427 16.4585C146.897 15.0285 147.867 12.8885 146.357 10.4585C145.29 8.52717 144.528 6.4426 144.097 4.27853C144.097 4.27853 142.597 3.80853 142.437 5.27853C142.277 6.74853 143.387 8.80853 143.107 9.43853C143.052 9.56485 142.985 9.68544 142.907 9.79853C142.783 9.99895 142.617 10.1699 142.42 10.2994C142.223 10.429 142 10.514 141.767 10.5485C141.734 10.5592 141.699 10.5592 141.667 10.5485C139.987 10.5485 137.027 8.17853 135.817 7.01853C134.137 5.39853 131.687 3.30853 131.137 4.72853C130.587 6.14853 132.417 6.05853 135.497 10.3185L135.187 10.7585C135.387 11.0785 132.187 9.45853 129.567 7.43853C127.787 6.04853 127.407 7.69853 127.717 8.43853C128.027 9.17853 130.017 10.2985 131.297 11.3185L133.567 13.0785L133.407 13.7685C129.007 12.7685 128.317 11.1485 127.407 12.0685C126.497 12.9885 129.237 14.8485 130.637 15.1685C131.555 15.4893 132.433 15.9119 133.257 16.4285C129.747 16.3585 128.887 15.2385 128.307 16.1285C127.727 17.0185 130.257 18.1185 131.467 18.1385Z" fill="#FF8B66"/>
<path d="M142.667 14.8881C141.607 12.8881 142.747 10.1581 142.887 9.82812C142.763 10.0285 142.597 10.1995 142.4 10.329C142.203 10.4585 141.98 10.5436 141.747 10.5781C141.449 11.3058 141.378 12.1062 141.542 12.8751C141.706 13.644 142.098 14.3455 142.667 14.8881Z" fill="#EF6E4B"/>
<path d="M329.327 18.1385C327.708 18.4406 326.126 18.9133 324.607 19.5485C322.027 21.1385 320.607 21.9985 318.877 22.1485C317.147 22.2985 316.477 25.2285 316.477 25.2285C316.477 25.2285 309.747 26.6985 309.367 22.4585C309.367 22.4585 313.127 17.1385 313.367 16.4585C313.897 15.0285 312.927 12.8885 314.437 10.4585C315.507 8.52776 316.273 6.44316 316.707 4.27853C316.707 4.27853 318.197 3.80853 318.357 5.27853C318.517 6.74853 317.417 8.80853 317.687 9.43853C317.745 9.56514 317.815 9.68572 317.897 9.79853C318.022 9.99806 318.188 10.1683 318.385 10.2977C318.582 10.4271 318.804 10.5127 319.037 10.5485C319.069 10.5586 319.104 10.5586 319.137 10.5485C320.827 10.5485 323.777 8.17853 324.987 7.01853C326.677 5.39853 329.117 3.30853 329.667 4.72853C330.217 6.14853 328.387 6.05853 325.317 10.3185L325.627 10.7585C325.417 11.0785 328.627 9.45853 331.247 7.43853C333.027 6.04853 333.397 7.69853 333.087 8.43853C332.777 9.17853 330.787 10.2985 329.507 11.3185L327.247 13.0985L327.417 13.7885C331.817 12.7885 332.497 11.1685 333.417 12.0885C334.337 13.0085 331.587 14.8685 330.187 15.1885C329.272 15.5095 328.397 15.9321 327.577 16.4485C331.087 16.3785 331.937 15.2585 332.527 16.1485C333.117 17.0385 330.537 18.1185 329.327 18.1385Z" fill="#FF8B66"/>
<path d="M318.127 14.8881C319.197 12.8881 318.057 10.1581 317.907 9.82812C318.032 10.0276 318.198 10.1979 318.395 10.3273C318.592 10.4567 318.814 10.5423 319.047 10.5781C319.344 11.3058 319.416 12.1062 319.252 12.8751C319.088 13.644 318.696 14.3455 318.127 14.8881Z" fill="#EF6E4B"/>
<path d="M270.227 221.998L257.307 141.998L231.437 144.888L205.577 141.998L192.657 221.998L186.447 299.578C186.447 299.578 188.447 306.008 201.327 301.578C201.327 301.578 210.897 229.578 212.327 228.038C213.757 226.498 229.017 179.448 229.017 179.448H233.767C233.767 179.448 248.977 226.448 250.457 228.038C251.937 229.628 261.507 301.578 261.507 301.578C274.407 306.018 276.387 299.578 276.387 299.578L270.227 221.998Z" fill="#0E3944"/>
<path d="M223.297 64.5293C224.927 66.1193 232.967 68.9893 237.207 64.5293L240.087 67.3593C240.087 67.3593 236.807 75.0693 231.087 75.3593C225.367 75.6493 221.167 68.4993 221.167 68.4993L223.297 64.5293Z" fill="#0C476B"/>
<path d="M246.057 63.6595C255.677 59.5095 286.767 48.4995 286.767 48.4995C286.767 48.4995 307.667 22.3195 311.927 18.4395C311.927 18.4395 316.557 19.2695 317.927 25.0295C317.927 25.0295 304.467 53.8395 297.157 62.0895C289.847 70.3395 252.797 88.1795 252.797 88.1795L246.057 63.6595Z" fill="#0C476B"/>
<path d="M212.377 63.0597C215.247 61.2497 229.617 70.8697 229.617 70.8697C229.617 70.8697 248.297 60.9497 252.687 62.8697C252.687 62.8697 256.637 68.1597 258.227 81.7497C259.817 95.3397 259.917 151.28 259.917 151.28C250.355 154.274 240.387 155.775 230.367 155.73C210.997 155.73 200.577 150.17 200.577 150.17C200.577 150.17 197.117 72.7197 212.377 63.0597Z" fill="#FFB878"/>
<path d="M224.047 61.6094C224.047 61.6094 226.117 68.1194 224.047 70.6094C224.047 70.6094 226.197 75.1194 230.047 75.3194C234.507 75.5494 236.047 70.6094 236.047 70.6094C236.047 70.6094 233.687 64.3194 236.047 62.1094L224.047 61.6094Z" fill="#EF6E4B"/>
<path d="M218.897 55.1993C218.897 55.1993 214.537 46.8193 215.397 37.8593C216.257 28.8993 229.757 26.8593 238.857 31.2493C238.857 31.2493 236.157 28.6093 237.207 27.8793C238.257 27.1493 240.087 31.8793 240.087 31.8793C240.087 31.8793 242.967 30.9993 243.407 31.8793C243.847 32.7593 240.457 33.2393 240.457 33.2393C240.457 33.2393 246.327 36.4993 240.847 53.8193L218.897 55.1993Z" fill="#8B383E"/>
<path d="M218.237 49.8895C218.237 49.8895 214.987 46.6495 214.587 50.4395C214.127 54.8295 218.117 56.5995 218.897 55.1995C219.677 53.7995 218.237 49.8895 218.237 49.8895Z" fill="#FF8B66"/>
<path d="M240.997 50.118C240.997 50.118 244.247 46.878 244.647 50.668C245.107 55.058 241.117 56.828 240.337 55.428C239.557 54.028 240.997 50.118 240.997 50.118Z" fill="#FF8B66"/>
<path d="M229.267 65.788C222.057 65.788 217.997 61.088 217.997 46.998C217.997 39.718 221.697 35.248 229.767 35.248C237.837 35.248 241.237 39.688 241.237 46.998C241.237 62.138 236.707 65.788 229.267 65.788Z" fill="#FF8B66"/>
<path d="M238.847 51.9997C238.826 52.3853 238.676 52.7525 238.42 53.0415C238.164 53.3306 237.817 53.5245 237.437 53.5917C237.057 53.6589 236.665 53.5955 236.326 53.4118C235.986 53.228 235.719 52.9348 235.567 52.5797C235.556 52.1828 235.698 51.7969 235.965 51.5024C236.231 51.208 236.601 51.0279 236.997 50.9997C237.375 50.8958 237.778 50.9418 238.123 51.1282C238.468 51.3145 238.727 51.6267 238.847 51.9997Z" fill="#DB614D"/>
<path d="M223.997 52.3995C224.058 52.7487 224.009 53.1084 223.856 53.4282C223.703 53.748 223.454 54.012 223.143 54.1831C222.832 54.3542 222.476 54.4239 222.124 54.3825C221.772 54.3411 221.441 54.1906 221.179 53.952C220.917 53.7135 220.735 53.3989 220.661 53.0523C220.586 52.7057 220.622 52.3444 220.762 52.0189C220.903 51.6935 221.142 51.4203 221.446 51.2375C221.75 51.0547 222.103 50.9714 222.457 50.9995C222.843 50.9932 223.218 51.1344 223.504 51.3945C223.79 51.6546 223.966 52.014 223.997 52.3995Z" fill="#DB614D"/>
<path d="M235.557 44.6796C235.509 44.6797 235.461 44.67 235.416 44.6511C235.371 44.6322 235.331 44.6045 235.297 44.5696C234.53 43.9047 233.542 43.5484 232.527 43.5696C232.431 43.5723 232.337 43.5373 232.266 43.4719C232.195 43.4065 232.152 43.316 232.147 43.2196C232.146 43.1723 232.154 43.1252 232.171 43.081C232.188 43.0369 232.213 42.9964 232.245 42.9621C232.278 42.9277 232.317 42.9001 232.36 42.8808C232.403 42.8615 232.45 42.8509 232.497 42.8496C233.719 42.8147 234.908 43.2516 235.817 44.0696C235.851 44.103 235.877 44.1428 235.895 44.1865C235.914 44.2303 235.923 44.2772 235.923 44.3246C235.923 44.372 235.914 44.4189 235.895 44.4626C235.877 44.5064 235.851 44.5462 235.817 44.5796C235.783 44.6132 235.742 44.6394 235.697 44.6566C235.653 44.6738 235.605 44.6816 235.557 44.6796Z" fill="#8B383E"/>
<path d="M221.997 44.6796C221.951 44.6803 221.905 44.6718 221.862 44.6546C221.819 44.6374 221.78 44.6119 221.747 44.5796C221.681 44.5108 221.645 44.4195 221.645 44.3246C221.645 44.2297 221.681 44.1384 221.747 44.0696C222.656 43.2516 223.845 42.8147 225.067 42.8496C225.114 42.8509 225.161 42.8615 225.204 42.8808C225.247 42.9001 225.286 42.9277 225.319 42.9621C225.351 42.9964 225.376 43.0369 225.393 43.081C225.41 43.1252 225.418 43.1723 225.417 43.2196C225.412 43.3142 225.371 43.4033 225.302 43.4684C225.233 43.5335 225.142 43.5697 225.047 43.5696C224.028 43.5459 223.037 43.9024 222.267 44.5696C222.232 44.6057 222.19 44.6342 222.144 44.6532C222.097 44.6721 222.047 44.6811 221.997 44.6796Z" fill="#8B383E"/>
<path d="M234.937 48.4989C234.937 49.3989 234.527 50.1189 234.037 50.1189C233.547 50.1189 233.137 49.3989 233.137 48.4989C233.137 47.5989 233.537 46.8789 234.037 46.8789C234.537 46.8789 234.937 47.6089 234.937 48.4989Z" fill="#1A4850"/>
<path d="M225.307 48.4989C225.307 49.3989 224.907 50.1189 224.407 50.1189C223.907 50.1189 223.507 49.3989 223.507 48.4989C223.507 47.5989 223.917 46.8789 224.407 46.8789C224.897 46.8789 225.307 47.6089 225.307 48.4989Z" fill="#1A4850"/>
<path d="M225.307 58.0781C225.307 58.0781 231.667 58.8881 234.937 57.3281C234.937 57.3281 233.087 61.6481 229.617 61.2581C228.669 61.1986 227.758 60.867 226.994 60.303C226.229 59.7389 225.644 58.9665 225.307 58.0781Z" fill="#1A4850"/>
<path d="M240.487 51.7195C240.487 51.7195 240.267 43.8895 237.207 37.8595C237.207 37.8595 231.837 40.3495 230.647 39.7595C229.457 39.1695 231.777 37.8595 231.777 37.8595C231.777 37.8595 222.907 40.7895 222.367 40.1995C221.827 39.6095 225.307 37.8595 225.307 37.8595L219.787 39.7595C219.787 39.7595 218.077 46.8095 218.787 51.7595C218.787 51.7595 216.407 47.6595 216.117 44.8295C215.827 41.9995 217.067 33.9295 225.397 33.3495C233.727 32.7695 238.397 34.6495 240.457 38.4695C242.517 42.2895 242.267 46.9995 240.487 51.7195Z" fill="#8B383E"/>
<path d="M230.517 55.8096C229.969 55.798 229.425 55.7174 228.897 55.5696L229.097 54.8296C229.857 55.0396 231.037 55.1696 231.297 54.8296C231.387 54.7296 231.357 54.4796 231.197 54.1596C230.197 51.9396 229.937 46.3396 229.937 46.0996H230.697C230.697 46.1596 230.917 51.7896 231.897 53.8596C232.044 54.0821 232.122 54.3429 232.122 54.6096C232.122 54.8763 232.044 55.1371 231.897 55.3596C231.712 55.5279 231.493 55.655 231.255 55.7326C231.017 55.8101 230.766 55.8364 230.517 55.8096Z" fill="#DB614D"/>
<path d="M238.497 66.5894C238.497 66.5894 251.497 107.069 252.777 140.009C252.777 140.009 257.477 141.299 262.777 134.089C268.077 126.879 264.927 69.7094 254.777 60.1894C254.777 60.1894 250.167 59.1394 238.497 66.5894Z" fill="#105E99"/>
<path d="M240.617 73.6683C240.617 73.6683 242.957 68.2483 241.917 64.5283C240.877 60.8083 237.207 64.5283 237.207 64.5283C237.207 64.5283 238.697 70.6183 240.617 73.6683Z" fill="#0C476B"/>
<path d="M214.447 63.658C204.827 59.508 173.737 48.498 173.737 48.498C173.737 48.498 152.737 21.558 148.527 17.668C146.939 18.6506 145.602 19.9904 144.623 21.5806C143.644 23.1708 143.049 24.9676 142.887 26.828C142.887 26.828 156.057 53.828 163.367 62.088C170.677 70.348 207.727 88.178 207.727 88.178L214.447 63.658Z" fill="#0C476B"/>
<path d="M221.997 66.5884C221.997 66.5884 208.997 107.068 207.727 139.998C207.727 139.998 203.027 141.288 197.727 134.078C192.427 126.868 195.577 69.6984 205.727 60.1784C205.727 60.1884 210.337 59.1384 221.997 66.5884Z" fill="#105E99"/>
<path d="M219.887 73.6683C219.887 73.6683 217.547 68.2483 218.587 64.5283C219.627 60.8083 223.297 64.5283 223.297 64.5283C223.297 64.5283 221.807 70.6183 219.887 73.6683Z" fill="#0C476B"/>
<path d="M287.937 320.418H262.047C260.237 310.128 263.127 299.828 263.127 299.828L274.957 297.828C276.037 304.328 277.337 306.898 279.137 308.218C280.447 309.168 282.007 309.488 283.967 310.158C284.874 310.431 285.706 310.908 286.4 311.553C287.093 312.198 287.629 312.993 287.967 313.878C288.62 316.011 288.61 318.292 287.937 320.418Z" fill="#662C33"/>
<path d="M287.997 313.849C281.617 314.649 267.597 316.019 268.447 312.319C269.157 309.229 275.077 308.399 279.167 308.189C280.477 309.139 282.037 309.459 283.997 310.129C284.904 310.402 285.736 310.879 286.43 311.524C287.123 312.169 287.659 312.965 287.997 313.849Z" fill="#8B383E"/>
<path d="M201.227 320.419H175.337C174.839 318.803 174.685 317.099 174.887 315.419C175.024 314.201 175.515 313.049 176.299 312.105C177.082 311.162 178.124 310.468 179.297 310.109C181.537 309.339 183.297 309.049 184.677 307.729C186.057 306.409 187.347 303.619 188.317 297.779L200.147 299.779C200.147 299.779 202.997 310.129 201.227 320.419Z" fill="#662C33"/>
<path d="M174.887 315.438C175.024 314.219 175.515 313.068 176.298 312.124C177.082 311.181 178.124 310.487 179.297 310.128C181.537 309.358 183.297 309.068 184.677 307.748C187.947 308.748 192.537 310.608 193.957 313.418C195.927 317.268 180.797 316.658 174.887 315.438Z" fill="#8B383E"/>
<path d="M387.107 318.568C387.111 319.187 387.074 319.805 386.997 320.418H355.537C355.537 319.798 355.537 319.178 355.537 318.568C355.833 313.332 356.842 308.161 358.537 303.198L366.397 299.828C366.785 303.101 368.44 306.091 371.007 308.158C371.571 308.596 372.173 308.981 372.807 309.308C373.097 309.468 373.387 309.608 373.687 309.738C374.335 310.035 375.004 310.286 375.687 310.488C378.166 311.121 380.69 311.563 383.237 311.808C386.597 312.328 387.107 316.208 387.107 318.568Z" fill="#164353"/>
<path d="M387.107 318.568C387.111 319.187 387.074 319.805 386.997 320.418H355.537C355.537 319.798 355.537 319.178 355.537 318.568H387.107Z" fill="#225866"/>
<path d="M372.807 309.308L368.437 310.708L367.517 309.108L371.007 308.158C371.571 308.596 372.173 308.981 372.807 309.308Z" fill="#225866"/>
<path d="M375.687 310.488L372.747 312.439L370.937 311.729L373.687 309.729C374.335 310.029 375.003 310.283 375.687 310.488Z" fill="#225866"/>
<path d="M266.927 318.569C266.889 319.198 266.771 319.82 266.577 320.419H245.627C245.364 319.826 245.166 319.205 245.037 318.569C242.967 308.569 256.897 296.279 256.897 296.279L261.317 302.169C261.317 302.169 260.807 311.609 264.547 313.569C265.414 314.053 266.108 314.794 266.535 315.69C266.961 316.585 267.098 317.592 266.927 318.569Z" fill="#164353"/>
<path d="M244.997 318.568H266.887C266.849 319.197 266.731 319.819 266.537 320.418H245.627C245.351 319.826 245.139 319.206 244.997 318.568Z" fill="#225866"/>
<path d="M263.587 312.82C263.587 312.82 254.757 310.82 250.737 313.42V312C250.737 312 258.157 308.35 263.587 312.82Z" fill="#225866"/>
<path d="M261.837 310.578C261.837 310.578 256.197 308.008 250.737 310.578L251.357 309.108C251.357 309.108 257.887 306.648 261.837 310.578Z" fill="#225866"/>
<path d="M377.617 229.439C377.617 237.869 370.137 306.569 370.137 306.569C365.631 307.014 361.084 306.758 356.657 305.809C354.607 270.999 354.407 241.049 354.407 241.049L318.547 214.169L318.457 214.109C318.457 214.109 318.327 214.719 318.077 215.809C316.307 223.689 308.787 256.709 305.657 264.269C302.097 272.879 263.127 309.109 263.127 309.109C255.887 308.109 249.747 302.869 249.747 302.869C263.747 279.669 282.807 256.399 282.807 256.399C284.297 248.039 285.357 229.399 285.997 215.539V214.889C286.417 205.479 286.627 198.369 286.627 198.369L280.057 184.899L321.817 169.549L331.177 181.549C331.177 181.549 333.317 183.549 336.687 186.709L337.157 187.149C349.727 198.999 377.617 225.659 377.617 229.439Z" fill="#8BBDDB"/>
<path d="M285.997 215.538V214.888C294.787 210.118 293.317 202.498 293.287 202.428L293.837 202.318C293.887 202.388 295.467 210.578 285.997 215.538Z" fill="#6097B2"/>
<path d="M317.907 208.788C318.224 210.568 318.438 212.364 318.547 214.168L318.457 214.108C318.457 214.108 318.327 214.718 318.077 215.808C317.697 202.748 312.307 195.028 312.237 194.938L312.697 194.618C315.247 198.763 316.975 203.36 317.787 208.158C324.147 202.518 317.927 190.958 317.857 190.848L318.347 190.578C318.417 190.698 324.997 202.938 317.907 208.788Z" fill="#6097B2"/>
<path d="M337.187 187.128C336.908 187.227 336.613 187.275 336.317 187.268C333.247 187.268 328.077 182.968 327.837 182.758L328.197 182.328C329.877 183.748 334.557 187.158 336.757 186.668L337.187 187.128Z" fill="#6097B2"/>
<path d="M282.997 112.998C282.997 112.998 295.707 110.998 302.067 114.998C308.427 118.998 316.787 129.648 316.787 129.648C316.787 129.648 306.867 130.958 305.787 137.698C305.757 137.738 298.547 120.568 282.997 112.998Z" fill="#ADBEC4"/>
<path d="M263.907 119.648C258.527 122.558 249.547 133.458 249.147 140.168C248.747 146.708 253.597 152.728 256.857 157.838C267.057 173.838 277.787 187.898 282.347 206.618C282.347 206.738 305.657 215.978 332.987 183.128C332.987 183.128 317.547 162.348 312.207 144.658C310.037 137.458 307.827 129.808 303.657 123.468C301.472 120.027 298.4 117.239 294.764 115.397C291.128 113.554 287.064 112.726 282.997 112.998C276.087 113.588 269.197 116.788 263.907 119.648Z" fill="#CFD8DC"/>
<path d="M261.647 113C261.647 113 265.087 118.87 263.497 122.1C263.497 122.1 275.287 126.17 275.287 119.57C275.287 119.57 273.067 114.63 273.907 111.43L261.647 113Z" fill="#EF6E4B"/>
<path d="M287.857 153.168C287.857 153.168 281.297 155.028 279.637 157.348C277.977 159.668 276.507 164.878 276.507 164.878H287.857L289.997 160.998L292.497 155.768L287.857 153.168Z" fill="#EF6E4B"/>
<path d="M276.997 106.41C276.997 106.41 281.607 104.48 278.627 90.6295C276.627 81.4495 273.807 80.0795 271.967 79.9995C271.967 79.9995 269.717 76.6095 261.967 78.2295C259.271 78.6972 256.762 79.9182 254.731 81.7515C252.699 83.5847 251.228 85.9554 250.487 88.5895C248.487 94.8495 252.487 108.28 257.607 109.59L276.997 106.41Z" fill="#164353"/>
<path d="M278.097 97.0496C278.097 97.0496 280.997 93.0496 282.097 96.9896C283.367 101.61 279.417 104.2 278.337 102.84C277.257 101.48 278.097 97.0496 278.097 97.0496Z" fill="#FF8B66"/>
<path d="M253.817 101.31C253.817 101.31 249.817 98.4097 250.007 102.54C250.287 107.31 254.867 108.54 255.447 106.87C256.027 105.2 253.817 101.31 253.817 101.31Z" fill="#FF8B66"/>
<path d="M269.107 115.999C276.817 114.729 280.337 108.999 277.847 93.8794C276.557 86.0894 271.847 81.9594 263.177 83.3894C254.507 84.8194 251.697 90.1894 252.997 97.9994C255.657 114.199 261.147 117.309 269.107 115.999Z" fill="#FF8B66"/>
<path d="M256.417 102.938C256.328 103.311 256.357 103.703 256.5 104.058C256.643 104.414 256.893 104.717 257.216 104.924C257.538 105.132 257.917 105.234 258.301 105.216C258.684 105.199 259.052 105.063 259.354 104.827C259.657 104.591 259.878 104.267 259.988 103.899C260.098 103.532 260.092 103.139 259.969 102.776C259.846 102.413 259.614 102.097 259.303 101.871C258.993 101.646 258.62 101.522 258.237 101.518C257.808 101.47 257.377 101.591 257.037 101.857C256.697 102.122 256.474 102.511 256.417 102.938Z" fill="#DB614D"/>
<path d="M272.347 100.749C272.349 101.133 272.47 101.506 272.693 101.818C272.916 102.13 273.231 102.364 273.594 102.49C273.957 102.615 274.349 102.624 274.717 102.516C275.085 102.408 275.411 102.188 275.649 101.887C275.886 101.586 276.025 101.219 276.045 100.836C276.064 100.453 275.965 100.073 275.759 99.7492C275.553 99.4253 275.252 99.1734 274.897 99.0282C274.542 98.883 274.151 98.8518 273.777 98.9389C273.349 98.994 272.96 99.2143 272.693 99.5525C272.426 99.8908 272.302 100.32 272.347 100.749Z" fill="#DB614D"/>
<path d="M258.587 94.5293C258.51 94.5281 258.434 94.5075 258.367 94.4693C258.282 94.4089 258.223 94.3175 258.205 94.2147C258.186 94.1119 258.208 94.0059 258.267 93.9193C259.091 92.8775 260.282 92.1905 261.597 91.9993C261.647 91.9909 261.699 91.9928 261.749 92.0049C261.799 92.0171 261.846 92.0393 261.887 92.0701C261.929 92.101 261.963 92.1399 261.989 92.1844C262.014 92.229 262.031 92.2783 262.037 92.3293C262.044 92.3806 262.04 92.4328 262.027 92.4828C262.014 92.5328 261.991 92.5796 261.959 92.6206C261.927 92.6615 261.888 92.6958 261.843 92.7213C261.798 92.7469 261.748 92.7632 261.697 92.7693C260.607 92.9286 259.613 93.484 258.907 94.3293C258.876 94.3883 258.83 94.438 258.774 94.4732C258.718 94.5084 258.653 94.5278 258.587 94.5293Z" fill="#1A4850"/>
<path d="M273.097 92.138C273.014 92.1359 272.933 92.1079 272.867 92.058C271.928 91.482 270.809 91.2753 269.727 91.478C269.676 91.4879 269.624 91.4877 269.574 91.4774C269.523 91.4672 269.476 91.4471 269.433 91.4183C269.39 91.3895 269.353 91.3526 269.325 91.3096C269.297 91.2667 269.277 91.2186 269.267 91.168C269.257 91.1175 269.257 91.0655 269.268 91.015C269.278 90.9645 269.298 90.9165 269.327 90.8738C269.356 90.8311 269.392 90.7945 269.435 90.766C269.478 90.7376 269.526 90.7179 269.577 90.708C270.878 90.461 272.223 90.7223 273.337 91.438C273.402 91.4877 273.45 91.5566 273.474 91.6349C273.497 91.7133 273.496 91.7971 273.469 91.8745C273.443 91.952 273.393 92.0191 273.326 92.0664C273.259 92.1137 273.179 92.1387 273.097 92.138Z" fill="#1A4850"/>
<path d="M259.997 98.5091C260.147 99.4591 260.707 100.169 261.237 100.079C261.767 99.9891 262.077 99.1491 261.917 98.1891C261.757 97.2291 261.197 96.5291 260.667 96.6191C260.137 96.7091 259.837 97.5491 259.997 98.5091Z" fill="#1A4850"/>
<path d="M270.287 96.8079C270.447 97.8079 271.007 98.4679 271.537 98.3779C272.067 98.2879 272.367 97.4479 272.207 96.4879C272.047 95.5279 271.497 94.8279 270.967 94.9179C270.437 95.0079 270.127 95.8479 270.287 96.8079Z" fill="#1A4850"/>
<path d="M273.177 105.498C273.177 105.498 266.487 107.288 262.777 106.578C262.777 106.578 265.347 109.808 269.007 108.878C272.667 107.948 273.177 105.498 273.177 105.498Z" fill="#1A4850"/>
<path d="M273.487 86.8683C273.487 86.8683 264.787 93.1683 253.867 93.6483L254.177 103.368C254.177 103.368 244.007 84.6183 264.177 81.2883C284.347 77.9583 278.447 98.9183 278.447 98.9183C278.447 98.9183 277.777 89.8883 273.487 86.8683Z" fill="#0E3944"/>
<path d="M266.377 102.889L266.317 102.049C266.317 102.049 267.497 101.959 267.797 101.239C267.917 100.939 267.427 99.9986 266.987 99.1686C266.229 97.8564 265.663 96.4419 265.307 94.9686L266.137 94.8086C266.475 96.212 267.014 97.5592 267.737 98.8086C268.377 100.039 268.847 100.929 268.567 101.589C268.067 102.769 266.447 102.879 266.377 102.889Z" fill="#DB614D"/>
<path d="M278.207 86.8897C263.577 80.5397 249.767 93.7097 249.767 93.7097C249.767 93.7097 248.157 82.9997 250.997 80.5397C251.726 79.8942 252.509 79.312 253.337 78.7997C259.797 74.7297 268.397 74.7997 272.337 76.1997C272.999 76.4008 273.609 76.7419 274.127 77.1997C276.437 79.6197 278.207 86.8897 278.207 86.8897Z" fill="#CE364C"/>
<path d="M276.437 84.5197C268.158 83.311 259.721 85.1404 252.687 89.6697C252.687 89.6697 251.957 82.7897 253.317 78.7997C259.777 74.7297 268.377 74.7997 272.317 76.1997C274.617 78.8197 276.437 84.5197 276.437 84.5197Z" fill="#CFD8DC"/>
<path d="M250.997 92.4595C250.997 92.4595 252.997 84.1795 255.567 81.8495C259.937 77.9695 272.207 76.6395 278.657 78.9695C285.107 81.2995 278.657 88.3495 278.657 88.3495C278.657 88.3495 268.357 80.9995 250.997 92.4595Z" fill="#A02E44"/>
<path d="M269.997 147.439C273.528 152.532 278.168 156.758 283.567 159.799C283.567 159.799 294.277 150.509 308.147 151.349C308.147 151.349 296.647 172.099 286.777 174.349C281.587 175.559 262.777 163.129 262.777 163.129C262.777 163.129 266.527 149.999 269.997 147.439Z" fill="#FF8B66"/>
<path d="M251.457 133.339C256.057 125.849 266.657 136.919 270.267 144.819C273.877 152.719 276.507 154.389 276.507 154.389C276.507 154.389 265.917 158.819 265.987 166.759C265.997 166.759 241.427 149.669 251.457 133.339Z" fill="#ADBEC4"/>
<path d="M283.527 156.379C283.527 156.379 289.987 150.049 311.207 141.789L308.467 133.169C310.897 129.959 315.377 129.959 315.377 129.959C315.377 129.959 326.247 145.319 324.377 149.899C323.207 152.769 300.527 155.769 283.527 156.379Z" fill="#EF6E4B"/>
<path d="M306.777 143.85C306.971 143.122 307.311 142.441 307.777 141.85C308.557 140.74 308.347 138.73 308.627 138.1C308.907 137.47 310.577 134.929 311.687 134.429C312.797 133.929 314.247 133.12 314.557 134.53C314.867 135.94 312.557 135.53 311.557 137.53C312.849 137.124 314.217 137.018 315.557 137.22C317.337 137.65 317.847 139.28 315.637 139.22C314.232 139.331 312.868 139.744 311.637 140.429C311.637 140.429 313.937 140.77 313.567 141.83C312.997 143.33 310.197 142.42 306.777 143.85Z" fill="#FF8B66"/>
<path d="M149.817 172.76C151.717 177.62 159.487 185.95 159.487 185.95C159.487 185.95 178.487 174.56 187.227 179.35C195.967 184.14 202.947 187.06 208.627 184.98C214.307 182.9 189.997 138.6 189.997 138.6L158.417 126.6C158.417 126.6 157.727 134.6 154.127 136C150.527 137.4 146.667 150.61 146.927 153.1C147.187 155.59 149.817 172.76 149.817 172.76Z" fill="#3E6575"/>
<path d="M185.347 186.228C185.347 186.228 177.207 202.228 160.397 222.638C160.397 222.638 158.667 246.948 114.217 285.188L109.557 281.528C109.557 281.528 136.037 240.058 141.327 227.348C146.617 214.638 138.407 202.978 162.767 170.818L185.347 186.228Z" fill="#EF6E4B"/>
<path d="M159.427 157.998C152.427 171.428 150.067 188.588 150.067 188.588L146.877 196.588C154.567 200.526 162.785 203.331 171.277 204.918L176.517 191.038L159.427 157.998Z" fill="#662C33"/>
<path d="M195.997 184.998C195.997 184.998 199.467 202.578 198.897 228.998C198.897 228.998 212.577 249.168 201.287 306.718H195.367C195.367 306.718 190.527 257.718 186.827 244.488C183.127 231.258 169.467 227.148 168.727 186.808L195.997 184.998Z" fill="#FF8B66"/>
<path d="M199.457 203.848C199.457 203.848 188.327 205.848 168.707 204.918L168.397 202.718L168.317 202.148L166.317 187.848C164.849 185.931 163.567 183.878 162.487 181.718C162.257 181.278 162.027 180.818 161.807 180.338C159.167 174.708 156.807 166.528 159.457 157.988L163.597 158.178H164.177L178.027 158.808H178.617L183.167 159.018H183.877L186.877 159.148C186.877 159.148 201.877 172.658 199.207 197.638L199.397 201.118V201.678L199.457 203.848Z" fill="#8B383E"/>
<path d="M164.147 158.219C163.757 159.359 161.147 167.839 162.457 181.719C162.227 181.279 161.997 180.819 161.777 180.339C160.777 167.649 163.067 159.739 163.567 158.179C163.606 158.084 163.64 157.987 163.667 157.889L164.187 158.079C164.187 158.079 164.167 158.139 164.147 158.219Z" fill="#662C33"/>
<path d="M199.347 201.789C195.407 202.789 188.727 203.079 182.347 203.079C176.647 203.079 171.237 202.849 168.347 202.719L168.267 202.149C173.267 202.389 186.377 202.899 194.837 201.979L194.297 193.049C194.307 184.193 192.227 175.46 188.227 167.559C180.527 166.169 178.407 160.459 177.947 158.849L177.847 158.429L178.397 158.339C178.434 158.521 178.48 158.702 178.537 158.879C179.208 160.953 180.437 162.801 182.09 164.222C183.743 165.642 185.756 166.579 187.907 166.929C186.523 164.185 184.91 161.563 183.087 159.089C182.847 158.759 182.687 158.569 182.677 158.559L183.097 158.209C183.348 158.502 183.581 158.809 183.797 159.129C186.377 162.619 195.067 175.779 194.847 193.019L195.387 201.919C196.698 201.777 197.997 201.546 199.277 201.229L199.347 201.789Z" fill="#662C33"/>
<path d="M170.997 97.7491C166.577 95.3191 134.727 107.809 134.727 107.809C134.727 107.809 130.017 116.209 132.957 119.509C135.897 122.809 146.307 121.349 149.507 119.509C152.707 117.669 161.147 116.269 161.147 116.269L170.997 97.7491Z" fill="#8BBDDB"/>
<path d="M199.137 71.2381C201.262 72.2007 203.161 73.599 204.712 75.3423C206.262 77.0856 207.429 79.1351 208.137 81.3581C210.537 88.9381 203.347 108.128 205.837 116.938C208.327 125.748 207.937 142.418 200.167 145.938C192.397 149.458 176.487 143.168 173.067 133.548C169.647 123.928 171.127 87.4681 177.697 75.0681C184.267 62.6681 197.557 68.9081 199.137 71.2381Z" fill="#F24052"/>
<path d="M191.587 103.938C193.317 105.808 197.777 102.478 197.777 102.478C197.777 102.478 197.687 119.008 192.877 120.278C188.067 121.548 175.877 107.278 176.327 103.368C176.777 99.458 187.737 99.788 191.587 103.938Z" fill="#8BBDDB"/>
<path d="M173.057 99.8086C177.005 102.783 181.554 104.862 186.387 105.899C194.857 107.899 199.447 103.899 203.777 109.339C210.277 117.539 199.707 132.649 194.137 140.479C192.067 143.399 187.687 151.479 186.797 159.259C186.797 159.259 172.107 163.529 159.427 157.989L158.487 139.989C158.487 139.989 150.497 115.659 173.057 99.8086Z" fill="#0E3944"/>
<path d="M188.247 117.349C188.247 117.349 194.967 101.349 196.907 100.349C198.847 99.3488 203.787 101.779 204.777 103.969C205.767 106.159 204.777 110.969 204.777 110.969C204.777 110.969 199.477 104.859 188.247 117.349Z" fill="#8BBDDB"/>
<path d="M220.407 184.999C217.407 191.249 209.867 193.049 209.867 193.049C209.867 193.049 209.297 192.189 208.347 190.629C208.233 190.466 208.13 190.295 208.037 190.119C202.137 180.559 184.117 149.969 184.477 134.069C184.55 128.556 185.721 123.112 187.92 118.056C190.119 112.999 193.304 108.432 197.287 104.619C203.577 106.119 205.567 107.839 205.567 107.839C206.85 115.726 206.91 123.764 205.747 131.669C203.797 144.669 200.267 148.109 202.047 149.089C203.827 150.069 202.047 151.999 202.047 151.999C202.047 151.999 212.497 166.549 214.447 171.079C215.717 174.029 217.867 179.079 219.217 182.179C219.297 182.409 219.387 182.629 219.477 182.829C220.047 184.119 220.407 184.999 220.407 184.999Z" fill="#6097B2"/>
<path d="M202.267 107.809C202.267 107.809 194.787 113.349 199.137 121.809L219.877 143.269C208.497 155.399 207.367 160.379 199.137 165.969L202.267 170.799C202.267 170.799 231.077 148.659 231.117 143.269C231.137 140.999 213.517 113.079 202.267 107.809Z" fill="#FF8B66"/>
<path d="M198.687 165.999C196.523 166.24 194.374 166.594 192.247 167.059C189.757 167.679 186.437 168.299 186.337 168.819C186.237 169.339 191.827 168.819 191.827 168.819C191.827 168.819 187.267 170.689 187.167 171.419C187.067 172.149 192.977 170.889 192.977 170.889C192.977 170.889 189.237 173.179 189.447 173.799C189.657 174.419 194.257 172.859 194.257 172.859C193.811 174.001 193.223 175.083 192.507 176.079C192.507 176.079 193.397 176.569 195.207 174.559C197.017 172.549 199.907 173.199 202.207 171.419C204.507 169.639 200.767 165.719 198.687 165.999Z" fill="#FF8B66"/>
<path d="M177.497 102.468C177.497 102.468 171.807 106.148 168.217 115.028C164.627 123.908 153.277 140.618 150.627 144.938C147.977 149.258 149.817 172.758 149.817 172.758C149.817 172.758 146.487 158.508 144.997 152.998C143.507 147.488 149.777 133.728 150.717 132.998C151.657 132.268 156.467 133.608 155.547 127.998C154.627 122.388 167.547 98.428 170.977 97.748C170.997 97.748 176.507 98.788 177.497 102.468Z" fill="#6097B2"/>
<path d="M159.907 103.67C159.806 103.862 159.689 104.046 159.557 104.22C158.532 105.537 157.287 106.667 155.877 107.56C155.877 107.56 151.527 113.64 151.487 114.34C151.447 115.04 143.947 120.34 140.617 120.27C140.216 120.28 139.826 120.145 139.517 119.89C137.517 118.03 146.247 102.37 148.167 98.9997C148.287 98.7697 148.387 98.6097 148.457 98.4997C148.48 98.4478 148.506 98.3976 148.537 98.3497C148.537 98.3497 146.997 92.6397 153.397 93.7097C158.717 94.5897 159.767 98.8197 160.327 101.65C160.424 102.351 160.276 103.065 159.907 103.67Z" fill="#6097B2"/>
<path d="M137.577 109.589C141.967 103.809 157.427 92.5888 165.577 89.2988L167.577 93.0788C167.577 93.0788 151.847 106.909 148.147 112.829C144.447 118.749 139.877 121.189 135.507 119.219C131.137 117.249 136.647 110.799 137.577 109.589Z" fill="#FF8B66"/>
<path d="M158.367 102.479L157.537 103.479L157.117 103.959L155.737 105.539C155.737 105.539 152.277 109.739 152.407 111.429C152.507 112.639 145.837 118.049 140.617 120.309C138.497 121.229 136.617 121.629 135.507 120.999C131.737 118.819 132.577 112.279 134.717 107.849C136.587 103.999 144.837 98.9989 146.997 97.7389C147.154 97.6316 147.317 97.5348 147.487 97.4489L148.277 94.3889C148.277 94.3889 151.147 92.6489 153.417 93.7189C153.417 93.7189 148.417 93.9289 149.237 95.8689C150.057 97.8089 156.997 102.409 158.367 102.479Z" fill="#8BBDDB"/>
<path d="M176.507 86.4597C171.507 88.5297 172.207 93.0797 167.597 93.0797C164.747 93.0797 164.367 89.8097 164.367 89.8097C165.596 86.6698 166.368 83.3693 166.657 80.0097C166.837 77.7497 167.597 78.6197 167.597 78.6197C167.597 78.4097 167.597 78.2097 167.597 78.0097C167.527 76.4897 167.247 75.3797 168.247 76.0097C169.247 76.6397 169.767 81.0097 169.767 81.0097C170.707 74.7197 169.317 73.7897 170.407 74.3397C171.887 75.0997 171.907 80.6497 171.907 80.8197C173.097 77.1597 172.777 75.0797 173.607 75.9097C174.437 76.7397 173.187 83.4597 172.687 85.9097C172.577 86.4697 172.497 86.8097 172.497 86.8097C176.467 84.9397 176.507 86.4597 176.507 86.4597Z" fill="#FF8B66"/>
<path d="M172.667 85.9987C172.557 86.5587 172.477 86.8987 172.477 86.8987C171.835 86.8979 171.204 87.0644 170.647 87.3818C170.089 87.6992 169.624 88.1566 169.297 88.7087C169.436 87.9261 169.855 87.2204 170.474 86.7222C171.094 86.2241 171.873 85.967 172.667 85.9987Z" fill="#EF6E4B"/>
<path d="M167.877 83.1298C167.877 82.5998 168.127 79.5398 167.597 78.6198C167.597 78.4098 167.597 78.2098 167.597 78.0098C168.727 78.2598 167.997 82.4898 167.877 83.1298Z" fill="#EF6E4B"/>
<path d="M170.997 109.619C170.997 109.619 174.397 100.409 175.477 98.3486C176.557 96.2886 182.187 96.6386 186.477 97.4386C190.767 98.2386 191.617 103.939 191.617 103.939C191.617 103.939 178.617 97.8186 170.997 109.619Z" fill="#8BBDDB"/>
<path d="M192.877 91.4887C190.379 96.4077 189.012 101.823 188.877 107.339C188.877 107.339 182.257 111.839 179.877 106.209C181.489 100.581 181.928 94.6828 181.167 88.8787C180.377 82.2087 192.877 91.4887 192.877 91.4887Z" fill="#EF6E4B"/>
<path d="M179.897 81.0491C179.897 81.0491 178.687 76.7391 176.527 79.7691C174.037 83.2791 176.577 86.6991 177.907 85.8791C179.237 85.0591 179.897 81.0491 179.897 81.0491Z" fill="#FF8B66"/>
<path d="M199.117 92.1384C199.117 92.1384 203.427 90.9384 201.957 94.3484C200.247 98.3484 196.017 97.8984 196.017 96.3484C196.017 94.7984 199.117 92.1384 199.117 92.1384Z" fill="#FF8B66"/>
<path d="M181.657 99.8485C175.527 96.3985 174.327 90.4485 181.087 78.4485C184.567 72.2585 189.857 70.2385 196.727 74.0985C203.597 77.9585 204.337 83.3885 200.847 89.5785C193.587 102.479 187.997 103.419 181.657 99.8485Z" fill="#FF8B66"/>
<path d="M196.407 92.7186C196.374 93.063 196.234 93.3886 196.007 93.6497C195.78 93.9108 195.477 94.0944 195.141 94.1749C194.804 94.2553 194.451 94.2286 194.13 94.0985C193.81 93.9683 193.538 93.7412 193.353 93.449C193.167 93.1567 193.078 92.8138 193.097 92.4683C193.116 92.1228 193.243 91.792 193.46 91.522C193.676 91.252 193.971 91.0565 194.304 90.9626C194.638 90.8688 194.992 90.8813 195.317 90.9986C195.683 91.0935 195.999 91.324 196.202 91.6433C196.404 91.9627 196.478 92.3471 196.407 92.7186Z" fill="#DB614D"/>
<path d="M183.617 85.9995C183.493 86.3216 183.273 86.5976 182.986 86.7892C182.699 86.9809 182.359 87.079 182.014 87.0699C181.669 87.0608 181.335 86.9451 181.059 86.7385C180.782 86.532 180.577 86.2449 180.47 85.9166C180.363 85.5884 180.361 85.2352 180.463 84.9055C180.566 84.5759 180.767 84.286 181.041 84.0759C181.315 83.8657 181.647 83.7455 181.992 83.7318C182.337 83.7181 182.678 83.8116 182.967 83.9995C183.318 84.1791 183.583 84.4904 183.705 84.8652C183.827 85.2401 183.795 85.6479 183.617 85.9995Z" fill="#DB614D"/>
<path d="M197.287 84.9997C197.208 84.9996 197.132 84.9728 197.07 84.9238C197.008 84.8748 196.965 84.8064 196.947 84.7297C196.608 83.7978 195.939 83.0224 195.067 82.5497C194.985 82.5071 194.923 82.4337 194.895 82.3456C194.867 82.2576 194.875 82.162 194.917 82.0797C194.961 81.997 195.037 81.935 195.126 81.907C195.216 81.879 195.313 81.8871 195.397 81.9297C196.447 82.4922 197.244 83.4322 197.627 84.5597C197.649 84.6498 197.635 84.7447 197.588 84.8248C197.542 84.9049 197.466 84.964 197.377 84.9897L197.287 84.9997Z" fill="#1A4850"/>
<path d="M188.877 78.998C188.818 79.0186 188.755 79.0186 188.697 78.998C187.839 78.5015 186.829 78.3344 185.857 78.528C185.772 78.5406 185.685 78.5224 185.612 78.4765C185.539 78.4307 185.485 78.3603 185.46 78.2781C185.434 78.1959 185.439 78.1074 185.474 78.0285C185.508 77.9496 185.569 77.8855 185.647 77.848C186.812 77.5949 188.03 77.7914 189.057 78.398C189.134 78.4475 189.19 78.5248 189.212 78.6141C189.235 78.7034 189.222 78.7978 189.177 78.878C189.14 78.9206 189.094 78.9538 189.041 78.9747C188.989 78.9956 188.933 79.0036 188.877 78.998Z" fill="#1A4850"/>
<path d="M194.757 87.8685C194.327 88.6285 193.637 89.0485 193.217 88.8085C192.797 88.5685 192.797 87.8085 193.217 86.9985C193.637 86.1885 194.337 85.8185 194.757 86.0585C195.177 86.2985 195.187 87.0985 194.757 87.8685Z" fill="#1A4850"/>
<path d="M186.167 83.259C185.737 84.019 185.047 84.439 184.627 84.199C184.207 83.959 184.207 83.199 184.627 82.399C185.047 81.599 185.747 81.209 186.167 81.399C186.587 81.589 186.597 82.499 186.167 83.259Z" fill="#1A4850"/>
<path d="M183.187 91.0684C183.187 91.0684 186.707 93.7484 189.247 93.8284C189.247 93.8284 186.547 96.0284 184.607 94.6084C184.053 94.2188 183.624 93.6771 183.372 93.0488C183.12 92.4205 183.056 91.7325 183.187 91.0684Z" fill="#1A4850"/>
<path d="M192.907 86.3297C192.907 86.3297 194.527 84.7697 195.187 85.3297C195.847 85.8897 195.497 87.7997 195.497 87.7997H196.907L195.737 87.3297C195.737 87.3297 196.117 85.3297 195.387 84.9297C194.357 84.3597 192.907 86.3297 192.907 86.3297Z" fill="#1A4850"/>
<path d="M186.827 83.2083C186.827 83.2083 187.327 81.0183 186.517 80.7383C185.707 80.4583 184.247 81.7383 184.247 81.7383L183.477 80.5483L184.477 81.3083C184.477 81.3083 185.987 79.9483 186.717 80.3583C187.767 80.9983 186.827 83.2083 186.827 83.2083Z" fill="#1A4850"/>
<path d="M198.347 76.6681C198.065 76.2577 197.7 75.912 197.274 75.654C196.849 75.3961 196.373 75.2318 195.879 75.1722C195.385 75.1126 194.884 75.159 194.41 75.3083C193.935 75.4576 193.498 75.7064 193.127 76.0381C190.127 78.4581 183.257 82.3281 179.897 81.0381C176.537 79.7481 187.247 65.4281 196.557 69.6281C205.867 73.8281 205.027 87.4881 201.157 91.8281C197.287 96.1681 199.157 92.1281 199.157 92.1281C199.31 88.6662 199.829 85.2303 200.707 81.8781C200.919 81.3836 201.027 80.8502 201.021 80.3119C201.016 79.7737 200.899 79.2424 200.677 78.7521C200.455 78.2618 200.133 77.8232 199.732 77.4643C199.33 77.1055 198.859 76.8343 198.347 76.6681Z" fill="#F24052"/>
<path d="M187.997 89.6681C187.818 89.6686 187.64 89.6451 187.467 89.5981L187.657 88.8681C187.85 88.9479 188.066 88.9554 188.264 88.8893C188.462 88.8232 188.63 88.6879 188.737 88.5081C188.825 88.3561 188.871 88.1837 188.871 88.0081C188.871 87.8326 188.825 87.6602 188.737 87.5081C188.637 87.4081 188.467 87.4181 188.237 87.5081L187.887 86.8381C188.096 86.6925 188.35 86.6247 188.604 86.6466C188.857 86.6685 189.096 86.7788 189.277 86.9581C189.485 87.227 189.606 87.553 189.624 87.8925C189.642 88.232 189.556 88.5689 189.377 88.8581C189.241 89.1052 189.042 89.3109 188.799 89.4536C188.556 89.5962 188.279 89.6703 187.997 89.6681Z" fill="#DB614D"/>
<path d="M232.897 142.438C232.537 147.818 219.217 165.358 216.987 165.978C216.371 166.165 215.79 166.452 215.267 166.828L214.587 167.348C213.781 168.012 213.038 168.748 212.367 169.548C208.477 169.298 197.567 164.248 201.067 163.128C201.319 163.048 201.556 162.927 201.767 162.768C201.93 162.661 202.084 162.541 202.227 162.408C206.357 158.948 214.397 144.888 214.447 143.828C214.497 142.768 215.877 142.438 215.877 142.438C215.877 142.438 208.297 131.298 203.877 129.958C199.457 128.618 197.267 123.298 197.267 123.298C192.927 104.918 205.547 107.808 205.547 107.808C214.867 113.348 233.267 136.998 232.897 142.438Z" fill="#8BBDDB"/>
<path d="M215.267 166.828L214.587 167.348C210.001 166.905 205.596 165.332 201.767 162.768C201.93 162.662 202.084 162.541 202.227 162.408C206.119 164.984 210.611 166.507 215.267 166.828Z" fill="#3E6575"/>
<path d="M159.907 103.669C159.806 103.862 159.689 104.046 159.557 104.219C158.736 104.193 157.92 104.092 157.117 103.919C153.709 103.171 150.586 101.464 148.117 98.9992C147.657 98.5459 147.257 98.1259 146.917 97.7392C147.074 97.6319 147.237 97.535 147.407 97.4492C147.697 97.7692 148.027 98.1292 148.407 98.4492C150.878 100.964 154.043 102.684 157.497 103.389C158.291 103.553 159.097 103.646 159.907 103.669Z" fill="#3E6575"/>
<path d="M219.477 182.798C218.329 184.853 216.732 186.622 214.805 187.972C212.878 189.323 210.67 190.221 208.347 190.598C208.234 190.435 208.13 190.265 208.037 190.088C210.391 189.73 212.628 188.825 214.57 187.446C216.511 186.067 218.103 184.253 219.217 182.148C219.297 182.378 219.387 182.598 219.477 182.798Z" fill="#3E6575"/>
<path d="M118.437 283.818C117.339 284.987 116.388 286.287 115.607 287.688C114.157 290.198 115.747 292.508 108.767 298.328C108.767 298.328 94.6769 290.078 88.3169 279.478C88.3724 278.595 88.7121 277.753 89.2853 277.079C89.8584 276.405 90.6343 275.935 91.4969 275.738C93.1569 275.358 97.7069 277.488 102.077 278.308C102.707 278.418 103.327 278.518 103.937 278.568C104.682 278.643 105.432 278.643 106.177 278.568C106.826 278.51 107.463 278.355 108.067 278.108C108.886 277.759 109.611 277.22 110.18 276.534C110.748 275.849 111.145 275.038 111.337 274.168C111.337 274.168 115.087 276.298 112.587 279.908C112.597 279.898 116.997 277.998 118.437 283.818Z" fill="#CFD8DC"/>
<path d="M108.767 298.33C108.767 298.33 94.6769 290.08 88.3169 279.48C88.3169 279.48 90.6769 278.98 92.6369 282.48C94.5969 285.98 109.907 294 108.767 298.33Z" fill="#ADBEC4"/>
<path d="M108.817 281.65C107.677 283.46 107.697 280.12 106.177 278.56C106.826 278.501 107.463 278.346 108.067 278.1C108.757 278.83 109.717 280.24 108.817 281.65Z" fill="#ADBEC4"/>
<path d="M104.387 281.749C103.177 282.899 102.787 279.909 102.077 278.309C102.707 278.419 103.327 278.519 103.937 278.569C104.647 279.529 105.307 280.879 104.387 281.749Z" fill="#ADBEC4"/>
<path d="M205.117 320.418H185.187C184.692 318.51 184.692 316.507 185.187 314.598C185.537 313.268 187.607 312.038 189.527 310.318C190.066 309.838 190.574 309.323 191.047 308.778C191.429 308.326 191.764 307.837 192.047 307.318C192.422 306.673 192.698 305.975 192.867 305.248C193.203 303.416 192.969 301.524 192.197 299.828C192.197 299.828 198.987 298.408 201.407 302.108C201.407 302.108 201.637 300.398 203.787 301.538C203.614 303.64 203.655 305.754 203.907 307.848C204.337 310.708 206.997 311.538 205.117 320.418Z" fill="#CFD8DC"/>
<path d="M199.927 308.418C199.77 308.59 199.554 308.695 199.322 308.714C199.09 308.732 198.86 308.662 198.677 308.518C197.751 307.801 196.666 307.317 195.514 307.109C194.362 306.9 193.176 306.972 192.057 307.318C192.432 306.672 192.708 305.975 192.877 305.248C194.207 304.758 196.717 304.468 199.817 307.108C199.911 307.186 199.989 307.282 200.046 307.391C200.103 307.499 200.137 307.618 200.147 307.74C200.158 307.862 200.144 307.985 200.106 308.101C200.068 308.218 200.007 308.325 199.927 308.418Z" fill="#ADBEC4"/>
<path d="M198.247 311.728L198.137 311.898C198.011 312.095 197.814 312.237 197.587 312.293C197.36 312.348 197.12 312.315 196.917 312.198C195.567 311.398 192.517 309.888 189.527 310.318C190.066 309.838 190.573 309.323 191.047 308.778C192.268 308.493 193.54 308.501 194.757 308.804C195.974 309.106 197.102 309.694 198.047 310.518C198.223 310.66 198.341 310.862 198.378 311.085C198.415 311.308 198.368 311.537 198.247 311.728Z" fill="#ADBEC4"/>
</g>
</g>
<defs>
<filter id="filter0_d_211_9124" x="0" y="0.0195312" width="487.997" height="334.98" filterUnits="userSpaceOnUse" color-interpolation-filters="sRGB">
<feFlood flood-opacity="0" result="BackgroundImageFix"/>
<feColorMatrix in="SourceAlpha" type="matrix" values="0 0 0 0 0 0 0 0 0 0 0 0 0 0 0 0 0 0 127 0" result="hardAlpha"/>
<feOffset dy="4"/>
<feGaussianBlur stdDeviation="4"/>
<feComposite in2="hardAlpha" operator="out"/>
<feColorMatrix type="matrix" values="0 0 0 0 0 0 0 0 0 0 0 0 0 0 0 0 0 0 0.8 0"/>
<feBlend mode="normal" in2="BackgroundImageFix" result="effect1_dropShadow_211_9124"/>
<feBlend mode="normal" in="SourceGraphic" in2="effect1_dropShadow_211_9124" result="shape"/>
</filter>
<filter id="filter1_d_211_9124" x="4" y="4.01953" width="479.997" height="326.98" filterUnits="userSpaceOnUse" color-interpolation-filters="sRGB">
<feFlood flood-opacity="0" result="BackgroundImageFix"/>
<feColorMatrix in="SourceAlpha" type="matrix" values="0 0 0 0 0 0 0 0 0 0 0 0 0 0 0 0 0 0 127 0" result="hardAlpha"/>
<feOffset dy="4"/>
<feGaussianBlur stdDeviation="2"/>
<feComposite in2="hardAlpha" operator="out"/>
<feColorMatrix type="matrix" values="0 0 0 0 0 0 0 0 0 0 0 0 0 0 0 0 0 0 0.25 0"/>
<feBlend mode="normal" in2="BackgroundImageFix" result="effect1_dropShadow_211_9124"/>
<feBlend mode="normal" in="SourceGraphic" in2="effect1_dropShadow_211_9124" result="shape"/>
</filter>
</defs>
</svg>
