<svg width="396" height="365" viewBox="0 0 396 365" fill="none" xmlns="http://www.w3.org/2000/svg">
<g filter="url(#filter0_d_426_3368)">
<path d="M197.89 356.64C304.972 356.64 391.78 351.572 391.78 345.32C391.78 339.068 304.972 334 197.89 334C90.8075 334 4 339.068 4 345.32C4 351.572 90.8075 356.64 197.89 356.64Z" fill="#F5F5F5"/>
<path d="M329.55 311.941H176.06C175.141 311.955 174.23 311.775 173.386 311.412C172.541 311.05 171.783 310.513 171.161 309.837C170.539 309.161 170.067 308.361 169.775 307.489C169.484 306.618 169.38 305.695 169.47 304.781L188.82 56.5406C188.997 54.6078 189.883 52.8088 191.306 51.489C192.729 50.1693 194.589 49.4219 196.53 49.3906H350C350.919 49.375 351.83 49.5537 352.675 49.9151C353.52 50.2764 354.278 50.8122 354.902 51.4873C355.525 52.1624 355.998 52.9615 356.291 53.8324C356.584 54.7033 356.689 55.6262 356.6 56.5406L337.26 304.781C337.085 306.715 336.201 308.517 334.777 309.838C333.354 311.16 331.492 311.909 329.55 311.941Z" fill="#2E353A"/>
<path opacity="0.2" d="M329.55 311.941H176.06C175.141 311.955 174.23 311.775 173.386 311.412C172.541 311.05 171.783 310.513 171.161 309.837C170.539 309.161 170.067 308.361 169.775 307.489C169.484 306.618 169.38 305.695 169.47 304.781L188.82 56.5406C188.997 54.6078 189.883 52.8088 191.306 51.489C192.729 50.1693 194.589 49.4219 196.53 49.3906H350C350.919 49.375 351.83 49.5537 352.675 49.9151C353.52 50.2764 354.278 50.8122 354.902 51.4873C355.525 52.1624 355.998 52.9615 356.291 53.8324C356.584 54.7033 356.689 55.6262 356.6 56.5406L337.26 304.781C337.085 306.715 336.201 308.517 334.777 309.838C333.354 311.16 331.492 311.909 329.55 311.941Z" fill="white"/>
<path d="M308.76 65.62H235.26C234.942 65.6188 234.627 65.5511 234.337 65.4212C234.047 65.2913 233.787 65.102 233.574 64.8656C233.361 64.6292 233.2 64.3509 233.101 64.0485C233.002 63.7462 232.968 63.4265 233 63.11L234.13 48.6C234.194 47.9242 234.504 47.2956 235.003 46.8344C235.501 46.3732 236.151 46.1117 236.83 46.1H310.33C310.651 46.0941 310.969 46.1563 311.265 46.2826C311.56 46.4089 311.825 46.5964 312.042 46.8327C312.26 47.069 312.424 47.3486 312.526 47.6533C312.627 47.9579 312.663 48.2806 312.63 48.6L311.5 63.11C311.44 63.7953 311.125 64.4331 310.618 64.8978C310.111 65.3624 309.448 65.6201 308.76 65.62Z" fill="#407BFF"/>
<path opacity="0.2" d="M308.76 65.62H235.26C234.942 65.6188 234.627 65.5511 234.337 65.4212C234.047 65.2913 233.787 65.102 233.574 64.8656C233.361 64.6292 233.2 64.3509 233.101 64.0485C233.002 63.7462 232.968 63.4265 233 63.11L234.13 48.6C234.194 47.9242 234.504 47.2956 235.003 46.8344C235.501 46.3732 236.151 46.1117 236.83 46.1H310.33C310.651 46.0941 310.969 46.1563 311.265 46.2826C311.56 46.4089 311.825 46.5964 312.042 46.8327C312.26 47.069 312.424 47.3486 312.526 47.6533C312.627 47.9579 312.663 48.2806 312.63 48.6L311.5 63.11C311.44 63.7953 311.125 64.4331 310.618 64.8978C310.111 65.3624 309.448 65.6201 308.76 65.62Z" fill="black"/>
<path d="M278.93 50.6103H267.43L267.87 44.8503C268.013 43.2961 268.725 41.8495 269.869 40.7882C271.014 39.7269 272.51 39.1258 274.07 39.1003C274.808 39.0883 275.541 39.2325 276.22 39.5234C276.898 39.8143 277.508 40.2453 278.008 40.7882C278.508 41.3311 278.889 41.9736 279.123 42.6737C279.358 43.3737 279.442 44.1155 279.37 44.8503L278.93 50.6103Z" fill="#407BFF"/>
<path opacity="0.4" d="M278.93 50.6103H267.43L267.87 44.8503C268.013 43.2961 268.725 41.8495 269.869 40.7882C271.014 39.7269 272.51 39.1258 274.07 39.1003C274.808 39.0883 275.541 39.2325 276.22 39.5234C276.898 39.8143 277.508 40.2453 278.008 40.7882C278.508 41.3311 278.889 41.9736 279.123 42.6737C279.358 43.3737 279.442 44.1155 279.37 44.8503L278.93 50.6103Z" fill="white"/>
<path d="M327.48 301.58H179.74L198.59 59.75H346.33L327.48 301.58Z" fill="white"/>
<path d="M295.09 72.4002H247.87C247.114 72.4122 246.363 72.2644 245.668 71.9663C244.973 71.6683 244.349 71.2268 243.836 70.6707C243.324 70.1147 242.934 69.4566 242.694 68.7397C242.453 68.0227 242.367 67.2629 242.44 66.5102L243.03 58.8302C243.18 57.237 243.911 55.7548 245.084 54.6665C246.257 53.5782 247.79 52.9601 249.39 52.9302H296.6C297.357 52.9196 298.107 53.0688 298.802 53.368C299.497 53.6671 300.121 54.1096 300.634 54.6664C301.146 55.2232 301.535 55.8819 301.776 56.5994C302.017 57.3169 302.103 58.077 302.03 58.8302L301.44 66.5102C301.29 68.1008 300.56 69.5805 299.389 70.6669C298.217 71.7533 296.687 72.3704 295.09 72.4002ZM249.23 54.9302C248.172 54.948 247.158 55.3561 246.383 56.0759C245.608 56.7958 245.126 57.7767 245.03 58.8302L244.44 66.5102C244.391 67.0053 244.446 67.5053 244.603 67.9774C244.76 68.4496 245.015 68.8833 245.351 69.2504C245.687 69.6174 246.096 69.9095 246.553 70.1076C247.009 70.3058 247.502 70.4055 248 70.4002H295.22C296.276 70.3826 297.289 69.976 298.064 69.2582C298.839 68.5404 299.322 67.562 299.42 66.5102L300.01 58.8302C300.059 58.3329 300.003 57.8308 299.845 57.3568C299.687 56.8827 299.43 56.4474 299.092 56.0793C298.754 55.7111 298.343 55.4185 297.884 55.2205C297.425 55.0225 296.93 54.9236 296.43 54.9302H249.23Z" fill="#407BFF"/>
<g opacity="0.4">
<path d="M295.09 72.4002H247.87C247.114 72.4122 246.363 72.2644 245.668 71.9663C244.973 71.6683 244.349 71.2268 243.836 70.6707C243.324 70.1147 242.934 69.4566 242.694 68.7397C242.453 68.0227 242.367 67.2629 242.44 66.5102L243.03 58.8302C243.18 57.237 243.911 55.7548 245.084 54.6665C246.257 53.5782 247.79 52.9601 249.39 52.9302H296.6C297.357 52.9196 298.107 53.0688 298.802 53.368C299.497 53.6671 300.121 54.1096 300.634 54.6664C301.146 55.2232 301.535 55.8819 301.776 56.5994C302.017 57.3169 302.103 58.077 302.03 58.8302L301.44 66.5102C301.29 68.1008 300.56 69.5805 299.389 70.6669C298.217 71.7533 296.687 72.3704 295.09 72.4002ZM249.23 54.9302C248.172 54.948 247.158 55.3561 246.383 56.0759C245.608 56.7958 245.126 57.7767 245.03 58.8302L244.44 66.5102C244.391 67.0053 244.446 67.5053 244.603 67.9774C244.76 68.4496 245.015 68.8833 245.351 69.2504C245.687 69.6174 246.096 69.9095 246.553 70.1076C247.009 70.3058 247.502 70.4055 248 70.4002H295.22C296.276 70.3826 297.289 69.976 298.064 69.2582C298.839 68.5404 299.322 67.562 299.42 66.5102L300.01 58.8302C300.059 58.3329 300.003 57.8308 299.845 57.3568C299.687 56.8827 299.43 56.4474 299.092 56.0793C298.754 55.7111 298.343 55.4185 297.884 55.2205C297.425 55.0225 296.93 54.9236 296.43 54.9302H249.23Z" fill="white"/>
</g>
<path d="M292.65 57.36H252.65C252.475 57.3619 252.301 57.3274 252.14 57.2585C251.979 57.1896 251.835 57.088 251.715 56.96C251.596 56.8321 251.504 56.6806 251.446 56.5153C251.389 56.35 251.366 56.1745 251.38 56L251.69 52C251.727 51.6285 251.899 51.2836 252.174 51.0309C252.449 50.7782 252.807 50.6355 253.18 50.63H293.18C293.356 50.6278 293.53 50.6626 293.691 50.7321C293.852 50.8017 293.997 50.9045 294.116 51.0337C294.235 51.163 294.325 51.3158 294.381 51.4823C294.437 51.6488 294.457 51.8252 294.44 52L294.13 56C294.093 56.3688 293.922 56.7112 293.649 56.962C293.376 57.2128 293.021 57.3544 292.65 57.36Z" fill="#407BFF"/>
<path d="M326.52 95.0804H214.52L215.47 82.8604H327.47L326.52 95.0804Z" fill="#407BFF"/>
<path d="M281.19 112.091H206.63L206.88 108.931H281.44L281.19 112.091Z" fill="#407BFF"/>
<path d="M280.48 121.19H205.92L206.17 118.03H280.73L280.48 121.19Z" fill="#407BFF"/>
<path d="M279.77 130.28H205.22L205.46 127.13H280.02L279.77 130.28Z" fill="#407BFF"/>
<path d="M279.07 139.381H204.51L204.75 136.221H279.31L279.07 139.381Z" fill="#407BFF"/>
<path d="M327.99 139.381H297.57L299.94 108.931H330.36L327.99 139.381Z" fill="#407BFF"/>
<path d="M312.014 128.757L312.069 128.059C312.134 127.25 312.303 126.544 312.575 125.939C312.847 125.335 313.175 124.791 313.559 124.307C313.953 123.814 314.36 123.336 314.779 122.871C315.455 122.117 315.992 121.467 316.391 120.918C316.79 120.36 317.021 119.691 317.083 118.91C317.136 118.249 317.025 117.71 316.751 117.292C316.486 116.864 316.125 116.548 315.665 116.343C315.215 116.139 314.738 116.036 314.235 116.036C313.535 116.036 312.879 116.139 312.265 116.343C311.662 116.538 311.087 116.789 310.54 117.096L310.469 114.837C311.057 114.483 311.723 114.195 312.469 113.972C313.224 113.749 314.091 113.637 315.07 113.637C316.236 113.637 317.197 113.87 317.953 114.335C318.709 114.79 319.258 115.395 319.599 116.148C319.95 116.892 320.09 117.701 320.02 118.575C319.962 119.3 319.794 119.942 319.516 120.5C319.239 121.057 318.899 121.574 318.497 122.048C318.095 122.522 317.679 123.001 317.249 123.484C316.635 124.163 316.077 124.842 315.575 125.521C315.073 126.19 314.786 126.981 314.713 127.892L314.644 128.757H312.014ZM311.434 133.555L311.67 130.598H314.693L314.456 133.555H311.434Z" fill="white"/>
<path d="M277.6 158.16H203.04L203.29 155H277.85L277.6 158.16Z" fill="#407BFF"/>
<path d="M276.89 167.251H202.33L202.58 164.101H277.14L276.89 167.251Z" fill="#407BFF"/>
<path d="M276.18 176.35H201.62L201.87 173.19H276.43L276.18 176.35Z" fill="#407BFF"/>
<path d="M275.48 185.44H200.92L201.16 182.29H275.72L275.48 185.44Z" fill="#407BFF"/>
<path d="M324.4 185.44H293.98L296.35 155H326.77L324.4 185.44Z" fill="#407BFF"/>
<path d="M308.424 174.826L308.48 174.129C308.544 173.32 308.713 172.613 308.985 172.009C309.257 171.404 309.585 170.86 309.969 170.377C310.363 169.884 310.77 169.405 311.189 168.94C311.865 168.187 312.402 167.536 312.801 166.987C313.2 166.429 313.431 165.76 313.493 164.979C313.546 164.319 313.435 163.779 313.161 163.361C312.897 162.933 312.535 162.617 312.075 162.412C311.625 162.208 311.148 162.106 310.645 162.106C309.945 162.106 309.289 162.208 308.675 162.412C308.072 162.608 307.497 162.859 306.95 163.166L306.879 160.906C307.467 160.553 308.134 160.265 308.879 160.041C309.634 159.818 310.501 159.707 311.48 159.707C312.646 159.707 313.607 159.939 314.363 160.404C315.119 160.86 315.668 161.464 316.009 162.217C316.36 162.961 316.5 163.77 316.43 164.644C316.372 165.369 316.204 166.011 315.927 166.569C315.649 167.127 315.309 167.643 314.907 168.117C314.506 168.591 314.089 169.07 313.659 169.554C313.045 170.232 312.487 170.911 311.985 171.59C311.484 172.26 311.196 173.05 311.124 173.961L311.054 174.826H308.424ZM307.844 179.624L308.081 176.667H311.103L310.866 179.624H307.844Z" fill="white"/>
<path d="M274.01 204.221H199.45L199.7 201.061H274.26L274.01 204.221Z" fill="#407BFF"/>
<path d="M273.3 213.32H198.74L198.99 210.16H273.55L273.3 213.32Z" fill="#407BFF"/>
<path d="M272.59 222.411H198.03L198.28 219.261H272.84L272.59 222.411Z" fill="#407BFF"/>
<path d="M271.88 231.511H197.32L197.57 228.351H272.13L271.88 231.511Z" fill="#407BFF"/>
<path d="M320.81 231.511H290.39L292.76 201.061H323.18L320.81 231.511Z" fill="#407BFF"/>
<path d="M304.833 220.886L304.889 220.189C304.954 219.38 305.122 218.673 305.395 218.069C305.667 217.465 305.995 216.921 306.379 216.437C306.773 215.944 307.179 215.465 307.599 215.001C308.275 214.247 308.812 213.596 309.21 213.048C309.61 212.49 309.84 211.82 309.903 211.039C309.956 210.379 309.845 209.84 309.571 209.421C309.306 208.994 308.944 208.678 308.485 208.473C308.035 208.268 307.558 208.166 307.054 208.166C306.355 208.166 305.698 208.268 305.085 208.473C304.482 208.668 303.907 208.919 303.36 209.226L303.289 206.967C303.876 206.613 304.543 206.325 305.289 206.102C306.043 205.879 306.911 205.767 307.89 205.767C309.056 205.767 310.017 206 310.773 206.465C311.529 206.92 312.078 207.525 312.419 208.278C312.769 209.022 312.91 209.831 312.84 210.705C312.782 211.43 312.614 212.072 312.336 212.629C312.058 213.187 311.719 213.703 311.317 214.178C310.915 214.652 310.499 215.131 310.069 215.614C309.455 216.293 308.897 216.972 308.395 217.651C307.893 218.32 307.606 219.11 307.533 220.022L307.464 220.886H304.833ZM304.254 225.685L304.49 222.728H307.513L307.276 225.685H304.254Z" fill="white"/>
<path d="M270.42 250.29H195.86L196.11 247.13H270.67L270.42 250.29Z" fill="#407BFF"/>
<path d="M269.71 259.38H195.15L195.4 256.23H269.96L269.71 259.38Z" fill="#407BFF"/>
<path d="M269 268.48H194.44L194.69 265.32H269.25L269 268.48Z" fill="#407BFF"/>
<path d="M268.29 277.57H193.73L193.98 274.42H268.54L268.29 277.57Z" fill="#407BFF"/>
<path d="M317.22 277.57H286.8L289.17 247.13H319.59L317.22 277.57Z" fill="#407BFF"/>
<path d="M301.244 266.956L301.299 266.258C301.364 265.449 301.533 264.743 301.805 264.138C302.077 263.534 302.405 262.99 302.789 262.507C303.183 262.014 303.59 261.535 304.009 261.07C304.685 260.317 305.222 259.666 305.621 259.117C306.02 258.559 306.251 257.89 306.313 257.109C306.366 256.449 306.255 255.909 305.981 255.491C305.716 255.063 305.355 254.747 304.895 254.542C304.445 254.338 303.968 254.235 303.465 254.235C302.765 254.235 302.108 254.338 301.495 254.542C300.892 254.738 300.317 254.989 299.77 255.296L299.699 253.036C300.287 252.683 300.953 252.394 301.699 252.171C302.454 251.948 303.321 251.836 304.3 251.836C305.466 251.836 306.427 252.069 307.183 252.534C307.939 252.989 308.488 253.594 308.829 254.347C309.18 255.091 309.32 255.9 309.25 256.774C309.192 257.499 309.024 258.141 308.746 258.699C308.469 259.257 308.129 259.773 307.727 260.247C307.325 260.721 306.909 261.2 306.479 261.684C305.865 262.362 305.307 263.041 304.805 263.72C304.303 264.389 304.016 265.18 303.943 266.091L303.874 266.956H301.244ZM300.664 271.754L300.9 268.797H303.923L303.686 271.754H300.664Z" fill="white"/>
<path opacity="0.7" d="M326.52 95.0804H214.52L215.47 82.8604H327.47L326.52 95.0804Z" fill="white"/>
<path opacity="0.7" d="M281.19 112.091H206.63L206.88 108.931H281.44L281.19 112.091Z" fill="white"/>
<path opacity="0.7" d="M280.48 121.19H205.92L206.17 118.03H280.73L280.48 121.19Z" fill="white"/>
<path opacity="0.7" d="M279.77 130.28H205.22L205.46 127.13H280.02L279.77 130.28Z" fill="white"/>
<path opacity="0.7" d="M279.07 139.381H204.51L204.75 136.221H279.31L279.07 139.381Z" fill="white"/>
<path opacity="0.7" d="M327.99 139.381H297.57L299.94 108.931H330.36L327.99 139.381Z" fill="white"/>
<path opacity="0.7" d="M277.6 158.16H203.04L203.29 155H277.85L277.6 158.16Z" fill="white"/>
<path opacity="0.7" d="M276.89 167.251H202.33L202.58 164.101H277.14L276.89 167.251Z" fill="white"/>
<path opacity="0.7" d="M276.18 176.35H201.62L201.87 173.19H276.43L276.18 176.35Z" fill="white"/>
<path opacity="0.7" d="M275.48 185.44H200.92L201.16 182.29H275.72L275.48 185.44Z" fill="white"/>
<path opacity="0.7" d="M324.4 185.44H293.98L296.35 155H326.77L324.4 185.44Z" fill="white"/>
<path opacity="0.7" d="M274.01 204.221H199.45L199.7 201.061H274.26L274.01 204.221Z" fill="white"/>
<path opacity="0.7" d="M273.3 213.32H198.74L198.99 210.16H273.55L273.3 213.32Z" fill="white"/>
<path opacity="0.7" d="M272.59 222.411H198.03L198.28 219.261H272.84L272.59 222.411Z" fill="white"/>
<path opacity="0.7" d="M271.88 231.511H197.32L197.57 228.351H272.13L271.88 231.511Z" fill="white"/>
<path opacity="0.7" d="M320.81 231.511H290.39L292.76 201.061H323.18L320.81 231.511Z" fill="white"/>
<path opacity="0.7" d="M270.42 250.29H195.86L196.11 247.13H270.67L270.42 250.29Z" fill="white"/>
<path opacity="0.7" d="M269.71 259.38H195.15L195.4 256.23H269.96L269.71 259.38Z" fill="white"/>
<path opacity="0.7" d="M269 268.48H194.44L194.69 265.32H269.25L269 268.48Z" fill="white"/>
<path opacity="0.7" d="M268.29 277.57H193.73L193.98 274.42H268.54L268.29 277.57Z" fill="white"/>
<path opacity="0.7" d="M317.22 277.57H286.8L289.17 247.13H319.59L317.22 277.57Z" fill="white"/>
<path d="M147.89 186.08V213.62C147.878 219.054 145.768 224.274 142 228.19L116.29 255.08H130.85L157.55 228.8C159.541 226.842 161.124 224.507 162.205 221.932C163.287 219.357 163.846 216.593 163.85 213.8V186.08H147.89Z" fill="#407BFF"/>
<path opacity="0.4" d="M163.89 186.08V213.77C163.894 215.322 163.72 216.868 163.37 218.38C162.495 222.34 160.487 225.961 157.59 228.8L130.89 255.08H116.34L142 228.19C145.761 224.272 147.858 219.05 147.85 213.62V186.08H163.89Z" fill="white"/>
<path opacity="0.2" d="M163.89 186.08V213.77C163.894 215.322 163.72 216.868 163.37 218.38L147.89 212.13V186.13L163.89 186.08Z" fill="black"/>
<path d="M106.23 258.08L84.6904 340.14C84.494 340.884 84.0571 341.543 83.4476 342.013C82.8381 342.484 82.0902 342.739 81.3204 342.74H42.8304C42.5139 342.742 42.2013 342.67 41.9169 342.531C41.6325 342.392 41.384 342.19 41.1905 341.939C40.9971 341.689 40.864 341.397 40.8015 341.087C40.7391 340.776 40.7489 340.456 40.8304 340.15L62.3804 258.08H58.2404L37.0004 339.13C36.7649 340.028 36.7384 340.968 36.9231 341.878C37.1077 342.787 37.4985 343.642 38.0655 344.377C38.6324 345.112 39.3603 345.708 40.1933 346.117C41.0263 346.527 41.9421 346.74 42.8704 346.74H81.3204C82.9742 346.741 84.5819 346.194 85.8919 345.185C87.2018 344.175 88.1403 342.76 88.5604 341.16L110.36 258.08H106.23Z" fill="#407BFF"/>
<g opacity="0.4">
<path d="M106.23 258.08L84.6904 340.14C84.494 340.884 84.0571 341.543 83.4476 342.013C82.8381 342.484 82.0902 342.739 81.3204 342.74H42.8304C42.5139 342.742 42.2013 342.67 41.9169 342.531C41.6325 342.392 41.384 342.19 41.1905 341.939C40.9971 341.689 40.864 341.397 40.8015 341.087C40.7391 340.776 40.7489 340.456 40.8304 340.15L62.3804 258.08H58.2404L37.0004 339.13C36.7649 340.028 36.7384 340.968 36.9231 341.878C37.1077 342.787 37.4985 343.642 38.0655 344.377C38.6324 345.112 39.3603 345.708 40.1933 346.117C41.0263 346.527 41.9421 346.74 42.8704 346.74H81.3204C82.9742 346.741 84.5819 346.194 85.8919 345.185C87.2018 344.175 88.1403 342.76 88.5604 341.16L110.36 258.08H106.23Z" fill="white"/>
</g>
<path d="M115.04 346.74L91.4901 256.94L87.6201 257.96L110.9 346.74H115.04Z" fill="#407BFF"/>
<path d="M163.04 346.74L139.49 256.94L135.62 257.96L158.9 346.74H163.04Z" fill="#407BFF"/>
<g opacity="0.5">
<path d="M115.04 346.74L91.4901 256.94L87.6201 257.96L110.9 346.74H115.04Z" fill="white"/>
</g>
<g opacity="0.5">
<path d="M163.04 346.74L139.49 256.94L135.62 257.96L158.9 346.74H163.04Z" fill="white"/>
</g>
<path opacity="0.2" d="M58.2403 258.08H62.3803L59.1303 270.45L55.3003 269.28L58.2403 258.08Z" fill="black"/>
<path opacity="0.2" d="M91.4901 256.95L96.8401 277.36L92.3501 276L87.6201 257.96L91.4901 256.95Z" fill="black"/>
<path opacity="0.2" d="M106.23 258.08H110.36L103.58 283.98L99.7402 282.81L106.23 258.08Z" fill="black"/>
<path opacity="0.2" d="M148.94 293.23L144.43 291.85L135.62 258.21L139.49 257.11L148.94 293.23Z" fill="black"/>
<path d="M54.5902 259.45L35.8502 158.22L35.6002 156.69C35.4215 155.741 35.4544 154.764 35.6963 153.829C35.9383 152.894 36.3835 152.023 37.0002 151.28C37.5868 150.577 38.3234 150.015 39.1557 149.635C39.988 149.254 40.8951 149.064 41.8102 149.08H82.2402C84.1619 149.173 85.9979 149.904 87.4576 151.157C88.9174 152.41 89.9176 154.114 90.3002 156L90.5902 157.71L109.29 258.71L105.35 259.44L86.6002 158.13L86.3602 156.71C86.1521 155.744 85.6396 154.87 84.898 154.217C84.1564 153.563 83.2249 153.165 82.2402 153.08H41.7602C41.4316 153.067 41.1044 153.129 40.8031 153.261C40.5018 153.392 40.2341 153.59 40.0202 153.84C39.7866 154.145 39.6226 154.497 39.5397 154.872C39.4568 155.247 39.457 155.635 39.5402 156.01L39.8202 157.68L58.5302 258.68L54.5902 259.45Z" fill="#407BFF"/>
<g opacity="0.5">
<path d="M54.5902 259.45L35.8502 158.22L35.6002 156.69C35.4215 155.741 35.4544 154.764 35.6963 153.829C35.9383 152.894 36.3835 152.023 37.0002 151.28C37.5868 150.577 38.3234 150.015 39.1557 149.635C39.988 149.254 40.8951 149.064 41.8102 149.08H82.2402C84.1619 149.173 85.9979 149.904 87.4576 151.157C88.9174 152.41 89.9176 154.114 90.3002 156L90.5902 157.71L109.29 258.71L105.35 259.44L86.6002 158.13L86.3602 156.71C86.1521 155.744 85.6396 154.87 84.898 154.217C84.1564 153.563 83.2249 153.165 82.2402 153.08H41.7602C41.4316 153.067 41.1044 153.129 40.8031 153.261C40.5018 153.392 40.2341 153.59 40.0202 153.84C39.7866 154.145 39.6226 154.497 39.5397 154.872C39.4568 155.247 39.457 155.635 39.5402 156.01L39.8202 157.68L58.5302 258.68L54.5902 259.45Z" fill="white"/>
</g>
<path d="M62.77 249.41H139.7C141.026 249.41 142.298 249.937 143.236 250.875C144.173 251.812 144.7 253.084 144.7 254.41V261.1H57.77V254.41C57.77 253.084 58.2968 251.812 59.2345 250.875C60.1722 249.937 61.4439 249.41 62.77 249.41Z" fill="#407BFF"/>
<path d="M145.9 255.26H56.5701C55.46 255.26 54.5601 256.16 54.5601 257.27V259.09C54.5601 260.2 55.46 261.1 56.5701 261.1H145.9C147.01 261.1 147.91 260.2 147.91 259.09V257.27C147.91 256.16 147.01 255.26 145.9 255.26Z" fill="#407BFF"/>
<path opacity="0.6" d="M145.9 255.26H56.5701C55.46 255.26 54.5601 256.16 54.5601 257.27V259.09C54.5601 260.2 55.46 261.1 56.5701 261.1H145.9C147.01 261.1 147.91 260.2 147.91 259.09V257.27C147.91 256.16 147.01 255.26 145.9 255.26Z" fill="white"/>
<path d="M96.2201 199.08H45.3901L37.8101 158.08H88.6301L96.1501 198.7L96.2201 199.08Z" fill="#407BFF"/>
<path d="M146.22 111.71C146.22 111.71 139.83 96.8601 139.27 95.2801C138.71 93.7001 139.38 85.6501 138.89 84.2201C138.4 82.7901 131 81.8501 129.4 82.0001C127.8 82.1501 129.22 94.5901 129.87 95.5801C130.72 96.5855 131.676 97.4974 132.72 98.3001L138.37 115.3L146.22 111.71Z" fill="#B97964"/>
<path d="M113.86 139.72C118.22 140.41 136.07 142.98 140.06 140.33C143.28 138.18 134.2 103.33 134.2 103.33L142.28 100.04C142.28 100.04 161.45 142.25 151.21 151.9C146 156.8 131.39 158.04 110.36 158.04L113.86 139.72Z" fill="#407BFF"/>
<path opacity="0.8" d="M113.86 139.72C118.22 140.41 136.07 142.98 140.06 140.33C143.28 138.18 134.2 103.33 134.2 103.33L142.28 100.04C142.28 100.04 161.45 142.25 151.21 151.9C146 156.8 131.39 158.04 110.36 158.04L113.86 139.72Z" fill="white"/>
<path opacity="0.1" d="M121.28 157.94C118.18 158.03 114.87 158.07 111.39 158.07L114.39 146.58C117.64 149.699 120.016 153.616 121.28 157.94Z" fill="black"/>
<path d="M139.06 164.07L160.22 186.44" stroke="#2E353A" stroke-width="2" stroke-miterlimit="10"/>
<path d="M123.89 177.24C123.89 177.24 140.04 176.74 141.71 176.58C143.38 176.42 150.39 172.41 151.89 172.24C153.39 172.07 157.39 178.41 157.89 179.91C158.39 181.41 146.56 185.41 145.39 185.24C144.114 184.899 142.88 184.419 141.71 183.81L123.89 185.91V177.24Z" fill="#B97964"/>
<path d="M114.39 338.9L122.36 337.81L123.46 318.88L115.51 319.98L114.39 338.9Z" fill="#B97964"/>
<path d="M123 336.85L114 336.29C113.849 336.276 113.699 336.321 113.581 336.416C113.463 336.512 113.387 336.649 113.37 336.8L112.49 343.9C112.468 344.271 112.593 344.637 112.838 344.918C113.083 345.198 113.428 345.371 113.8 345.4C116.94 345.55 118.45 345.46 122.41 345.67C124.84 345.82 129.64 346.34 132.99 346.01C136.34 345.68 135.93 342.38 134.48 342.22C131.05 341.83 126.48 339.31 124.35 337.39C123.972 337.065 123.497 336.875 123 336.85Z" fill="#2E353A"/>
<path d="M125.72 338.39C124.999 338.33 124.288 338.189 123.6 337.97C123.562 337.965 123.528 337.948 123.502 337.92C123.477 337.893 123.462 337.857 123.46 337.82C123.458 337.785 123.466 337.75 123.482 337.718C123.497 337.687 123.521 337.66 123.55 337.64C123.81 337.47 126.18 336.07 127.15 336.51C127.258 336.561 127.35 336.64 127.419 336.738C127.487 336.837 127.529 336.951 127.54 337.07C127.588 337.247 127.586 337.434 127.535 337.611C127.484 337.787 127.385 337.946 127.25 338.07C126.799 338.369 126.252 338.483 125.72 338.39ZM126.99 336.88C126.47 336.64 125.1 337.23 124.13 337.77C125.55 338.14 126.6 338.16 127 337.77C127.084 337.687 127.144 337.583 127.176 337.469C127.207 337.355 127.209 337.235 127.18 337.12C127.173 337.061 127.153 337.005 127.12 336.956C127.086 336.907 127.042 336.867 126.99 336.84V336.88Z" fill="#407BFF"/>
<path d="M123.64 338H123.56C123.532 337.983 123.508 337.96 123.491 337.932C123.474 337.904 123.463 337.873 123.46 337.84C123.46 337.77 123.46 335.43 124.28 334.69C124.393 334.597 124.525 334.53 124.667 334.494C124.808 334.458 124.956 334.453 125.1 334.48C125.259 334.498 125.407 334.567 125.523 334.677C125.638 334.787 125.715 334.933 125.74 335.09C125.86 335.97 124.57 337.58 123.74 338C123.724 338.008 123.707 338.012 123.69 338.012C123.673 338.012 123.655 338.008 123.64 338ZM124.94 334.88C124.866 334.875 124.791 334.885 124.721 334.909C124.65 334.933 124.586 334.971 124.53 335.02C124.036 335.76 123.797 336.642 123.85 337.53C124.623 336.958 125.161 336.122 125.36 335.18C125.36 335.07 125.29 334.94 125.03 334.89L124.94 334.88Z" fill="#407BFF"/>
<path opacity="0.2" d="M115.51 319.98L123.46 318.89L122.83 329.71L114.89 330.41L115.51 319.98Z" fill="black"/>
<path d="M114.71 227.59L112.77 215.41L68.1099 212.74C68.1099 212.74 63.3599 238.08 67.0099 244.83C73.5199 256.83 108.63 250.83 118.9 251.98C112.76 277.09 113.36 326.16 113.36 326.16L128 327.28C128 327.28 139.29 274.4 141.57 249.28C143.14 232.33 129.09 232.75 114.71 227.59Z" fill="#2E353A"/>
<path d="M111.64 326.851L129.27 328.011L130.78 320.461L111.41 319.561L111.64 326.851Z" fill="#407BFF"/>
<path d="M132.77 331.83L140.79 332.42L145.81 314.13L137.8 313.55L132.77 331.83Z" fill="#B97964"/>
<path d="M141.58 331.61L132.89 329.19C132.747 329.143 132.591 329.154 132.456 329.221C132.321 329.289 132.218 329.407 132.17 329.55L129.83 336.31C129.78 336.49 129.767 336.678 129.79 336.863C129.813 337.049 129.873 337.227 129.966 337.389C130.059 337.551 130.184 337.693 130.332 337.806C130.48 337.92 130.649 338.003 130.83 338.05C133.83 338.85 135.36 339.05 139.19 340.12C141.54 340.76 146.12 342.27 149.47 342.65C152.82 343.03 153.1 339.71 151.72 339.25C148.44 338.16 144.52 334.74 142.81 332.42C142.504 332.019 142.07 331.733 141.58 331.61Z" fill="#2E353A"/>
<path d="M144 333.69C143.303 333.483 142.632 333.198 142 332.84C141.966 332.825 141.937 332.799 141.919 332.767C141.901 332.734 141.894 332.696 141.9 332.66C141.904 332.625 141.917 332.592 141.938 332.564C141.959 332.536 141.987 332.513 142.02 332.5C142.31 332.39 144.92 331.5 145.77 332.14C145.864 332.214 145.939 332.31 145.988 332.42C146.036 332.53 146.058 332.65 146.05 332.77C146.075 332.968 146.039 333.17 145.948 333.348C145.857 333.526 145.715 333.673 145.54 333.77C145.035 333.939 144.484 333.911 144 333.69ZM145.56 332.48C145.11 332.14 143.64 332.43 142.56 332.75C143.87 333.41 144.9 333.65 145.36 333.39C145.458 333.325 145.539 333.235 145.593 333.13C145.647 333.025 145.674 332.908 145.67 332.79C145.675 332.731 145.666 332.673 145.643 332.619C145.62 332.565 145.585 332.517 145.54 332.48H145.56Z" fill="#407BFF"/>
<path d="M142 332.85C141.988 332.857 141.974 332.861 141.96 332.861C141.946 332.861 141.932 332.857 141.92 332.85C141.907 332.824 141.901 332.795 141.901 332.765C141.901 332.736 141.907 332.707 141.92 332.68C141.92 332.62 142.38 330.31 143.37 329.77C143.501 329.709 143.645 329.678 143.79 329.678C143.935 329.678 144.078 329.709 144.21 329.77C144.364 329.817 144.497 329.915 144.587 330.048C144.678 330.18 144.721 330.34 144.71 330.5C144.65 331.39 143.05 332.69 142.15 332.93C142.12 332.935 142.088 332.93 142.061 332.916C142.034 332.901 142.013 332.878 142 332.85ZM143.93 330.07C143.858 330.05 143.783 330.045 143.709 330.055C143.635 330.065 143.563 330.091 143.5 330.13C142.9 330.45 142.5 331.71 142.31 332.44C143.13 332.06 144.21 331.04 144.31 330.44C144.31 330.33 144.31 330.18 144.04 330.08L143.93 330.07Z" fill="#407BFF"/>
<path opacity="0.2" d="M137.8 313.55L145.81 314.14L142.94 324.6L135.02 323.63L137.8 313.55Z" fill="black"/>
<path d="M148.53 323.31L134.41 319.16C134.41 319.16 142.84 271.58 151.41 255.08C150.77 254.87 149.92 254.6 148.87 254.29C146.98 253.72 144.47 253.01 141.52 252.19C121 246.5 79.3896 235.83 79.3896 235.83L98.3896 218.1C98.3896 218.1 174.07 229.64 175.64 249.58C176.39 259.17 148.53 323.31 148.53 323.31Z" fill="#2E353A"/>
<path d="M132.59 319.47L149.59 324.28L152.64 317.21L133.88 312.29L132.59 319.47Z" fill="#407BFF"/>
<path opacity="0.2" d="M148.85 254.29C146.96 253.72 144.45 253.01 141.5 252.19C142.09 247.35 142.1 241.8 139.77 238.97C135.14 233.33 123.23 230.02 116.45 228.82C110.78 227.82 91.73 225.82 91.73 225.82C91.73 225.82 116.45 223.45 141.73 230.82C154.21 234.48 151.78 246.69 148.85 254.29Z" fill="black"/>
<path d="M113.86 139.72C113.86 139.72 120.34 163.72 112.77 215.41C98.6598 215.11 74.9498 214.56 68.0798 214.41C67.9098 207.21 73.2198 171.93 67.0098 137.9C71.481 137.124 76.0031 136.676 80.5398 136.56C87.1792 136.318 93.827 136.462 100.45 136.99C104.984 137.549 109.468 138.462 113.86 139.72Z" fill="#407BFF"/>
<path opacity="0.7" d="M113.86 139.72C113.86 139.72 120.34 163.72 112.77 215.41C98.6598 215.11 74.9498 214.56 68.0798 214.41C67.9098 207.21 73.2198 171.93 67.0098 137.9C71.481 137.124 76.0031 136.676 80.5398 136.56C87.1792 136.318 93.827 136.462 100.45 136.99C104.984 137.549 109.468 138.462 113.86 139.72Z" fill="white"/>
<path opacity="0.1" d="M82.72 181.75C78.72 180.87 73.95 177.02 70.02 173.22C70.02 166.46 69.69 159.27 68.96 151.94C74.52 160.17 89.58 183.26 82.72 181.75Z" fill="black"/>
<path d="M66.9998 137.9C51.7098 143.41 78.5498 184.81 86.8798 189.08C95.2098 193.35 137.55 184.41 137.55 184.41L135.88 175.85C135.88 175.85 98.4198 176.85 94.9698 175.93C91.5198 175.01 83.3198 157.41 78.5998 149.08C75.9797 144.246 71.9277 140.341 66.9998 137.9Z" fill="#407BFF"/>
<path opacity="0.8" d="M66.9998 137.9C51.7098 143.41 78.5498 184.81 86.8798 189.08C95.2098 193.35 137.55 184.41 137.55 184.41L135.88 175.85C135.88 175.85 98.4198 176.85 94.9698 175.93C91.5198 175.01 83.3198 157.41 78.5998 149.08C75.9797 144.246 71.9277 140.341 66.9998 137.9Z" fill="white"/>
<path d="M132.89 175.08L135.06 186.44L139.06 185.08L137.56 175.08H132.89Z" fill="#407BFF"/>
<path opacity="0.7" d="M132.89 175.08L135.06 186.44L139.06 185.08L137.56 175.08H132.89Z" fill="white"/>
<path d="M133.97 105.85L144.73 101.6L142.63 97.9199L133.09 101.27L133.97 105.85Z" fill="#407BFF"/>
<path opacity="0.7" d="M133.97 105.85L144.73 101.6L142.63 97.9199L133.09 101.27L133.97 105.85Z" fill="white"/>
<path opacity="0.1" d="M78.1299 136.65C78.1299 136.65 78.4099 141.33 87.5899 145.83L93.9299 141.24C93.9299 141.24 95.7399 153 96.8799 161.7C96.8799 161.7 96.7999 147.7 95.5999 142.33L100.45 144.05C100.45 144.05 96.3099 136.95 89.2899 135.33C82.2699 133.71 78.1299 136.65 78.1299 136.65Z" fill="black"/>
<path d="M82.9998 114.24C84.1198 120.67 85.1198 132.43 80.5498 136.61L93.9398 140.33L100.45 137C93.3398 135.14 93.6398 129.84 94.9898 124.89L82.9998 114.24Z" fill="#B97964"/>
<path opacity="0.2" d="M87.88 118.6L94.98 124.93C94.6504 126.081 94.4195 127.259 94.29 128.45C91.57 128 87.89 124.92 87.66 122.06C87.5177 120.903 87.5923 119.729 87.88 118.6Z" fill="black"/>
<path d="M92.4597 96.3696C89.5497 99.5296 92.0597 103.14 101.35 107.53C103.56 102.66 102.21 94.5296 99.2097 93.1096C96.2097 91.6896 94.9997 93.6296 92.4597 96.3696Z" fill="#2E353A"/>
<path d="M79.0896 106.31C81.4496 114.68 82.4096 119.69 87.6296 123.12C95.4896 128.27 105.12 122.12 105.31 113.21C105.47 105.21 101.59 92.86 92.5596 91.29C90.5716 90.9321 88.5252 91.0883 86.6146 91.7438C84.704 92.3992 82.9927 93.5322 81.6431 95.0351C80.2935 96.5379 79.3505 98.3608 78.9036 100.331C78.4566 102.301 78.5207 104.352 79.0896 106.29V106.31Z" fill="#B97964"/>
<path d="M92.2596 105.89C92.4096 106.58 92.8996 107.06 93.3496 106.96C93.7996 106.86 94.0396 106.23 93.8896 105.54C93.7396 104.85 93.2596 104.37 92.8096 104.46C92.3596 104.55 92.1596 105.2 92.2596 105.89Z" fill="#2E353A"/>
<path d="M100.11 104.2C100.26 104.89 100.75 105.37 101.2 105.27C101.65 105.17 101.9 104.54 101.75 103.84C101.6 103.14 101.11 102.67 100.66 102.77C100.21 102.87 99.9998 103.51 100.11 104.2Z" fill="#2E353A"/>
<path d="M97.6196 105.08C98.8999 107.013 100.441 108.759 102.2 110.27C101.797 110.713 101.301 111.062 100.748 111.292C100.195 111.522 99.5979 111.627 98.9996 111.6L97.6196 105.08Z" fill="#A24E3F"/>
<path d="M89.5797 103.88C89.5054 103.908 89.4244 103.912 89.3475 103.893C89.2707 103.873 89.2015 103.831 89.1494 103.771C89.0972 103.711 89.0645 103.637 89.0557 103.558C89.0468 103.479 89.0622 103.4 89.0997 103.33C89.3576 102.729 89.7553 102.199 90.2598 101.783C90.7642 101.367 91.3608 101.078 91.9997 100.94C92.051 100.93 92.1038 100.93 92.155 100.941C92.2061 100.952 92.2546 100.973 92.2975 101.002C92.3404 101.032 92.3769 101.07 92.4047 101.115C92.4326 101.159 92.4513 101.208 92.4597 101.26C92.4693 101.368 92.4389 101.475 92.3743 101.562C92.3098 101.648 92.2156 101.708 92.1097 101.73C91.6021 101.842 91.1287 102.074 90.7287 102.407C90.3287 102.739 90.0136 103.162 89.8097 103.64C89.7892 103.693 89.7583 103.742 89.7188 103.783C89.6794 103.824 89.6321 103.857 89.5797 103.88Z" fill="#2E353A"/>
<path d="M103.11 100.78C103.033 100.797 102.953 100.792 102.878 100.765C102.804 100.739 102.739 100.692 102.69 100.63C102.38 100.209 101.975 99.868 101.507 99.635C101.039 99.4019 100.522 99.2837 99.9998 99.2901C99.8973 99.2875 99.7992 99.2475 99.7241 99.1775C99.649 99.1076 99.6021 99.0126 99.5923 98.9105C99.5824 98.8084 99.6103 98.7062 99.6707 98.6232C99.731 98.5402 99.8196 98.4822 99.9198 98.4601C100.579 98.445 101.233 98.5879 101.826 98.8766C102.419 99.1654 102.935 99.5917 103.33 100.12C103.364 100.163 103.389 100.211 103.404 100.264C103.418 100.316 103.423 100.371 103.416 100.425C103.41 100.479 103.393 100.531 103.366 100.578C103.339 100.625 103.303 100.667 103.26 100.7C103.215 100.735 103.164 100.763 103.11 100.78Z" fill="#2E353A"/>
<path d="M80.8396 98.06C85.0996 98.56 85.5396 102.94 81.3396 112.31C76.4896 110.05 72.2196 102.99 73.5896 99.97C74.9596 96.95 77.1196 97.63 80.8396 98.06Z" fill="#2E353A"/>
<path d="M76.5197 114C77.032 114.956 77.7276 115.801 78.5666 116.487C79.4057 117.173 80.3718 117.688 81.4097 118C84.1897 118.81 85.6097 116.33 84.8697 113.69C84.1997 111.31 81.9397 108.02 79.1397 108.37C76.3397 108.72 75.2597 111.6 76.5197 114Z" fill="#B97964"/>
<path d="M74 99.2705C74 99.2705 71.89 96.5505 76 91.1005C80.11 85.6505 90.15 84.0005 97.85 85.4905C105.55 86.9805 100.97 95.4905 98.22 96.9105L98.56 95.5805C95.6167 97.1161 92.3758 97.9962 89.06 98.1605L90.58 96.7405C90.58 96.7405 78.47 99.8805 74 99.2705Z" fill="#2E353A"/>
<path d="M98.5196 113.9C98.3447 114.928 98.2478 115.967 98.2296 117.01L97.6896 117.09C95.2096 117.41 93.9596 116.75 93.3196 115.91C93.0161 115.496 92.814 115.016 92.7296 114.51C92.6884 114.221 92.6884 113.928 92.7296 113.64C94.3509 114.119 96.0565 114.241 97.7296 114C98.1896 114 98.5196 113.9 98.5196 113.9Z" fill="#2E353A"/>
<path d="M97.6696 114L97.5596 114.91C95.2296 115.22 93.5596 115.12 92.7296 114.51C92.6884 114.221 92.6884 113.928 92.7296 113.64C94.3319 114.11 96.0161 114.233 97.6696 114Z" fill="white"/>
<path d="M97.6898 117.09C95.2098 117.41 93.9598 116.75 93.3198 115.91C94.2598 115.804 95.2112 115.865 96.1298 116.09C96.7423 116.251 97.2884 116.601 97.6898 117.09Z" fill="#A24E3F"/>
<path d="M82.8799 132.65C82.8799 132.65 90.0999 138.08 93.9299 139.33C93.9299 139.33 95.7099 135.98 94.9299 133.23L100.45 137C101.065 139.293 101.065 141.708 100.45 144L93.9299 140.28L87.7699 144.78C87.7699 144.78 78.6499 142.14 78.1299 136.6L82.8799 132.65Z" fill="#407BFF"/>
<path opacity="0.8" d="M82.8799 132.65C82.8799 132.65 90.0999 138.08 93.9299 139.33C93.9299 139.33 95.7099 135.98 94.9299 133.23L100.45 137C101.065 139.293 101.065 141.708 100.45 144L93.9299 140.28L87.7699 144.78C87.7699 144.78 78.6499 142.14 78.1299 136.6L82.8799 132.65Z" fill="white"/>
<path d="M202.06 183.94H102.39C101.744 183.94 101.22 184.464 101.22 185.11V188.04C101.22 188.687 101.744 189.21 102.39 189.21H202.06C202.706 189.21 203.23 188.687 203.23 188.04V185.11C203.23 184.464 202.706 183.94 202.06 183.94Z" fill="#407BFF"/>
<path opacity="0.5" d="M202.89 185V187.93C202.89 188.58 202.71 189.1 202.07 189.1H102.39C101.74 189.1 100.89 188.58 100.89 187.93V185C100.89 184.36 101.74 184.1 102.39 184.1H202.07C202.71 184.08 202.89 184.34 202.89 185Z" fill="white"/>
<path opacity="0.2" d="M142.89 185V187.93C142.89 188.58 142.67 189.1 142.03 189.1H102.39C101.74 189.1 100.89 188.58 100.89 187.93V185C100.89 184.36 101.74 184.1 102.39 184.1H142C142.67 184.08 142.89 184.34 142.89 185Z" fill="black"/>
<path d="M120.24 38.2105C119.379 35.0871 117.739 32.2336 115.473 29.9175C113.208 27.6014 110.391 25.8986 107.288 24.9688C104.184 24.039 100.895 23.9126 97.7296 24.6016C94.5639 25.2905 91.625 26.7722 89.1885 28.9076C86.752 31.043 84.8978 33.7623 83.7997 36.8104C82.7017 39.8584 82.3957 43.1354 82.9106 46.3341C83.4254 49.5327 84.7442 52.5482 86.7433 55.0978C88.7423 57.6474 91.3562 59.6474 94.3397 60.9105C95.6174 61.4333 96.6475 62.424 97.2197 63.6805L97.8797 65.1605L116.28 60.1605L116.1 58.5605C115.962 57.173 116.351 55.7846 117.19 54.6705C118.906 52.3342 120.072 49.6401 120.6 46.7898C121.128 43.9394 121.005 41.0065 120.24 38.2105Z" fill="#407BFF"/>
<path d="M103.89 65.2003C103.89 65.2003 101.12 56.5004 96.2197 52.6604L98.9397 51.9203L99.1497 47.7504L103.58 54.1604L103.22 46.3604L107.59 53.4704L108.03 49.4704L111.9 48.4104C109.782 53.1691 109.403 58.5207 110.83 63.5303" stroke="white" stroke-linecap="round" stroke-linejoin="round"/>
<path d="M107.37 63.7396C104.11 64.6296 102.29 68.3696 103.31 72.0996C104.33 75.8296 107.79 78.0996 111.05 77.2496C114.31 76.3996 116.12 72.6196 115.11 68.8896C114.1 65.1596 110.62 62.8496 107.37 63.7396Z" fill="#2E353A"/>
<path d="M113.65 73.8199L107.09 75.6099C105.521 76.0358 103.85 75.853 102.411 75.0982C100.972 74.3433 99.871 73.0723 99.3297 71.5399L97.1797 65.4799C97.1381 65.3593 97.1215 65.2314 97.131 65.1041C97.1404 64.9768 97.1757 64.8527 97.2347 64.7395C97.2936 64.6263 97.375 64.5263 97.4739 64.4455C97.5727 64.3648 97.687 64.3051 97.8097 64.2699L115.9 59.3399C116.023 59.3059 116.151 59.2979 116.278 59.3163C116.404 59.3347 116.525 59.3792 116.633 59.4469C116.741 59.5146 116.834 59.604 116.906 59.7096C116.978 59.8151 117.027 59.9344 117.05 60.0599L118.28 66.3799C118.587 67.9752 118.281 69.6276 117.422 71.0069C116.564 72.3862 115.217 73.3908 113.65 73.8199Z" fill="#407BFF"/>
<path opacity="0.4" d="M113.65 73.8199L107.09 75.6099C105.521 76.0358 103.85 75.853 102.411 75.0982C100.972 74.3433 99.871 73.0723 99.3297 71.5399L97.1797 65.4799C97.1381 65.3593 97.1215 65.2314 97.131 65.1041C97.1404 64.9768 97.1757 64.8527 97.2347 64.7395C97.2936 64.6263 97.375 64.5263 97.4739 64.4455C97.5727 64.3648 97.687 64.3051 97.8097 64.2699L115.9 59.3399C116.023 59.3059 116.151 59.2979 116.278 59.3163C116.404 59.3347 116.525 59.3792 116.633 59.4469C116.741 59.5146 116.834 59.604 116.906 59.7096C116.978 59.8151 117.027 59.9344 117.05 60.0599L118.28 66.3799C118.587 67.9752 118.281 69.6276 117.422 71.0069C116.564 72.3862 115.217 73.3908 113.65 73.8199Z" fill="white"/>
<path d="M76.2698 57.33C74.4782 57.0013 72.6612 56.8306 70.8398 56.82C69.9341 56.8096 69.0288 56.8597 68.1298 56.97C67.6798 57.04 67.2298 57.09 66.7998 57.2C66.5798 57.26 66.3598 57.29 66.1498 57.37L65.5098 57.57L64.7898 57.8L65.2198 57.17C66.4405 55.3789 67.4064 53.4269 68.0898 51.37C68.43 50.3497 68.6842 49.3027 68.8498 48.24C68.9296 47.7132 68.9796 47.1824 68.9998 46.65C69.0299 46.1204 69.0299 45.5896 68.9998 45.06C68.9623 44.5356 68.8887 44.0144 68.7798 43.5L68.5898 42.73L68.3098 42C68.1323 41.5097 67.9149 41.0348 67.6598 40.58C67.414 40.1181 67.1367 39.6737 66.8298 39.25C66.5179 38.8358 66.1841 38.4385 65.8298 38.06L65.2798 37.5L64.6498 37C64.2481 36.6443 63.8275 36.3104 63.3898 36C62.9598 35.7 62.4898 35.43 62.0498 35.15L61.0498 34.48L62.1498 33.95C62.6898 33.7 63.2498 33.38 63.7798 33.07C64.3098 32.76 64.8398 32.41 65.3598 32.07C66.3882 31.3643 67.3671 30.5891 68.2898 29.75C68.7398 29.33 69.1798 28.89 69.6098 28.44C70.0398 27.99 70.4198 27.52 70.7998 27.04C71.1798 26.56 71.5298 26.04 71.7998 25.53C72.1249 25.0165 72.4155 24.482 72.6698 23.93C72.934 23.3894 73.1612 22.8314 73.3498 22.26L73.6098 21.39L73.7998 20.51C73.9119 19.9193 73.9788 19.3209 73.9998 18.72C74.0398 18.1207 74.0398 17.5193 73.9998 16.92C73.9407 16.3185 73.8472 15.7208 73.7198 15.13L73.5198 14.25L73.2398 13.38C73.0698 12.79 72.7998 12.24 72.5798 11.67C72.3598 11.1 71.9998 10.56 71.7398 10L70.3098 7.06L73.0498 8.82C73.5298 9.13 74.0498 9.45 74.6198 9.74C75.1898 10.03 75.7198 10.31 76.2798 10.56C77.3933 11.0819 78.543 11.523 79.7198 11.88C80.3098 12.06 80.8998 12.22 81.4898 12.35C82.0798 12.48 82.6798 12.58 83.2798 12.65C83.874 12.7179 84.4717 12.7513 85.0698 12.75C85.6616 12.7537 86.253 12.7169 86.8398 12.64L87.6998 12.48L88.5498 12.26C89.0987 12.0798 89.6335 11.8592 90.1498 11.6C90.4054 11.4689 90.6526 11.322 90.8898 11.16C91.1424 11.0211 91.3803 10.8569 91.5998 10.67C92.0586 10.3128 92.4929 9.9253 92.8998 9.51C93.2988 9.07669 93.6664 8.61552 93.9998 8.13C94.3696 7.65178 94.7038 7.14709 94.9998 6.62C95.3098 6.11 95.5198 5.53 95.7898 4.99C96.0598 4.45 96.2198 3.85 96.4398 3.28L97.6498 0L98.2698 3.42C98.3745 3.97936 98.5182 4.5307 98.6998 5.07C98.8723 5.62897 99.0794 6.17668 99.3198 6.71C99.7823 7.77784 100.373 8.78528 101.08 9.71C101.77 10.6283 102.584 11.4462 103.5 12.14C103.959 12.4838 104.443 12.7914 104.95 13.06C105.456 13.3297 105.981 13.5636 106.52 13.76C107.063 13.9462 107.617 14.0966 108.18 14.21C108.75 14.3338 109.328 14.4174 109.91 14.46C110.493 14.4951 111.077 14.4951 111.66 14.46C112.252 14.4515 112.843 14.4081 113.43 14.33C114.02 14.27 114.6 14.15 115.19 14.06L116.94 13.64L118.67 13.12L120.38 12.51L122.75 11.66L121.39 13.77C121.14 14.14 120.89 14.59 120.66 15.01C120.43 15.43 120.21 15.89 120.02 16.34C119.622 17.2384 119.311 18.1726 119.09 19.13C118.861 20.0659 118.75 21.0267 118.76 21.99C118.766 22.9409 118.931 23.884 119.25 24.78L119.51 25.44L119.84 26.06C120.087 26.4671 120.364 26.8549 120.67 27.22C120.978 27.5771 121.313 27.9114 121.67 28.22C122.039 28.5362 122.426 28.83 122.83 29.1C123.238 29.3781 123.662 29.6319 124.1 29.86C124.53 30.1 124.99 30.29 125.44 30.51L126.84 31.04L128.28 31.49L129.28 31.81L128.44 32.46C127.878 32.9297 127.357 33.4448 126.88 34C126.382 34.5232 125.917 35.0777 125.49 35.66C125.27 35.94 125.09 36.25 124.89 36.56C124.697 36.8622 124.523 37.1762 124.37 37.5C124.188 37.8168 124.041 38.152 123.93 38.5C123.79 38.8226 123.679 39.1573 123.6 39.5C123.53 39.85 123.41 40.19 123.37 40.55L123.27 41.62C123.27 41.97 123.27 42.33 123.33 42.69C123.345 43.0528 123.405 43.4122 123.51 43.76C123.572 44.1014 123.665 44.4362 123.79 44.76L124.2 45.76C124.333 46.1108 124.504 46.446 124.71 46.76L125.27 47.76L125.48 48.1H125.09C123.611 48.0988 122.138 48.2939 120.71 48.68C119.994 48.8696 119.303 49.1414 118.65 49.49C118.487 49.5771 118.33 49.6739 118.18 49.78C118.018 49.8693 117.867 49.9766 117.73 50.1C117.576 50.207 117.435 50.3312 117.31 50.47L116.92 50.88L117.28 50.45C117.407 50.3099 117.544 50.1796 117.69 50.06C117.821 49.9265 117.965 49.806 118.12 49.7C118.28 49.6 118.43 49.47 118.59 49.38C119.219 48.995 119.89 48.683 120.59 48.45C122.03 47.9823 123.527 47.7164 125.04 47.66L124.86 48.01L124.25 47.01C124.023 46.697 123.829 46.362 123.67 46.01L123.25 45C123.102 44.6441 122.985 44.276 122.9 43.9C122.783 43.5326 122.706 43.1538 122.67 42.77C122.67 42.39 122.58 42 122.56 41.61L122.62 40.45C122.62 40.06 122.76 39.69 122.82 39.31C122.896 38.9286 123.003 38.554 123.14 38.19C123.247 37.8168 123.391 37.455 123.57 37.11C123.714 36.7625 123.888 36.428 124.09 36.11C124.268 35.764 124.468 35.43 124.69 35.11C125.119 34.4703 125.597 33.8652 126.12 33.3C126.639 32.7184 127.204 32.18 127.81 31.69L128 32.69L126.49 32.26L125 31.65C124.51 31.43 124 31.25 123.54 31C123.062 30.7622 122.598 30.4985 122.15 30.21C121.695 29.9195 121.257 29.6023 120.84 29.26C120.418 28.9101 120.027 28.5254 119.67 28.11C119.297 27.7013 118.962 27.2595 118.67 26.79L118.26 26.06L117.93 25.3C117.536 24.2667 117.316 23.1752 117.28 22.07C117.24 20.9788 117.338 19.887 117.57 18.82C117.79 17.7705 118.105 16.7431 118.51 15.75C118.71 15.25 118.93 14.76 119.17 14.28C119.412 13.7932 119.679 13.3192 119.97 12.86L120.97 14.11L119.19 14.77L117.38 15.33L115.52 15.79C114.89 15.89 114.26 16.03 113.63 16.1C112.99 16.1885 112.346 16.2419 111.7 16.26C111.034 16.3021 110.366 16.3021 109.7 16.26C109.048 16.2183 108.4 16.1314 107.76 16C107.112 15.8781 106.474 15.711 105.85 15.5C105.224 15.2761 104.612 15.0122 104.02 14.71C103.433 14.4007 102.872 14.0463 102.34 13.65C101.274 12.8647 100.324 11.9321 99.5198 10.88C98.7191 9.84179 98.0476 8.71017 97.5198 7.51C97.2446 6.92125 97.0042 6.31688 96.7998 5.7C96.5874 5.06523 96.417 4.41716 96.2898 3.76L98.1598 3.91C97.9298 4.53 97.7198 5.16 97.4698 5.77C97.2198 6.38 96.9998 7 96.6798 7.55C96.3698 8.14999 96.0189 8.72802 95.6298 9.28C95.2378 9.84013 94.8102 10.3746 94.3498 10.88C93.8749 11.3781 93.3598 11.8363 92.8098 12.25C92.5401 12.4703 92.2524 12.6677 91.9498 12.84C91.6579 13.0325 91.3539 13.2062 91.0398 13.36C90.4218 13.6712 89.7797 13.9321 89.1198 14.14L88.1198 14.39C87.7898 14.46 87.4498 14.51 87.1198 14.56C86.4564 14.6431 85.7884 14.6831 85.1198 14.68C84.451 14.6813 83.7828 14.6379 83.1198 14.55C82.4498 14.47 81.7998 14.34 81.1198 14.2C80.4398 14.06 79.8298 13.88 79.1998 13.68C77.947 13.2878 76.7239 12.8066 75.5398 12.24C74.9398 11.97 74.3598 11.67 73.7798 11.35C73.193 11.0463 72.6223 10.7125 72.0698 10.35L73.3798 9.16C73.6698 9.76 73.9798 10.35 74.2398 10.96C74.4998 11.57 74.7698 12.19 74.9498 12.84L75.2498 13.84L75.4698 14.84C75.6054 15.5008 75.7056 16.1685 75.7698 16.84C75.8082 17.5061 75.8082 18.1739 75.7698 18.84C75.7388 19.5116 75.6586 20.1801 75.5298 20.84L75.3098 21.84L75.0098 22.84C74.7913 23.4798 74.5307 24.1045 74.2298 24.71C73.9402 25.3205 73.606 25.9087 73.2298 26.47C72.8598 27.03 72.4598 27.57 72.0498 28.09C71.6398 28.61 71.1798 29.09 70.7198 29.58C70.2598 30.07 69.7698 30.5 69.2798 30.93C68.2853 31.7942 67.2328 32.5894 66.1298 33.31C65.5831 33.6567 65.0231 33.99 64.4498 34.31C63.8698 34.63 63.2998 34.93 62.6698 35.21L62.7298 34C63.1998 34.31 63.7298 34.61 64.1498 34.94C64.5698 35.27 65.0698 35.61 65.4798 36.01L66.1198 36.58L66.7098 37.21C67.0945 37.6362 67.455 38.0836 67.7898 38.55C68.1195 39.0123 68.4168 39.4968 68.6798 40C68.9463 40.5107 69.1704 41.0425 69.3498 41.59L69.6098 42.42L69.7898 43.26C69.9012 43.8343 69.9714 44.4157 69.9998 45C70.0649 47.2657 69.6703 49.521 68.8398 51.63C68.4434 52.6613 67.9756 53.6638 67.4398 54.63C66.9119 55.6119 66.3137 56.5544 65.6498 57.45L65.3498 57.05L65.9998 56.9C66.2265 56.8357 66.4569 56.7856 66.6898 56.75C67.1398 56.65 67.5998 56.62 68.0598 56.56C68.9788 56.5001 69.9008 56.5001 70.8198 56.56C72.6562 56.6491 74.4806 56.9069 76.2698 57.33Z" fill="#407BFF"/>
<path opacity="0.7" d="M76.2698 57.33C74.4782 57.0013 72.6612 56.8306 70.8398 56.82C69.9341 56.8096 69.0288 56.8597 68.1298 56.97C67.6798 57.04 67.2298 57.09 66.7998 57.2C66.5798 57.26 66.3598 57.29 66.1498 57.37L65.5098 57.57L64.7898 57.8L65.2198 57.17C66.4405 55.3789 67.4064 53.4269 68.0898 51.37C68.43 50.3497 68.6842 49.3027 68.8498 48.24C68.9296 47.7132 68.9796 47.1824 68.9998 46.65C69.0299 46.1204 69.0299 45.5896 68.9998 45.06C68.9623 44.5356 68.8887 44.0144 68.7798 43.5L68.5898 42.73L68.3098 42C68.1323 41.5097 67.9149 41.0348 67.6598 40.58C67.414 40.1181 67.1367 39.6737 66.8298 39.25C66.5179 38.8358 66.1841 38.4385 65.8298 38.06L65.2798 37.5L64.6498 37C64.2481 36.6443 63.8275 36.3104 63.3898 36C62.9598 35.7 62.4898 35.43 62.0498 35.15L61.0498 34.48L62.1498 33.95C62.6898 33.7 63.2498 33.38 63.7798 33.07C64.3098 32.76 64.8398 32.41 65.3598 32.07C66.3882 31.3643 67.3671 30.5891 68.2898 29.75C68.7398 29.33 69.1798 28.89 69.6098 28.44C70.0398 27.99 70.4198 27.52 70.7998 27.04C71.1798 26.56 71.5298 26.04 71.7998 25.53C72.1249 25.0165 72.4155 24.482 72.6698 23.93C72.934 23.3894 73.1612 22.8314 73.3498 22.26L73.6098 21.39L73.7998 20.51C73.9119 19.9193 73.9788 19.3209 73.9998 18.72C74.0398 18.1207 74.0398 17.5193 73.9998 16.92C73.9407 16.3185 73.8472 15.7208 73.7198 15.13L73.5198 14.25L73.2398 13.38C73.0698 12.79 72.7998 12.24 72.5798 11.67C72.3598 11.1 71.9998 10.56 71.7398 10L70.3098 7.06L73.0498 8.82C73.5298 9.13 74.0498 9.45 74.6198 9.74C75.1898 10.03 75.7198 10.31 76.2798 10.56C77.3933 11.0819 78.543 11.523 79.7198 11.88C80.3098 12.06 80.8998 12.22 81.4898 12.35C82.0798 12.48 82.6798 12.58 83.2798 12.65C83.874 12.7179 84.4717 12.7513 85.0698 12.75C85.6616 12.7537 86.253 12.7169 86.8398 12.64L87.6998 12.48L88.5498 12.26C89.0987 12.0798 89.6335 11.8592 90.1498 11.6C90.4054 11.4689 90.6526 11.322 90.8898 11.16C91.1424 11.0211 91.3803 10.8569 91.5998 10.67C92.0586 10.3128 92.4929 9.9253 92.8998 9.51C93.2988 9.07669 93.6664 8.61552 93.9998 8.13C94.3696 7.65178 94.7038 7.14709 94.9998 6.62C95.3098 6.11 95.5198 5.53 95.7898 4.99C96.0598 4.45 96.2198 3.85 96.4398 3.28L97.6498 0L98.2698 3.42C98.3745 3.97936 98.5182 4.5307 98.6998 5.07C98.8723 5.62897 99.0794 6.17668 99.3198 6.71C99.7823 7.77784 100.373 8.78528 101.08 9.71C101.77 10.6283 102.584 11.4462 103.5 12.14C103.959 12.4838 104.443 12.7914 104.95 13.06C105.456 13.3297 105.981 13.5636 106.52 13.76C107.063 13.9462 107.617 14.0966 108.18 14.21C108.75 14.3338 109.328 14.4174 109.91 14.46C110.493 14.4951 111.077 14.4951 111.66 14.46C112.252 14.4515 112.843 14.4081 113.43 14.33C114.02 14.27 114.6 14.15 115.19 14.06L116.94 13.64L118.67 13.12L120.38 12.51L122.75 11.66L121.39 13.77C121.14 14.14 120.89 14.59 120.66 15.01C120.43 15.43 120.21 15.89 120.02 16.34C119.622 17.2384 119.311 18.1726 119.09 19.13C118.861 20.0659 118.75 21.0267 118.76 21.99C118.766 22.9409 118.931 23.884 119.25 24.78L119.51 25.44L119.84 26.06C120.087 26.4671 120.364 26.8549 120.67 27.22C120.978 27.5771 121.313 27.9114 121.67 28.22C122.039 28.5362 122.426 28.83 122.83 29.1C123.238 29.3781 123.662 29.6319 124.1 29.86C124.53 30.1 124.99 30.29 125.44 30.51L126.84 31.04L128.28 31.49L129.28 31.81L128.44 32.46C127.878 32.9297 127.357 33.4448 126.88 34C126.382 34.5232 125.917 35.0777 125.49 35.66C125.27 35.94 125.09 36.25 124.89 36.56C124.697 36.8622 124.523 37.1762 124.37 37.5C124.188 37.8168 124.041 38.152 123.93 38.5C123.79 38.8226 123.679 39.1573 123.6 39.5C123.53 39.85 123.41 40.19 123.37 40.55L123.27 41.62C123.27 41.97 123.27 42.33 123.33 42.69C123.345 43.0528 123.405 43.4122 123.51 43.76C123.572 44.1014 123.665 44.4362 123.79 44.76L124.2 45.76C124.333 46.1108 124.504 46.446 124.71 46.76L125.27 47.76L125.48 48.1H125.09C123.611 48.0988 122.138 48.2939 120.71 48.68C119.994 48.8696 119.303 49.1414 118.65 49.49C118.487 49.5771 118.33 49.6739 118.18 49.78C118.018 49.8693 117.867 49.9766 117.73 50.1C117.576 50.207 117.435 50.3312 117.31 50.47L116.92 50.88L117.28 50.45C117.407 50.3099 117.544 50.1796 117.69 50.06C117.821 49.9265 117.965 49.806 118.12 49.7C118.28 49.6 118.43 49.47 118.59 49.38C119.219 48.995 119.89 48.683 120.59 48.45C122.03 47.9823 123.527 47.7164 125.04 47.66L124.86 48.01L124.25 47.01C124.023 46.697 123.829 46.362 123.67 46.01L123.25 45C123.102 44.6441 122.985 44.276 122.9 43.9C122.783 43.5326 122.706 43.1538 122.67 42.77C122.67 42.39 122.58 42 122.56 41.61L122.62 40.45C122.62 40.06 122.76 39.69 122.82 39.31C122.896 38.9286 123.003 38.554 123.14 38.19C123.247 37.8168 123.391 37.455 123.57 37.11C123.714 36.7625 123.888 36.428 124.09 36.11C124.268 35.764 124.468 35.43 124.69 35.11C125.119 34.4703 125.597 33.8652 126.12 33.3C126.639 32.7184 127.204 32.18 127.81 31.69L128 32.69L126.49 32.26L125 31.65C124.51 31.43 124 31.25 123.54 31C123.062 30.7622 122.598 30.4985 122.15 30.21C121.695 29.9195 121.257 29.6023 120.84 29.26C120.418 28.9101 120.027 28.5254 119.67 28.11C119.297 27.7013 118.962 27.2595 118.67 26.79L118.26 26.06L117.93 25.3C117.536 24.2667 117.316 23.1752 117.28 22.07C117.24 20.9788 117.338 19.887 117.57 18.82C117.79 17.7705 118.105 16.7431 118.51 15.75C118.71 15.25 118.93 14.76 119.17 14.28C119.412 13.7932 119.679 13.3192 119.97 12.86L120.97 14.11L119.19 14.77L117.38 15.33L115.52 15.79C114.89 15.89 114.26 16.03 113.63 16.1C112.99 16.1885 112.346 16.2419 111.7 16.26C111.034 16.3021 110.366 16.3021 109.7 16.26C109.048 16.2183 108.4 16.1314 107.76 16C107.112 15.8781 106.474 15.711 105.85 15.5C105.224 15.2761 104.612 15.0122 104.02 14.71C103.433 14.4007 102.872 14.0463 102.34 13.65C101.274 12.8647 100.324 11.9321 99.5198 10.88C98.7191 9.84179 98.0476 8.71017 97.5198 7.51C97.2446 6.92125 97.0042 6.31688 96.7998 5.7C96.5874 5.06523 96.417 4.41716 96.2898 3.76L98.1598 3.91C97.9298 4.53 97.7198 5.16 97.4698 5.77C97.2198 6.38 96.9998 7 96.6798 7.55C96.3698 8.14999 96.0189 8.72802 95.6298 9.28C95.2378 9.84013 94.8102 10.3746 94.3498 10.88C93.8749 11.3781 93.3598 11.8363 92.8098 12.25C92.5401 12.4703 92.2524 12.6677 91.9498 12.84C91.6579 13.0325 91.3539 13.2062 91.0398 13.36C90.4218 13.6712 89.7797 13.9321 89.1198 14.14L88.1198 14.39C87.7898 14.46 87.4498 14.51 87.1198 14.56C86.4564 14.6431 85.7884 14.6831 85.1198 14.68C84.451 14.6813 83.7828 14.6379 83.1198 14.55C82.4498 14.47 81.7998 14.34 81.1198 14.2C80.4398 14.06 79.8298 13.88 79.1998 13.68C77.947 13.2878 76.7239 12.8066 75.5398 12.24C74.9398 11.97 74.3598 11.67 73.7798 11.35C73.193 11.0463 72.6223 10.7125 72.0698 10.35L73.3798 9.16C73.6698 9.76 73.9798 10.35 74.2398 10.96C74.4998 11.57 74.7698 12.19 74.9498 12.84L75.2498 13.84L75.4698 14.84C75.6054 15.5008 75.7056 16.1685 75.7698 16.84C75.8082 17.5061 75.8082 18.1739 75.7698 18.84C75.7388 19.5116 75.6586 20.1801 75.5298 20.84L75.3098 21.84L75.0098 22.84C74.7913 23.4798 74.5307 24.1045 74.2298 24.71C73.9402 25.3205 73.606 25.9087 73.2298 26.47C72.8598 27.03 72.4598 27.57 72.0498 28.09C71.6398 28.61 71.1798 29.09 70.7198 29.58C70.2598 30.07 69.7698 30.5 69.2798 30.93C68.2853 31.7942 67.2328 32.5894 66.1298 33.31C65.5831 33.6567 65.0231 33.99 64.4498 34.31C63.8698 34.63 63.2998 34.93 62.6698 35.21L62.7298 34C63.1998 34.31 63.7298 34.61 64.1498 34.94C64.5698 35.27 65.0698 35.61 65.4798 36.01L66.1198 36.58L66.7098 37.21C67.0945 37.6362 67.455 38.0836 67.7898 38.55C68.1195 39.0123 68.4168 39.4968 68.6798 40C68.9463 40.5107 69.1704 41.0425 69.3498 41.59L69.6098 42.42L69.7898 43.26C69.9012 43.8343 69.9714 44.4157 69.9998 45C70.0649 47.2657 69.6703 49.521 68.8398 51.63C68.4434 52.6613 67.9756 53.6638 67.4398 54.63C66.9119 55.6119 66.3137 56.5544 65.6498 57.45L65.3498 57.05L65.9998 56.9C66.2265 56.8357 66.4569 56.7856 66.6898 56.75C67.1398 56.65 67.5998 56.62 68.0598 56.56C68.9788 56.5001 69.9008 56.5001 70.8198 56.56C72.6562 56.6491 74.4806 56.9069 76.2698 57.33Z" fill="white"/>
</g>
<defs>
<filter id="filter0_d_426_3368" x="0" y="0" width="395.78" height="364.64" filterUnits="userSpaceOnUse" color-interpolation-filters="sRGB">
<feFlood flood-opacity="0" result="BackgroundImageFix"/>
<feColorMatrix in="SourceAlpha" type="matrix" values="0 0 0 0 0 0 0 0 0 0 0 0 0 0 0 0 0 0 127 0" result="hardAlpha"/>
<feOffset dy="4"/>
<feGaussianBlur stdDeviation="2"/>
<feComposite in2="hardAlpha" operator="out"/>
<feColorMatrix type="matrix" values="0 0 0 0 0 0 0 0 0 0 0 0 0 0 0 0 0 0 0.25 0"/>
<feBlend mode="normal" in2="BackgroundImageFix" result="effect1_dropShadow_426_3368"/>
<feBlend mode="normal" in="SourceGraphic" in2="effect1_dropShadow_426_3368" result="shape"/>
</filter>
</defs>
</svg>
